<svg width="54" height="60" viewBox="0 0 54 60" fill="none" xmlns="http://www.w3.org/2000/svg">
<path d="M29.3998 3.40002C22.9381 3.40002 17.6998 8.63829 17.6998 15.1C17.6998 21.5618 22.9381 26.8 29.3998 26.8C35.8615 26.8 41.0998 21.5618 41.0998 15.1C41.0998 8.63829 35.8615 3.40002 29.3998 3.40002ZM14.6998 15.1C14.6998 6.98144 21.2812 0.400024 29.3998 0.400024C37.5184 0.400024 44.0998 6.98144 44.0998 15.1C44.0998 23.2186 37.5184 29.8 29.3998 29.8C21.2812 29.8 14.6998 23.2186 14.6998 15.1Z" fill="black"/>
<path d="M0.299805 15.1C0.299805 14.2716 0.971378 13.6 1.7998 13.6H29.3998C30.2282 13.6 30.8998 14.2716 30.8998 15.1C30.8998 15.9285 30.2282 16.6 29.3998 16.6H1.7998C0.971378 16.6 0.299805 15.9285 0.299805 15.1Z" fill="black"/>
<path d="M41.0998 15.1C41.0998 14.2716 41.7714 13.6 42.5998 13.6H52.1998C53.0282 13.6 53.6998 14.2716 53.6998 15.1C53.6998 15.9285 53.0282 16.6 52.1998 16.6H42.5998C41.7714 16.6 41.0998 15.9285 41.0998 15.1Z" fill="black"/>
<path d="M7.8998 26.3C7.8998 25.4716 8.57138 24.8 9.3998 24.8H22.4998C23.3282 24.8 23.9998 25.4716 23.9998 26.3C23.9998 27.1285 23.3282 27.8 22.4998 27.8H10.8998V56.6H46.5998V27.8H36.3998C35.5714 27.8 34.8998 27.1285 34.8998 26.3C34.8998 25.4716 35.5714 24.8 36.3998 24.8H48.0998C48.9282 24.8 49.5998 25.4716 49.5998 26.3V58.1C49.5998 58.9284 48.9282 59.6 48.0998 59.6H9.3998C8.57138 59.6 7.8998 58.9284 7.8998 58.1V26.3Z" fill="black"/>
<path d="M16.0998 46.1C16.0998 45.2716 16.7714 44.6 17.5998 44.6H39.7998C40.6282 44.6 41.2998 45.2716 41.2998 46.1C41.2998 46.9284 40.6282 47.6 39.7998 47.6H17.5998C16.7714 47.6 16.0998 46.9284 16.0998 46.1Z" fill="black"/>
</svg>
