<svg width="27" height="15" viewBox="0 0 27 15" fill="none" xmlns="http://www.w3.org/2000/svg">
<path d="M24.408 1.25096e-06C23.0787 -0.00135291 21.9973 1.09687 22 2.44561L22.0053 5.48027C22.0053 5.68746 22.1707 5.85537 22.376 5.85537C22.5787 5.85537 22.7427 5.68881 22.7427 5.48163L22.7373 2.44696C22.736 1.50989 23.4867 0.74885 24.4093 0.74885C25.332 0.750204 26.0867 1.5153 26.088 2.45238L26.0933 6.46068C26.0947 6.91297 25.9213 7.34088 25.604 7.66182C25.2893 7.98275 24.8693 8.15744 24.4213 8.15744C24.2173 8.15744 24.052 8.324 24.0533 8.53254C24.0533 8.73837 24.2187 8.90629 24.4227 8.90629C25.0667 8.90764 25.672 8.65442 26.1267 8.19129C26.5827 7.72953 26.8307 7.11474 26.8293 6.46068L26.824 2.45373C26.8227 1.10364 25.7387 0.00270956 24.408 1.25096e-06Z" fill="black"/>
<path d="M26.0867 9.58883C26.0867 9.383 26.252 9.21644 26.4547 9.21644C26.6587 9.21644 26.824 9.38436 26.824 9.59019L26.8293 12.5544C26.8307 13.2085 26.58 13.8233 26.124 14.2864C25.6707 14.7482 25.064 15.0014 24.4213 15C23.0907 14.9973 22.0067 13.8978 22.004 12.5477L22 8.54072C21.9973 7.19062 23.0773 6.0924 24.4067 6.09376C24.612 6.09511 24.776 6.26167 24.776 6.46886C24.7773 6.67604 24.612 6.84396 24.408 6.84261C23.4853 6.84125 22.7347 7.60364 22.736 8.54207L22.7427 12.549C22.744 13.4847 23.4973 14.2485 24.42 14.2512C24.8667 14.2526 25.2867 14.0752 25.6027 13.7556C25.9187 13.4346 26.092 13.0067 26.092 12.5531L26.0867 9.58883Z" fill="black"/>
<path d="M20.3 0.7V14.3H3.7V0.7H20.3ZM3 0V15H21V0H3Z" fill="black"/>
<path d="M12 4H19V10H12V4Z" fill="black"/>
<path d="M9.0201 4.52513C8.88342 4.38844 8.66181 4.38844 8.52513 4.52513C8.38844 4.66181 8.38844 4.88342 8.52513 5.0201L10.155 6.65H0V7.35H10.155L8.52513 8.9799C8.38844 9.11658 8.38844 9.33819 8.52513 9.47487C8.66181 9.61156 8.88342 9.61156 9.0201 9.47487L11.2475 7.24749C11.3842 7.1108 11.3842 6.8892 11.2475 6.75251L9.0201 4.52513Z" fill="black"/>
<path fill-rule="evenodd" clip-rule="evenodd" d="M11.2475 7.24749C11.3842 7.1108 11.3842 6.8892 11.2475 6.75251L9.0201 4.52513C8.88342 4.38844 8.66181 4.38844 8.52513 4.52513C8.38844 4.66181 8.38844 4.88342 8.52513 5.0201L10.155 6.65H0V7.35H10.155L8.52513 8.9799C8.38844 9.11658 8.38844 9.33819 8.52513 9.47487C8.66181 9.61156 8.88342 9.61156 9.0201 9.47487L11.2475 7.24749Z" fill="black"/>
</svg>
