<svg width="60" height="34" viewBox="0 0 60 34" fill="none" xmlns="http://www.w3.org/2000/svg">
<path d="M32.7001 3.90015C25.4652 3.90015 19.6001 9.76522 19.6001 17.0001C19.6001 24.2351 25.4652 30.1001 32.7001 30.1001C39.935 30.1001 45.8001 24.2351 45.8001 17.0001C45.8001 9.76522 39.935 3.90015 32.7001 3.90015ZM16.6001 17.0001C16.6001 8.10836 23.8083 0.900146 32.7001 0.900146C41.5919 0.900146 48.8001 8.10836 48.8001 17.0001C48.8001 25.8919 41.5919 33.1001 32.7001 33.1001C23.8083 33.1001 16.6001 25.8919 16.6001 17.0001Z" fill="black"/>
<path d="M0.600098 17.0001C0.600098 16.1717 1.27167 15.5001 2.1001 15.5001H32.7001C33.5285 15.5001 34.2001 16.1717 34.2001 17.0001C34.2001 17.8286 33.5285 18.5001 32.7001 18.5001H2.1001C1.27167 18.5001 0.600098 17.8286 0.600098 17.0001Z" fill="black"/>
<path d="M45.9001 17.0001C45.9001 16.1717 46.5717 15.5001 47.4001 15.5001H57.9001C58.7285 15.5001 59.4001 16.1717 59.4001 17.0001C59.4001 17.8286 58.7285 18.5001 57.9001 18.5001H47.4001C46.5717 18.5001 45.9001 17.8286 45.9001 17.0001Z" fill="black"/>
</svg>
