<!--
 ~ Copyright (c) 2025, WSO2 LLC. (https://www.wso2.com) All Rights Reserved.
 ~
 ~ WSO2 LLC. licenses this file to you under the Apache License,
 ~ Version 2.0 (the "License"); you may not use this file except
 ~ in compliance with the License.
 ~ You may obtain a copy of the License at
 ~
 ~     http://www.apache.org/licenses/LICENSE-2.0
 ~
 ~ Unless required by applicable law or agreed to in writing,
 ~ software distributed under the License is distributed on an
 ~ "AS IS" BASIS, WITHOUT WARRANTIES OR CONDITIONS OF ANY
 ~ KIND, either express or implied. See the License for the
 ~ specific language governing permissions and limitations
 ~ under the License.
-->
<svg width="15" height="14" viewBox="0 0 15 14" fill="none" xmlns="http://www.w3.org/2000/svg">
<path d="M0.300049 0.9C0.300049 0.679086 0.479135 0.5 0.700049 0.5H3.30005C4.33252 0.5 5.37967 1.06897 5.85587 2.01723L6.85402 3.9137C6.85813 3.92152 6.86199 3.92947 6.86557 3.93754C7.19468 4.67804 7.94097 5.1 8.70005 5.1H9.20005C9.42096 5.1 9.60005 5.27909 9.60005 5.5C9.60005 5.72091 9.42096 5.9 9.20005 5.9H8.70005C7.66325 5.9 6.61376 5.32653 6.14015 4.27502L5.1422 2.37892C4.8175 1.72952 4.06617 1.3 3.30005 1.3H0.700049C0.479135 1.3 0.300049 1.12091 0.300049 0.9Z" fill="black"/>
<path d="M0.300049 3.2C0.300049 2.97909 0.479135 2.8 0.700049 2.8H3.90005C4.12096 2.8 4.30005 2.97909 4.30005 3.2C4.30005 3.42091 4.12096 3.6 3.90005 3.6H0.700049C0.479135 3.6 0.300049 3.42091 0.300049 3.2Z" fill="black"/>
<path d="M0.300049 8.5C0.300049 8.27909 0.479135 8.1 0.700049 8.1H3.90005C4.12096 8.1 4.30005 8.27909 4.30005 8.5C4.30005 8.72091 4.12096 8.9 3.90005 8.9H0.700049C0.479135 8.9 0.300049 8.72091 0.300049 8.5Z" fill="black"/>
<path d="M0.300049 11.1C0.300049 10.8791 0.479135 10.7 0.700049 10.7H3.90005C4.12096 10.7 4.30005 10.8791 4.30005 11.1C4.30005 11.3209 4.12096 11.5 3.90005 11.5H0.700049C0.479135 11.5 0.300049 11.3209 0.300049 11.1Z" fill="black"/>
<path d="M8.70005 9.3C7.96352 9.3 7.19559 9.80335 6.85782 10.4789L6.85409 10.4863L5.85588 12.3828C5.3927 13.3053 4.36204 14 3.30005 14H0.700049C0.479135 14 0.300049 13.8209 0.300049 13.6C0.300049 13.3791 0.479135 13.2 0.700049 13.2H3.30005C4.03657 13.2 4.80451 12.6966 5.14228 12.0211L5.14601 12.0137L6.14422 10.1172C6.6074 9.1947 7.63806 8.5 8.70005 8.5H9.20005C9.42096 8.5 9.60005 8.67909 9.60005 8.9C9.60005 9.12091 9.42096 9.3 9.20005 9.3H8.70005Z" fill="black"/>
<path d="M5.30005 7.2C5.30005 7.42091 5.47913 7.6 5.70005 7.6H13.2C13.421 7.6 13.6 7.42091 13.6 7.2C13.6 6.97909 13.421 6.8 13.2 6.8H5.70005C5.47913 6.8 5.30005 6.97909 5.30005 7.2Z" fill="black"/>
<path d="M11.9172 5.01716C12.0734 4.86095 12.3267 4.86095 12.4829 5.01716L14.4829 7.01716C14.5605 7.09475 14.6028 7.20082 14.5999 7.31052C14.597 7.42021 14.5492 7.52391 14.4676 7.59732L12.4676 9.39732C12.3034 9.5451 12.0505 9.53179 11.9027 9.36759C11.7549 9.20338 11.7683 8.95047 11.9325 8.80268L13.6191 7.28472L11.9172 5.58284C11.761 5.42663 11.761 5.17337 11.9172 5.01716Z" fill="black"/>
<path d="M0.300049 5.8C0.300049 5.57909 0.479135 5.4 0.700049 5.4H3.90005C4.12096 5.4 4.30005 5.57909 4.30005 5.8C4.30005 6.02091 4.12096 6.2 3.90005 6.2H0.700049C0.479135 6.2 0.300049 6.02091 0.300049 5.8Z" fill="black"/>
</svg>
