<!--
 ~ Copyright (c) 2025, WSO2 LLC. (https://www.wso2.com) All Rights Reserved.
 ~
 ~ WSO2 LLC. licenses this file to you under the Apache License,
 ~ Version 2.0 (the "License"); you may not use this file except
 ~ in compliance with the License.
 ~ You may obtain a copy of the License at
 ~
 ~     http://www.apache.org/licenses/LICENSE-2.0
 ~
 ~ Unless required by applicable law or agreed to in writing,
 ~ software distributed under the License is distributed on an
 ~ "AS IS" BASIS, WITHOUT WARRANTIES OR CONDITIONS OF ANY
 ~ KIND, either express or implied. See the License for the
 ~ specific language governing permissions and limitations
 ~ under the License.
-->
<svg width="15" height="14" viewBox="0 0 15 14" fill="none" xmlns="http://www.w3.org/2000/svg">
<path d="M9.06195 0.95237L8.65364 1.68734C8.61248 1.76821 8.53064 1.90697 8.379 1.98279C8.28473 2.02993 8.17052 2.04868 8.0531 2.01933C8.03191 2.01403 8.0119 2.00749 7.99303 2.00002H7.50012C7.34243 2.00002 7.14299 2.02662 6.89713 2.08808C6.8654 2.09601 6.83282 2.10002 6.80012 2.10002C6.58995 2.10002 6.42754 1.99313 6.31728 1.88286C6.29099 1.85658 6.2685 1.82677 6.25045 1.79428L5.83125 1.03972L4.91252 1.32241L5.09235 2.22158C5.09752 2.2474 5.10012 2.27368 5.10012 2.30002C5.10012 2.51019 4.99323 2.6726 4.88296 2.78286C4.87252 2.7933 4.86152 2.80315 4.85 2.81237C4.53973 3.06058 4.26068 3.33963 4.01247 3.6499C3.93656 3.74479 3.82163 3.80002 3.70012 3.80002H3.5009C3.45001 3.80002 3.39881 3.79031 3.35156 3.77141L2.48496 3.42477L1.99809 4.3985L2.64012 4.88002C2.65526 4.89138 2.66958 4.90379 2.68296 4.91718C2.79323 5.02744 2.90012 5.18985 2.90012 5.40002C2.90012 5.44301 2.89319 5.48573 2.87959 5.52651C2.76122 5.88162 2.70012 6.27179 2.70012 6.70002C2.70012 6.91019 2.59323 7.0726 2.48296 7.18286C2.43615 7.22967 2.37846 7.26413 2.31506 7.28315L1.52149 7.52122L1.66132 8.50002H2.60012C2.69511 8.50002 2.83982 8.52404 2.95796 8.64218C3.03254 8.71676 3.06961 8.80194 3.08681 8.8785C3.26823 9.23543 3.47797 9.59371 3.71643 9.95332C3.78382 10.0319 3.85012 10.1484 3.85012 10.3C3.85012 10.4482 3.78677 10.5628 3.72098 10.6414L3.33635 11.2568L4.14649 11.9049L4.72978 11.4049C4.83968 11.2991 4.99776 11.2 5.20012 11.2C5.26222 11.2 5.32346 11.2145 5.379 11.2423C5.74463 11.4251 6.14233 11.5795 6.57294 11.7047C6.66053 11.7161 6.7671 11.7513 6.85796 11.8422C6.95644 11.9407 6.98952 12.0576 6.9978 12.1488L7.14804 12.9H8.1522L8.30213 12.1504C8.31729 11.9641 8.41586 11.8186 8.51728 11.7172C8.57847 11.656 8.65787 11.6163 8.74355 11.604C9.14989 11.546 9.52692 11.4014 9.87824 11.1672C9.94394 11.1234 10.0211 11.1 10.1001 11.1C10.3025 11.1 10.4606 11.1991 10.5705 11.3049L11.1473 11.7994L11.9213 11.1028L11.4673 10.4219C11.4235 10.3562 11.4001 10.279 11.4001 10.2C11.4001 10.0014 11.4956 9.84548 11.5991 9.73588C11.8229 9.4519 11.9968 9.10577 12.1155 8.69013C12.1342 8.62477 12.1692 8.56525 12.2173 8.51718C12.3275 8.40692 12.4899 8.30002 12.7001 8.30002H13.5389L13.6787 7.32122L12.8852 7.08315C12.8218 7.06413 12.7641 7.02967 12.7173 6.98286L12.7157 6.9813C12.7129 6.97852 12.7177 6.9833 12.7149 6.98052L12.6532 6.9188C12.6504 6.91602 12.6552 6.9208 12.6524 6.91802L12.5196 6.78521C12.5175 6.78312 12.5209 6.78651 12.5188 6.78443L12.5173 6.78286C12.4423 6.70785 12.4001 6.60611 12.4001 6.50002C12.4001 6.09768 12.3462 5.72893 12.2415 5.3913C12.1912 5.31683 12.1501 5.21929 12.1501 5.10002C12.1501 4.92318 12.2403 4.79411 12.3173 4.71718C12.3307 4.70379 12.345 4.69138 12.3601 4.68002L13.0664 4.15032L12.5734 3.30519L11.7626 3.66555C11.7114 3.68828 11.6561 3.70002 11.6001 3.70002C11.513 3.70002 11.3882 3.69125 11.2712 3.63279C11.2071 3.60073 11.135 3.54845 11.0798 3.46565C11.0697 3.45057 11.0607 3.43522 11.0528 3.4197C10.766 3.1448 10.4555 2.92494 10.1212 2.75779C10.0828 2.73857 10.0477 2.71326 10.0173 2.68286C9.94034 2.60593 9.85012 2.47686 9.85012 2.30002C9.85012 2.19373 9.88271 2.1047 9.92543 2.03387L10.0646 1.338L9.06195 0.95237ZM14.0001 7.00002C14.283 6.71718 14.2831 6.71732 14.2831 6.71732L14.2841 6.71837L14.2855 6.71974L14.2887 6.723L14.2968 6.73159C14.303 6.73819 14.3107 6.7467 14.3194 6.75689C14.3366 6.77687 14.3595 6.80542 14.3829 6.84064C14.4212 6.89806 14.5001 7.02979 14.5001 7.20002C14.5001 7.21895 14.4988 7.23785 14.4961 7.25659L14.2961 8.65659C14.2839 8.74227 14.2442 8.82167 14.183 8.88286L14.1788 8.88704C14.1576 8.90826 14.132 8.93382 14.1083 8.95515C14.0822 8.97867 14.0386 9.0155 13.979 9.04529C13.8618 9.10387 13.7403 9.10095 13.7067 9.10014C13.7038 9.10007 13.7001 9.10002 13.7001 9.10002H12.8259C12.6916 9.50252 12.5063 9.86375 12.2672 10.1796L12.7329 10.8781C12.7767 10.9438 12.8001 11.0211 12.8001 11.1L12.4001 11.1C12.8001 11.1 12.8001 11.1 12.8001 11.1L12.8001 11.1016L12.8001 11.1032L12.8001 11.1067L12.7999 11.1141C12.7997 11.1193 12.7994 11.1249 12.799 11.1311C12.7982 11.1435 12.7968 11.1578 12.7945 11.1738C12.79 11.2057 12.7818 11.245 12.7671 11.289C12.7373 11.3784 12.6818 11.484 12.583 11.5829C12.578 11.5878 12.5729 11.5926 12.5677 11.5973L11.5741 12.4915C11.4803 12.5825 11.3377 12.675 11.1501 12.675C10.9653 12.675 10.8241 12.5851 10.7302 12.4955L10.1102 11.9641C9.78528 12.1506 9.4403 12.2821 9.07653 12.3576L8.89984 13.241C8.89942 13.2595 8.89842 13.2812 8.89611 13.302C8.89183 13.3405 8.87584 13.465 8.77046 13.5704C8.66508 13.6757 8.54058 13.6917 8.5021 13.696C8.46436 13.7002 8.42337 13.7001 8.40486 13.7L8.40012 13.7H7.00012C6.998 13.7 6.99531 13.7 6.99208 13.7001C6.95364 13.7005 6.83993 13.7016 6.73613 13.667C6.66844 13.6444 6.57544 13.5984 6.50156 13.5034C6.43888 13.4228 6.41084 13.3339 6.40273 13.2527L6.24026 12.4404C5.87825 12.33 5.53424 12.1993 5.20864 12.0481L4.57004 12.5955C4.47618 12.6851 4.33493 12.775 4.15012 12.775C3.96908 12.775 3.82985 12.6888 3.73601 12.601L2.75024 11.8124C2.73872 11.8032 2.72771 11.7933 2.71727 11.7829C2.49943 11.565 2.49989 11.3206 2.50011 11.2096C2.50011 11.2063 2.50012 11.2031 2.50012 11.2C2.50012 11.1251 2.52119 11.0516 2.56092 10.988L2.98902 10.3031C2.77213 9.96972 2.57699 9.63538 2.40388 9.30002H1.50012C1.498 9.30002 1.49531 9.30005 1.49208 9.30008C1.45364 9.30046 1.33993 9.3016 1.23613 9.267C1.16844 9.24443 1.07544 9.19839 1.00156 9.10341C0.93504 9.01788 0.907532 8.92303 0.901461 8.83786L0.704138 7.45659C0.701461 7.43785 0.700118 7.41895 0.700118 7.40002C0.700118 7.39791 0.700091 7.39521 0.700059 7.39198C0.699676 7.35354 0.698543 7.23983 0.733144 7.13603C0.755707 7.06834 0.801749 6.97534 0.896729 6.90147C0.969069 6.8452 1.04808 6.81685 1.12226 6.80577L1.90168 6.57194C1.91133 6.17963 1.9656 5.80506 2.06635 5.4497L1.36012 4.92002C1.34498 4.90866 1.33066 4.89625 1.31728 4.88286C1.22368 4.78927 1.12512 4.64352 1.12512 4.45002C1.12512 4.29193 1.19091 4.16571 1.26603 4.07377L1.84235 2.92114C1.86157 2.88268 1.88687 2.84758 1.91728 2.81718C2.13512 2.59933 2.37953 2.5998 2.49052 2.60001C2.49384 2.60002 2.49704 2.60002 2.50012 2.60002C2.55101 2.60002 2.60143 2.60973 2.64867 2.62863L3.52845 2.98054C3.75795 2.71369 4.00885 2.46808 4.28097 2.24391L4.10789 1.37847C4.10272 1.35264 4.10012 1.32636 4.10012 1.30002C4.10012 1.29694 4.10011 1.29374 4.10011 1.29042C4.09989 1.17943 4.09943 0.935023 4.31728 0.717179C4.36341 0.671045 4.42013 0.636897 4.48248 0.61771L5.71526 0.238393C5.77316 0.201647 5.84181 0.173423 5.92069 0.162905C6.05221 0.145369 6.17043 0.182825 6.2595 0.242202C6.37922 0.322019 6.45321 0.442493 6.48381 0.567025L6.87558 1.27221C7.09802 1.22548 7.30698 1.20002 7.50012 1.20002H8.00871L8.45046 0.405764C8.4685 0.373275 8.49099 0.34346 8.51728 0.317179L8.52146 0.312989C8.54267 0.291777 8.56821 0.26622 8.59191 0.244892C8.61804 0.221371 8.66164 0.18455 8.72123 0.154751C8.83839 0.0961721 8.95996 0.0990934 8.99356 0.0999006C8.99639 0.0999686 9.00012 0.100022 9.00012 0.100022C9.04921 0.100022 9.09789 0.109059 9.14371 0.126683L10.3957 0.608216C10.5322 0.631825 10.644 0.703212 10.7205 0.779679C10.8141 0.873318 10.9001 1.01993 10.9001 1.20002C10.9001 1.22636 10.8975 1.25264 10.8923 1.27847L10.7143 2.16889C11.0384 2.35617 11.3399 2.58498 11.6187 2.85404L12.2889 2.55616C12.3507 2.51174 12.4219 2.47958 12.5014 2.46469C12.606 2.44507 12.6946 2.46132 12.7471 2.47446C12.7738 2.48114 12.7972 2.48864 12.8123 2.49359C12.8213 2.49654 12.8268 2.49839 12.831 2.49979C12.8332 2.50051 12.8367 2.5017 12.8367 2.5017C12.9647 2.51344 13.0801 2.58621 13.1456 2.69847L13.8456 3.89847C13.8813 3.95965 13.9001 4.0292 13.9001 4.10002C13.9001 4.1031 13.9001 4.1063 13.9001 4.10962C13.9003 4.22061 13.9008 4.46502 13.683 4.68286C13.6696 4.69625 13.6553 4.70866 13.6401 4.72002L13.0159 5.18817C13.1246 5.54964 13.1844 5.9313 13.1974 6.33162L13.2111 6.3453L14.1151 6.61689C14.1785 6.63591 14.2363 6.67051 14.2831 6.71732L14.0001 7.00002ZM12.8495 2.50561L12.8471 2.50498ZM10.4094 4.54619C9.16442 2.96956 6.81532 2.75795 5.25299 3.98549C5.24852 3.98901 5.24412 3.99262 5.2398 3.99632C3.68221 5.3314 3.44652 7.57856 4.79089 9.15387C6.02131 10.7123 8.37145 11.0593 9.95395 9.70927C11.53 8.46481 11.745 6.11164 10.4094 4.54619ZM5.75394 4.60931C6.98936 3.64451 8.83089 3.83208 9.78559 5.04715C9.7891 5.05162 9.79271 5.05602 9.79642 5.06034C10.8527 6.29269 10.6687 8.13028 9.45299 9.08549C9.44852 9.08901 9.44412 9.09262 9.4398 9.09632C8.22463 10.1379 6.384 9.88662 5.41465 8.65289C5.41113 8.64842 5.40752 8.64402 5.40382 8.6397C4.35619 7.41747 4.51958 5.67293 5.75394 4.60931Z" fill="black"/>
<path d="M7.60012 5.80002C7.02103 5.80002 6.50012 6.32094 6.50012 6.90002C6.50012 7.47911 7.02103 8.00002 7.60012 8.00002C8.1792 8.00002 8.70012 7.47911 8.70012 6.90002C8.70012 6.32094 8.1792 5.80002 7.60012 5.80002ZM5.70012 6.90002C5.70012 5.87911 6.5792 5.00002 7.60012 5.00002C8.62103 5.00002 9.50012 5.87911 9.50012 6.90002C9.50012 7.92094 8.62103 8.80002 7.60012 8.80002C6.5792 8.80002 5.70012 7.92094 5.70012 6.90002Z" fill="black"/>
</svg>
