<!--
 ~ Copyright (c) 2025, WSO2 LLC. (https://www.wso2.com) All Rights Reserved.
 ~
 ~ WSO2 LLC. licenses this file to you under the Apache License,
 ~ Version 2.0 (the "License"); you may not use this file except
 ~ in compliance with the License.
 ~ You may obtain a copy of the License at
 ~
 ~     http://www.apache.org/licenses/LICENSE-2.0
 ~
 ~ Unless required by applicable law or agreed to in writing,
 ~ software distributed under the License is distributed on an
 ~ "AS IS" BASIS, WITHOUT WARRANTIES OR CONDITIONS OF ANY
 ~ KIND, either express or implied. See the License for the
 ~ specific language governing permissions and limitations
 ~ under the License.
-->
<svg width="15" height="16" viewBox="0 0 15 16" fill="none" xmlns="http://www.w3.org/2000/svg">
<path d="M1.7 8.79995C1.7 8.57904 1.87909 8.39995 2.1 8.39995H3.9C4.12091 8.39995 4.3 8.57904 4.3 8.79995V13C4.3 13.2209 4.12091 13.4 3.9 13.4H2.1C1.87909 13.4 1.7 13.2209 1.7 13V8.79995ZM2.5 9.19995V12.6H3.5V9.19995H2.5Z" fill="#212A32"/>
<path d="M4.7 5.49995C4.7 5.27904 4.87909 5.09995 5.1 5.09995H6.9C7.12091 5.09995 7.3 5.27904 7.3 5.49995V13C7.3 13.2209 7.12091 13.4 6.9 13.4H5.1C4.87909 13.4 4.7 13.2209 4.7 13V5.49995ZM5.5 5.89995V12.6H6.5V5.89995H5.5Z" fill="#212A32"/>
<path d="M7.7 7.59995C7.7 7.37904 7.87909 7.19995 8.1 7.19995H9.9C10.1209 7.19995 10.3 7.37904 10.3 7.59995V13C10.3 13.2209 10.1209 13.4 9.9 13.4H8.1C7.87909 13.4 7.7 13.2209 7.7 13V7.59995ZM8.5 7.99995V12.6H9.5V7.99995H8.5Z" fill="#212A32"/>
<path d="M0.4 1.19995C0.620914 1.19995 0.8 1.37904 0.8 1.59995V14.3H14.2C14.4209 14.3 14.6 14.479 14.6 14.7C14.6 14.9209 14.4209 15.0999 14.2 15.0999H0.4C0.179086 15.0999 0 14.9209 0 14.7V1.59995C0 1.37904 0.179086 1.19995 0.4 1.19995Z" fill="#212A32"/>
<path d="M12.3828 0.817108C12.5391 0.973318 12.5391 1.22658 12.3828 1.38279L9.28284 4.48279C9.15529 4.61034 8.95816 4.63674 8.80154 4.54725L6.26273 3.0965L3.07859 6.18698C2.92007 6.34084 2.66683 6.33707 2.51297 6.17854C2.35911 6.02002 2.36289 5.76678 2.52141 5.61292L5.92141 2.31292C6.04926 2.18883 6.24376 2.16426 6.39846 2.25265L8.93319 3.70107L11.8172 0.817108C11.9734 0.660899 12.2266 0.660899 12.3828 0.817108Z" fill="#212A32"/>
<path d="M10.7 4.09995C10.7 3.87904 10.8791 3.69995 11.1 3.69995H12.9C13.1209 3.69995 13.3 3.87904 13.3 4.09995V13C13.3 13.2209 13.1209 13.4 12.9 13.4H11.1C10.8791 13.4 10.7 13.2209 10.7 13V4.09995ZM11.5 4.49995V12.6H12.5V4.49995H11.5Z" fill="#212A32"/>
</svg>
