<!--
 ~ Copyright (c) 2025, WSO2 LLC. (https://www.wso2.com) All Rights Reserved.
 ~
 ~ WSO2 LLC. licenses this file to you under the Apache License,
 ~ Version 2.0 (the "License"); you may not use this file except
 ~ in compliance with the License.
 ~ You may obtain a copy of the License at
 ~
 ~     http://www.apache.org/licenses/LICENSE-2.0
 ~
 ~ Unless required by applicable law or agreed to in writing,
 ~ software distributed under the License is distributed on an
 ~ "AS IS" BASIS, WITHOUT WARRANTIES OR CONDITIONS OF ANY
 ~ KIND, either express or implied. See the License for the
 ~ specific language governing permissions and limitations
 ~ under the License.
-->
<svg width="16" height="17" viewBox="0 0 16 17" fill="none" xmlns="http://www.w3.org/2000/svg">
<path d="M0.399902 1.20005C0.399902 0.979135 0.578988 0.800049 0.799902 0.800049H14.8999C15.1208 0.800049 15.2999 0.979135 15.2999 1.20005V15.9C15.2999 16.121 15.1208 16.3 14.8999 16.3H0.799902C0.578988 16.3 0.399902 16.121 0.399902 15.9V1.20005ZM1.1999 1.60005V15.5H14.4999V1.60005H1.1999Z" fill="black"/>
<path d="M0.399902 10.8C0.399902 10.5791 0.578988 10.4 0.799902 10.4H14.8999C15.1208 10.4 15.2999 10.5791 15.2999 10.8C15.2999 11.021 15.1208 11.2 14.8999 11.2H0.799902C0.578988 11.2 0.399902 11.021 0.399902 10.8Z" fill="black"/>
<path d="M4.1999 12.1V14.5H5.2999C5.43324 14.5 5.53324 14.4667 5.5999 14.4C5.66657 14.3334 5.73324 14.3 5.7999 14.3C5.86657 14.2334 5.93324 14.1334 5.9999 14C5.9999 13.9334 5.9999 13.8667 5.9999 13.8C5.9999 13.6667 5.96657 13.5334 5.8999 13.4C5.83324 13.3334 5.73324 13.2667 5.5999 13.2C5.66657 13.1334 5.73324 13.0667 5.7999 13C5.86657 12.9334 5.8999 12.8334 5.8999 12.7C5.8999 12.5667 5.86657 12.4667 5.7999 12.4C5.7999 12.3334 5.73324 12.2667 5.5999 12.2C5.5999 12.2 5.56657 12.1667 5.4999 12.1C5.43324 12.1 5.3999 12.1 5.3999 12.1C5.33324 12.1 5.26657 12.1 5.1999 12.1C5.13324 12.1 5.06657 12.1 4.9999 12.1H4.1999ZM4.4999 13.1V12.3H5.0999C5.16657 12.3 5.23324 12.3 5.2999 12.3C5.36657 12.3667 5.43324 12.4 5.4999 12.4C5.4999 12.4 5.53324 12.4334 5.5999 12.5C5.5999 12.5667 5.5999 12.6334 5.5999 12.7C5.5999 12.8334 5.56657 12.9334 5.4999 13C5.43324 13.0667 5.2999 13.1 5.0999 13.1H4.4999ZM4.4999 14.2V13.4H5.1999C5.26657 13.4 5.33324 13.4 5.3999 13.4C5.46657 13.4 5.4999 13.4334 5.4999 13.5C5.56657 13.5 5.63324 13.5334 5.6999 13.6C5.6999 13.6667 5.6999 13.7334 5.6999 13.8C5.6999 13.9334 5.66657 14.0334 5.5999 14.1C5.53324 14.1667 5.43324 14.2 5.2999 14.2H4.4999Z" fill="black"/>
<path d="M7.8999 13.9C7.8999 14.1 7.83324 14.2667 7.6999 14.4C7.56657 14.4667 7.3999 14.5 7.1999 14.5C7.06657 14.5 6.96657 14.4667 6.8999 14.4C6.76657 14.4 6.66657 14.3334 6.5999 14.2C6.53324 14.1334 6.46657 14.0667 6.3999 14C6.3999 13.8667 6.3999 13.7334 6.3999 13.6C6.3999 13.4667 6.3999 13.3334 6.3999 13.2C6.46657 13.1334 6.53324 13.0667 6.5999 13C6.66657 12.8667 6.76657 12.8 6.8999 12.8C6.96657 12.7334 7.06657 12.7 7.1999 12.7C7.33324 12.7 7.46657 12.7334 7.5999 12.8C7.66657 12.8667 7.73324 12.9334 7.7999 13C7.86657 13.1334 7.8999 13.2667 7.8999 13.4C7.96657 13.4667 7.9999 13.5667 7.9999 13.7H6.6999C6.6999 13.7667 6.6999 13.8334 6.6999 13.9C6.6999 13.9667 6.73324 14.0334 6.7999 14.1C6.86657 14.1667 6.93324 14.2 6.9999 14.2C7.06657 14.2667 7.13324 14.3 7.1999 14.3C7.33324 14.3 7.43324 14.2667 7.4999 14.2C7.56657 14.1334 7.63324 14.0334 7.6999 13.9H7.8999ZM7.5999 13.4C7.5999 13.3334 7.56657 13.3 7.4999 13.3C7.4999 13.2334 7.46657 13.1667 7.3999 13.1C7.3999 13.0334 7.36657 13 7.2999 13C7.23324 13 7.16657 13 7.0999 13C7.03324 13 6.96657 13 6.8999 13C6.83324 13 6.76657 13.0334 6.6999 13.1C6.6999 13.1667 6.6999 13.2334 6.6999 13.3C6.63324 13.3 6.5999 13.3334 6.5999 13.4H7.5999Z" fill="black"/>
<path d="M9.8999 14.5C9.83324 14.5 9.7999 14.5 9.7999 14.5C9.73324 14.5 9.6999 14.5 9.6999 14.5C9.63324 14.5 9.56657 14.4667 9.4999 14.4C9.43324 14.4 9.3999 14.3334 9.3999 14.2C9.33324 14.3334 9.26657 14.4 9.1999 14.4C9.06657 14.4667 8.93324 14.5 8.7999 14.5C8.73324 14.5 8.66657 14.5 8.5999 14.5C8.53324 14.5 8.46657 14.4667 8.3999 14.4C8.3999 14.3334 8.36657 14.2667 8.2999 14.2C8.2999 14.2 8.2999 14.1334 8.2999 14C8.2999 13.9334 8.2999 13.8667 8.2999 13.8C8.36657 13.7334 8.3999 13.6667 8.3999 13.6C8.46657 13.6 8.53324 13.5667 8.5999 13.5C8.66657 13.5 8.73324 13.5 8.7999 13.5C8.93324 13.5 9.03324 13.5 9.0999 13.5C9.16657 13.5 9.1999 13.4667 9.1999 13.4C9.26657 13.4 9.33324 13.4 9.3999 13.4C9.3999 13.3334 9.3999 13.2667 9.3999 13.2C9.3999 13.2 9.3999 13.1667 9.3999 13.1C9.3999 13.0334 9.36657 13 9.2999 13C9.23324 13 9.1999 13 9.1999 13C9.13324 13 9.06657 13 8.9999 13C8.93324 13 8.83324 13 8.6999 13C8.63324 13.0667 8.5999 13.1667 8.5999 13.3H8.2999C8.2999 13.1667 8.33324 13.0667 8.3999 13C8.46657 12.9334 8.53324 12.8667 8.5999 12.8C8.66657 12.8 8.73324 12.7667 8.7999 12.7C8.86657 12.7 8.96657 12.7 9.0999 12.7C9.16657 12.7 9.23324 12.7 9.2999 12.7C9.36657 12.7 9.43324 12.7334 9.4999 12.8C9.56657 12.8 9.5999 12.8334 9.5999 12.9C9.66657 12.9667 9.6999 13.0667 9.6999 13.2V14.1C9.6999 14.1667 9.6999 14.2 9.6999 14.2C9.6999 14.2667 9.73324 14.3 9.7999 14.3C9.7999 14.3 9.83324 14.2667 9.8999 14.2V14.5ZM9.3999 13.7C9.3999 13.7 9.36657 13.7 9.2999 13.7C9.2999 13.7 9.26657 13.7 9.1999 13.7C9.13324 13.7 9.0999 13.7 9.0999 13.7C9.03324 13.7667 8.96657 13.8 8.8999 13.8C8.83324 13.8 8.7999 13.8 8.7999 13.8C8.73324 13.8 8.6999 13.8334 8.6999 13.9C8.63324 13.9 8.5999 13.9 8.5999 13.9C8.5999 13.9667 8.5999 14.0334 8.5999 14.1C8.5999 14.1 8.5999 14.1334 8.5999 14.2C8.5999 14.2 8.63324 14.2334 8.6999 14.3C8.6999 14.3 8.73324 14.3 8.7999 14.3C8.7999 14.3 8.83324 14.3 8.8999 14.3C8.96657 14.3 9.03324 14.3 9.0999 14.3C9.16657 14.3 9.23324 14.2667 9.2999 14.2C9.36657 14.1334 9.3999 14.1 9.3999 14.1C9.3999 14.0334 9.3999 13.9667 9.3999 13.9V13.7Z" fill="black"/>
<path d="M10.1999 12.8H10.4999V13C10.5666 12.9334 10.6332 12.8667 10.6999 12.8C10.8332 12.7334 10.9666 12.7 11.0999 12.7C11.1666 12.7 11.2332 12.7334 11.2999 12.8C11.4332 12.8 11.4999 12.8334 11.4999 12.9C11.5666 12.9667 11.5999 13.0334 11.5999 13.1C11.6666 13.1667 11.6999 13.2334 11.6999 13.3V14.5H11.3999V13.3C11.3999 13.1667 11.3666 13.1 11.2999 13.1C11.2332 13.0334 11.1332 13 10.9999 13C10.9332 13 10.8666 13 10.7999 13C10.7332 13 10.6666 13.0334 10.5999 13.1C10.5999 13.1667 10.5666 13.2334 10.4999 13.3C10.4999 13.3667 10.4999 13.4334 10.4999 13.5V14.5H10.1999V12.8Z" fill="black"/>
<path d="M7.0999 5.10005C7.0999 5.16672 7.0999 5.20005 7.0999 5.20005C7.0999 5.26672 7.13324 5.33338 7.1999 5.40005C7.1999 5.46672 7.1999 5.50005 7.1999 5.50005C7.26657 5.56672 7.2999 5.63338 7.2999 5.70005C7.2999 5.70005 7.2999 5.80005 7.1999 5.80005C7.06657 5.66672 6.96657 5.53338 6.8999 5.40005C6.83324 5.33338 6.7999 5.30005 6.7999 5.30005C6.7999 5.23338 6.76657 5.16672 6.6999 5.10005C6.76657 5.03338 6.76657 5.00005 6.6999 5.00005C6.6999 4.93338 6.6999 4.90005 6.6999 4.90005C6.6999 4.83338 6.6999 4.73338 6.6999 4.60005C6.6999 4.60005 6.6999 4.56672 6.6999 4.50005C6.76657 4.50005 6.76657 4.46672 6.6999 4.40005C6.76657 4.33338 6.7999 4.30005 6.7999 4.30005C6.9999 3.90005 7.3999 3.60005 7.7999 3.30005C8.0999 3.10005 8.2999 2.90005 8.4999 2.60005C8.83324 2.26672 8.9999 1.90005 8.9999 1.50005C9.0999 1.70005 9.0999 2.00005 8.9999 2.40005C8.7999 2.90005 8.3999 3.30005 7.8999 3.70005C7.5999 4.00005 7.1999 4.30005 7.0999 4.80005C6.96657 4.93338 6.96657 5.03338 7.0999 5.10005Z" fill="black"/>
<path d="M9.8999 10.2C8.8999 10.4 7.8999 10.5 6.8999 10.4C6.23324 10.4 5.53324 10.3334 4.7999 10.2C4.5999 10.2 4.3999 10.2 4.2999 10C4.3999 9.70005 4.6999 9.70005 4.9999 9.60005C4.9999 9.60005 4.9999 9.63338 4.9999 9.70005C4.8999 9.70005 4.8999 9.80005 4.8999 9.90005C5.3999 10.1 5.9999 10.1 6.4999 10.2C7.5999 10.3 8.7999 10.2 9.8999 10.1C9.8999 10.1667 9.8999 10.2 9.8999 10.2Z" fill="black"/>
<path d="M8.4999 6.40005C8.4999 6.33338 8.4999 6.26672 8.4999 6.20005C8.56657 6.13338 8.56657 6.10005 8.4999 6.10005C8.36657 5.90005 8.26657 5.73338 8.1999 5.60005C7.7999 5.00005 7.8999 4.60005 8.2999 4.10005C8.56657 3.83338 8.86657 3.66672 9.1999 3.60005C9.1999 3.60005 9.23324 3.60005 9.2999 3.60005C9.23324 3.66672 9.1999 3.70005 9.1999 3.70005C9.13324 3.70005 9.0999 3.73338 9.0999 3.80005C9.03324 3.80005 8.9999 3.80005 8.9999 3.80005C8.9999 3.86672 8.96657 3.90005 8.8999 3.90005C8.83324 3.96672 8.76657 4.06672 8.6999 4.20005C8.3999 4.50005 8.3999 4.80005 8.5999 5.10005C8.66657 5.23338 8.73324 5.33338 8.7999 5.40005C9.0999 5.90005 9.0999 6.10005 8.6999 6.50005C8.5999 6.50005 8.5999 6.40005 8.4999 6.40005Z" fill="black"/>
<path d="M6.1999 9.00005C6.1999 9.00005 6.1999 8.96671 6.1999 8.90005C6.26657 8.90005 6.33324 8.86672 6.3999 8.80005C7.1999 9.20005 7.9999 9.10005 8.8999 9.00005C9.03324 9.06672 9.16657 9.13338 9.2999 9.20005C8.5999 9.70005 6.5999 9.60005 6.1999 9.00005Z" fill="black"/>
<path d="M9.1999 7.90005C9.2999 8.00005 9.3999 8.00005 9.4999 8.20005C8.1999 8.40005 6.9999 8.60005 5.8999 8.10005C5.8999 7.90005 5.9999 7.80005 6.1999 7.70005C6.1999 8.00005 6.3999 8.00005 6.6999 8.10005C7.4999 8.20005 8.2999 8.10005 9.1999 7.90005Z" fill="black"/>
<path d="M9.4999 7.10005C8.0999 7.50005 6.5999 7.50005 5.0999 7.10005C5.2999 6.80005 5.5999 6.80005 5.8999 6.70005C5.8999 6.76672 5.8999 6.80005 5.8999 6.80005C5.83324 6.86672 5.7999 6.93338 5.7999 7.00005C5.7999 7.10005 5.9999 7.10005 6.0999 7.10005C7.0999 7.20005 8.0999 7.10005 8.9999 7.10005C9.1999 7.03338 9.3999 7.00005 9.5999 7.00005C9.5999 7.06672 9.56657 7.10005 9.4999 7.10005Z" fill="black"/>
<path d="M8.6999 10.9C8.16657 10.9667 7.66657 10.9667 7.1999 10.9C7.1999 10.9 7.1999 10.8667 7.1999 10.8C8.1999 10.8 9.1999 10.8 10.2999 10.5C10.4999 10.5 10.7332 10.4334 10.9999 10.3C11.0666 10.3667 11.0999 10.4 11.0999 10.4C10.3999 10.8 9.6999 10.8 8.9999 10.9C8.8999 10.9 8.6999 10.8 8.6999 10.9Z" fill="black"/>
<path d="M10.7999 6.50005C11.1332 6.56672 11.3332 6.73338 11.3999 7.00005C11.4999 7.30005 11.3999 7.50005 11.1999 7.70005C10.9999 7.90005 10.8999 8.00005 10.6999 8.10005C10.6999 8.03338 10.6999 7.96672 10.6999 7.90005C10.7666 7.83338 10.8332 7.73338 10.8999 7.60005C11.1999 7.30005 11.1999 7.00005 10.7999 6.60005C10.7999 6.60005 10.7999 6.56672 10.7999 6.50005Z" fill="black"/>
<path d="M7.1999 10.8C7.1999 10.8667 7.1999 10.9 7.1999 10.9C6.8999 11 6.5999 10.8 6.2999 10.8C6.2999 10.8 6.2999 10.7667 6.2999 10.7C6.63324 10.7667 6.93324 10.8 7.1999 10.8Z" fill="black"/>
<path d="M10.0999 10C10.3999 9.90005 10.5999 9.90005 10.8999 9.80005C10.6999 10 10.3999 10.1 10.0999 10.2C10.0999 10.1334 10.0999 10.0667 10.0999 10Z" fill="black"/>
<path d="M7.1999 5.80005C7.2999 5.80005 7.2999 5.70005 7.2999 5.70005C7.43324 5.83338 7.53324 5.96672 7.5999 6.10005C7.5999 6.16672 7.5999 6.20005 7.5999 6.20005C7.46657 6.13338 7.33324 6.00005 7.1999 5.80005Z" fill="black"/>
<path d="M10.6999 7.90005C10.6999 7.96672 10.6999 8.03338 10.6999 8.10005C10.5999 8.10005 10.4999 8.20005 10.3999 8.20005C10.3999 8.20005 10.3999 8.16672 10.3999 8.10005C10.4666 8.03338 10.5666 7.96672 10.6999 7.90005Z" fill="black"/>
<path d="M10.7999 6.50005C10.7999 6.56672 10.7999 6.60005 10.7999 6.60005C10.7332 6.60005 10.6332 6.60005 10.4999 6.60005C10.4999 6.53338 10.4999 6.50005 10.4999 6.50005C10.5999 6.50005 10.6999 6.40005 10.7999 6.50005Z" fill="black"/>
<path d="M9.2999 3.60005C9.23324 3.60005 9.1999 3.60005 9.1999 3.60005C9.33324 3.53338 9.43324 3.46672 9.4999 3.40005C9.4999 3.40005 9.4999 3.43338 9.4999 3.50005C9.43324 3.56672 9.36657 3.60005 9.2999 3.60005Z" fill="black"/>
<path d="M6.2999 10.7C6.2999 10.7667 6.2999 10.8 6.2999 10.8C6.16657 10.8 6.03324 10.8 5.8999 10.8C5.8999 10.7334 5.8999 10.7 5.8999 10.7C6.03324 10.7 6.16657 10.7 6.2999 10.7Z" fill="black"/>
<path d="M11.0999 10.4C11.0999 10.4 11.0666 10.3667 10.9999 10.3C11.0666 10.3 11.1666 10.2667 11.2999 10.2C11.2999 10.2 11.2999 10.2334 11.2999 10.3C11.2999 10.3667 11.2332 10.4 11.0999 10.4Z" fill="black"/>
<path d="M4.9999 9.70005C4.9999 9.63338 4.9999 9.60005 4.9999 9.60005C5.06657 9.53338 5.13324 9.50005 5.1999 9.50005C5.1999 9.56672 5.1999 9.60005 5.1999 9.60005C5.13324 9.66672 5.06657 9.70005 4.9999 9.70005Z" fill="black"/>
<path d="M8.9999 10.9C8.8999 10.9 8.6999 10.8 8.6999 10.9C8.76657 10.9667 8.86657 10.9667 8.9999 10.9Z" fill="black"/>
<path d="M5.3999 9.50005C5.46657 9.43338 5.53324 9.43338 5.5999 9.50005C5.5999 9.60005 5.4999 9.50005 5.3999 9.60005C5.3999 9.53338 5.3999 9.50005 5.3999 9.50005Z" fill="black"/>
<path d="M7.5999 6.20005C7.5999 6.20005 7.5999 6.16672 7.5999 6.10005C7.66657 6.16672 7.73324 6.26672 7.7999 6.40005C7.6999 6.40005 7.6999 6.30005 7.5999 6.20005Z" fill="black"/>
<path d="M8.4999 6.40005C8.5999 6.40005 8.5999 6.50005 8.6999 6.50005C8.63324 6.56672 8.56657 6.63338 8.4999 6.70005C8.3999 6.50005 8.4999 6.50005 8.4999 6.40005Z" fill="black"/>
<path d="M5.8999 6.80005C5.8999 6.80005 5.8999 6.76672 5.8999 6.70005C5.96657 6.70005 6.03324 6.66672 6.0999 6.60005C6.0999 6.66672 6.0999 6.73338 6.0999 6.80005C6.03324 6.80005 5.96657 6.80005 5.8999 6.80005Z" fill="black"/>
<path d="M10.3999 8.10005C10.3999 8.16672 10.3999 8.20005 10.3999 8.20005C10.3332 8.26672 10.2666 8.30005 10.1999 8.30005C10.1999 8.20005 10.2999 8.10005 10.3999 8.10005Z" fill="black"/>
<path d="M6.2999 6.60005C6.36657 6.53338 6.43324 6.53338 6.4999 6.60005C6.43324 6.66672 6.36657 6.70005 6.2999 6.70005C6.2999 6.63338 6.2999 6.60005 6.2999 6.60005Z" fill="black"/>
<path d="M9.5999 7.00005C9.5999 6.90005 9.6999 6.90005 9.7999 6.90005C9.7999 7.00005 9.6999 7.00005 9.5999 7.10005C9.5999 7.03338 9.5999 7.00005 9.5999 7.00005Z" fill="black"/>
<path d="M6.2999 6.60005C6.2999 6.60005 6.2999 6.63338 6.2999 6.70005C6.23324 6.70005 6.16657 6.73338 6.0999 6.80005C6.0999 6.73338 6.0999 6.66672 6.0999 6.60005C6.16657 6.60005 6.23324 6.60005 6.2999 6.60005Z" fill="black"/>
<path d="M9.6999 3.30005C9.6999 3.23338 9.73324 3.23338 9.7999 3.30005C9.7999 3.40005 9.7999 3.40005 9.6999 3.40005C9.6999 3.33338 9.6999 3.30005 9.6999 3.30005Z" fill="black"/>
<path d="M7.0999 4.80005C6.96657 4.93338 6.96657 5.03338 7.0999 5.10005C7.0999 5.03338 7.0999 4.93338 7.0999 4.80005Z" fill="black"/>
<path d="M5.3999 9.50005C5.3999 9.50005 5.3999 9.53338 5.3999 9.60005C5.33324 9.60005 5.26657 9.60005 5.1999 9.60005C5.1999 9.60005 5.1999 9.56672 5.1999 9.50005C5.26657 9.50005 5.33324 9.50005 5.3999 9.50005Z" fill="black"/>
<path d="M10.8999 9.80005C10.8999 9.70005 10.8999 9.60005 10.9999 9.60005C11.0999 9.70005 10.9999 9.80005 10.8999 9.80005Z" fill="black"/>
<path d="M10.0999 10C10.0999 10.0667 10.0999 10.1334 10.0999 10.2C10.0332 10.2 9.96657 10.2 9.8999 10.2C9.8999 10.2 9.8999 10.1667 9.8999 10.1C9.96657 10.1 10.0332 10.0667 10.0999 10Z" fill="black"/>
<path d="M11.2999 10.2C11.2999 10.1334 11.3332 10.1334 11.3999 10.2C11.3999 10.2 11.3999 10.2 11.2999 10.3C11.2999 10.2334 11.2999 10.2 11.2999 10.2Z" fill="black"/>
<path d="M5.8999 10.7C5.8999 10.7 5.8999 10.7334 5.8999 10.8C5.8999 10.8 5.86657 10.7667 5.7999 10.7C5.86657 10.6334 5.8999 10.6334 5.8999 10.7Z" fill="black"/>
<path d="M9.4999 3.50005C9.4999 3.43338 9.4999 3.40005 9.4999 3.40005C9.56657 3.40005 9.63324 3.36672 9.6999 3.30005C9.6999 3.30005 9.6999 3.33338 9.6999 3.40005C9.6999 3.46672 9.63324 3.50005 9.4999 3.50005Z" fill="black"/>
<path d="M6.6999 4.90005C6.6999 4.83338 6.6999 4.73338 6.6999 4.60005C6.63324 4.73338 6.63324 4.83338 6.6999 4.90005Z" fill="black"/>
<path d="M8.4999 6.20005C8.56657 6.13338 8.56657 6.10005 8.4999 6.10005C8.4999 6.16672 8.4999 6.20005 8.4999 6.20005Z" fill="black"/>
<path d="M7.0999 5.20005C7.0999 5.26672 7.13324 5.33338 7.1999 5.40005C7.1999 5.33338 7.16657 5.26672 7.0999 5.20005Z" fill="black"/>
<path d="M6.7999 5.30005C6.7999 5.23338 6.76657 5.16672 6.6999 5.10005C6.6999 5.16672 6.73324 5.23338 6.7999 5.30005Z" fill="black"/>
<path d="M6.6999 5.10005C6.76657 5.03338 6.76657 5.00005 6.6999 5.00005C6.6999 5.06672 6.6999 5.10005 6.6999 5.10005Z" fill="black"/>
<path d="M6.6999 4.50005C6.76657 4.50005 6.76657 4.46672 6.6999 4.40005C6.6999 4.40005 6.6999 4.43338 6.6999 4.50005Z" fill="black"/>
<path d="M10.4999 6.50005C10.4999 6.50005 10.4999 6.53338 10.4999 6.60005C10.4332 6.60005 10.3999 6.56672 10.3999 6.50005C10.3999 6.50005 10.4332 6.50005 10.4999 6.50005Z" fill="black"/>
<path d="M9.4999 7.10005C9.56657 7.10005 9.5999 7.06672 9.5999 7.00005C9.5999 7.00005 9.5999 7.03338 9.5999 7.10005C9.5999 7.10005 9.56657 7.10005 9.4999 7.10005Z" fill="black"/>
<path d="M9.1999 3.70005C9.13324 3.70005 9.0999 3.73338 9.0999 3.80005C9.0999 3.80005 9.13324 3.76672 9.1999 3.70005Z" fill="black"/>
</svg>
