<!--
 ~ Copyright (c) 2025, WSO2 LLC. (https://www.wso2.com) All Rights Reserved.
 ~
 ~ WSO2 LLC. licenses this file to you under the Apache License,
 ~ Version 2.0 (the "License"); you may not use this file except
 ~ in compliance with the License.
 ~ You may obtain a copy of the License at
 ~
 ~     http://www.apache.org/licenses/LICENSE-2.0
 ~
 ~ Unless required by applicable law or agreed to in writing,
 ~ software distributed under the License is distributed on an
 ~ "AS IS" BASIS, WITHOUT WARRANTIES OR CONDITIONS OF ANY
 ~ KIND, either express or implied. See the License for the
 ~ specific language governing permissions and limitations
 ~ under the License.
-->
<svg xmlns="http://www.w3.org/2000/svg" width="48" height="48" viewBox="0 0 48 48">
    <g fill="none">
        <path stroke="currentColor" stroke-linecap="round" stroke-linejoin="round" stroke-width="4" d="M42 18v22a2 2 0 0 1-2 2H8a2 2 0 0 1-2-2V18" />
        <path stroke="currentColor" stroke-linejoin="round" stroke-width="4" d="M6 8a2 2 0 0 1 2-2h32a2 2 0 0 1 2 2v10H6V8Z" />
        <path fill="currentColor" fill-rule="evenodd"
            d="M12 14a2 2 0 1 0 0-4a2 2 0 0 0 0 4Zm6 0a2 2 0 1 0 0-4a2 2 0 0 0 0 4Zm6 0a2 2 0 1 0 0-4a2 2 0 0 0 0 4Z" clip-rule="evenodd" />
    </g>
</svg>
