<?xml version="1.0" standalone="no"?>
<!DOCTYPE svg PUBLIC "-//W3C//DTD SVG 20010904//EN"
 "http://www.w3.org/TR/2001/REC-SVG-20010904/DTD/svg10.dtd">
<svg version="1.0" xmlns="http://www.w3.org/2000/svg"
 width="512.000000pt" height="512.000000pt" viewBox="0 0 512.000000 512.000000"
 preserveAspectRatio="xMidYMid meet">

<g transform="translate(0.000000,512.000000) scale(0.100000,-0.100000)"
fill="#000000" stroke="none">
<path d="M2495 5103 c-99 -52 -2106 -1200 -2134 -1221 -65 -48 -61 30 -61
-1322 0 -1308 -1 -1270 46 -1312 19 -16 2043 -1176 2136 -1224 60 -30 96 -30
156 0 93 48 2117 1208 2136 1224 47 42 46 4 46 1312 0 1308 1 1270 -46 1312
-19 16 -2043 1176 -2136 1224 -54 28 -100 30 -143 7z m972 -824 c492 -281 891
-515 886 -519 -15 -14 -1767 -1013 -1785 -1018 -19 -5 -1813 1016 -1803 1027
16 15 1781 1020 1794 1021 7 0 416 -230 908 -511z m-1956 -1291 l898 -513 1
-1033 0 -1034 -32 19 c-18 11 -426 243 -905 517 l-873 499 0 1028 c0 566 3
1029 6 1029 4 0 411 -231 905 -512z m3009 -517 l0 -1028 -872 -499 c-480 -274
-888 -506 -905 -517 l-33 -19 0 1034 1 1033 897 512 c493 282 900 513 905 513
4 0 7 -463 7 -1029z"/>
</g>
</svg>
