<!--
 ~ Copyright (c) 2025, WSO2 LLC. (https://www.wso2.com) All Rights Reserved.
 ~
 ~ WSO2 LLC. licenses this file to you under the Apache License,
 ~ Version 2.0 (the "License"); you may not use this file except
 ~ in compliance with the License.
 ~ You may obtain a copy of the License at
 ~
 ~     http://www.apache.org/licenses/LICENSE-2.0
 ~
 ~ Unless required by applicable law or agreed to in writing,
 ~ software distributed under the License is distributed on an
 ~ "AS IS" BASIS, WITHOUT WARRANTIES OR CONDITIONS OF ANY
 ~ KIND, either express or implied. See the License for the
 ~ specific language governing permissions and limitations
 ~ under the License.
-->
<svg width="13" height="13" viewBox="0 0 13 13" fill="none" xmlns="http://www.w3.org/2000/svg">
<path d="M0.224599 10.01C0.384761 9.8579 0.637944 9.86439 0.790098 10.0245L2.40744 11.727L4.11726 10.0172C4.27347 9.861 4.52673 9.861 4.68294 10.0172C4.83915 10.1734 4.83915 10.4267 4.68294 10.5829L2.68294 12.5829C2.60667 12.6592 2.50283 12.7014 2.39497 12.7C2.28712 12.6986 2.18439 12.6538 2.1101 12.5755L0.210099 10.5755C0.0579444 10.4154 0.0644362 10.1622 0.224599 10.01Z" fill="black"/>
<path d="M2.4001 0.300049C2.62101 0.300049 2.8001 0.479135 2.8001 0.700049V11.8C2.8001 12.021 2.62101 12.2 2.4001 12.2C2.17918 12.2 2.0001 12.021 2.0001 11.8V0.700049C2.0001 0.479135 2.17918 0.300049 2.4001 0.300049Z" fill="black"/>
<path d="M6.7001 0.300049C6.92101 0.300049 7.1001 0.479135 7.1001 0.700049V3.40005C7.1001 3.62096 6.92101 3.80005 6.7001 3.80005C6.47918 3.80005 6.3001 3.62096 6.3001 3.40005V0.700049C6.3001 0.479135 6.47918 0.300049 6.7001 0.300049Z" fill="black"/>
<path d="M8.96309 1.29282C8.86821 1.46532 8.8001 1.7427 8.8001 2.10005C8.8001 2.39971 8.86537 2.65081 8.95877 2.81213C9.04969 2.96917 9.13645 3.00005 9.2001 3.00005C9.20005 3.00005 9.19987 3.00009 9.2001 3.00005C9.20579 2.9989 9.29735 2.98033 9.4119 2.79895C9.51976 2.62818 9.6001 2.37782 9.6001 2.10005C9.6001 1.76312 9.51523 1.48607 9.4071 1.30585C9.35312 1.21588 9.29922 1.1596 9.2573 1.12886C9.23693 1.11392 9.22158 1.10658 9.21214 1.10314C9.20749 1.10144 9.2043 1.10069 9.2025 1.10036L9.2006 1.10008M8.96309 1.29282C9.05431 1.12696 9.14032 1.10008 9.2006 1.10008ZM8.26211 0.907281C8.44589 0.573139 8.76037 0.300049 9.2001 0.300049C9.60502 0.300049 9.91164 0.591816 10.0931 0.89425C10.285 1.21403 10.4001 1.63697 10.4001 2.10005C10.4001 2.52228 10.2804 2.92192 10.0883 3.22615C9.90743 3.51252 9.60139 3.80005 9.2001 3.80005C8.76375 3.80005 8.45051 3.53092 8.26643 3.21296C8.08483 2.89929 8.0001 2.50039 8.0001 2.10005C8.0001 1.6574 8.08199 1.23478 8.26211 0.907281Z" fill="black"/>
<path d="M11.6001 0.300049C11.821 0.300049 12.0001 0.479135 12.0001 0.700049V3.40005C12.0001 3.62096 11.821 3.80005 11.6001 3.80005C11.3792 3.80005 11.2001 3.62096 11.2001 3.40005V0.700049C11.2001 0.479135 11.3792 0.300049 11.6001 0.300049Z" fill="black"/>
<path d="M9.2001 4.80005C9.42101 4.80005 9.6001 4.97913 9.6001 5.20005V7.80005C9.6001 8.02096 9.42101 8.20005 9.2001 8.20005C8.97919 8.20005 8.8001 8.02096 8.8001 7.80005V5.20005C8.8001 4.97913 8.97919 4.80005 9.2001 4.80005Z" fill="black"/>
<path d="M6.48829 5.80115C6.38044 5.97192 6.3001 6.22228 6.3001 6.50005C6.3001 6.77782 6.38044 7.02818 6.48829 7.19895C6.60285 7.38033 6.69414 7.39883 6.69983 7.39998C6.70006 7.40003 6.69988 7.39998 6.69983 7.39998C6.76348 7.39998 6.85051 7.36917 6.94143 7.21213C7.03483 7.05081 7.1001 6.79971 7.1001 6.50005C7.1001 6.20039 7.03483 5.94929 6.94143 5.78796C6.85051 5.63092 6.76375 5.60005 6.7001 5.60005C6.70015 5.60005 6.70033 5.6 6.7001 5.60005C6.69441 5.6012 6.60285 5.61977 6.48829 5.80115ZM5.8119 5.37395C5.99277 5.08758 6.2988 4.80005 6.7001 4.80005C7.13645 4.80005 7.44969 5.06917 7.63377 5.38713C7.81537 5.70081 7.9001 6.09971 7.9001 6.50005C7.9001 6.90039 7.81537 7.29929 7.63377 7.61296C7.44969 7.93092 7.13645 8.20005 6.7001 8.20005C6.2988 8.20005 5.99277 7.91252 5.8119 7.62615C5.61976 7.32192 5.5001 6.92228 5.5001 6.50005C5.5001 6.07782 5.61976 5.67818 5.8119 5.37395Z" fill="black"/>
<path d="M11.6001 4.80005C11.821 4.80005 12.0001 4.97913 12.0001 5.20005V7.80005C12.0001 8.02096 11.821 8.20005 11.6001 8.20005C11.3792 8.20005 11.2001 8.02096 11.2001 7.80005V5.20005C11.2001 4.97913 11.3792 4.80005 11.6001 4.80005Z" fill="black"/>
<path d="M11.4579 10.1789C11.3677 10.3593 11.3001 10.6441 11.3001 11C11.3001 11.2987 11.365 11.5571 11.4541 11.7263C11.5354 11.8808 11.597 11.8984 11.6031 11.9C11.6665 11.899 11.7519 11.8667 11.8414 11.7121C11.9348 11.5508 12.0001 11.2997 12.0001 11C12.0001 10.6427 11.932 10.3653 11.8371 10.1928C11.7462 10.0275 11.6609 10.0002 11.6006 10.0001C11.6004 10.0001 11.6 10.0003 11.5994 10.0005C11.5967 10.0015 11.5882 10.0053 11.5746 10.0164C11.5458 10.0399 11.5027 10.0893 11.4579 10.1789ZM10.7423 9.82116C10.8949 9.51609 11.1758 9.20005 11.6001 9.20005C12.0398 9.20005 12.3543 9.47314 12.5381 9.80728C12.7182 10.1348 12.8001 10.5574 12.8001 11C12.8001 11.4004 12.7154 11.7993 12.5338 12.113C12.3497 12.4309 12.0364 12.7 11.6001 12.7C11.1799 12.7 10.8989 12.389 10.7461 12.0988C10.5852 11.793 10.5001 11.4014 10.5001 11C10.5001 10.556 10.5825 10.1408 10.7423 9.82116Z" fill="black"/>
<path d="M9.2001 9.20005C9.42101 9.20005 9.6001 9.37914 9.6001 9.60005V12.3C9.6001 12.521 9.42101 12.7 9.2001 12.7C8.97919 12.7 8.8001 12.521 8.8001 12.3V9.60005C8.8001 9.37914 8.97919 9.20005 9.2001 9.20005Z" fill="black"/>
<path d="M6.4931 10.2058C6.38496 10.3861 6.3001 10.6631 6.3001 11C6.3001 11.2778 6.38044 11.5282 6.48829 11.699C6.60285 11.8803 6.69414 11.8988 6.69983 11.9C6.70006 11.9 6.69988 11.9 6.69983 11.9C6.76348 11.9 6.85051 11.8692 6.94143 11.7121C7.03483 11.5508 7.1001 11.2997 7.1001 11C7.1001 10.6427 7.03199 10.3653 6.93711 10.1928C6.84589 10.027 6.76037 10 6.7001 10M6.4931 10.2058C6.54708 10.1159 6.60098 10.0596 6.64289 10.0289ZM6.64289 10.0289C6.66326 10.0139 6.67862 10.0066 6.68806 10.0031ZM6.68806 10.0031C6.69271 10.0014 6.6959 10.0007 6.6977 10.0004ZM6.6977 10.0004L6.7001 10ZM6.7001 10C6.70015 10 6.7002 10 6.7001 10ZM6.7001 10C6.70015 10 6.7002 10 6.7001 10ZM6.7001 10C6.70015 10 6.7002 10 6.7001 10ZM6.7001 10C6.70015 10 6.7002 10 6.7001 10ZM5.8071 9.79425C5.98856 9.49182 6.29518 9.20005 6.7001 9.20005C7.13982 9.20005 7.45431 9.47314 7.63808 9.80728C7.81821 10.1348 7.9001 10.5574 7.9001 11C7.9001 11.4004 7.81537 11.7993 7.63377 12.113C7.44969 12.4309 7.13645 12.7 6.7001 12.7C6.2988 12.7 5.99277 12.4125 5.8119 12.1261C5.61976 11.8219 5.5001 11.4223 5.5001 11C5.5001 10.537 5.61523 10.114 5.8071 9.79425Z" fill="black"/>
</svg>
