
<!--
 ~ Copyright (c) 2025, WSO2 LLC. (https://www.wso2.com) All Rights Reserved.
 ~
 ~ WSO2 LLC. licenses this file to you under the Apache License,
 ~ Version 2.0 (the "License"); you may not use this file except
 ~ in compliance with the License.
 ~ You may obtain a copy of the License at
 ~
 ~     http://www.apache.org/licenses/LICENSE-2.0
 ~
 ~ Unless required by applicable law or agreed to in writing,
 ~ software distributed under the License is distributed on an
 ~ "AS IS" BASIS, WITHOUT WARRANTIES OR CONDITIONS OF ANY
 ~ KIND, either express or implied. See the License for the
 ~ specific language governing permissions and limitations
 ~ under the License.
-->
<svg width="16" height="15" viewBox="0 0 16 15" fill="none" xmlns="http://www.w3.org/2000/svg">
<path d="M0 2.9C0 2.67909 0.179086 2.5 0.4 2.5H4C4.22091 2.5 4.4 2.67909 4.4 2.9C4.4 3.12091 4.22091 3.3 4 3.3H0.4C0.179086 3.3 0 3.12091 0 2.9Z" fill="black"/>
<path d="M1.71716 0.617157C1.87337 0.460948 2.12663 0.460948 2.28284 0.617157L4.28284 2.61716C4.35911 2.69343 4.40135 2.79727 4.39997 2.90513C4.39858 3.01298 4.3537 3.11571 4.2755 3.19L2.2755 5.09C2.11534 5.24215 1.86215 5.23566 1.71 5.0755C1.55785 4.91534 1.56434 4.66215 1.7245 4.51L3.42697 2.89265L1.71716 1.18284C1.56095 1.02663 1.56095 0.773367 1.71716 0.617157Z" fill="black"/>
<path d="M10.9 9.1C10.9 9.32091 11.0791 9.5 11.3 9.5H14.2C14.4209 9.5 14.6 9.32091 14.6 9.1C14.6 8.87909 14.4209 8.7 14.2 8.7H11.3C11.0791 8.7 10.9 8.87909 10.9 9.1Z" fill="black"/>
<path d="M12.4172 6.91716C12.2609 7.07337 12.2609 7.32663 12.4172 7.48284L14.127 9.19265L12.4245 10.81C12.2643 10.9622 12.2578 11.2153 12.41 11.3755C12.5622 11.5357 12.8153 11.5422 12.9755 11.39L14.9755 9.49C15.0537 9.41571 15.0986 9.31298 15.1 9.20513C15.1013 9.09727 15.0591 8.99343 14.9828 8.91716L12.9828 6.91716C12.8266 6.76095 12.5734 6.76095 12.4172 6.91716Z" fill="black"/>
<path d="M4.3272 2.61932C5.15303 2.35292 6.27192 2.2 7.5 2.2C8.72808 2.2 9.84697 2.35292 10.6728 2.61932C11.0836 2.75183 11.4451 2.91974 11.7121 3.12875C11.9767 3.33576 12.2 3.62676 12.2 4V6.1C12.2 6.32091 12.0209 6.5 11.8 6.5C11.5791 6.5 11.4 6.32091 11.4 6.1V4C11.4 3.97324 11.3858 3.88924 11.2191 3.75875C11.0549 3.63026 10.7914 3.49817 10.4272 3.38068C9.70303 3.14708 8.67193 3 7.5 3C6.32808 3 5.29697 3.14708 4.5728 3.38068C4.20858 3.49817 3.94509 3.63026 3.7809 3.75875C3.61417 3.88924 3.6 3.97324 3.6 4V12.8C3.6 12.8268 3.61417 12.9108 3.7809 13.0412C3.94509 13.1697 4.20858 13.3018 4.5728 13.4193C5.29697 13.6529 6.32808 13.8 7.5 13.8C8.67193 13.8 9.70303 13.6529 10.4272 13.4193C10.7914 13.3018 11.0549 13.1697 11.2191 13.0412C11.3858 12.9108 11.4 12.8268 11.4 12.8V12.1C11.4 11.8791 11.5791 11.7 11.8 11.7C12.0209 11.7 12.2 11.8791 12.2 12.1V12.8C12.2 13.1732 11.9767 13.4642 11.7121 13.6713C11.4451 13.8803 11.0836 14.0482 10.6728 14.1807C9.84697 14.4471 8.72808 14.6 7.5 14.6C6.27192 14.6 5.15303 14.4471 4.3272 14.1807C3.91642 14.0482 3.55491 13.8803 3.28785 13.6713C3.02333 13.4642 2.8 13.1732 2.8 12.8V4C2.8 3.62676 3.02333 3.33576 3.28785 3.12875C3.55491 2.91974 3.91642 2.75183 4.3272 2.61932Z" fill="black"/>
<path d="M3.7809 3.75875C3.61417 3.88924 3.6 3.97324 3.6 4C3.6 4.02676 3.61417 4.11076 3.7809 4.24125C3.94509 4.36974 4.20858 4.50183 4.5728 4.61932C5.29697 4.85292 6.32808 5 7.5 5C8.67193 5 9.70303 4.85292 10.4272 4.61932C10.7914 4.50183 11.0549 4.36974 11.2191 4.24125C11.3858 4.11076 11.4 4.02676 11.4 4C11.4 3.97324 11.3858 3.88924 11.2191 3.75875C11.0549 3.63026 10.7914 3.49817 10.4272 3.38068C9.70303 3.14708 8.67193 3 7.5 3C6.32808 3 5.29697 3.14708 4.5728 3.38068C4.20858 3.49817 3.94509 3.63026 3.7809 3.75875ZM4.3272 2.61932C5.15303 2.35292 6.27192 2.2 7.5 2.2C8.72808 2.2 9.84697 2.35292 10.6728 2.61932C11.0836 2.75183 11.4451 2.91974 11.7121 3.12875C11.9767 3.33576 12.2 3.62676 12.2 4C12.2 4.37324 11.9767 4.66424 11.7121 4.87125C11.4451 5.08026 11.0836 5.24817 10.6728 5.38068C9.84697 5.64708 8.72808 5.8 7.5 5.8C6.27192 5.8 5.15303 5.64708 4.3272 5.38068C3.91642 5.24817 3.55491 5.08026 3.28785 4.87125C3.02333 4.66424 2.8 4.37324 2.8 4C2.8 3.62676 3.02333 3.33576 3.28785 3.12875C3.55491 2.91974 3.91642 2.75183 4.3272 2.61932Z" fill="black"/>
<path d="M5.8 6.9C5.8 7.3 5.5 7.6 5.1 7.6C4.7 7.6 4.3 7.3 4.3 6.9C4.3 6.5 4.7 6.1 5.1 6.1C5.5 6.1 5.8 6.5 5.8 6.9Z" fill="black"/>
<path d="M5.8 9.4C5.8 9.8 5.5 10.1 5.1 10.1C4.7 10.1 4.3 9.8 4.3 9.4C4.3 8.9 4.7 8.6 5.1 8.6C5.5 8.6 5.8 8.9 5.8 9.4Z" fill="black"/>
<path d="M5.8 11.8C5.8 12.2 5.5 12.6 5.1 12.6C4.7 12.6 4.3 12.2 4.3 11.8C4.3 11.4 4.7 11.1 5.1 11.1C5.5 11.1 5.8 11.4 5.8 11.8Z" fill="black"/>
<path d="M8.2 7.2C8.2 7.6 7.9 7.9 7.4 7.9C7 7.9 6.7 7.6 6.7 7.2C6.7 6.7 7 6.4 7.4 6.4C7.9 6.4 8.2 6.7 8.2 7.2Z" fill="black"/>
<path d="M8.2 9.6C8.2 10 7.9 10.4 7.4 10.4C7 10.4 6.7 10 6.7 9.6C6.7 9.2 7 8.9 7.4 8.9C7.9 8.9 8.2 9.2 8.2 9.6Z" fill="black"/>
<path d="M8.2 12.1C8.2 12.5 7.9 12.9 7.4 12.9C7 12.9 6.7 12.5 6.7 12.1C6.7 11.7 7 11.4 7.4 11.4C7.9 11.4 8.2 11.7 8.2 12.1Z" fill="black"/>
<path d="M10.6 9.4C10.6 9.8 10.2 10.1 9.8 10.1C9.4 10.1 9.1 9.8 9.1 9.4C9.1 8.9 9.4 8.6 9.8 8.6C10.2 8.6 10.6 8.9 10.6 9.4Z" fill="black"/>
<path d="M10.6 11.8C10.6 12.2 10.2 12.6 9.8 12.6C9.4 12.6 9.1 12.2 9.1 11.8C9.1 11.4 9.4 11.1 9.8 11.1C10.2 11.1 10.6 11.4 10.6 11.8Z" fill="black"/>
</svg>
