<!--
 ~ Copyright (c) 2025, WSO2 LLC. (https://www.wso2.com) All Rights Reserved.
 ~
 ~ WSO2 LLC. licenses this file to you under the Apache License,
 ~ Version 2.0 (the "License"); you may not use this file except
 ~ in compliance with the License.
 ~ You may obtain a copy of the License at
 ~
 ~     http://www.apache.org/licenses/LICENSE-2.0
 ~
 ~ Unless required by applicable law or agreed to in writing,
 ~ software distributed under the License is distributed on an
 ~ "AS IS" BASIS, WITHOUT WARRANTIES OR CONDITIONS OF ANY
 ~ KIND, either express or implied. See the License for the
 ~ specific language governing permissions and limitations
 ~ under the License.
-->
<svg xmlns="http://www.w3.org/2000/svg" height="24" viewBox="0 0 24 24" width="24">
    <path d="M0 0h24v24H0V0z" fill="none" />
    <path
        d="m18.65 8.35-2.79 2.79c-.32.32-.1.86.35.86H18c0 3.31-2.69 6-6 6-.79 0-1.56-.15-2.25-.44-.36-.15-.77-.04-1.04.23-.51.51-.33 1.37.34 1.64.91.37 1.91.57 2.95.57 4.42 0 8-3.58 8-8h1.79c.45 0 .67-.54.35-.85l-2.79-2.79c-.19-.2-.51-.2-.7-.01zM6 12c0-3.31 2.69-6 6-6 .79 0 1.56.15 2.25.44.36.15.77.04 1.04-.23.51-.51.33-1.37-.34-1.64C14.04 4.2 13.04 4 12 4c-4.42 0-8 3.58-8 8H2.21c-.45 0-.67.54-.35.85l2.79 2.79c.2.2.51.2.71 0l2.79-2.79c.31-.31.09-.85-.36-.85H6z" />
</svg>