<!--
 ~ Copyright (c) 2025, WSO2 LLC. (https://www.wso2.com) All Rights Reserved.
 ~
 ~ WSO2 LLC. licenses this file to you under the Apache License,
 ~ Version 2.0 (the "License"); you may not use this file except
 ~ in compliance with the License.
 ~ You may obtain a copy of the License at
 ~
 ~     http://www.apache.org/licenses/LICENSE-2.0
 ~
 ~ Unless required by applicable law or agreed to in writing,
 ~ software distributed under the License is distributed on an
 ~ "AS IS" BASIS, WITHOUT WARRANTIES OR CONDITIONS OF ANY
 ~ KIND, either express or implied. See the License for the
 ~ specific language governing permissions and limitations
 ~ under the License.
-->
<svg width="15" height="15" viewBox="0 0 15 15" fill="none" xmlns="http://www.w3.org/2000/svg">
<path d="M0.199951 3.09998C0.199951 2.87906 0.379037 2.69998 0.599951 2.69998H5.49995C5.72087 2.69998 5.89995 2.87906 5.89995 3.09998C5.89995 3.32089 5.72087 3.49998 5.49995 3.49998H0.599951C0.379037 3.49998 0.199951 3.32089 0.199951 3.09998Z" fill="black"/>
<path d="M3.12249 0.211848C3.28162 0.0586129 3.53484 0.0633906 3.68808 0.222519L6.28808 2.92252C6.36268 2.99999 6.40294 3.10424 6.39978 3.21174C6.39661 3.31925 6.35029 3.42095 6.27126 3.4939L3.67126 5.8939C3.50893 6.04374 3.25587 6.03362 3.10603 5.87129C2.95619 5.70896 2.96631 5.4559 3.12864 5.30605L5.42845 3.18316L3.11182 0.777433C2.95859 0.618304 2.96337 0.365083 3.12249 0.211848Z" fill="black"/>
<path d="M9.19995 12.1C9.19995 11.8791 9.37904 11.7 9.59995 11.7H13.9C14.1209 11.7 14.3 11.8791 14.3 12.1C14.3 12.3209 14.1209 12.5 13.9 12.5H9.59995C9.37904 12.5 9.19995 12.3209 9.19995 12.1Z" fill="black"/>
<path d="M11.5171 9.21713C11.6733 9.06092 11.9266 9.06092 12.0828 9.21713L14.7828 11.9171C14.8607 11.995 14.903 12.1016 14.8998 12.2117C14.8965 12.3218 14.848 12.4258 14.7657 12.4989L12.0657 14.8989C11.9006 15.0457 11.6478 15.0308 11.501 14.8657C11.3542 14.7006 11.3691 14.4478 11.5342 14.301L13.9171 12.1828L11.5171 9.78282C11.3609 9.62661 11.3609 9.37334 11.5171 9.21713Z" fill="black"/>
<path d="M7.59995 5.69998C6.42087 5.69998 5.49995 6.62089 5.49995 7.79998C5.49995 8.88946 6.43113 9.89998 7.59995 9.89998C8.12721 9.89998 8.65446 9.65478 9.05461 9.25463C9.45475 8.85449 9.69995 8.32724 9.69995 7.79998C9.69995 6.63115 8.68944 5.69998 7.59995 5.69998ZM4.69995 7.79998C4.69995 6.17906 5.97904 4.89998 7.59995 4.89998C9.11046 4.89998 10.5 6.1688 10.5 7.79998C10.5 8.57272 10.1451 9.29546 9.62029 9.82032C9.09544 10.3452 8.37269 10.7 7.59995 10.7C5.96878 10.7 4.69995 9.31049 4.69995 7.79998Z" fill="black"/>
</svg>
