<!--
 ~ Copyright (c) 2025, WSO2 LLC. (https://www.wso2.com) All Rights Reserved.
 ~
 ~ WSO2 LLC. licenses this file to you under the Apache License,
 ~ Version 2.0 (the "License"); you may not use this file except
 ~ in compliance with the License.
 ~ You may obtain a copy of the License at
 ~
 ~     http://www.apache.org/licenses/LICENSE-2.0
 ~
 ~ Unless required by applicable law or agreed to in writing,
 ~ software distributed under the License is distributed on an
 ~ "AS IS" BASIS, WITHOUT WARRANTIES OR CONDITIONS OF ANY
 ~ KIND, either express or implied. See the License for the
 ~ specific language governing permissions and limitations
 ~ under the License.
-->
<svg width="14" height="14" viewBox="0 0 14 14" fill="none" xmlns="http://www.w3.org/2000/svg">
<path d="M5.7999 1.70005C5.57899 1.70005 5.3999 1.87913 5.3999 2.10005V11H1.2999C1.07899 11 0.899902 11.1791 0.899902 11.4C0.899902 11.621 1.07899 11.8 1.2999 11.8H5.7999C6.02082 11.8 6.1999 11.621 6.1999 11.4V2.10005C6.1999 1.87913 6.02082 1.70005 5.7999 1.70005Z" fill="black"/>
<path d="M8.3057 4.10009C8.52659 4.10329 8.70306 4.28495 8.69986 4.50585L8.60574 11H11.3999C11.6208 11 11.7999 11.1791 11.7999 11.4C11.7999 11.621 11.6208 11.8 11.3999 11.8H8.1999C8.09281 11.8 7.99019 11.7571 7.91502 11.6808C7.83984 11.6046 7.79839 11.5013 7.79994 11.3943L7.89994 4.49425C7.90315 4.27336 8.08481 4.09689 8.3057 4.10009Z" fill="black"/>
<path d="M5.7999 0.700049C5.57899 0.700049 5.3999 0.879135 5.3999 1.10005V4.60005C5.3999 4.82096 5.57899 5.00005 5.7999 5.00005C6.02082 5.00005 6.1999 4.82096 6.1999 4.60005V1.10005C6.1999 0.879135 6.02082 0.700049 5.7999 0.700049Z" fill="black"/>
<path d="M5.90899 0.300152C5.79978 0.297671 5.6943 0.339963 5.61706 0.417206L3.31706 2.71721C3.16085 2.87342 3.16085 3.12668 3.31706 3.28289C3.47327 3.4391 3.72654 3.4391 3.88274 3.28289L5.88675 1.27888L7.70451 3.26976C7.85346 3.4329 8.10647 3.4444 8.26961 3.29544C8.43275 3.14649 8.44425 2.89348 8.2953 2.73034L6.1953 0.430341C6.12164 0.34967 6.0182 0.302633 5.90899 0.300152Z" fill="black"/>
<path d="M9.0999 11.4C9.0999 11.1791 9.27899 11 9.4999 11H12.9999C13.2208 11 13.3999 11.1791 13.3999 11.4C13.3999 11.621 13.2208 11.8 12.9999 11.8H9.4999C9.27899 11.8 9.0999 11.621 9.0999 11.4Z" fill="black"/>
<path d="M10.8171 8.91721C10.9733 8.761 11.2265 8.761 11.3827 8.91721L13.6827 11.2172C13.76 11.2945 13.8023 11.3999 13.7998 11.5091C13.7973 11.6183 13.7503 11.7218 13.6696 11.7954L11.3696 13.8954C11.2065 14.0444 10.9535 14.0329 10.8045 13.8698C10.6556 13.7066 10.6671 13.4536 10.8302 13.3047L12.8211 11.4869L10.8171 9.48289C10.6609 9.32668 10.6609 9.07342 10.8171 8.91721Z" fill="black"/>
</svg>
