<!--
 ~ Copyright (c) 2025, WSO2 LLC. (https://www.wso2.com) All Rights Reserved.
 ~
 ~ WSO2 LLC. licenses this file to you under the Apache License,
 ~ Version 2.0 (the "License"); you may not use this file except
 ~ in compliance with the License.
 ~ You may obtain a copy of the License at
 ~
 ~     http://www.apache.org/licenses/LICENSE-2.0
 ~
 ~ Unless required by applicable law or agreed to in writing,
 ~ software distributed under the License is distributed on an
 ~ "AS IS" BASIS, WITHOUT WARRANTIES OR CONDITIONS OF ANY
 ~ KIND, either express or implied. See the License for the
 ~ specific language governing permissions and limitations
 ~ under the License.
-->
<svg width="15" height="17" viewBox="0 0 15 17" fill="none" xmlns="http://www.w3.org/2000/svg">
<path fill-rule="evenodd" clip-rule="evenodd" d="M10.2 3.50002C10.2 3.27911 10.3791 3.10002 10.6 3.10002C12.2102 3.10002 13.5 4.36856 13.5 5.90002C13.5 7.52094 12.2209 8.80002 10.6 8.80002C10.3791 8.80002 10.2 8.62094 10.2 8.40002C10.2 8.17911 10.3791 8.00002 10.6 8.00002C11.7791 8.00002 12.7 7.07911 12.7 5.90002C12.7 4.83149 11.7898 3.90002 10.6 3.90002C10.3791 3.90002 10.2 3.72094 10.2 3.50002Z" fill="black"/>
<path fill-rule="evenodd" clip-rule="evenodd" d="M5.2 8.80002C4.02091 8.80002 3.1 9.72094 3.1 10.9C3.1 11.9686 4.01022 12.9 5.2 12.9C5.42091 12.9 5.6 13.0791 5.6 13.3C5.6 13.5209 5.42091 13.7 5.2 13.7C3.58978 13.7 2.3 12.4315 2.3 10.9C2.3 9.27911 3.57909 8.00002 5.2 8.00002C5.42091 8.00002 5.6 8.17911 5.6 8.40002C5.6 8.62094 5.42091 8.80002 5.2 8.80002Z" fill="black"/>
<path fill-rule="evenodd" clip-rule="evenodd" d="M6.4 3.00002C5.92091 3.00002 5.6 3.32094 5.6 3.80002C5.6 4.27911 5.92091 4.60002 6.4 4.60002H9.4C9.87909 4.60002 10.2 4.27911 10.2 3.80002C10.2 3.32094 9.87909 3.00002 9.4 3.00002H6.4ZM4.8 3.80002C4.8 2.87911 5.47909 2.20002 6.4 2.20002H9.4C10.3209 2.20002 11 2.87911 11 3.80002C11 4.72094 10.3209 5.40002 9.4 5.40002H6.4C5.47909 5.40002 4.8 4.72094 4.8 3.80002Z" fill="black"/>
<path fill-rule="evenodd" clip-rule="evenodd" d="M6.4 7.60002C5.92091 7.60002 5.6 7.92094 5.6 8.40002C5.6 8.87911 5.92091 9.20002 6.4 9.20002H9.4C9.87909 9.20002 10.2 8.87911 10.2 8.40002C10.2 7.92094 9.87909 7.60002 9.4 7.60002H6.4ZM4.8 8.40002C4.8 7.47911 5.47909 6.80002 6.4 6.80002H9.4C10.3209 6.80002 11 7.47911 11 8.40002C11 9.32094 10.3209 10 9.4 10H6.4C5.47909 10 4.8 9.32094 4.8 8.40002Z" fill="black"/>
<path fill-rule="evenodd" clip-rule="evenodd" d="M6.4 12.5C5.94215 12.5 5.6 12.8991 5.6 13.3C5.6 13.8221 5.96159 14.2 6.4 14.2H9.4C9.83841 14.2 10.2 13.8221 10.2 13.3C10.2 12.8991 9.85785 12.5 9.4 12.5H6.4ZM4.8 13.3C4.8 12.501 5.45785 11.7 6.4 11.7H9.4C10.3421 11.7 11 12.501 11 13.3C11 14.1779 10.3616 15 9.4 15H6.4C5.43841 15 4.8 14.1779 4.8 13.3Z" fill="black"/>
<path fill-rule="evenodd" clip-rule="evenodd" d="M0 3.80002C0 3.57911 0.179086 3.40002 0.4 3.40002H3.6C3.82091 3.40002 4 3.57911 4 3.80002C4 4.02094 3.82091 4.20002 3.6 4.20002H0.4C0.179086 4.20002 0 4.02094 0 3.80002Z" fill="black"/>
<path fill-rule="evenodd" clip-rule="evenodd" d="M1.31716 1.01718C1.47337 0.860972 1.72663 0.860972 1.88284 1.01718L4.48284 3.61718C4.55982 3.69416 4.6021 3.79918 4.59992 3.90802C4.59774 4.01686 4.5513 4.12011 4.47131 4.19395L1.87131 6.59395C1.70898 6.74379 1.45592 6.73366 1.30608 6.57134C1.15624 6.40901 1.16636 6.15594 1.32869 6.0061L3.62277 3.88848L1.31716 1.58287C1.16095 1.42666 1.16095 1.17339 1.31716 1.01718Z" fill="black"/>
<path fill-rule="evenodd" clip-rule="evenodd" d="M10.2 13.3C10.2 13.0791 10.3791 12.9 10.6 12.9H13.9C14.1209 12.9 14.3 13.0791 14.3 13.3C14.3 13.5209 14.1209 13.7 13.9 13.7H10.6C10.3791 13.7 10.2 13.5209 10.2 13.3Z" fill="black"/>
<path fill-rule="evenodd" clip-rule="evenodd" d="M11.5119 10.5226C11.6651 10.3634 11.9183 10.3587 12.0775 10.5119L14.7775 13.1119C14.8567 13.1882 14.9011 13.2939 14.9 13.4039C14.8989 13.514 14.8525 13.6187 14.7718 13.6935L12.0718 16.1935C11.9097 16.3436 11.6566 16.3339 11.5065 16.1718C11.3564 16.0097 11.3661 15.7566 11.5282 15.6065L13.9174 13.3943L11.5225 11.0882C11.3634 10.9349 11.3586 10.6817 11.5119 10.5226Z" fill="black"/>
</svg>
