<?xml version="1.0" standalone="no"?>
<!--
 ~ Copyright (c) 2025, WSO2 LLC. (https://www.wso2.com) All Rights Reserved.
 ~
 ~ WSO2 LLC. licenses this file to you under the Apache License,
 ~ Version 2.0 (the "License"); you may not use this file except
 ~ in compliance with the License.
 ~ You may obtain a copy of the License at
 ~
 ~     http://www.apache.org/licenses/LICENSE-2.0
 ~
 ~ Unless required by applicable law or agreed to in writing,
 ~ software distributed under the License is distributed on an
 ~ "AS IS" BASIS, WITHOUT WARRANTIES OR CONDITIONS OF ANY
 ~ KIND, either express or implied. See the License for the
 ~ specific language governing permissions and limitations
 ~ under the License.
-->
<svg
    xmlns="http://www.w3.org/2000/svg"
    xmlSpace="preserve"
    viewBox="0 0 96 96"
>
    <path
        d="M4 57.6v1.9m0-4.1v2.1M4 41v.9m0 17.6V74c.4 10.4 8.9 18.5 19.2 18.5h50.9c10.3-.4 18.4-9 18.4-19.3V21.9c-.4-10.4-8.9-18.6-19.2-18.6h-51C12.1 3.7 4 12.3 4 22.6V41m79.6 32.3v.6c-.3 5.5-4.8 9.8-10.3 9.8H22.6c-5.4-.3-9.7-4.9-9.7-10.4V22.1c.3-5.5 4.8-9.8 10.3-9.8h50.2c5.7 0 10.3 4.7 10.3 10.4v50.6z"
        className="st0"
        fill="currentColor"
    />
    <path
        d="M56.8 36.7c1.9 1.2 3.4 3 4.1 5.1.9 2 3.2 3 5.3 2.3 2-.5 3.1-2.5 2.7-4.5-1.1-3.6-3.5-6.7-6.6-8.7-3.8-2.6-8.4-4-13-3.8-5.7-.2-11.3 2-15.5 6-4 3.8-6.3 9.2-6.1 14.8-.1 5.6 2.1 11 6.2 14.9 4.2 4 9.8 6.2 15.5 6 4.6.1 9.2-1.2 13-3.9 3.1-2 5.4-5 6.5-8.6.1-2-1.2-3.8-3.1-4.2-1.9-.5-3.9.4-4.8 2.2-.7 2.1-2.2 3.9-4.1 5-2.2 1.4-4.8 2.1-7.5 2.1-3.6.1-7.1-1.3-9.6-4-2.4-2.5-3.8-5.9-3.7-9.5 0-2.8.8-5.5 2.4-7.8 4-6.1 12.3-7.6 18.3-3.4z"
        className="st0"
        fill="currentColor"
    />
</svg>
