<svg id="Layer_1" data-name="Layer 1" xmlns="http://www.w3.org/2000/svg" viewBox="0 0 400 400"><defs><style>.cls-1{fill:#fff;}</style></defs><path class="cls-1" d="M335.28,55.06A62.81,62.81,0,0,1,398,115.21l.05,2.66V282.13a62.8,62.8,0,0,1-60.15,62.75l-2.65.06H171a62.81,62.81,0,0,1-62.75-60.15l-.05-2.66V219.59H68.31c-25.18,0-45.92-19.34-47-43.84l-.05-2.06V119.44a33.82,33.82,0,1,1,29,0v54c0,8.75,7.2,16.13,16.58,16.85l1.5.06H108.2V117.87a62.8,62.8,0,0,1,60.15-62.75l2.65-.06Zm0,29H171a33.83,33.83,0,0,0-33.76,31.76l-.06,2.06V282.13A33.82,33.82,0,0,0,169,315.89L171,316H335.28A33.81,33.81,0,0,0,369,284.19l.06-2.06V117.87A33.82,33.82,0,0,0,335.28,84.05Zm-78.92,48.31c17,0,31.16,4.12,42.73,12.36s18.8,17.59,21.69,28.2q1.59,11.15-8.83,14.59T294.62,180c-2-6.36-6.44-11.85-13.41-16.59s-15.12-7.12-24.45-7.12c-12.88,0-23.4,4.25-31.55,12.61S213,187.52,213,199.63a43.17,43.17,0,0,0,12.23,30.7c8.15,8.61,18.67,12.85,31.42,12.85q14,0,24.45-6.74c7-4.49,11.44-9.86,13.41-16.22q6.31-9.33,15.88-7t10.28,13.86c-2.89,10.36-10,19.59-21.43,27.83s-25.63,12.73-42.59,12.73q-30.57,0-50.88-19.47c-13.54-13-20.24-29.08-20.24-48.3s6.7-35.31,20.11-48.16S236,132.36,256.36,132.36Z"/></svg>