 <!--
 ~ Copyright (c) 2025, WSO2 LLC. (https://www.wso2.com) All Rights Reserved.
 ~
 ~ WSO2 LLC. licenses this file to you under the Apache License,
 ~ Version 2.0 (the "License"); you may not use this file except
 ~ in compliance with the License.
 ~ You may obtain a copy of the License at
 ~
 ~     http://www.apache.org/licenses/LICENSE-2.0
 ~
 ~ Unless required by applicable law or agreed to in writing,
 ~ software distributed under the License is distributed on an
 ~ "AS IS" BASIS, WITHOUT WARRANTIES OR CONDITIONS OF ANY
 ~ KIND, either express or implied. See the License for the
 ~ specific language governing permissions and limitations
 ~ under the License.
-->
<svg width="15" height="16" viewBox="0 0 15 16" fill="none" xmlns="http://www.w3.org/2000/svg">
<path d="M0.800049 0.700049C0.800049 0.479135 0.979135 0.300049 1.20005 0.300049H11.4C11.5061 0.300049 11.6079 0.342192 11.6829 0.417206L14.1829 2.91721C14.2579 2.99222 14.3 3.09396 14.3 3.20005V15.4C14.3 15.621 14.121 15.8 13.9 15.8H1.20005C0.979135 15.8 0.800049 15.621 0.800049 15.4V0.700049ZM1.60005 1.10005V15H13.5V3.36573L11.2344 1.10005H1.60005Z" fill="black"/>
<path d="M11.4 0.800049C11.621 0.800049 11.8 0.979135 11.8 1.20005V2.80005H13.5C13.721 2.80005 13.9 2.97914 13.9 3.20005C13.9 3.42096 13.721 3.60005 13.5 3.60005H11.4C11.1791 3.60005 11 3.42096 11 3.20005V1.20005C11 0.979135 11.1791 0.800049 11.4 0.800049Z" fill="black"/>
<path d="M6.50005 6.70005C6.50005 6.76672 6.50005 6.80005 6.50005 6.80005C6.50005 6.93338 6.53338 7.00005 6.60005 7.00005C6.60005 7.06672 6.60005 7.10005 6.60005 7.10005C6.66672 7.10005 6.70005 7.13338 6.70005 7.20005C6.70005 7.26672 6.73338 7.33338 6.80005 7.40005C6.80005 7.40005 6.80005 7.50005 6.70005 7.60005C6.50005 7.40005 6.33338 7.20005 6.20005 7.00005C6.20005 6.93338 6.20005 6.90005 6.20005 6.90005C6.20005 6.83338 6.16672 6.76672 6.10005 6.70005C6.10005 6.63338 6.06672 6.56672 6.00005 6.50005C6.00005 6.50005 6.00005 6.46672 6.00005 6.40005C6.00005 6.26672 6.00005 6.16672 6.00005 6.10005C6.00005 6.03338 6.00005 5.96672 6.00005 5.90005C6.06672 5.90005 6.10005 5.83338 6.10005 5.70005C6.10005 5.70005 6.10005 5.66672 6.10005 5.60005C6.50005 5.10005 7.00005 4.80005 7.40005 4.40005C7.70005 4.10005 8.10005 3.90005 8.40005 3.60005C8.73338 3.13338 8.90005 2.60005 8.90005 2.00005C9.10005 2.40005 9.10005 2.80005 9.00005 3.20005C8.70005 3.90005 8.20005 4.40005 7.60005 4.90005C7.10005 5.30005 6.70005 5.70005 6.50005 6.30005C6.36672 6.43338 6.36672 6.56672 6.50005 6.70005Z" fill="black"/>
<path d="M10.1 13.1C8.80005 13.4 7.60005 13.5 6.30005 13.4C5.43338 13.4 4.53338 13.3334 3.60005 13.2C3.40005 13.1 3.10005 13.1 3.00005 12.9C3.20005 12.5 3.50005 12.4 3.80005 12.3C3.80005 12.3667 3.80005 12.4334 3.80005 12.5C3.80005 12.5 3.70005 12.6 3.80005 12.8C4.40005 13 5.10005 13.1 5.80005 13.1C7.20005 13.2 8.60005 13.1 10 13C10.0667 13.0667 10.1 13.1 10.1 13.1Z" fill="black"/>
<path d="M8.40005 8.20005C8.40005 8.20005 8.40005 8.16672 8.40005 8.10005C8.40005 8.03338 8.36672 7.96672 8.30005 7.90005C8.16672 7.70005 8.03338 7.46672 7.90005 7.20005C7.40005 6.60005 7.50005 6.00005 8.00005 5.40005C8.33338 5.06672 8.73338 4.83338 9.20005 4.70005C9.20005 4.76672 9.23338 4.80005 9.30005 4.80005C9.23338 4.80005 9.20005 4.83338 9.20005 4.90005C9.20005 4.90005 9.16672 4.90005 9.10005 4.90005C9.10005 4.90005 9.06672 4.93338 9.00005 5.00005C9.00005 5.00005 8.96671 5.03338 8.90005 5.10005C8.90005 5.10005 8.86672 5.10005 8.80005 5.10005C8.73338 5.23338 8.63338 5.36672 8.50005 5.50005C8.20005 5.90005 8.10005 6.20005 8.40005 6.70005C8.46671 6.83338 8.56672 6.93338 8.70005 7.00005C9.00005 7.60005 9.00005 7.90005 8.50005 8.40005C8.40005 8.40005 8.40005 8.30005 8.40005 8.20005Z" fill="black"/>
<path d="M5.30005 11.6C5.36672 11.6 5.40005 11.5667 5.40005 11.5C5.50005 11.4 5.60005 11.4 5.60005 11.4C6.70005 11.9 7.70005 11.7 8.80005 11.6C8.93338 11.6667 9.10005 11.7334 9.30005 11.8C8.40005 12.5 5.90005 12.4 5.30005 11.6Z" fill="black"/>
<path d="M9.10005 10.2C9.30005 10.3 9.40005 10.4 9.50005 10.6C8.00005 10.9 6.50005 11.1 5.00005 10.5C5.00005 10.2 5.20005 10.1 5.40005 10C5.40005 10.4 5.70005 10.4 6.00005 10.4C7.00005 10.5 8.10005 10.5 9.10005 10.2Z" fill="black"/>
<path d="M9.60005 9.20005C7.70005 9.60005 5.90005 9.70005 4.00005 9.20005C4.30005 8.90005 4.60005 8.80005 5.00005 8.70005C5.00005 8.76672 5.00005 8.83338 5.00005 8.90005C4.93338 8.90005 4.86672 8.93338 4.80005 9.00005C4.90005 9.20005 5.10005 9.20005 5.30005 9.20005C6.50005 9.40005 7.80005 9.20005 9.00005 9.10005C9.20005 9.10005 9.43338 9.10005 9.70005 9.10005C9.63338 9.10005 9.60005 9.13338 9.60005 9.20005Z" fill="black"/>
<path d="M8.50005 14C7.83338 14.0667 7.20005 14.0667 6.60005 14C6.60005 13.9334 6.60005 13.9 6.60005 13.9C7.90005 13.9 9.20005 13.8 10.5 13.6C10.8334 13.4667 11.1667 13.3667 11.5 13.3C11.5 13.3667 11.5334 13.4 11.6 13.4C10.7 13.8 9.80005 13.9 8.90005 14C8.80005 13.9 8.60005 13.9 8.50005 14Z" fill="black"/>
<path d="M11.3 8.40005C11.7 8.50005 11.9 8.70005 12 9.10005C12.1 9.50005 11.9 9.80005 11.7 10C11.5 10.2 11.3 10.3 11.1 10.4C11.1 10.3334 11.1 10.2667 11.1 10.2C11.1667 10.0667 11.2667 9.96671 11.4 9.90005C11.7 9.40005 11.7 9.00005 11.2 8.60005C11.2667 8.53338 11.3 8.46671 11.3 8.40005Z" fill="black"/>
<path d="M6.60005 13.9C6.60005 13.9 6.60005 13.9334 6.60005 14C6.20005 14.1 5.90005 13.9 5.60005 13.9C5.60005 13.9 5.60005 13.8667 5.60005 13.8C5.93338 13.8 6.26672 13.8334 6.60005 13.9Z" fill="black"/>
<path d="M10.4 12.9C10.7 12.8 11 12.8 11.3 12.6C11.3 12.6 11.3334 12.6334 11.4 12.7C11.1 12.9 10.7 13 10.4 13.1C10.4 13.0334 10.4 12.9667 10.4 12.9Z" fill="black"/>
<path d="M6.70005 7.60005C6.80005 7.50005 6.80005 7.40005 6.80005 7.40005C6.93338 7.60005 7.06672 7.80005 7.20005 8.00005C7.20005 8.00005 7.20005 8.03338 7.20005 8.10005C7.00005 7.96672 6.83338 7.80005 6.70005 7.60005Z" fill="black"/>
<path d="M11.1 10.2C11.1 10.2667 11.1 10.3334 11.1 10.4C11 10.5 10.8 10.6 10.6 10.6C10.6 10.5334 10.6 10.5 10.6 10.5C10.8 10.3667 10.9667 10.2667 11.1 10.2Z" fill="black"/>
<path d="M11.3 8.40005C11.3 8.46671 11.2667 8.53338 11.2 8.60005C11.0667 8.60005 10.9334 8.56672 10.8 8.50005C10.8 8.50005 10.8 8.46672 10.8 8.40005C11 8.40005 11.1 8.30005 11.3 8.40005Z" fill="black"/>
<path d="M9.30005 4.80005C9.23338 4.80005 9.20005 4.76672 9.20005 4.70005C9.33338 4.63338 9.46672 4.56672 9.60005 4.50005C9.60005 4.50005 9.60005 4.53338 9.60005 4.60005C9.46672 4.66672 9.36672 4.73338 9.30005 4.80005Z" fill="black"/>
<path d="M5.60005 13.8C5.60005 13.8667 5.60005 13.9 5.60005 13.9C5.40005 13.9 5.23338 13.8667 5.10005 13.8C5.10005 13.8 5.06672 13.8 5.00005 13.8C5.20005 13.8 5.40005 13.8 5.60005 13.8Z" fill="black"/>
<path d="M11.6 13.4C11.5334 13.4 11.5 13.3667 11.5 13.3C11.6334 13.2334 11.7334 13.1667 11.8 13.1C11.8667 13.1667 11.9 13.2 11.9 13.2C11.8334 13.3334 11.7334 13.4 11.6 13.4Z" fill="black"/>
<path d="M3.80005 12.5C3.80005 12.4334 3.80005 12.3667 3.80005 12.3C3.86672 12.2334 3.96672 12.2 4.10005 12.2C4.10005 12.2667 4.10005 12.3334 4.10005 12.4C4.03338 12.4 3.93338 12.4334 3.80005 12.5Z" fill="black"/>
<path d="M8.90005 14C8.80005 13.9 8.60005 13.9 8.50005 14C8.63338 14.0667 8.76671 14.0667 8.90005 14Z" fill="black"/>
<path d="M4.40005 12.2C4.46672 12.1334 4.56672 12.1334 4.70005 12.2C4.60005 12.4 4.50005 12.3 4.40005 12.3C4.40005 12.2334 4.40005 12.2 4.40005 12.2Z" fill="black"/>
<path d="M7.20005 8.10005C7.20005 8.03338 7.20005 8.00005 7.20005 8.00005C7.26672 8.06672 7.33338 8.13338 7.40005 8.20005C7.30005 8.30005 7.20005 8.20005 7.20005 8.10005Z" fill="black"/>
<path d="M8.40005 8.20005C8.40005 8.30005 8.40005 8.40005 8.50005 8.40005C8.43338 8.53338 8.36672 8.63338 8.30005 8.70005C8.20005 8.50005 8.30005 8.40005 8.40005 8.20005Z" fill="black"/>
<path d="M5.00005 8.90005C5.00005 8.83338 5.00005 8.76672 5.00005 8.70005C5.06672 8.63338 5.13338 8.60005 5.20005 8.60005C5.20005 8.66672 5.20005 8.73338 5.20005 8.80005C5.13338 8.80005 5.06672 8.83338 5.00005 8.90005Z" fill="black"/>
<path d="M10.6 10.5C10.6 10.5 10.6 10.5334 10.6 10.6C10.6 10.6667 10.5334 10.7 10.4 10.7C10.4 10.5 10.5 10.5 10.6 10.5Z" fill="black"/>
<path d="M5.50005 8.60005C5.56672 8.53338 5.66672 8.50005 5.80005 8.50005C5.70005 8.60005 5.60005 8.70005 5.50005 8.70005C5.50005 8.63338 5.50005 8.60005 5.50005 8.60005Z" fill="black"/>
<path d="M9.70005 9.10005C9.70005 9.00005 9.80005 9.00005 9.90005 9.00005C9.90005 9.10005 9.80005 9.10005 9.70005 9.10005Z" fill="black"/>
<path d="M5.50005 8.60005C5.50005 8.60005 5.50005 8.63338 5.50005 8.70005C5.36672 8.70005 5.26672 8.73338 5.20005 8.80005C5.20005 8.73338 5.20005 8.66672 5.20005 8.60005C5.26672 8.60005 5.36672 8.60005 5.50005 8.60005Z" fill="black"/>
<path d="M9.80005 4.40005C9.80005 4.40005 9.90005 4.30005 10 4.30005C10 4.50005 9.90005 4.40005 9.80005 4.50005C9.80005 4.43338 9.80005 4.40005 9.80005 4.40005Z" fill="black"/>
<path d="M6.50005 6.30005C6.36672 6.43338 6.36672 6.56672 6.50005 6.70005C6.50005 6.56672 6.50005 6.43338 6.50005 6.30005Z" fill="black"/>
<path d="M4.40005 12.2C4.40005 12.2 4.40005 12.2334 4.40005 12.3C4.26672 12.3 4.16672 12.3334 4.10005 12.4C4.10005 12.3334 4.10005 12.2667 4.10005 12.2C4.16672 12.2 4.26672 12.2 4.40005 12.2Z" fill="black"/>
<path d="M11.3 12.6C11.3 12.5 11.4 12.4 11.5 12.4C11.6 12.5 11.5 12.6 11.4 12.7C11.3334 12.6334 11.3 12.6 11.3 12.6Z" fill="black"/>
<path d="M10.4 12.9C10.4 12.9667 10.4 13.0334 10.4 13.1C10.2667 13.1 10.1667 13.1 10.1 13.1C10.1 13.1 10.0667 13.0667 10 13C10.1334 13 10.2667 12.9667 10.4 12.9Z" fill="black"/>
<path d="M11.8 13.1C11.8667 13.0334 11.9334 13.0334 12 13.1L11.9 13.2C11.9 13.2 11.8667 13.1667 11.8 13.1Z" fill="black"/>
<path d="M5.00005 13.8C5.06672 13.8 5.10005 13.8 5.10005 13.8C5.03338 13.8667 4.96672 13.8667 4.90005 13.8C4.90005 13.7 5.00005 13.7 5.00005 13.8Z" fill="black"/>
<path d="M9.60005 4.60005C9.60005 4.53338 9.60005 4.50005 9.60005 4.50005C9.66672 4.43338 9.73338 4.40005 9.80005 4.40005C9.80005 4.40005 9.80005 4.43338 9.80005 4.50005C9.80005 4.56672 9.73338 4.60005 9.60005 4.60005Z" fill="black"/>
<path d="M6.00005 6.40005C6.00005 6.26672 6.00005 6.16672 6.00005 6.10005C5.86672 6.16672 5.86672 6.26672 6.00005 6.40005Z" fill="black"/>
<path d="M8.40005 8.10005C8.40005 8.03338 8.36672 7.96672 8.30005 7.90005C8.30005 7.96672 8.33338 8.03338 8.40005 8.10005Z" fill="black"/>
<path d="M6.50005 6.80005C6.50005 6.93338 6.53338 7.00005 6.60005 7.00005C6.60005 6.93338 6.56672 6.86672 6.50005 6.80005Z" fill="black"/>
<path d="M6.20005 6.90005C6.20005 6.83338 6.16672 6.76672 6.10005 6.70005C6.10005 6.76672 6.13338 6.83338 6.20005 6.90005Z" fill="black"/>
<path d="M6.10005 6.70005C6.10005 6.63338 6.06672 6.56672 6.00005 6.50005C6.00005 6.56672 6.03338 6.63338 6.10005 6.70005Z" fill="black"/>
<path d="M6.00005 5.90005C6.06672 5.90005 6.10005 5.83338 6.10005 5.70005C6.03338 5.76672 6.00005 5.83338 6.00005 5.90005Z" fill="black"/>
<path d="M10.8 8.40005C10.8 8.46672 10.8 8.50005 10.8 8.50005C10.8 8.50005 10.7667 8.50005 10.7 8.50005C10.7 8.50005 10.7 8.46671 10.7 8.40005C10.7667 8.40005 10.8 8.40005 10.8 8.40005Z" fill="black"/>
<path d="M9.70005 9.10005C9.63338 9.10005 9.60005 9.13338 9.60005 9.20005C9.66672 9.20005 9.70005 9.16672 9.70005 9.10005Z" fill="black"/>
<path d="M9.10005 4.90005C9.10005 4.90005 9.06672 4.93338 9.00005 5.00005C9.06672 5.00005 9.10005 4.96672 9.10005 4.90005Z" fill="black"/>
</svg>
