<!--
 ~ Copyright (c) 2025, WSO2 LLC. (https://www.wso2.com) All Rights Reserved.
 ~
 ~ WSO2 LLC. licenses this file to you under the Apache License,
 ~ Version 2.0 (the "License"); you may not use this file except
 ~ in compliance with the License.
 ~ You may obtain a copy of the License at
 ~
 ~     http://www.apache.org/licenses/LICENSE-2.0
 ~
 ~ Unless required by applicable law or agreed to in writing,
 ~ software distributed under the License is distributed on an
 ~ "AS IS" BASIS, WITHOUT WARRANTIES OR CONDITIONS OF ANY
 ~ KIND, either express or implied. See the License for the
 ~ specific language governing permissions and limitations
 ~ under the License.
-->
<svg xmlns="http://www.w3.org/2000/svg" width="24" height="24" viewBox="0 0 24 24">
    <path fill="currentColor"
        d="M11.7 18q-2.4-.125-4.05-1.85T6 12q0-2.5 1.75-4.25T12 6q2.425 0 4.15 1.65T18 11.7l-2.1-.625q-.325-1.35-1.4-2.212T12 8q-1.65 0-2.825 1.175T8 12q0 1.425.863 2.5t2.212 1.4L11.7 18Zm.3 4q-2.075 0-3.9-.788t-3.175-2.137q-1.35-1.35-2.137-3.175T2 12q0-2.075.788-3.9t2.137-3.175q1.35-1.35 3.175-2.137T12 2q2.075 0 3.9.788t3.175 2.137q1.35 1.35 2.138 3.175T22 12v.45q0 .225-.05.45L20 12.3V12q0-3.35-2.325-5.675T12 4Q8.65 4 6.325 6.325T4 12q0 3.35 2.325 5.675T12 20h.3l.6 1.95q-.225.05-.45.05H12Zm8.175.15l-3.925-3.925l-.75 2.275q-.125.35-.475.338t-.475-.363L12.275 12.9q-.1-.275.125-.5t.5-.125l7.575 2.275q.35.125.363.475t-.338.475l-2.275.75l3.925 3.925q.15.15.15.35t-.15.35l-1.275 1.275q-.15.15-.35.15t-.35-.15Z" />
</svg>
