<!--
 ~ Copyright (c) 2025, WSO2 LLC. (https://www.wso2.com) All Rights Reserved.
 ~
 ~ WSO2 LLC. licenses this file to you under the Apache License,
 ~ Version 2.0 (the "License"); you may not use this file except
 ~ in compliance with the License.
 ~ You may obtain a copy of the License at
 ~
 ~     http://www.apache.org/licenses/LICENSE-2.0
 ~
 ~ Unless required by applicable law or agreed to in writing,
 ~ software distributed under the License is distributed on an
 ~ "AS IS" BASIS, WITHOUT WARRANTIES OR CONDITIONS OF ANY
 ~ KIND, either express or implied. See the License for the
 ~ specific language governing permissions and limitations
 ~ under the License.
-->
<svg width="15" height="17" viewBox="0 0 15 17" fill="none" xmlns="http://www.w3.org/2000/svg">
<path d="M2.8 12.9C2.8 12.8334 2.76667 12.8 2.7 12.8C2.7 12.7334 2.66667 12.7 2.6 12.7C2.53333 12.6334 2.5 12.6 2.5 12.6C2.43333 12.6 2.36667 12.6 2.3 12.6C2.16667 12.6 2.06667 12.6 2 12.6C1.93333 12.6667 1.86667 12.7334 1.8 12.8C1.73333 12.8667 1.7 12.9334 1.7 13C1.7 13.0667 1.7 13.1667 1.7 13.3C1.7 13.3667 1.7 13.4667 1.7 13.6C1.7 13.6667 1.73333 13.7334 1.8 13.8C1.86667 13.8667 1.93333 13.9334 2 14C2.06667 14 2.16667 14 2.3 14C2.36667 14 2.43333 14 2.5 14C2.56667 14 2.6 13.9667 2.6 13.9C2.66667 13.8334 2.73333 13.7667 2.8 13.7C2.8 13.6334 2.8 13.5667 2.8 13.5H3C3 13.7667 2.93333 13.9667 2.8 14.1C2.66667 14.1667 2.5 14.2 2.3 14.2C2.1 14.2 1.96667 14.2 1.9 14.2C1.76667 14.1334 1.66667 14.0667 1.6 14C1.53333 13.8667 1.5 13.7667 1.5 13.7C1.43333 13.5667 1.4 13.4334 1.4 13.3C1.4 13.1667 1.43333 13.0334 1.5 12.9C1.5 12.8334 1.53333 12.7334 1.6 12.6C1.66667 12.5334 1.76667 12.4667 1.9 12.4C2.03333 12.4 2.16667 12.4 2.3 12.4C2.36667 12.4 2.43333 12.4 2.5 12.4C2.63333 12.4 2.73333 12.4334 2.8 12.5C2.86667 12.5667 2.9 12.6334 2.9 12.7C2.96667 12.7667 3 12.8334 3 12.9H2.8Z" fill="black"/>
<path fill-rule="evenodd" clip-rule="evenodd" d="M3.3 13.3C3.3 13.3667 3.3 13.4334 3.3 13.5C3.3 13.6334 3.3 13.7334 3.3 13.8C3.36667 13.8667 3.43333 13.9334 3.5 14C3.5 14.0667 3.56667 14.1334 3.7 14.2C3.76667 14.2 3.83333 14.2 3.9 14.2C4.03333 14.2 4.13333 14.2 4.2 14.2C4.26667 14.1334 4.33333 14.0667 4.4 14C4.46667 13.9334 4.5 13.8667 4.5 13.8C4.56667 13.7334 4.6 13.6334 4.6 13.5C4.6 13.4334 4.56667 13.3667 4.5 13.3C4.5 13.2334 4.46667 13.1667 4.4 13.1C4.33333 13.0334 4.26667 12.9667 4.2 12.9C4.13333 12.9 4.03333 12.9 3.9 12.9C3.83333 12.9 3.76667 12.9 3.7 12.9C3.56667 12.9667 3.5 13.0334 3.5 13.1C3.43333 13.1667 3.36667 13.2334 3.3 13.3ZM3.6 13.8C3.53333 13.7334 3.5 13.6334 3.5 13.5C3.5 13.4334 3.53333 13.3667 3.6 13.3C3.6 13.2334 3.63333 13.2 3.7 13.2C3.7 13.1334 3.73333 13.1 3.8 13.1C3.86667 13.1 3.9 13.1 3.9 13.1C3.96667 13.1 4.03333 13.1 4.1 13.1C4.16667 13.1 4.2 13.1334 4.2 13.2C4.26667 13.2 4.3 13.2334 4.3 13.3C4.3 13.3667 4.3 13.4334 4.3 13.5C4.3 13.6334 4.3 13.7334 4.3 13.8C4.3 13.8667 4.26667 13.9 4.2 13.9C4.2 13.9667 4.16667 14 4.1 14C4.03333 14 3.96667 14 3.9 14C3.9 14 3.86667 14 3.8 14C3.73333 14 3.7 13.9667 3.7 13.9C3.63333 13.9 3.6 13.8667 3.6 13.8Z" fill="black"/>
<path d="M4.9 12.9H5.1V13.1C5.23333 12.9667 5.36667 12.9 5.5 12.9C5.63333 12.9 5.73333 12.9 5.8 12.9C5.8 12.9667 5.83333 13.0334 5.9 13.1C5.96667 13.0334 6.03333 12.9667 6.1 12.9C6.16667 12.9 6.23333 12.9 6.3 12.9C6.36667 12.9 6.43333 12.9 6.5 12.9C6.56667 12.9 6.6 12.9334 6.6 13C6.66667 13 6.7 13.0334 6.7 13.1C6.7 13.1 6.7 13.1334 6.7 13.2V14.2H6.5V13.3C6.5 13.3 6.5 13.2667 6.5 13.2C6.5 13.2 6.5 13.1667 6.5 13.1C6.43333 13.1 6.4 13.1 6.4 13.1C6.33333 13.1 6.3 13.1 6.3 13.1C6.16667 13.1 6.06667 13.1 6 13.1C5.93333 13.1667 5.9 13.2667 5.9 13.4V14.2H5.7V13.3C5.7 13.3 5.7 13.2667 5.7 13.2C5.7 13.2 5.7 13.1667 5.7 13.1C5.63333 13.1 5.6 13.1 5.6 13.1C5.53333 13.1 5.5 13.1 5.5 13.1C5.43333 13.1 5.36667 13.1 5.3 13.1C5.23333 13.1 5.2 13.1334 5.2 13.2C5.2 13.2 5.16667 13.2334 5.1 13.3C5.1 13.3 5.1 13.3334 5.1 13.4V14.2H4.9V12.9Z" fill="black"/>
<path d="M7.1 12.9H7.3V13.1C7.43333 12.9667 7.6 12.9 7.8 12.9C7.86667 12.9 7.93333 12.9 8 12.9C8.06667 12.9667 8.1 13.0334 8.1 13.1C8.16667 13.0334 8.23333 12.9667 8.3 12.9C8.36667 12.9 8.43333 12.9 8.5 12.9C8.56667 12.9 8.63333 12.9 8.7 12.9C8.76667 12.9 8.8 12.9334 8.8 13C8.86667 13 8.9 13.0334 8.9 13.1C8.96667 13.1 9 13.1334 9 13.2V14.2H8.7V13.3C8.76667 13.3 8.76667 13.2667 8.7 13.2C8.7 13.2 8.7 13.1667 8.7 13.1C8.7 13.1 8.66667 13.1 8.6 13.1C8.6 13.1 8.56667 13.1 8.5 13.1C8.36667 13.1 8.26667 13.1 8.2 13.1C8.2 13.1667 8.2 13.2667 8.2 13.4V14.2H7.9V13.3C7.9 13.3 7.9 13.2667 7.9 13.2C7.9 13.2 7.9 13.1667 7.9 13.1C7.9 13.1 7.86667 13.1 7.8 13.1C7.8 13.1 7.76667 13.1 7.7 13.1C7.63333 13.1 7.56667 13.1 7.5 13.1C7.5 13.1 7.46667 13.1334 7.4 13.2C7.4 13.2 7.4 13.2334 7.4 13.3C7.33333 13.3 7.3 13.3334 7.3 13.4V14.2H7.1V12.9Z" fill="black"/>
<path fill-rule="evenodd" clip-rule="evenodd" d="M10.5 14.2C10.4333 14.2 10.4 14.2 10.4 14.2C10.3333 14.2 10.2667 14.2 10.2 14.2C10.2 14.1334 10.2 14.0667 10.2 14C10.1333 14.0667 10.0667 14.1334 10 14.2C9.93333 14.2 9.83333 14.2 9.7 14.2C9.63333 14.2 9.6 14.2 9.6 14.2C9.53333 14.2 9.46667 14.1667 9.4 14.1C9.4 14.1 9.36667 14.0667 9.3 14C9.3 14 9.3 13.9667 9.3 13.9C9.3 13.8334 9.3 13.7667 9.3 13.7C9.36667 13.6334 9.4 13.6 9.4 13.6C9.46667 13.5334 9.53333 13.5 9.6 13.5C9.66667 13.5 9.7 13.5 9.7 13.5C9.76667 13.4334 9.83333 13.4 9.9 13.4C9.96667 13.4 10 13.4 10 13.4C10.0667 13.4 10.1 13.4 10.1 13.4C10.1667 13.3334 10.2 13.3 10.2 13.3C10.2 13.2334 10.1667 13.2 10.1 13.2C10.1 13.1334 10.1 13.1 10.1 13.1C10.0333 13.1 10 13.1 10 13.1C9.93333 13.1 9.9 13.1 9.9 13.1C9.76667 13.1 9.7 13.1 9.7 13.1C9.63333 13.1667 9.6 13.2334 9.6 13.3H9.3C9.3 13.2334 9.33333 13.1667 9.4 13.1C9.4 13.0334 9.43333 13 9.5 13C9.56667 12.9334 9.63333 12.9 9.7 12.9C9.76667 12.9 9.83333 12.9 9.9 12.9C9.96667 12.9 10.0333 12.9 10.1 12.9C10.1667 12.9 10.2 12.9 10.2 12.9C10.2667 12.9667 10.3 13 10.3 13C10.3667 13.0667 10.4 13.1334 10.4 13.2V13.9C10.4 13.9667 10.4 14 10.4 14C10.4 14 10.4333 14 10.5 14V14.2ZM10.2 13.6C10.1333 13.6 10.1 13.6 10.1 13.6C10.1 13.6 10.0667 13.6 10 13.6C9.93333 13.6 9.9 13.6 9.9 13.6C9.83333 13.6 9.8 13.6 9.8 13.6C9.73333 13.6667 9.7 13.7 9.7 13.7C9.63333 13.7 9.6 13.7 9.6 13.7C9.6 13.7 9.56667 13.7334 9.5 13.8C9.5 13.8 9.5 13.8334 9.5 13.9C9.5 13.9 9.5 13.9334 9.5 14C9.56667 14 9.6 14 9.6 14C9.6 14 9.63333 14.0334 9.7 14.1C9.7 14.1 9.73333 14.1 9.8 14.1C9.86667 14.1 9.93333 14.0667 10 14C10 14 10.0333 14 10.1 14C10.1 13.9334 10.1 13.9 10.1 13.9C10.1667 13.8334 10.2 13.8 10.2 13.8V13.6Z" fill="black"/>
<path d="M10.8 12.9H11V13.1C11.0667 13.0334 11.1333 12.9667 11.2 12.9C11.2667 12.9 11.3333 12.9 11.4 12.9C11.5333 12.9 11.6 12.9 11.6 12.9C11.6667 12.9 11.7333 12.9334 11.8 13C11.8 13.0667 11.8333 13.1 11.9 13.1C11.9 13.1667 11.9 13.2334 11.9 13.3V14.2H11.7V13.3C11.7 13.2334 11.6667 13.1667 11.6 13.1C11.5333 13.1 11.4667 13.1 11.4 13.1C11.3333 13.1 11.2667 13.1 11.2 13.1C11.2 13.1 11.1667 13.1334 11.1 13.2C11.1 13.2 11.0667 13.2334 11 13.3C11 13.3667 11 13.4334 11 13.5V14.2H10.8V12.9Z" fill="black"/>
<path fill-rule="evenodd" clip-rule="evenodd" d="M13.4 14.2V12.4H13.2V13.1C13.2 13.0334 13.1667 13 13.1 13C13.1 12.9334 13.0667 12.9 13 12.9C13 12.9 12.9667 12.9 12.9 12.9C12.9 12.9 12.8667 12.9 12.8 12.9C12.7333 12.9 12.6333 12.9 12.5 12.9C12.4333 12.9667 12.4 13.0334 12.4 13.1C12.3333 13.1667 12.2667 13.2334 12.2 13.3C12.2 13.3667 12.2 13.4334 12.2 13.5C12.2 13.6334 12.2 13.7334 12.2 13.8C12.2667 13.8667 12.3333 13.9334 12.4 14C12.4 14.0667 12.4333 14.1334 12.5 14.2C12.6333 14.2 12.7333 14.2 12.8 14.2C12.8667 14.2 12.9667 14.2 13.1 14.2C13.1667 14.1334 13.2 14.0667 13.2 14V14.2H13.4ZM12.5 13.7C12.4333 13.6334 12.4 13.6 12.4 13.6C12.4 13.5334 12.4333 13.4667 12.5 13.4C12.5 13.3334 12.5 13.2667 12.5 13.2C12.5667 13.1334 12.6 13.1 12.6 13.1C12.6667 13.0334 12.7333 13 12.8 13C12.8667 13 12.9333 13.0334 13 13.1C13.0667 13.1 13.1 13.1334 13.1 13.2C13.1667 13.2667 13.2 13.3334 13.2 13.4C13.2 13.4 13.2 13.4334 13.2 13.5C13.2 13.5667 13.2 13.6334 13.2 13.7C13.2 13.7667 13.1667 13.8334 13.1 13.9C13.1 13.9667 13.0667 14 13 14C12.9333 14 12.8667 14 12.8 14C12.7333 14 12.7 14 12.7 14C12.6333 14 12.5667 13.9667 12.5 13.9C12.5 13.8334 12.5 13.7667 12.5 13.7Z" fill="black"/>
<path d="M6.7 5.10005C6.7 5.16672 6.7 5.20005 6.7 5.20005C6.7 5.26672 6.7 5.33338 6.7 5.40005C6.76667 5.40005 6.8 5.40005 6.8 5.40005C6.8 5.46672 6.8 5.50005 6.8 5.50005C6.8 5.56672 6.83333 5.63338 6.9 5.70005C6.9 5.70005 6.9 5.80005 6.8 5.80005C6.66667 5.66672 6.53333 5.53338 6.4 5.40005C6.4 5.33338 6.4 5.30005 6.4 5.30005C6.4 5.23338 6.36667 5.16672 6.3 5.10005C6.3 5.03338 6.3 5.00005 6.3 5.00005C6.23333 4.93338 6.2 4.90005 6.2 4.90005C6.2 4.83338 6.2 4.73338 6.2 4.60005C6.2 4.60005 6.23333 4.56672 6.3 4.50005C6.3 4.50005 6.3 4.46672 6.3 4.40005C6.3 4.33338 6.33333 4.30005 6.4 4.30005C6.6 3.90005 7 3.60005 7.4 3.30005C7.6 3.10005 7.9 2.90005 8.1 2.60005C8.43333 2.26672 8.56667 1.90005 8.5 1.50005C8.7 1.70005 8.7 2.00005 8.6 2.40005C8.4 2.90005 8 3.30005 7.5 3.70005C7.1 4.00005 6.8 4.30005 6.7 4.80005C6.56667 4.93338 6.56667 5.03338 6.7 5.10005Z" fill="black"/>
<path d="M9.5 10.2C8.5 10.4 7.5 10.5 6.5 10.4C5.76667 10.4 5.06667 10.3334 4.4 10.2C4.2 10.2 4 10.2 3.9 10C4 9.70005 4.3 9.70005 4.6 9.60005C4.6 9.60005 4.6 9.63338 4.6 9.70005C4.5 9.70005 4.5 9.80005 4.5 9.90005C5 10.1 5.6 10.1 6.1 10.2C7.2 10.3 8.3 10.2 9.5 10.1C9.5 10.1667 9.5 10.2 9.5 10.2Z" fill="black"/>
<path d="M8.1 6.40005C8.1 6.33338 8.1 6.26672 8.1 6.20005C8.16667 6.13338 8.16667 6.10005 8.1 6.10005C7.96667 5.90005 7.83333 5.73338 7.7 5.60005C7.4 5.00005 7.4 4.60005 7.9 4.10005C8.1 3.83338 8.4 3.66672 8.8 3.60005C8.8 3.60005 8.83333 3.60005 8.9 3.60005C8.83333 3.66672 8.8 3.70005 8.8 3.70005C8.73333 3.70005 8.7 3.73338 8.7 3.80005C8.63333 3.80005 8.6 3.80005 8.6 3.80005C8.53333 3.86672 8.5 3.90005 8.5 3.90005C8.43333 3.96672 8.36667 4.06672 8.3 4.20005C8 4.50005 7.9 4.80005 8.2 5.10005C8.26667 5.23338 8.33333 5.33338 8.4 5.40005C8.7 5.90005 8.6 6.10005 8.2 6.50005C8.2 6.50005 8.2 6.40005 8.1 6.40005Z" fill="black"/>
<path d="M5.7 9.00005C5.76667 9.00005 5.8 8.96671 5.8 8.90005C5.86667 8.90005 5.9 8.86672 5.9 8.80005C6.8 9.20005 7.6 9.10005 8.5 9.00005C8.56667 9.06672 8.7 9.13338 8.9 9.20005C8.2 9.70005 6.2 9.60005 5.7 9.00005Z" fill="black"/>
<path d="M8.7 7.90005C8.8 8.00005 9 8.00005 9 8.20005C7.8 8.40005 6.6 8.60005 5.4 8.10005C5.5 7.90005 5.6 7.80005 5.8 7.70005C5.8 8.00005 6 8.00005 6.2 8.10005C7.1 8.20005 7.9 8.10005 8.7 7.90005Z" fill="black"/>
<path d="M9.1 7.10005C7.6 7.50005 6.2 7.50005 4.7 7.10005C4.9 6.80005 5.2 6.80005 5.4 6.70005C5.4 6.76672 5.4 6.80005 5.4 6.80005C5.4 6.86672 5.36667 6.93338 5.3 7.00005C5.4 7.10005 5.6 7.10005 5.7 7.10005C6.7 7.20005 7.7 7.10005 8.6 7.10005C8.8 7.03338 9 7.00005 9.2 7.00005C9.13333 7.06672 9.1 7.10005 9.1 7.10005Z" fill="black"/>
<path d="M8.2 10.9C7.73333 10.9667 7.23333 10.9667 6.7 10.9C6.7 10.9 6.7 10.8667 6.7 10.8C7.8 10.8 8.8 10.8 9.8 10.5C10.0667 10.5 10.3333 10.4334 10.6 10.3C10.6 10.3667 10.6333 10.4 10.7 10.4C10 10.8 9.3 10.8 8.5 10.9C8.4 10.9 8.3 10.8 8.2 10.9Z" fill="black"/>
<path d="M10.4 6.50005C10.7333 6.56672 10.9333 6.73338 11 7.00005C11.1 7.30005 10.9 7.50005 10.7 7.70005C10.6 7.90005 10.5 8.00005 10.3 8.10005C10.3 8.03338 10.3 7.96672 10.3 7.90005C10.3667 7.83338 10.4333 7.73338 10.5 7.60005C10.8 7.30005 10.7 7.00005 10.4 6.60005C10.4 6.60005 10.4 6.56672 10.4 6.50005Z" fill="black"/>
<path d="M6.7 10.8C6.7 10.8667 6.7 10.9 6.7 10.9C6.5 11 6.2 10.8 5.9 10.8C5.9 10.8 5.9 10.7667 5.9 10.7C6.16667 10.7667 6.43333 10.8 6.7 10.8Z" fill="black"/>
<path d="M9.7 10C10 9.90005 10.2 9.90005 10.5 9.80005C10.3 10 10 10.1 9.7 10.2C9.7 10.1334 9.7 10.0667 9.7 10Z" fill="black"/>
<path d="M6.8 5.80005C6.9 5.80005 6.9 5.70005 6.9 5.70005C6.96667 5.83338 7.06667 5.96672 7.2 6.10005C7.2 6.16672 7.2 6.20005 7.2 6.20005C7.06667 6.13338 6.93333 6.00005 6.8 5.80005Z" fill="black"/>
<path d="M10.3 7.90005C10.3 7.96672 10.3 8.03338 10.3 8.10005C10.2 8.10005 10.1 8.20005 9.9 8.20005C9.9 8.20005 9.9 8.16672 9.9 8.10005C10.0333 8.03338 10.1667 7.96672 10.3 7.90005Z" fill="black"/>
<path d="M10.4 6.50005C10.4 6.56672 10.4 6.60005 10.4 6.60005C10.2667 6.60005 10.1667 6.60005 10.1 6.60005C10.1 6.53338 10.1 6.50005 10.1 6.50005C10.2 6.50005 10.3 6.40005 10.4 6.50005Z" fill="black"/>
<path d="M8.9 3.60005C8.83333 3.60005 8.8 3.60005 8.8 3.60005C8.86667 3.53338 8.96667 3.46672 9.1 3.40005C9.1 3.40005 9.1 3.43338 9.1 3.50005C9.03333 3.56672 8.96667 3.60005 8.9 3.60005Z" fill="black"/>
<path d="M5.9 10.7C5.9 10.7667 5.9 10.8 5.9 10.8C5.76667 10.8 5.63333 10.8 5.5 10.8C5.5 10.7334 5.5 10.7 5.5 10.7C5.63333 10.7 5.76667 10.7 5.9 10.7Z" fill="black"/>
<path d="M10.7 10.4C10.6333 10.4 10.6 10.3667 10.6 10.3C10.6667 10.3 10.7667 10.2667 10.9 10.2C10.9 10.2 10.9 10.2334 10.9 10.3C10.8333 10.3667 10.7667 10.4 10.7 10.4Z" fill="black"/>
<path d="M4.6 9.70005C4.6 9.63338 4.6 9.60005 4.6 9.60005C4.6 9.53338 4.66667 9.50005 4.8 9.50005C4.8 9.56672 4.8 9.60005 4.8 9.60005C4.73333 9.66672 4.66667 9.70005 4.6 9.70005Z" fill="black"/>
<path d="M8.5 10.9C8.4 10.9 8.3 10.8 8.2 10.9C8.33333 10.9667 8.43333 10.9667 8.5 10.9Z" fill="black"/>
<path d="M5 9.50005C5.06667 9.43338 5.13333 9.43338 5.2 9.50005C5.2 9.60005 5.1 9.50005 5 9.60005C5 9.53338 5 9.50005 5 9.50005Z" fill="black"/>
<path d="M7.2 6.20005C7.2 6.20005 7.2 6.16672 7.2 6.10005C7.26667 6.16672 7.33333 6.26672 7.4 6.40005C7.3 6.40005 7.2 6.30005 7.2 6.20005Z" fill="black"/>
<path d="M8.1 6.40005C8.2 6.40005 8.2 6.50005 8.2 6.50005C8.2 6.56672 8.13333 6.63338 8 6.70005C8 6.50005 8.1 6.50005 8.1 6.40005Z" fill="black"/>
<path d="M5.4 6.80005C5.4 6.80005 5.4 6.76672 5.4 6.70005C5.46667 6.70005 5.53333 6.66672 5.6 6.60005C5.6 6.66672 5.6 6.73338 5.6 6.80005C5.53333 6.80005 5.46667 6.80005 5.4 6.80005Z" fill="black"/>
<path d="M9.9 8.10005C9.9 8.16672 9.9 8.20005 9.9 8.20005C9.9 8.26672 9.86667 8.30005 9.8 8.30005C9.8 8.20005 9.8 8.10005 9.9 8.10005Z" fill="black"/>
<path d="M5.9 6.60005C5.96667 6.53338 6.03333 6.53338 6.1 6.60005C6.03333 6.66672 5.96667 6.70005 5.9 6.70005C5.9 6.63338 5.9 6.60005 5.9 6.60005Z" fill="black"/>
<path d="M9.2 7.00005C9.2 6.90005 9.3 6.90005 9.3 6.90005C9.4 7.00005 9.3 7.00005 9.2 7.10005C9.2 7.03338 9.2 7.00005 9.2 7.00005Z" fill="black"/>
<path d="M5.9 6.60005C5.9 6.60005 5.9 6.63338 5.9 6.70005C5.83333 6.70005 5.73333 6.73338 5.6 6.80005C5.6 6.73338 5.6 6.66672 5.6 6.60005C5.73333 6.60005 5.83333 6.60005 5.9 6.60005Z" fill="black"/>
<path d="M9.3 3.30005C9.3 3.23338 9.33333 3.23338 9.4 3.30005C9.4 3.40005 9.3 3.40005 9.3 3.40005C9.3 3.33338 9.3 3.30005 9.3 3.30005Z" fill="black"/>
<path d="M6.7 4.80005C6.56667 4.93338 6.56667 5.03338 6.7 5.10005C6.7 5.03338 6.7 4.93338 6.7 4.80005Z" fill="black"/>
<path d="M5 9.50005C5 9.50005 5 9.53338 5 9.60005C4.93333 9.60005 4.86667 9.60005 4.8 9.60005C4.8 9.60005 4.8 9.56672 4.8 9.50005C4.86667 9.50005 4.93333 9.50005 5 9.50005Z" fill="black"/>
<path d="M10.5 9.80005C10.5 9.70005 10.5 9.60005 10.6 9.60005C10.7 9.70005 10.6 9.80005 10.5 9.80005Z" fill="black"/>
<path d="M9.7 10C9.7 10.0667 9.7 10.1334 9.7 10.2C9.63333 10.2 9.56667 10.2 9.5 10.2C9.5 10.2 9.5 10.1667 9.5 10.1C9.56667 10.1 9.63333 10.0667 9.7 10Z" fill="black"/>
<path d="M10.9 10.2C10.9 10.1334 10.9333 10.1334 11 10.2C11 10.2 11 10.2 10.9 10.3C10.9 10.2334 10.9 10.2 10.9 10.2Z" fill="black"/>
<path d="M5.5 10.7C5.5 10.7 5.5 10.7334 5.5 10.8C5.43333 10.8 5.4 10.7667 5.4 10.7C5.4 10.6334 5.43333 10.6334 5.5 10.7Z" fill="black"/>
<path d="M9.1 3.50005C9.1 3.43338 9.1 3.40005 9.1 3.40005C9.16667 3.40005 9.23333 3.36672 9.3 3.30005C9.3 3.30005 9.3 3.33338 9.3 3.40005C9.23333 3.46672 9.16667 3.50005 9.1 3.50005Z" fill="black"/>
<path d="M6.2 4.90005C6.2 4.83338 6.2 4.73338 6.2 4.60005C6.13333 4.73338 6.13333 4.83338 6.2 4.90005Z" fill="black"/>
<path d="M8.1 6.20005C8.16667 6.13338 8.16667 6.10005 8.1 6.10005C8.1 6.16672 8.1 6.20005 8.1 6.20005Z" fill="black"/>
<path d="M6.7 5.20005C6.7 5.26672 6.7 5.33338 6.7 5.40005C6.76667 5.33338 6.76667 5.26672 6.7 5.20005Z" fill="black"/>
<path d="M6.4 5.30005C6.4 5.23338 6.36667 5.16672 6.3 5.10005C6.3 5.16672 6.33333 5.23338 6.4 5.30005Z" fill="black"/>
<path d="M6.3 5.10005C6.3 5.03338 6.3 5.00005 6.3 5.00005C6.23333 5.06672 6.23333 5.10005 6.3 5.10005Z" fill="black"/>
<path d="M6.3 4.50005C6.3 4.50005 6.3 4.46672 6.3 4.40005C6.23333 4.40005 6.23333 4.43338 6.3 4.50005Z" fill="black"/>
<path d="M10.1 6.50005C10.1 6.50005 10.1 6.53338 10.1 6.60005C10.0333 6.60005 10 6.56672 10 6.50005C10 6.50005 10.0333 6.50005 10.1 6.50005Z" fill="black"/>
<path d="M9.1 7.10005C9.1 7.10005 9.13333 7.06672 9.2 7.00005C9.2 7.00005 9.2 7.03338 9.2 7.10005C9.2 7.10005 9.16667 7.10005 9.1 7.10005Z" fill="black"/>
<path d="M8.8 3.70005C8.73333 3.70005 8.7 3.73338 8.7 3.80005C8.7 3.80005 8.73333 3.76672 8.8 3.70005Z" fill="black"/>
<path d="M0 1.20005C0 0.979135 0.179086 0.800049 0.4 0.800049H14.5C14.7209 0.800049 14.9 0.979135 14.9 1.20005V15.9C14.9 16.121 14.7209 16.3 14.5 16.3H0.4C0.179086 16.3 0 16.121 0 15.9V1.20005ZM0.8 1.60005V15.5H14.1V1.60005H0.8Z" fill="black"/>
<path d="M0 10.8C0 10.5791 0.179086 10.4 0.4 10.4H14.5C14.7209 10.4 14.9 10.5791 14.9 10.8C14.9 11.021 14.7209 11.2 14.5 11.2H0.4C0.179086 11.2 0 11.021 0 10.8Z" fill="black"/>
</svg>
