<!--
 ~ Copyright (c) 2025, WSO2 LLC. (https://www.wso2.com) All Rights Reserved.
 ~
 ~ WSO2 LLC. licenses this file to you under the Apache License,
 ~ Version 2.0 (the "License"); you may not use this file except
 ~ in compliance with the License.
 ~ You may obtain a copy of the License at
 ~
 ~     http://www.apache.org/licenses/LICENSE-2.0
 ~
 ~ Unless required by applicable law or agreed to in writing,
 ~ software distributed under the License is distributed on an
 ~ "AS IS" BASIS, WITHOUT WARRANTIES OR CONDITIONS OF ANY
 ~ KIND, either express or implied. See the License for the
 ~ specific language governing permissions and limitations
 ~ under the License.
-->
<svg width="16" height="15" viewBox="0 0 16 15" fill="none" xmlns="http://www.w3.org/2000/svg">
<path d="M12.3001 1.3C11.8422 1.3 11.5001 1.69906 11.5001 2.1C11.5001 2.62209 11.8617 3 12.3001 3C12.7385 3 13.1001 2.62209 13.1001 2.1C13.1001 1.69906 12.758 1.3 12.3001 1.3ZM10.7001 2.1C10.7001 1.30093 11.358 0.5 12.3001 0.5C13.2422 0.5 13.9001 1.30093 13.9001 2.1C13.9001 2.97791 13.2617 3.8 12.3001 3.8C11.3385 3.8 10.7001 2.97791 10.7001 2.1Z" fill="black"/>
<path d="M12.3001 6.9C11.821 6.9 11.5001 7.22091 11.5001 7.7C11.5001 8.17909 11.821 8.5 12.3001 8.5C12.7792 8.5 13.1001 8.17909 13.1001 7.7C13.1001 7.22091 12.7792 6.9 12.3001 6.9ZM10.7001 7.7C10.7001 6.77909 11.3792 6.1 12.3001 6.1C13.221 6.1 13.9001 6.77909 13.9001 7.7C13.9001 8.62091 13.221 9.3 12.3001 9.3C11.3792 9.3 10.7001 8.62091 10.7001 7.7Z" fill="black"/>
<path d="M12.3001 12.4C11.8422 12.4 11.5001 12.7991 11.5001 13.2C11.5001 13.7221 11.8617 14.1 12.3001 14.1C12.7385 14.1 13.1001 13.7221 13.1001 13.2C13.1001 12.7991 12.758 12.4 12.3001 12.4ZM10.7001 13.2C10.7001 12.4009 11.358 11.6 12.3001 11.6C13.2422 11.6 13.9001 12.4009 13.9001 13.2C13.9001 14.0779 13.2617 14.9 12.3001 14.9C11.3385 14.9 10.7001 14.0779 10.7001 13.2Z" fill="black"/>
<path d="M6.2001 6.7C5.67801 6.7 5.3001 7.06159 5.3001 7.5C5.3001 7.93841 5.67801 8.3 6.2001 8.3C6.60103 8.3 7.0001 7.95785 7.0001 7.5C7.0001 7.04215 6.60103 6.7 6.2001 6.7ZM4.5001 7.5C4.5001 6.53841 5.32218 5.9 6.2001 5.9C6.99916 5.9 7.8001 6.55785 7.8001 7.5C7.8001 8.44215 6.99916 9.1 6.2001 9.1C5.32218 9.1 4.5001 8.46159 4.5001 7.5Z" fill="black"/>
<path d="M11.6998 2.63512C11.8461 2.80066 11.8305 3.05344 11.665 3.19973L7.36498 6.99973C7.19944 7.14602 6.94665 7.13042 6.80037 6.96488C6.65408 6.79934 6.66968 6.54656 6.83522 6.40027L11.1352 2.60027C11.3008 2.45398 11.5535 2.46958 11.6998 2.63512Z" fill="black"/>
<path d="M13.1001 2.1C13.1001 1.87909 13.2792 1.7 13.5001 1.7H15.0001C15.221 1.7 15.4001 1.87909 15.4001 2.1C15.4001 2.32091 15.221 2.5 15.0001 2.5H13.5001C13.2792 2.5 13.1001 2.32091 13.1001 2.1Z" fill="black"/>
<path d="M13.1001 7.7C13.1001 7.47909 13.2792 7.3 13.5001 7.3H15.0001C15.221 7.3 15.4001 7.47909 15.4001 7.7C15.4001 7.92091 15.221 8.1 15.0001 8.1H13.5001C13.2792 8.1 13.1001 7.92091 13.1001 7.7Z" fill="black"/>
<path d="M13.1001 13.2C13.1001 12.9791 13.2792 12.8 13.5001 12.8H15.0001C15.221 12.8 15.4001 12.9791 15.4001 13.2C15.4001 13.4209 15.221 13.6 15.0001 13.6H13.5001C13.2792 13.6 13.1001 13.4209 13.1001 13.2Z" fill="black"/>
<path d="M0.100098 7.5C0.100098 7.27909 0.279184 7.1 0.500098 7.1H3.4001C3.62101 7.1 3.8001 7.27909 3.8001 7.5C3.8001 7.72091 3.62101 7.9 3.4001 7.9H0.500098C0.279184 7.9 0.100098 7.72091 0.100098 7.5Z" fill="black"/>
<path d="M1.31726 4.91716C1.47346 4.76095 1.72673 4.76095 1.88294 4.91716L4.28294 7.31716C4.36009 7.3943 4.40237 7.49961 4.4 7.60869C4.39763 7.71776 4.35081 7.82114 4.27039 7.89486L1.87039 10.0949C1.70754 10.2441 1.45451 10.2331 1.30524 10.0703C1.15596 9.90744 1.16696 9.65442 1.32981 9.50514L3.42185 7.58744L1.31726 5.48284C1.16105 5.32663 1.16105 5.07337 1.31726 4.91716Z" fill="black"/>
</svg>
