<!--
 ~ Copyright (c) 2025, WSO2 LLC. (https://www.wso2.com) All Rights Reserved.
 ~
 ~ WSO2 LLC. licenses this file to you under the Apache License,
 ~ Version 2.0 (the "License"); you may not use this file except
 ~ in compliance with the License.
 ~ You may obtain a copy of the License at
 ~
 ~     http://www.apache.org/licenses/LICENSE-2.0
 ~
 ~ Unless required by applicable law or agreed to in writing,
 ~ software distributed under the License is distributed on an
 ~ "AS IS" BASIS, WITHOUT WARRANTIES OR CONDITIONS OF ANY
 ~ KIND, either express or implied. See the License for the
 ~ specific language governing permissions and limitations
 ~ under the License.
-->
<?xml version="1.0" standalone="no"?>
<!DOCTYPE svg PUBLIC "-//W3C//DTD SVG 20010904//EN"
 "http://www.w3.org/TR/2001/REC-SVG-20010904/DTD/svg10.dtd">
<svg version="1.0" xmlns="http://www.w3.org/2000/svg"
 width="512.000000pt" height="512.000000pt" viewBox="0 0 512.000000 512.000000"
 preserveAspectRatio="xMidYMid meet">

<g transform="translate(0.000000,512.000000) scale(0.100000,-0.100000)"
fill="#000000" stroke="none">
<path d="M340 4788 c-19 -21 -20 -33 -20 -375 l0 -354 25 -24 24 -25 851 0
850 0 0 -1540 0 -1540 554 -2 554 -3 -84 -260 c-46 -143 -84 -272 -84 -287 0
-35 32 -68 67 -68 17 0 325 172 852 477 454 262 834 483 844 491 11 10 17 29
17 53 0 34 -5 42 -37 63 -21 14 -400 234 -843 490 -500 290 -814 466 -830 466
-31 0 -70 -37 -70 -66 0 -10 38 -139 84 -287 l83 -267 -153 0 -154 0 0 1540 0
1540 -1255 0 -1254 0 -21 -22z"/>
</g>
</svg>
