<svg width="60" height="60" viewBox="0 0 60 60" fill="none" xmlns="http://www.w3.org/2000/svg">
<path d="M0.600123 1.80007C0.600123 0.971646 1.2717 0.300074 2.10012 0.300074H34.9001C35.7286 0.300074 36.4001 0.971646 36.4001 1.80007C36.4001 2.6285 35.7286 3.30007 34.9001 3.30007H3.60012V25.7001H23.2001C24.0285 25.7001 24.7001 26.3716 24.7001 27.2001C24.7001 28.0285 24.0285 28.7001 23.2001 28.7001H2.10012C1.2717 28.7001 0.600123 28.0285 0.600123 27.2001V1.80007Z" fill="black"/>
<path d="M0.964729 0.819827C1.5061 0.192767 2.45331 0.123306 3.08037 0.664681L18.2458 13.7578L33.9743 1.41986C34.426 1.06558 35.0402 1.00011 35.5564 1.25124C36.0725 1.50237 36.4001 2.02606 36.4001 2.60007V11.3001C36.4001 12.1285 35.7285 12.8001 34.9001 12.8001C34.0717 12.8001 33.4001 12.1285 33.4001 11.3001V5.68316L19.1259 16.8803C18.5616 17.323 17.7628 17.3042 17.2199 16.8355L1.11988 2.93547C0.492816 2.39409 0.423354 1.44689 0.964729 0.819827Z" fill="black"/>
<path d="M18.4001 25.7001C19.2285 25.7001 19.9001 26.3716 19.9001 27.2001V46.4001H46.1001V27.6001C46.1001 26.7716 46.7717 26.1001 47.6001 26.1001C48.4285 26.1001 49.1001 26.7716 49.1001 27.6001V47.9001C49.1001 48.7285 48.4285 49.4001 47.6001 49.4001H18.4001C17.5717 49.4001 16.9001 48.7285 16.9001 47.9001V27.2001C16.9001 26.3716 17.5717 25.7001 18.4001 25.7001Z" fill="black"/>
<path d="M46.1001 40.6001C46.1001 39.7716 46.7717 39.1001 47.6001 39.1001H57.9001C58.7286 39.1001 59.4001 39.7716 59.4001 40.6001C59.4001 41.4285 58.7286 42.1001 57.9001 42.1001H47.6001C46.7717 42.1001 46.1001 41.4285 46.1001 40.6001Z" fill="black"/>
<path d="M46.1001 27.4001C46.1001 26.5716 46.7717 25.9001 47.6001 25.9001H57.9001C58.7286 25.9001 59.4001 26.5716 59.4001 27.4001C59.4001 28.2285 58.7286 28.9001 57.9001 28.9001H47.6001C46.7717 28.9001 46.1001 28.2285 46.1001 27.4001Z" fill="black"/>
<path d="M26.4001 46.4001C27.2285 46.4001 27.9001 47.0717 27.9001 47.9001V58.2001C27.9001 59.0285 27.2285 59.7001 26.4001 59.7001C25.5717 59.7001 24.9001 59.0285 24.9001 58.2001V47.9001C24.9001 47.0717 25.5717 46.4001 26.4001 46.4001Z" fill="black"/>
<path d="M39.6001 46.4001C40.4285 46.4001 41.1001 47.0717 41.1001 47.9001V58.2001C41.1001 59.0285 40.4285 59.7001 39.6001 59.7001C38.7717 59.7001 38.1001 59.0285 38.1001 58.2001V47.9001C38.1001 47.0717 38.7717 46.4001 39.6001 46.4001Z" fill="black"/>
<path d="M6.70012 40.6001C6.70012 39.7716 7.3717 39.1001 8.20012 39.1001H18.5001C19.3285 39.1001 20.0001 39.7716 20.0001 40.6001C20.0001 41.4285 19.3285 42.1001 18.5001 42.1001H8.20012C7.3717 42.1001 6.70012 41.4285 6.70012 40.6001Z" fill="black"/>
<path d="M38.3978 3.75587C40.0312 0.897296 43.6522 0.0198679 46.5184 1.58323L46.5443 1.59771C49.3821 3.21927 50.3021 6.84264 48.7035 9.64244L48.7025 9.64428L39.2039 26.3418C39.0062 26.6893 38.678 26.9435 38.2921 27.0479C37.9062 27.1524 37.4946 27.0985 37.1486 26.8982L29.5486 22.4982C28.8378 22.0867 28.5901 21.1801 28.993 20.4643L38.3978 3.75587ZM41.0046 5.24054L32.3342 20.6444L37.3437 23.5447L46.0978 8.15586C46.8952 6.76027 46.4205 4.99154 45.0686 4.20971C43.5392 3.38407 41.7701 3.90575 41.0046 5.24054Z" fill="black"/>
<path d="M30.5773 20.1259C31.3915 20.279 31.9274 21.0631 31.7743 21.8773L30.3119 29.6546L36.9734 24.4206C37.6248 23.9088 38.5678 24.0219 39.0796 24.6733C39.5914 25.3247 39.4783 26.2677 38.8269 26.7796L29.0269 34.4795C28.5355 34.8656 27.8563 34.9066 27.3221 34.5825C26.7878 34.2584 26.5105 33.637 26.626 33.0229L28.826 21.3229C28.979 20.5087 29.7632 19.9728 30.5773 20.1259Z" fill="black"/>
</svg>
