<svg width="52" height="60" viewBox="0 0 52 60" fill="none" xmlns="http://www.w3.org/2000/svg">
<path d="M8.55305 2.36949C13.0813 1.08497 19.25 0.300049 25.9999 0.300049C32.7454 0.300049 38.9136 1.05906 43.4429 2.3309C45.6972 2.9639 47.6321 3.74759 49.0381 4.68733C50.3919 5.59215 51.5999 6.88459 51.5999 8.60005V51.4001C51.5999 53.1023 50.3757 54.3817 49.0348 55.2728C47.6321 56.2049 45.7006 56.9913 43.4468 57.6306C38.9185 58.9151 32.7498 59.7001 25.9999 59.7001C19.2544 59.7001 13.0862 58.941 8.55688 57.6692C6.30264 57.0362 4.36771 56.2525 2.96169 55.3128C1.60793 54.4079 0.399902 53.1155 0.399902 51.4001V8.60005C0.399902 6.89781 1.6241 5.61839 2.96501 4.72731C4.36774 3.79515 6.29924 3.00882 8.55305 2.36949ZM48.5999 8.60063C48.5999 8.41609 48.4579 7.90795 47.3711 7.18152C46.3365 6.49001 44.7401 5.8112 42.6319 5.21919C38.4362 4.04103 32.5544 3.30005 25.9999 3.30005C19.4498 3.30005 13.5685 4.06513 9.37175 5.25561C7.26307 5.85378 5.66332 6.5362 4.62542 7.22592C3.5257 7.95671 3.3999 8.45229 3.3999 8.60005V51.4001C3.3999 51.5846 3.54188 52.0922 4.62874 52.8186C5.66335 53.5101 7.25967 54.1889 9.36792 54.7809C13.5636 55.9591 19.4454 56.7001 25.9999 56.7001C32.55 56.7001 38.4313 55.935 42.6281 54.7445C44.7367 54.1463 46.3365 53.4639 47.3744 52.7742C48.4741 52.0434 48.5999 51.5478 48.5999 51.4001V8.60063Z" fill="black"/>
<path d="M4.62622 7.20101C3.53489 7.92904 3.3999 8.43127 3.3999 8.60005C3.3999 8.76883 3.53489 9.27106 4.62622 9.99909C5.66142 10.6897 7.25821 11.37 9.36596 11.9647C13.5607 13.1483 19.4422 13.9 25.9999 13.9C32.5576 13.9 38.4391 13.1483 42.6338 11.9647C44.7416 11.37 46.3384 10.6897 47.3736 9.99909C48.4649 9.27106 48.5999 8.76941 48.5999 8.60063C48.5999 8.43186 48.4649 7.92904 47.3736 7.20101C46.3384 6.51043 44.7416 5.83008 42.6338 5.23536C38.4391 4.05177 32.5576 3.30005 25.9999 3.30005C19.4422 3.30005 13.5607 4.05177 9.36596 5.23536C7.25821 5.83007 5.66142 6.51043 4.62622 7.20101ZM8.5513 2.34809C13.079 1.07056 19.2475 0.300049 25.9999 0.300049C32.7523 0.300049 38.9208 1.07056 43.4485 2.34809C45.702 2.98393 47.6346 3.76885 49.0384 4.70535C50.3861 5.60441 51.5999 6.89106 51.5999 8.60005C51.5999 10.309 50.3861 11.5957 49.0384 12.4947C47.6346 13.4312 45.702 14.2162 43.4485 14.852C38.9208 16.1295 32.7523 16.9 25.9999 16.9C19.2475 16.9 13.079 16.1295 8.5513 14.852C6.2978 14.2162 4.36523 13.4312 2.96138 12.4947C1.61366 11.5957 0.399902 10.309 0.399902 8.60005C0.399902 6.89106 1.61366 5.60441 2.96138 4.70535C4.36523 3.76885 6.2978 2.98393 8.5513 2.34809Z" fill="black"/>
<path d="M7.52221 19.7619C8.02661 19.5064 8.63179 19.5563 9.08755 19.8909L25.525 31.9577L36.0455 24.6672C36.7264 24.1953 37.6609 24.3648 38.1328 25.0457C38.6047 25.7266 38.4352 26.6611 37.7543 27.1329L26.3543 35.0329C25.828 35.3976 25.1284 35.3881 24.6122 35.0092L9.6999 24.062V45H40.0999C40.9283 45 41.5999 45.6716 41.5999 46.5C41.5999 47.3285 40.9283 48 40.0999 48H8.1999C7.37147 48 6.6999 47.3285 6.6999 46.5V21.1C6.6999 20.5347 7.01782 20.0173 7.52221 19.7619Z" fill="black"/>
<path d="M6.6999 21.1C6.6999 20.2716 7.37147 19.6 8.1999 19.6H36.8999C37.7283 19.6 38.3999 20.2716 38.3999 21.1C38.3999 21.9285 37.7283 22.6 36.8999 22.6H8.1999C7.37147 22.6 6.6999 21.9285 6.6999 21.1Z" fill="black"/>
<path d="M35.3999 22.1C35.3999 19.3998 37.5436 17.1 40.3999 17.1C43.1283 17.1 45.3999 19.3716 45.3999 22.1V37.3C45.3999 38.1285 44.7283 38.8 43.8999 38.8H36.8999C36.0715 38.8 35.3999 38.1285 35.3999 37.3V22.1ZM40.3999 20.1C39.2562 20.1 38.3999 21.0003 38.3999 22.1V35.8H42.3999V22.1C42.3999 21.0285 41.4715 20.1 40.3999 20.1Z" fill="black"/>
<path d="M44.4725 35.9137C45.2382 36.2299 45.6026 37.107 45.2863 37.8727L41.4863 47.0727C41.2482 47.6491 40.6783 48.0181 40.0549 47.9994C39.4315 47.9807 38.8848 47.5782 38.6817 46.9885L35.5817 37.9885C35.3119 37.2053 35.7281 36.3516 36.5114 36.0818C37.2947 35.812 38.1483 36.2283 38.4181 37.0116L40.227 42.2631L42.5135 36.7274C42.8298 35.9617 43.7069 35.5974 44.4725 35.9137Z" fill="black"/>
</svg>
