<svg width="62" height="60" viewBox="0 0 62 60" fill="none" xmlns="http://www.w3.org/2000/svg">
<path d="M9.3002 10.6001C9.3002 9.77167 9.97177 9.1001 10.8002 9.1001H33.3002C34.1286 9.1001 34.8002 9.77167 34.8002 10.6001C34.8002 11.4285 34.1286 12.1001 33.3002 12.1001H10.8002C9.97177 12.1001 9.3002 11.4285 9.3002 10.6001Z" fill="black"/>
<path d="M24.3339 0.545125C24.9165 -0.0437859 25.8663 -0.0488647 26.4552 0.533781L35.8552 9.83378C36.1472 10.1227 36.3079 10.5187 36.2999 10.9294C36.2919 11.3401 36.1158 11.7295 35.8127 12.0068L26.4127 20.6068C25.8015 21.166 24.8527 21.1238 24.2935 20.5126C23.7343 19.9014 23.7765 18.9526 24.3877 18.3934L32.6245 10.8576L24.3452 2.66641C23.7563 2.08377 23.7512 1.13404 24.3339 0.545125Z" fill="black"/>
<path d="M42.9002 3.8001C41.3666 3.8001 39.8875 4.3677 38.7269 5.27957C38.0755 5.79139 37.1325 5.67824 36.6207 5.02683C36.1089 4.37542 36.2221 3.43244 36.8735 2.92062C38.5129 1.63249 40.6338 0.800098 42.9002 0.800098C48.3286 0.800098 52.7002 5.17167 52.7002 10.6001C52.7002 16.0285 48.3286 20.4001 42.9002 20.4001C41.0581 20.4001 39.256 19.94 37.7681 18.9482C37.0789 18.4886 36.8926 17.5573 37.3521 16.868C37.8116 16.1788 38.743 15.9925 39.4322 16.452C40.3444 17.0602 41.5423 17.4001 42.9002 17.4001C46.6718 17.4001 49.7002 14.3717 49.7002 10.6001C49.7002 6.82853 46.6718 3.8001 42.9002 3.8001Z" fill="black"/>
<path d="M12.1002 58.8001H9.6002L7.7002 51.0001L5.8002 58.8001H3.2002L0.200195 47.4001H2.7002L4.5002 55.2001L6.5002 47.4001H8.9002L10.9002 55.3001L12.8002 47.4001H15.3002L12.1002 58.8001Z" fill="black"/>
<path d="M19.2002 55.0001C19.2002 55.4001 19.3002 55.7001 19.4002 56.0001C19.5002 56.3001 19.7002 56.5001 20.0002 56.6001C20.2002 56.8001 20.5002 56.9001 20.8002 57.0001C21.1002 57.1001 21.4002 57.1001 21.8002 57.1001C22.0002 57.1001 22.3002 57.1001 22.5002 57.0001C22.8002 57.0001 23.0002 56.9001 23.2002 56.8001C23.4002 56.7001 23.6002 56.5001 23.8002 56.4001C23.9002 56.2001 24.0002 56.0001 24.0002 55.7001C24.0002 55.4001 23.9002 55.1001 23.7002 54.9001C23.5002 54.7001 23.2002 54.5001 22.9002 54.4001C22.6002 54.3001 22.2002 54.2001 21.8002 54.1001C21.4002 54.0001 21.0002 53.9001 20.6002 53.8001C20.2002 53.7001 19.8002 53.6001 19.4002 53.4001C19.0002 53.2001 18.6002 53.0001 18.3002 52.8001C18.0002 52.6001 17.7002 52.3001 17.5002 51.9001C17.3002 51.5001 17.2002 51.1001 17.2002 50.6001C17.2002 50.0001 17.3002 49.5001 17.6002 49.1001C17.9002 48.7001 18.2002 48.3001 18.6002 48.0001C19.0002 47.7001 19.5002 47.5001 20.0002 47.4001C20.5002 47.3001 21.0002 47.2001 21.5002 47.2001C22.1002 47.2001 22.7002 47.3001 23.2002 47.4001C23.7002 47.5001 24.2002 47.8001 24.7002 48.0001C25.2002 48.2001 25.5002 48.7001 25.7002 49.1001C25.9002 49.5001 26.1002 50.1001 26.1002 50.8001H23.7002C23.7002 50.5001 23.6002 50.2001 23.5002 50.0001C23.4002 49.8001 23.2002 49.6001 23.0002 49.5001C22.8002 49.4001 22.6002 49.3001 22.3002 49.2001C22.0002 49.1001 21.7002 49.0001 21.4002 49.0001C21.2002 49.0001 21.0002 49.0001 20.8002 49.1001C20.6002 49.1001 20.4002 49.2001 20.2002 49.3001C20.0002 49.4001 19.9002 49.5001 19.8002 49.7001C19.7002 49.9001 19.6002 50.1001 19.6002 50.3001C19.6002 50.5001 19.6002 50.7001 19.7002 50.8001C19.8002 50.9001 20.0002 51.1001 20.2002 51.2001C20.5002 51.3001 20.8002 51.4001 21.2002 51.6001C21.6002 51.7001 22.2002 51.9001 22.9002 52.1001C23.0002 52.1001 23.2002 52.2001 23.4002 52.2001C23.6002 52.3001 23.9002 52.3001 24.1002 52.4001C24.3002 52.5001 24.6002 52.6001 24.9002 52.8001C25.2002 53.0001 25.4002 53.2001 25.6002 53.4001C25.8002 53.6001 26.0002 53.9001 26.1002 54.2001C26.2002 54.5001 26.3002 54.9001 26.3002 55.3001C26.3002 55.8001 26.2002 56.3001 26.0002 56.8001C25.8002 57.2001 25.5002 57.6001 25.1002 58.0001C24.7002 58.3001 24.2002 58.6001 23.6002 58.8001C23.0002 59.0001 22.3002 59.1001 21.5002 59.1001C20.9002 59.1001 20.3002 59.0001 19.7002 58.9001C19.1002 58.7001 18.6002 58.5001 18.1002 58.2001C17.6002 57.9001 17.3002 57.4001 17.0002 56.9001C16.7002 56.4001 16.6002 55.8001 16.6002 55.1001H19.2002V55.0001Z" fill="black"/>
<path d="M28.8002 53.4001H33.6002V55.4001H28.8002V53.4001Z" fill="black"/>
<path d="M36.8002 47.3001H43.0002C43.5002 47.3001 44.0002 47.4001 44.4002 47.5001C44.8002 47.7001 45.2002 47.9001 45.5002 48.2001C45.8002 48.5001 46.0002 48.8001 46.2002 49.2001C46.4002 49.6001 46.4002 50.0001 46.4002 50.4001C46.4002 51.1001 46.3002 51.7001 46.0002 52.1001C45.7002 52.5001 45.3002 53.0001 44.6002 53.2001C44.9002 53.3001 45.2002 53.4001 45.4002 53.6001C45.6002 53.8001 45.8002 54.0001 45.9002 54.2001C46.0002 54.4001 46.1002 54.7001 46.2002 55.0001C46.3002 55.3001 46.3002 55.6001 46.3002 55.9001C46.3002 56.1001 46.3002 56.3001 46.3002 56.5001C46.3002 56.7001 46.3002 57.0001 46.4002 57.2001C46.4002 57.5001 46.5002 57.7001 46.5002 57.9001C46.5002 58.1001 46.6002 58.3001 46.8002 58.5001H44.3002C44.2002 58.3001 44.2002 58.1001 44.1002 57.9001C44.0002 57.7001 44.0002 57.5001 44.0002 57.2001C44.0002 57.0001 44.0002 56.7001 43.9002 56.5001C43.9002 56.2001 43.9002 56.0001 43.8002 55.8001C43.7002 55.2001 43.5002 54.8001 43.3002 54.5001C43.0002 54.2001 42.6002 54.1001 41.9002 54.1001H39.4002V58.6001H36.9002V47.3001H36.8002ZM42.0002 52.5001C42.6002 52.5001 43.0002 52.4001 43.3002 52.1001C43.6002 51.8001 43.7002 51.4001 43.7002 50.9001C43.7002 50.3001 43.6002 49.9001 43.3002 49.7001C43.0002 49.4001 42.6002 49.3001 42.0002 49.3001H39.2002V52.5001H42.0002Z" fill="black"/>
<path d="M53.0002 47.3001L55.7002 55.2001L58.2002 47.3001H61.7002V58.7001H59.3002V50.6001L56.5002 58.7001H54.6002L51.8002 50.7001V58.7001H49.4002V47.3001H53.0002Z" fill="black"/>
<path d="M18.1002 30.8001C18.0002 30.4001 17.9002 30.0001 17.7002 29.6001C17.5002 29.2001 17.2002 28.9001 16.9002 28.7001C16.6002 28.4001 16.2002 28.2001 15.8002 28.1001C15.4002 27.9001 14.9002 27.9001 14.5002 27.9001C13.7002 27.9001 12.9002 28.1001 12.3002 28.4001C11.7002 28.7001 11.2002 29.2001 10.9002 29.7001C10.6002 30.2001 10.3002 30.9001 10.1002 31.6001C9.90019 32.3001 9.8002 33.0001 9.8002 33.8001C9.8002 34.5001 9.90019 35.2001 10.1002 35.9001C10.3002 36.6001 10.5002 37.2001 10.9002 37.7001C11.3002 38.2001 11.7002 38.7001 12.3002 39.0001C12.9002 39.3001 13.6002 39.5001 14.5002 39.5001C15.7002 39.5001 16.6002 39.1001 17.2002 38.4001C17.8002 37.7001 18.2002 36.8001 18.4002 35.6001H22.1002C22.0002 36.7001 21.8002 37.6001 21.4002 38.5001C21.0002 39.4001 20.5002 40.1001 19.8002 40.7001C19.1002 41.3001 18.4002 41.8001 17.5002 42.1001C16.6002 42.4001 15.6002 42.6001 14.6002 42.6001C13.3002 42.6001 12.1002 42.4001 11.0002 41.9001C10.0002 41.4001 9.10019 40.8001 8.40019 40.0001C7.70019 39.2001 7.10019 38.3001 6.70019 37.2001C6.30019 36.1001 6.10019 34.9001 6.10019 33.7001C6.10019 32.4001 6.30019 31.2001 6.70019 30.1001C6.90019 29.0001 7.50019 28.0001 8.20019 27.2001C8.90019 26.4001 9.8002 25.7001 10.8002 25.3001C11.8002 24.8001 13.0002 24.6001 14.4002 24.6001C15.3002 24.6001 16.2002 24.7001 17.1002 25.0001C18.0002 25.3001 18.7002 25.7001 19.4002 26.2001C20.1002 26.7001 20.6002 27.4001 21.0002 28.1001C21.4002 28.9001 21.7002 29.8001 21.8002 30.7001H18.1002V30.8001Z" fill="black"/>
<path d="M30.4002 33.2001L24.9002 25.0001H29.3002L32.7002 30.5001L36.2002 25.0001H40.3002L34.8002 33.2001L40.8002 42.2001H36.3002L32.5002 36.3001L28.7002 42.2001H24.4002L30.4002 33.2001Z" fill="black"/>
<path d="M44.0002 25.0001H56.1002V28.2001H47.8002V32.2001H55.0002V35.1001H47.8002V42.2001H44.0002V25.0001Z" fill="black"/>
</svg>
