<!--
 ~ Copyright (c) 2025, WSO2 LLC. (https://www.wso2.com) All Rights Reserved.
 ~
 ~ WSO2 LLC. licenses this file to you under the Apache License,
 ~ Version 2.0 (the "License"); you may not use this file except
 ~ in compliance with the License.
 ~ You may obtain a copy of the License at
 ~
 ~     http://www.apache.org/licenses/LICENSE-2.0
 ~
 ~ Unless required by applicable law or agreed to in writing,
 ~ software distributed under the License is distributed on an
 ~ "AS IS" BASIS, WITHOUT WARRANTIES OR CONDITIONS OF ANY
 ~ KIND, either express or implied. See the License for the
 ~ specific language governing permissions and limitations
 ~ under the License.
-->
<svg width="16" height="16" viewBox="0 0 16 16" fill="none" xmlns="http://www.w3.org/2000/svg">
<path d="M1.20005 5.89998C1.42096 5.89998 1.60005 6.07906 1.60005 6.29998C1.60005 6.31505 1.61849 6.4294 1.89341 6.6122C2.14906 6.7822 2.54346 6.95272 3.06171 7.10338C4.09286 7.40313 5.52905 7.59998 7.10005 7.59998C7.87492 7.59998 8.50322 7.52734 8.94852 7.45513C9.17116 7.41903 9.34876 7.38292 9.47812 7.35553C9.50198 7.35048 9.52543 7.34545 9.54761 7.3407C9.58304 7.33311 9.61522 7.32622 9.64066 7.32101C9.64066 7.32101 9.64412 7.32029 9.64623 7.31985C9.6736 7.31415 9.74164 7.29998 9.80005 7.29998C10.021 7.29998 10.2 7.47906 10.2 7.69998C10.2 7.90996 10.0382 8.08216 9.83251 8.09868C9.82733 8.0996 9.81735 8.10142 9.80123 8.10473C9.77859 8.10936 9.75283 8.11489 9.72117 8.12167C9.6987 8.12649 9.67326 8.13194 9.64385 8.13817C9.50759 8.16703 9.31644 8.20592 9.07658 8.24482C8.59688 8.32261 7.92517 8.39998 7.10005 8.39998C5.47104 8.39998 3.95723 8.19682 2.83839 7.87158C2.28164 7.70973 1.80104 7.5115 1.45044 7.27837C1.11911 7.05805 0.800049 6.7349 0.800049 6.29998C0.800049 6.07906 0.979135 5.89998 1.20005 5.89998Z" fill="#97B8C2"/>
<path d="M1.74681 2.49801L7.86167 4.0032C8.57478 4.03178 9.18941 4.24744 9.77893 4.5422C10.4796 4.89252 11.0326 5.57067 11.3578 6.22109C12.3651 8.23562 11.4584 10.4594 9.59275 11.4506C9.17977 11.6848 8.62501 11.818 8.18013 11.8942C7.72702 11.9719 7.32862 12 7.20005 12C5.52206 12 4.00749 11.797 2.89968 11.4712C2.38376 11.3195 1.93694 11.1356 1.60005 10.9204V13.2C1.60005 13.2106 1.61304 13.3187 1.88611 13.4918C2.1405 13.6531 2.53413 13.8122 3.05339 13.9511C4.0399 14.2149 5.39691 14.3843 6.88965 14.3989L7.22866 13.5514C7.24878 13.5011 7.2789 13.4554 7.31721 13.4171C7.42747 13.3069 7.58988 13.2 7.80005 13.2C8.29985 13.2 8.76257 13.1375 9.19016 13.0154C9.2259 13.0052 9.26288 13 9.30005 13C9.51022 13 9.67263 13.1069 9.78289 13.2171C9.79628 13.2305 9.80869 13.2448 9.82005 13.26L10.3288 13.9384L11.3485 13.4286L11.0241 12.5367C11.0082 12.4929 11 12.4466 11 12.4C11 12.1898 11.1069 12.0274 11.2172 11.9171C11.5315 11.6028 11.8149 11.2566 12.0672 10.8781C12.0818 10.8562 12.0986 10.8358 12.1172 10.8171C12.3478 10.5865 12.6359 10.6373 12.8238 10.7168L13.605 10.873L14.0458 9.84453L13.2782 9.3328C13.2563 9.31818 13.2358 9.30144 13.2172 9.28282C13.1069 9.17255 13 9.01015 13 8.79998C13 8.78105 13.0014 8.76214 13.0041 8.74341C13.0654 8.31426 13.0654 7.88569 13.0041 7.45654C13.0014 7.43781 13 7.4189 13 7.39998C13 7.31288 13.0088 7.18801 13.0673 7.07109C13.0993 7.00697 13.1516 6.93485 13.2344 6.87966C13.2784 6.85033 13.3246 6.83005 13.371 6.8173L14.1648 6.42037L13.8732 5.32664L12.8658 5.49453C12.8441 5.49816 12.8221 5.49998 12.8 5.49998C12.5899 5.49998 12.4275 5.39308 12.3172 5.28282C12.2868 5.25242 12.2615 5.21732 12.2423 5.17886C12.0625 4.81935 11.8218 4.48741 11.5172 4.18282C11.4069 4.07255 11.3 3.91015 11.3 3.69998C11.3 3.64288 11.3123 3.58644 11.3359 3.53445L11.7417 2.64179L10.7794 2.00028L10.1536 2.70437C10.1343 2.74361 10.1075 2.78324 10.0704 2.82032C9.96059 2.93012 9.82837 2.94998 9.75005 2.94998C9.63166 2.94998 9.52203 2.90606 9.44972 2.8717C9.29663 2.82317 9.14715 2.79998 9.00005 2.79998C8.95706 2.79998 8.91434 2.79304 8.87356 2.77945C8.69595 2.72025 8.48689 2.65991 8.24534 2.59868C8.16473 2.59469 8.06537 2.57985 7.97116 2.53275C7.90704 2.50069 7.83492 2.4484 7.77973 2.36561C7.73881 2.30422 7.71552 2.2385 7.70568 2.17418L7.49453 1.39998H7.10005C5.52905 1.39998 4.09286 1.59682 3.06171 1.89658C2.54346 2.04723 2.14906 2.21775 1.89341 2.38775C1.833 2.42791 1.78498 2.46478 1.74681 2.49801ZM11.7 13.7L11.9829 13.9828C11.9525 14.0132 11.9174 14.0385 11.8789 14.0577L10.4789 14.7577C10.4234 14.7855 10.3621 14.8 10.3 14.8L10.3 14.4C10.3 14.8 10.3 14.8 10.3 14.8L10.2983 14.8L10.2963 14.8L10.2911 14.7999L10.2772 14.7995C10.2664 14.7991 10.2522 14.7984 10.2356 14.797C10.2042 14.7944 10.1561 14.7888 10.103 14.7755C10.0556 14.7637 9.97158 14.738 9.8913 14.6778C9.83426 14.635 9.77405 14.5696 9.73677 14.4823L9.24642 13.8285C8.82243 13.935 8.377 13.9914 7.91123 13.9991L7.57144 14.8485C7.55132 14.8988 7.5212 14.9445 7.48289 14.9828L7.38289 15.0828C7.30788 15.1578 7.20614 15.2 7.10005 15.2C5.47539 15.2 3.96404 15.0227 2.8467 14.7239C2.29096 14.5753 1.8096 14.3906 1.45774 14.1675C1.12456 13.9562 0.800049 13.6394 0.800049 13.2V2.69998C0.800049 2.26505 1.11911 1.9419 1.45044 1.72158C1.80104 1.48845 2.28164 1.29022 2.83839 1.12838C3.95723 0.803131 5.47104 0.599976 7.10005 0.599976H7.80005C7.98043 0.599976 8.13849 0.720704 8.18596 0.894729L8.43897 1.82246C8.67085 1.88118 8.88049 1.94063 9.06713 2.001C9.25632 2.00677 9.44386 2.03689 9.62908 2.09023L10.3011 1.33423C10.3063 1.32837 10.3117 1.32267 10.3172 1.31713C10.4108 1.22353 10.5565 1.12498 10.75 1.12498C10.9216 1.12498 11.0555 1.2024 11.149 1.28518L12.2578 2.02438C12.307 2.0403 12.3566 2.06502 12.4034 2.10142C12.4984 2.1753 12.5445 2.2683 12.567 2.33599C12.6016 2.43979 12.6005 2.5535 12.6001 2.59194C12.6001 2.59516 12.6 2.59786 12.6 2.59998C12.6 2.65708 12.5878 2.71351 12.5642 2.7655L12.1473 3.6827C12.4418 3.98807 12.688 4.32068 12.8843 4.68042L13.9343 4.50542C13.956 4.5018 13.978 4.49998 14 4.49998C14.0022 4.49998 14.0049 4.49995 14.0081 4.49992C14.0465 4.49953 14.1602 4.4984 14.264 4.533C14.3317 4.55556 14.4247 4.60161 14.4986 4.69659C14.557 4.77162 14.5853 4.85383 14.5955 4.93039L14.967 6.32373C15.0012 6.37978 15.0272 6.44554 15.0372 6.52055C15.0547 6.65207 15.0172 6.77029 14.9579 6.85936C14.8756 6.98268 14.7503 7.05748 14.6218 7.08632L13.8149 7.48976C13.8624 7.90233 13.8618 8.31521 13.8129 8.72777L14.5578 9.22438C14.607 9.2403 14.6566 9.26502 14.7034 9.30142C14.7984 9.37529 14.8445 9.4683 14.867 9.53598C14.9016 9.63979 14.9005 9.75349 14.9001 9.79193C14.9001 9.79516 14.9 9.79786 14.9 9.79998C14.9 9.85415 14.889 9.90775 14.8677 9.95754L14.2888 11.3083C14.275 11.3734 14.2472 11.4409 14.1986 11.5034C14.1247 11.5983 14.0317 11.6444 13.964 11.6669C13.8602 11.7016 13.7465 11.7004 13.7081 11.7C13.7049 11.7 13.7022 11.7 13.7 11.7C13.6737 11.7 13.6474 11.6974 13.6216 11.6922L12.6216 11.4922L12.6167 11.4912C12.3802 11.8267 12.12 12.1393 11.8362 12.429L12.176 13.3633C12.1919 13.4071 12.2 13.4534 12.2 13.5C12.2 13.6702 12.1212 13.8019 12.0829 13.8594C12.0594 13.8946 12.0365 13.9231 12.0194 13.9431C12.0106 13.9533 12.0029 13.9618 11.9968 13.9684L11.9886 13.977L11.9854 13.9803L11.9841 13.9816L11.9829 13.9828C11.9829 13.9828 11.9829 13.9828 11.7 13.7ZM8.27562 1.7988L8.27829 1.79916L8.27562 1.7988ZM1.80021 10.0656C1.84184 10.1084 1.90058 10.1584 1.98336 10.2149C2.23031 10.3835 2.61419 10.5534 3.12542 10.7037C4.1426 11.0029 5.57804 11.2 7.20005 11.2C7.27148 11.2 7.62307 11.1781 8.04496 11.1057C8.47302 11.0323 8.91516 10.9164 9.20159 10.7527L9.2128 10.7463C10.7434 9.93594 11.434 8.16233 10.6423 6.57886C10.4018 6.09794 10.0295 5.63825 9.60563 5.36359L1.80021 10.0656ZM8.58269 5.04587L7.64771 4.79998H7.20005C5.52634 4.79998 4.01425 4.62291 2.90807 4.32359C2.3893 4.18322 1.939 4.01049 1.60005 3.80301V9.25228L8.58269 5.04587Z" fill="#97B8C2"/>
</svg>
