<!--
 ~ Copyright (c) 2025, WSO2 LLC. (https://www.wso2.com) All Rights Reserved.
 ~
 ~ WSO2 LLC. licenses this file to you under the Apache License,
 ~ Version 2.0 (the "License"); you may not use this file except
 ~ in compliance with the License.
 ~ You may obtain a copy of the License at
 ~
 ~     http://www.apache.org/licenses/LICENSE-2.0
 ~
 ~ Unless required by applicable law or agreed to in writing,
 ~ software distributed under the License is distributed on an
 ~ "AS IS" BASIS, WITHOUT WARRANTIES OR CONDITIONS OF ANY
 ~ KIND, either express or implied. See the License for the
 ~ specific language governing permissions and limitations
 ~ under the License.
-->
<svg width="15" height="14" viewBox="0 0 15 14" fill="none" xmlns="http://www.w3.org/2000/svg">
<path d="M2.37101 0.626205C3.39092 0.351613 4.77847 0.199951 6.3 0.199951C7.82168 0.199951 9.23311 0.351652 10.2766 0.625559C10.7953 0.761731 11.2481 0.934425 11.5805 1.15051C11.9018 1.35938 12.2 1.67065 12.2 2.09995V4.99995C12.2 5.22087 12.0209 5.39995 11.8 5.39995C11.5791 5.39995 11.4 5.22087 11.4 4.99995V2.09995C11.4 2.07926 11.3857 1.97803 11.1445 1.82127C10.9144 1.67173 10.5547 1.52567 10.0734 1.39934C9.11689 1.14825 7.77832 0.999951 6.3 0.999951C4.82153 0.999951 3.50908 1.14829 2.57899 1.3987C2.11109 1.52467 1.76497 1.66996 1.54507 1.81783C1.31729 1.97099 1.3 2.07203 1.3 2.09995V11.7C1.3 11.7321 1.32215 11.84 1.55277 12.003C1.77426 12.1596 2.1214 12.3162 2.58813 12.4538C3.51642 12.7275 4.82628 12.9 6.3 12.9C7.77362 12.9 9.10964 12.7275 10.0645 12.453C10.5446 12.315 10.9053 12.1576 11.1368 11.9994C11.3805 11.8329 11.4 11.725 11.4 11.7V9.39995C11.4 9.17904 11.5791 8.99995 11.8 8.99995C12.0209 8.99995 12.2 9.17904 12.2 9.39995V11.7C12.2 12.1249 11.907 12.442 11.5882 12.6599C11.2572 12.8861 10.8054 13.0724 10.2855 13.2219C9.24036 13.5224 7.82638 13.7 6.3 13.7C4.77372 13.7 3.38358 13.5224 2.36187 13.2211C1.8536 13.0712 1.41324 12.8841 1.09098 12.6563C0.777847 12.4349 0.5 12.1178 0.5 11.7V2.09995C0.5 1.67787 0.782713 1.36641 1.09868 1.15395C1.42253 0.93619 1.86391 0.762732 2.37101 0.626205Z" fill="#FFBEBD"/>
<path d="M0.9 4.99995C1.12091 4.99995 1.3 5.17904 1.3 5.39995C1.3 5.43208 1.32215 5.53999 1.55277 5.70301C1.77426 5.85958 2.1214 6.01616 2.58813 6.15378C3.51642 6.42751 4.82628 6.59995 6.3 6.59995C7.1634 6.59995 7.96139 6.49459 8.69589 6.3976C8.95721 6.3631 9.21049 6.32966 9.45583 6.3024C9.67539 6.278 9.87316 6.43622 9.89755 6.65578C9.92195 6.87534 9.76374 7.07311 9.54417 7.0975C9.32721 7.12161 9.09234 7.15265 8.84281 7.18563C8.09739 7.28414 7.22108 7.39995 6.3 7.39995C4.77372 7.39995 3.38358 7.22239 2.36187 6.92112C1.8536 6.77124 1.41324 6.58407 1.09098 6.35627C0.777848 6.13492 0.5 5.81782 0.5 5.39995C0.5 5.17904 0.679086 4.99995 0.9 4.99995Z" fill="#FFBEBD"/>
<path d="M0.9 8.29995C1.12091 8.29995 1.3 8.47904 1.3 8.69995C1.29997 8.69995 1.3 8.69933 1.3 8.69995C1.30053 8.69989 1.31174 8.78698 1.54109 8.93724C1.76493 9.0839 2.11519 9.23286 2.58358 9.36497C3.51486 9.62764 4.82684 9.79995 6.3 9.79995C7.33228 9.79995 8.31059 9.72613 9.13612 9.59258C9.97086 9.45755 10.6165 9.26653 11.0057 9.05029C11.1989 8.943 11.4424 9.01258 11.5497 9.20569C11.6569 9.39881 11.5874 9.64233 11.3943 9.74961C10.8835 10.0334 10.1291 10.2423 9.26388 10.3823C8.38941 10.5238 7.36772 10.6 6.3 10.6C4.77316 10.6 3.38514 10.4223 2.36642 10.1349C1.85981 9.99204 1.42257 9.816 1.10266 9.60641C0.801816 9.4093 0.5 9.11115 0.5 8.69995C0.5 8.47904 0.679086 8.29995 0.9 8.29995Z" fill="#FFBEBD"/>
<path d="M1.54507 1.81783C1.31729 1.97099 1.3 2.07203 1.3 2.09995C1.29997 2.09995 1.3 2.09933 1.3 2.09995C1.30053 2.09989 1.31174 2.18698 1.54109 2.33724C1.76493 2.4839 2.11519 2.63286 2.58358 2.76497C3.51486 3.02764 4.82684 3.19995 6.3 3.19995C7.7731 3.19995 9.11116 3.02766 10.0689 2.76427C10.5506 2.6318 10.9145 2.4821 11.1485 2.3339C11.3826 2.18561 11.3989 2.09806 11.3999 2.09757C11.3988 2.07233 11.3775 1.97271 11.1445 1.82127C10.9144 1.67173 10.5547 1.52567 10.0734 1.39934C9.11689 1.14825 7.77832 0.999951 6.3 0.999951C4.82153 0.999951 3.50908 1.14829 2.57899 1.3987C2.11109 1.52467 1.76497 1.66996 1.54507 1.81783ZM2.37101 0.626205C3.39092 0.351613 4.77847 0.199951 6.3 0.199951C7.82168 0.199951 9.23311 0.351652 10.2766 0.625559C10.7953 0.761731 11.2481 0.934425 11.5805 1.15051C11.9018 1.35938 12.2 1.67065 12.2 2.09995C12.2 2.51839 11.882 2.8163 11.5765 3.00975C11.248 3.2178 10.7993 3.3931 10.2811 3.53563C9.23884 3.82224 7.8269 3.99995 6.3 3.99995C4.77316 3.99995 3.38514 3.82226 2.36642 3.53493C1.85981 3.39204 1.42257 3.216 1.10266 3.00641C0.801816 2.8093 0.5 2.51115 0.5 2.09995C0.5 1.67787 0.782713 1.36641 1.09868 1.15395C1.42253 0.93619 1.86391 0.762732 2.37101 0.626205Z" fill="#FFBEBD"/>
<path d="M11.7 5.39995C10.7209 5.39995 9.9 6.22087 9.9 7.19995C9.9 8.17904 10.7209 8.99995 11.7 8.99995C12.7672 8.99995 13.5 8.1911 13.5 7.19995C13.5 6.2088 12.7672 5.39995 11.7 5.39995ZM9.1 7.19995C9.1 5.77904 10.2791 4.59995 11.7 4.59995C13.2328 4.59995 14.3 5.7911 14.3 7.19995C14.3 8.6088 13.2328 9.79995 11.7 9.79995C10.2791 9.79995 9.1 8.62086 9.1 7.19995Z" fill="#FFBEBD"/>
</svg>
