<!--
 ~ Copyright (c) 2025, WSO2 LLC. (https://www.wso2.com) All Rights Reserved.
 ~
 ~ WSO2 LLC. licenses this file to you under the Apache License,
 ~ Version 2.0 (the "License"); you may not use this file except
 ~ in compliance with the License.
 ~ You may obtain a copy of the License at
 ~
 ~     http://www.apache.org/licenses/LICENSE-2.0
 ~
 ~ Unless required by applicable law or agreed to in writing,
 ~ software distributed under the License is distributed on an
 ~ "AS IS" BASIS, WITHOUT WARRANTIES OR CONDITIONS OF ANY
 ~ KIND, either express or implied. See the License for the
 ~ specific language governing permissions and limitations
 ~ under the License.
-->
<svg width="16" height="15" viewBox="0 0 16 15" fill="none" xmlns="http://www.w3.org/2000/svg">
<path d="M4.79977 7.18479C4.80762 7.19752 4.83294 7.22932 4.9045 7.27744C5.03377 7.36436 5.24864 7.45653 5.55404 7.53875C6.15912 7.70166 7.02157 7.8 8.00005 7.8C8.43521 7.8 8.79779 7.77583 9.06384 7.75164C9.19703 7.73953 9.30609 7.72742 9.39025 7.71807C9.39678 7.71735 9.40351 7.71659 9.41039 7.71582C9.4745 7.70863 9.55146 7.7 9.60005 7.7C9.82096 7.7 10 7.87909 10 8.1C10 8.32091 9.82096 8.5 9.60005 8.5C9.60162 8.5 9.59843 8.50033 9.58692 8.50152C9.57068 8.5032 9.5373 8.50666 9.47801 8.51324C9.39347 8.52264 9.27774 8.5355 9.13626 8.54836C8.85231 8.57417 8.46488 8.6 8.00005 8.6C6.97852 8.6 6.04097 8.49834 5.34606 8.31125C5.00146 8.21847 4.69133 8.09814 4.4581 7.94131C4.23276 7.78979 4.00005 7.54708 4.00005 7.2C4.00005 6.97909 4.17913 6.8 4.40005 6.8C4.61587 6.8 4.79177 6.97092 4.79977 7.18479Z" fill="black"/>
<path d="M5.17439 4.88561L8.35244 5.70049C8.79773 5.7089 9.21361 5.82475 9.59264 6.04913C10.0633 6.28791 10.4214 6.64828 10.6578 7.12111L10.6642 7.13448C11.2588 8.44271 10.659 9.86774 9.47893 10.4578C9.22608 10.5842 8.87928 10.6671 8.61239 10.7179C8.34799 10.7683 8.09086 10.8 8.00005 10.8C6.97062 10.8 6.03224 10.6717 5.33918 10.4718C5.14444 10.4157 4.9625 10.352 4.80005 10.2806V11.3547C4.81415 11.3695 4.84307 11.3955 4.89848 11.4313C5.03372 11.5187 5.25478 11.6149 5.56091 11.7032C6.10555 11.8603 6.85525 11.9744 7.70472 11.9962L7.91316 11.5793C7.93028 11.5026 7.96734 11.417 8.04221 11.3422C8.16035 11.224 8.30506 11.2 8.40005 11.2C8.63435 11.2 8.90743 11.1706 9.2216 11.1078C9.24743 11.1026 9.27371 11.1 9.30005 11.1H9.39927C9.53977 11.1 9.67076 11.1737 9.74305 11.2942L9.94478 11.6304L10.3234 11.4411L10.1423 11.0789C10.1145 11.0233 10.1 10.9621 10.1 10.9C10.1 10.805 10.1241 10.6603 10.2422 10.5422C10.2893 10.495 10.3407 10.4629 10.3915 10.4412C10.552 10.2735 10.715 10.0801 10.88 9.86C10.9556 9.75928 11.0741 9.7 11.2 9.7H11.2993C11.3213 9.7 11.3441 9.70182 11.3658 9.70544L11.8293 9.7827L11.9622 9.42831L11.6212 9.25777C11.5827 9.23854 11.5476 9.21324 11.5172 9.18284C11.4069 9.07258 11.3 8.91017 11.3 8.7C11.3 8.66729 11.3041 8.63471 11.312 8.60299C11.371 8.36707 11.4 8.13297 11.4 7.9V7.80084C11.4 7.64933 11.4856 7.50999 11.6212 7.44223L12.0464 7.22959L11.8977 6.83297L11.4566 6.89598C11.4379 6.89866 11.419 6.9 11.4 6.9C11.3051 6.9 11.1603 6.87598 11.0422 6.75784C10.979 6.69462 10.9427 6.62378 10.9227 6.55703C10.8135 6.4028 10.679 6.24463 10.5172 6.08284C10.4069 5.97258 10.3 5.81017 10.3 5.6C10.3 5.5379 10.3145 5.47666 10.3423 5.42111L10.5177 5.07024L10.1963 4.86939L9.96001 5.10572C9.93839 5.1574 9.90592 5.20982 9.85789 5.25784C9.73975 5.37598 9.59504 5.4 9.50005 5.4C9.43795 5.4 9.37671 5.38554 9.32116 5.35777C9.23674 5.31556 9.16428 5.3 9.10005 5.3C9.03795 5.3 8.97671 5.28554 8.92116 5.25777C8.83675 5.21556 8.76428 5.2 8.70005 5.2C8.60506 5.2 8.46034 5.17598 8.3422 5.05784C8.25502 4.97066 8.2191 4.869 8.20626 4.78353L8.11174 4.5H8.00083C7.02235 4.5 6.15912 4.59834 5.55404 4.76125C5.40656 4.80095 5.2802 4.84298 5.17439 4.88561ZM10.9996 5.3C10.9986 5.30001 10.9965 5.30003 10.9934 5.29994C10.9956 5.29998 10.9974 5.3 10.9996 5.3ZM8.40005 12.3944V12.4C8.40005 12.6209 8.22096 12.8 8.00005 12.8C6.97062 12.8 6.03224 12.6717 5.33918 12.4718C4.99532 12.3726 4.69137 12.25 4.46412 12.1031C4.2625 11.9727 4.00005 11.7435 4.00005 11.4V5.1C4.00005 4.75292 4.23276 4.51021 4.4581 4.35869C4.69133 4.20186 5.00146 4.08153 5.34606 3.98875C6.04097 3.80166 6.97852 3.7 8.00005 3.7H8.40005C8.57222 3.7 8.72508 3.81017 8.77952 3.97351L8.92899 4.4219C9.02014 4.4394 9.1092 4.46708 9.19579 4.50382C9.26406 4.50927 9.33129 4.52048 9.39735 4.53701L9.81721 4.11716C9.89222 4.04214 9.99396 4 10.1 4H10.1993C10.2742 4 10.3485 4.02107 10.412 4.0608L11.1493 4.52159C11.1709 4.52828 11.1935 4.53703 11.2164 4.54848C11.2681 4.57429 11.3308 4.61876 11.3797 4.69218C11.4304 4.76811 11.45 4.85084 11.45 4.925C11.45 5.05357 11.392 5.14571 11.3704 5.17813C11.3585 5.19593 11.346 5.21244 11.3335 5.22752L11.153 5.58856C11.306 5.74744 11.4421 5.90888 11.5601 6.07307L12.0435 6.00402C12.0622 6.00134 12.0811 6 12.1 6C12.195 6 12.3398 6.02402 12.4579 6.14216C12.5418 6.22608 12.5782 6.32342 12.5923 6.40681L12.8746 7.15955C12.8914 7.20446 12.9 7.25204 12.9 7.3C12.9 7.51017 12.7932 7.67258 12.6829 7.78284C12.6525 7.81324 12.6174 7.83854 12.5789 7.85777L12.197 8.04875C12.1891 8.23874 12.1662 8.42823 12.1286 8.61704L12.5789 8.84223C12.7144 8.90999 12.8 9.04849 12.8 9.2V9.39922C12.8 9.44718 12.7914 9.49554 12.7746 9.54045L12.4746 10.3404C12.4545 10.3939 12.4233 10.4425 12.3829 10.4828C12.306 10.5598 12.1769 10.65 12 10.65C11.8974 10.65 11.8109 10.6196 11.7413 10.5791L11.3819 10.5192C11.251 10.6841 11.1191 10.8369 10.9858 10.9772L11.1578 11.3211C11.1856 11.3767 11.2 11.4379 11.2 11.5C11.2 11.7102 11.0932 11.8726 10.9829 11.9828C10.9525 12.0132 10.9174 12.0385 10.8789 12.0578L10.0789 12.4578C10.0234 12.4855 9.96215 12.5 9.90005 12.5C9.68988 12.5 9.52747 12.3931 9.41721 12.2828C9.39408 12.2597 9.37388 12.2338 9.35705 12.2058L9.18988 11.9272C8.98367 11.9622 8.78684 11.985 8.59991 11.9947L8.40005 12.3944ZM5.0148 9.49763C5.14849 9.56588 5.33063 9.63674 5.56091 9.70317C6.16786 9.87825 7.02947 10 8.00005 10C7.99879 10 8.00043 9.99986 8.00506 9.99945C8.0194 9.9982 8.06245 9.99444 8.1371 9.98465C8.2254 9.97307 8.33963 9.95551 8.4627 9.93207C8.72081 9.8829 8.97402 9.8158 9.12116 9.74223C9.93904 9.33329 10.3392 8.36221 9.93896 7.47227C9.8102 7.21735 9.63365 7.01608 9.40458 6.86376L5.0148 9.49763ZM8.24648 6.5H8.00083C6.97931 6.5 6.04097 6.39834 5.34606 6.21125C5.15035 6.15855 4.96575 6.09697 4.80005 6.02487V8.69352L8.39047 6.53927L8.24648 6.5Z" fill="black"/>
<path d="M0.800049 2.6C0.800049 2.37909 0.979135 2.2 1.20005 2.2H4.90005C5.12096 2.2 5.30005 2.37909 5.30005 2.6C5.30005 2.82091 5.12096 3 4.90005 3H1.20005C0.979135 3 0.800049 2.82091 0.800049 2.6Z" fill="black"/>
<path d="M2.61721 0.117157C2.77342 -0.0390524 3.02668 -0.0390524 3.18289 0.117157L5.48289 2.41716C5.56013 2.4944 5.60243 2.59987 5.59995 2.70908C5.59747 2.81829 5.55043 2.92174 5.46976 2.99539L3.16976 5.09539C3.00662 5.24435 2.75361 5.23285 2.60465 5.06971C2.4557 4.90657 2.4672 4.65356 2.63034 4.50461L4.62122 2.68685L2.61721 0.682843C2.461 0.526633 2.461 0.273367 2.61721 0.117157Z" fill="black"/>
<path d="M11.2 12.4C11.2 12.1791 11.3791 12 11.6 12H15.2C15.421 12 15.6 12.1791 15.6 12.4C15.6 12.6209 15.421 12.8 15.2 12.8H11.6C11.3791 12.8 11.2 12.6209 11.2 12.4Z" fill="black"/>
<path d="M13.0172 9.91716C13.1734 9.76095 13.4267 9.76095 13.5829 9.91716L15.8829 12.2172C15.9601 12.2944 16.0024 12.3999 15.9999 12.5091C15.9975 12.6183 15.9504 12.7217 15.8698 12.7954L13.5698 14.8954C13.4066 15.0444 13.1536 15.0329 13.0047 14.8697C12.8557 14.7066 12.8672 14.4536 13.0303 14.3046L15.0212 12.4869L13.0172 10.4828C12.861 10.3266 12.861 10.0734 13.0172 9.91716Z" fill="black"/>
</svg>
