<?xml version="1.0" standalone="no"?>
<!--
 ~ Copyright (c) 2025, WSO2 LLC. (https://www.wso2.com) All Rights Reserved.
 ~
 ~ WSO2 LLC. licenses this file to you under the Apache License,
 ~ Version 2.0 (the "License"); you may not use this file except
 ~ in compliance with the License.
 ~ You may obtain a copy of the License at
 ~
 ~     http://www.apache.org/licenses/LICENSE-2.0
 ~
 ~ Unless required by applicable law or agreed to in writing,
 ~ software distributed under the License is distributed on an
 ~ "AS IS" BASIS, WITHOUT WARRANTIES OR CONDITIONS OF ANY
 ~ KIND, either express or implied. See the License for the
 ~ specific language governing permissions and limitations
 ~ under the License.
-->
<svg width="14" height="15" viewBox="0 0 14 15" fill="none" xmlns="http://www.w3.org/2000/svg">
<path d="M11.6 1.3C11.0013 1.3 10.6 1.74 10.6 2.2C10.6 2.66 11.0013 3.1 11.6 3.1C12.079 3.1 12.5 2.67909 12.5 2.2C12.5 1.72091 12.079 1.3 11.6 1.3ZM9.79995 2.2C9.79995 1.26 10.5986 0.5 11.6 0.5C12.5209 0.5 13.3 1.27909 13.3 2.2C13.3 3.12091 12.5209 3.9 11.6 3.9C10.5986 3.9 9.79995 3.14 9.79995 2.2Z" fill="black"/>
<path d="M11.6 6.5C11.0013 6.5 10.6 6.94 10.6 7.4C10.6 7.86 11.0013 8.3 11.6 8.3C12.079 8.3 12.5 7.87909 12.5 7.4C12.5 6.92091 12.079 6.5 11.6 6.5ZM9.79995 7.4C9.79995 6.46 10.5986 5.7 11.6 5.7C12.5209 5.7 13.3 6.47909 13.3 7.4C13.3 8.32091 12.5209 9.1 11.6 9.1C10.5986 9.1 9.79995 8.34 9.79995 7.4Z" fill="black"/>
<path d="M11.6 11.7C11.0013 11.7 10.6 12.14 10.6 12.6C10.6 13.06 11.0013 13.5 11.6 13.5C12.079 13.5 12.5 13.0791 12.5 12.6C12.5 12.1209 12.079 11.7 11.6 11.7ZM9.79995 12.6C9.79995 11.66 10.5986 10.9 11.6 10.9C12.5209 10.9 13.3 11.6791 13.3 12.6C13.3 13.5209 12.5209 14.3 11.6 14.3C10.5986 14.3 9.79995 13.54 9.79995 12.6Z" fill="black"/>
<path d="M2.49995 1.3C1.90128 1.3 1.49995 1.74 1.49995 2.2C1.49995 2.66 1.90128 3.1 2.49995 3.1C2.97904 3.1 3.39995 2.67909 3.39995 2.2C3.39995 1.72091 2.97904 1.3 2.49995 1.3ZM0.699951 2.2C0.699951 1.26 1.49862 0.5 2.49995 0.5C3.42087 0.5 4.19995 1.27909 4.19995 2.2C4.19995 3.12091 3.42086 3.9 2.49995 3.9C1.49862 3.9 0.699951 3.14 0.699951 2.2Z" fill="black"/>
<path d="M2.49995 6.5C1.90128 6.5 1.49995 6.94 1.49995 7.4C1.49995 7.86 1.90128 8.3 2.49995 8.3C2.97904 8.3 3.39995 7.87909 3.39995 7.4C3.39995 6.92091 2.97904 6.5 2.49995 6.5ZM0.699951 7.4C0.699951 6.46 1.49862 5.7 2.49995 5.7C3.42087 5.7 4.19995 6.47909 4.19995 7.4C4.19995 8.32091 3.42086 9.1 2.49995 9.1C1.49862 9.1 0.699951 8.34 0.699951 7.4Z" fill="black"/>
<path d="M2.49995 11.7C1.90128 11.7 1.49995 12.14 1.49995 12.6C1.49995 13.06 1.90128 13.5 2.49995 13.5C2.97904 13.5 3.39995 13.0791 3.39995 12.6C3.39995 12.1209 2.97904 11.7 2.49995 11.7ZM0.699951 12.6C0.699951 11.66 1.49862 10.9 2.49995 10.9C3.42087 10.9 4.19995 11.6791 4.19995 12.6C4.19995 13.5209 3.42086 14.3 2.49995 14.3C1.49862 14.3 0.699951 13.54 0.699951 12.6Z" fill="black"/>
<path d="M3.39995 7.4C3.39995 7.17909 3.57904 7 3.79995 7H10.2C10.4209 7 10.6 7.17909 10.6 7.4C10.6 7.62091 10.4209 7.8 10.2 7.8H3.79995C3.57904 7.8 3.39995 7.62091 3.39995 7.4Z" fill="black"/>
<path d="M3.39995 2.2C3.39995 1.97909 3.57904 1.8 3.79995 1.8V2.2C3.79995 1.8 3.79961 1.8 3.79995 1.8L3.80137 1.8L3.80309 1.80001L3.80743 1.80005L3.81961 1.8003C3.82927 1.80055 3.84197 1.80101 3.85752 1.80186C3.88861 1.80354 3.93117 1.80674 3.98357 1.81282C4.08824 1.82497 4.233 1.84871 4.40452 1.89516C4.74758 1.98807 5.2008 2.17281 5.65219 2.53955C6.56939 3.28478 7.39995 4.71384 7.39995 7.4C7.39995 9.80738 8.16563 10.9852 8.8579 11.5693C9.21095 11.8672 9.56243 12.0259 9.82287 12.11C9.95304 12.152 10.0597 12.1751 10.1311 12.1876C10.1667 12.1938 10.1934 12.1973 10.2095 12.1991L10.2257 12.2008C10.4459 12.2149 10.6129 12.4047 10.5992 12.625C10.5854 12.8454 10.3955 13.013 10.175 12.9992L10.2 12.6C10.175 12.9992 10.1753 12.9992 10.175 12.9992L10.1736 12.9991L10.172 12.999L10.1678 12.9987L10.1558 12.9977C10.1463 12.9969 10.1338 12.9957 10.1185 12.9939C10.0878 12.9904 10.0457 12.9847 9.99384 12.9757C9.89022 12.9577 9.74687 12.9261 9.57703 12.8713C9.23747 12.7616 8.78895 12.5578 8.342 12.1807C7.43427 11.4148 6.59995 9.99262 6.59995 7.4C6.59995 4.88616 5.83052 3.71522 5.14771 3.16045C4.7991 2.87719 4.45232 2.73693 4.19538 2.66734C4.0669 2.63254 3.96166 2.61565 3.89133 2.60749C3.85623 2.60341 3.83004 2.60154 3.81425 2.60068L3.79865 2.60002C3.79742 2.59999 3.7969 2.59998 3.79711 2.59999L3.79865 2.60002C3.57801 2.5997 3.39995 2.42071 3.39995 2.2ZM10.2257 12.2008L10.2268 12.2009C10.2269 12.2009 10.227 12.2009 10.2257 12.2008Z" fill="black"/>
</svg>
