<svg width="26" height="28" viewBox="0 0 26 28" fill="none" xmlns="http://www.w3.org/2000/svg">
<path d="M11.3709 1.74958C16.8816 1.74958 20.9922 3.59491 20.9922 5.24824C20.9922 6.90158 16.8816 8.74691 11.3709 8.74691C5.86024 8.74691 1.74958 6.90158 1.74958 5.24824C1.74958 3.59491 5.86024 1.74958 11.3709 1.74958ZM11.3709 26.2402C5.86024 26.2402 1.74958 24.3949 1.74958 22.7416V16.8629C3.72691 18.3149 7.21624 19.2429 11.3709 19.2429H12.2456V17.4936H11.3709C5.86024 17.4936 1.74958 15.6482 1.74958 13.9949V8.11758C3.72691 9.56958 7.21624 10.4962 11.3709 10.4962C15.5256 10.4962 19.0149 9.56958 20.9922 8.11758V13.9949H22.7402V5.24824C22.7402 2.25624 17.8509 0.000244141 11.3709 0.000244141C4.88958 0.000244141 0.000244141 2.25624 0.000244141 5.24824V22.7416C0.000244141 25.7336 4.88958 27.9896 11.3709 27.9896C12.8936 27.9949 14.4122 27.8589 15.9096 27.5789L15.5776 25.8296C14.1909 26.0976 12.7829 26.2362 11.3709 26.2402Z" fill="black"/>
<path d="M19.242 22.7412C17.7926 22.7412 16.618 21.5665 16.618 20.1172C16.618 18.6678 17.7926 17.4932 19.242 17.4932C20.6913 17.4932 21.8673 18.6678 21.8673 20.1172C21.8673 21.5665 20.6913 22.7412 19.242 22.7412ZM22.89 22.5225C24.222 20.5092 23.67 17.7958 21.6566 16.4625C19.6433 15.1292 16.93 15.6812 15.5966 17.6958C14.2633 19.7105 14.8153 22.4238 16.8286 23.7572C18.2926 24.7238 20.194 24.7238 21.6566 23.7572L24.7526 26.8518L25.9873 25.6185L22.89 22.5225Z" fill="black"/>
</svg>
