<?xml version="1.0" standalone="no"?>
<!DOCTYPE svg PUBLIC "-//W3C//DTD SVG 20010904//EN"
 "http://www.w3.org/TR/2001/REC-SVG-20010904/DTD/svg10.dtd">
<svg version="1.0" xmlns="http://www.w3.org/2000/svg"
 width="512.000000pt" height="512.000000pt" viewBox="0 0 512.000000 512.000000"
 preserveAspectRatio="xMidYMid meet">

<g transform="translate(0.000000,512.000000) scale(0.100000,-0.100000)"
fill="#000000" stroke="none">
<path d="M1685 5114 c-857 -55 -1485 -291 -1646 -619 l-34 -70 0 -1450 0
-1451 37 -75 c74 -150 243 -281 501 -388 238 -99 519 -164 892 -208 262 -31
1040 -22 1158 13 13 4 20 -3 29 -28 26 -74 112 -232 170 -310 462 -625 1362
-706 1925 -174 534 504 535 1341 4 1849 -184 176 -420 294 -668 335 l-102 17
-3 935 -3 935 -33 68 c-149 301 -667 521 -1422 602 -138 15 -669 27 -805 19z
m835 -188 c559 -70 981 -218 1173 -410 178 -178 83 -370 -267 -537 -228 -109
-533 -187 -916 -235 -172 -21 -691 -30 -890 -15 -725 55 -1310 267 -1431 519
-33 67 -24 146 25 216 149 217 671 409 1266 465 63 6 131 13 150 15 19 2 197
3 395 1 264 -2 396 -7 495 -19z m-2062 -1103 c799 -375 2364 -358 3102 34 47
25 100 56 118 69 17 13 48 36 67 51 l36 26 -3 -310 -3 -311 -38 -55 c-120
-174 -485 -337 -947 -421 -276 -51 -407 -60 -805 -61 -391 0 -490 7 -765 51
-487 80 -886 251 -1010 435 l-35 52 -3 308 -3 309 98 -67 c54 -36 140 -86 191
-110z m-148 -801 c376 -245 1201 -389 1960 -343 672 41 1179 185 1483 421 l27
22 0 -280 0 -280 -52 -6 c-198 -24 -342 -66 -490 -143 -173 -89 -346 -238
-453 -390 -50 -71 -50 -71 -110 -82 -197 -34 -367 -45 -700 -45 -450 0 -700
27 -1040 114 -390 100 -661 247 -744 405 -20 38 -21 54 -21 373 l0 334 43 -32
c23 -18 67 -48 97 -68z m3745 -651 c423 -89 747 -392 862 -807 26 -92 28 -113
28 -284 0 -171 -2 -192 -28 -285 -95 -343 -354 -630 -680 -753 -158 -59 -257
-75 -442 -69 -187 6 -290 30 -441 101 -123 58 -202 114 -306 214 -147 141
-252 320 -305 519 -24 88 -27 115 -27 273 0 158 3 185 27 273 31 118 97 260
166 360 61 88 202 227 290 287 124 83 303 155 450 180 93 16 311 11 406 -9z
m-3630 -356 c339 -168 786 -262 1337 -284 230 -9 568 1 753 23 66 8 121 13
122 12 1 -1 -9 -32 -22 -69 -46 -126 -67 -259 -67 -417 0 -80 5 -167 10 -195
6 -27 9 -52 7 -53 -9 -9 -160 -22 -372 -34 -427 -22 -881 18 -1254 112 -366
93 -647 241 -736 390 l-33 54 0 313 0 313 63 -51 c34 -27 120 -79 192 -114z"/>
<path d="M3326 2138 c-50 -14 -108 -72 -124 -124 -17 -59 -17 -1409 0 -1468
16 -52 72 -108 124 -124 53 -16 950 -17 1006 -2 50 14 97 55 119 105 17 37 19
80 19 650 l0 611 -37 35 c-62 58 -360 298 -390 314 -23 12 -86 15 -353 14
-187 -1 -341 -5 -364 -11z m604 -326 c0 -223 -12 -211 210 -214 l165 -3 3
-485 c1 -267 0 -495 -3 -508 l-5 -22 -468 2 -467 3 -3 685 c-1 377 0 691 3
698 3 9 70 12 285 12 l280 0 0 -168z m310 -48 c0 -2 -34 -4 -75 -4 l-75 0 0
66 0 65 75 -61 c41 -34 75 -63 75 -66z"/>
<path d="M4039 1411 l-29 -29 0 -287 c0 -291 3 -314 39 -342 21 -16 71 -16 92
0 36 28 39 51 39 342 l0 287 -29 29 c-18 17 -40 29 -56 29 -16 0 -38 -12 -56
-29z"/>
<path d="M3534 1296 c-17 -8 -34 -21 -38 -31 -3 -9 -6 -122 -6 -250 l0 -234
26 -20 c36 -28 79 -27 109 4 l25 24 0 230 c0 224 -1 230 -22 255 -30 32 -56
38 -94 22z"/>
<path d="M3775 1135 c-24 -24 -25 -27 -25 -185 0 -158 1 -161 25 -185 30 -31
73 -32 109 -4 l26 20 0 168 c0 162 -1 168 -23 189 -32 30 -81 29 -112 -3z"/>
</g>
</svg>
