<svg width="50" height="62" viewBox="0 0 50 62" fill="none" xmlns="http://www.w3.org/2000/svg">
<path d="M29.6 11.1C24.5742 11.1 20.5 15.1742 20.5 20.2C20.5 25.2258 24.5742 29.3 29.6 29.3C34.6258 29.3 38.7 25.2258 38.7 20.2C38.7 15.1742 34.6258 11.1 29.6 11.1ZM17.5 20.2C17.5 13.5174 22.9174 8.1 29.6 8.1C36.2826 8.1 41.7 13.5174 41.7 20.2C41.7 26.8826 36.2826 32.3 29.6 32.3C22.9174 32.3 17.5 26.8826 17.5 20.2Z" fill="black"/>
<path d="M5.66066 0.93934C6.24645 1.52513 6.24645 2.47487 5.66066 3.06066C4.03769 4.68363 3 7.00383 3 9.6C3 14.6716 7.12843 18.8 12.2 18.8H29.6C30.4284 18.8 31.1 19.4716 31.1 20.3C31.1 21.1284 30.4284 21.8 29.6 21.8H12.2C5.47157 21.8 0 16.3284 0 9.6C0 6.19618 1.36231 3.11637 3.53934 0.93934C4.12513 0.353553 5.07487 0.353553 5.66066 0.93934Z" fill="black"/>
<path d="M9.1 29.1C9.1 28.2716 9.77157 27.6 10.6 27.6H23.7C24.5284 27.6 25.2 28.2716 25.2 29.1C25.2 29.9284 24.5284 30.6 23.7 30.6H12.1V58.5H47V30.6H35.4C34.5716 30.6 33.9 29.9284 33.9 29.1C33.9 28.2716 34.5716 27.6 35.4 27.6H48.5C49.3284 27.6 50 28.2716 50 29.1V60C50 60.8284 49.3284 61.5 48.5 61.5H10.6C9.77157 61.5 9.1 60.8284 9.1 60V29.1Z" fill="black"/>
<path d="M17.2 42.4C17.2 41.5716 17.8716 40.9 18.7 40.9H40.4C41.2284 40.9 41.9 41.5716 41.9 42.4V52.6C41.9 53.4284 41.2284 54.1 40.4 54.1H18.7C17.8716 54.1 17.2 53.4284 17.2 52.6V42.4ZM20.2 43.9V51.1H38.9V43.9H20.2Z" fill="black"/>
</svg>
