<svg width="30" height="30" viewBox="0 0 30 30" fill="none" xmlns="http://www.w3.org/2000/svg">
<path d="M15 0C6.72 0 0 6.72 0 15C0 23.28 6.72 30 15 30C23.28 30 30 23.28 30 15C30 6.72 23.28 0 15 0ZM15 27C8.4 27 3 21.6 3 15C3 8.4 8.4 3 15 3C21.6 3 27 8.4 27 15C27 21.6 21.6 27 15 27Z" fill="black"/>
<path d="M12 9H18C18.66 9 19.2 9.54 19.2 10.2V19.8C19.2 20.46 18.66 21 18 21H12C11.34 21 10.8 20.46 10.8 19.8V10.2C10.8 9.54 11.34 9 12 9ZM16.8 18.6C16.8 18.96 16.56 19.2 16.2 19.2C15.84 19.2 15.6 18.96 15.6 18.6V13.8C15.6 13.44 15.84 13.2 16.2 13.2C16.56 13.2 16.8 13.44 16.8 13.8V18.6Z" fill="black"/>
</svg>
