<svg width="21" height="15" viewBox="0 0 21 15" fill="none" xmlns="http://www.w3.org/2000/svg">
<path d="M20.3 0.7H3.7V14.3H20.3V0.7ZM3 0H21V15H3V0Z" fill="black"/>
<path d="M12 4V10H19V4H12Z" fill="black"/>
<path d="M9.0201 4.52513C8.88342 4.38844 8.66181 4.38844 8.52513 4.52513C8.38844 4.66181 8.38844 4.88342 8.52513 5.0201L10.155 6.65H0V7.35H10.155L8.52513 8.9799C8.38844 9.11658 8.38844 9.33819 8.52513 9.47487C8.66181 9.61156 8.88342 9.61156 9.0201 9.47487L11.2475 7.24749C11.3842 7.1108 11.3842 6.8892 11.2475 6.75251L9.0201 4.52513Z" fill="black"/>
<path fill-rule="evenodd" clip-rule="evenodd" d="M11.2475 7.24749C11.3842 7.1108 11.3842 6.8892 11.2475 6.75251L9.0201 4.52513C8.88342 4.38844 8.66181 4.38844 8.52513 4.52513C8.38844 4.66181 8.38844 4.88342 8.52513 5.0201L10.155 6.65H0V7.35H10.155L8.52513 8.9799C8.38844 9.11658 8.38844 9.33819 8.52513 9.47487C8.66181 9.61156 8.88342 9.61156 9.0201 9.47487L11.2475 7.24749Z" fill="black"/>
</svg>
