<svg width="60" height="50" viewBox="0 0 60 50" fill="none" xmlns="http://www.w3.org/2000/svg">
<path fill-rule="evenodd" clip-rule="evenodd" d="M42.4998 19.0001C34.9335 19.0001 28.7998 25.1338 28.7998 32.7001C28.7998 40.2664 34.9335 46.4001 42.4998 46.4001C50.0661 46.4001 56.1998 40.2664 56.1998 32.7001C56.1998 25.1338 50.0661 19.0001 42.4998 19.0001ZM25.7998 32.7001C25.7998 23.4769 33.2766 16.0001 42.4998 16.0001C51.723 16.0001 59.1998 23.4769 59.1998 32.7001C59.1998 41.9233 51.723 49.4001 42.4998 49.4001C33.2766 49.4001 25.7998 41.9233 25.7998 32.7001Z" fill="black"/>
<path fill-rule="evenodd" clip-rule="evenodd" d="M0.799805 17.4001C0.799805 8.17806 8.265 0.600098 17.5998 0.600098C18.4282 0.600098 19.0998 1.27167 19.0998 2.1001C19.0998 2.92852 18.4282 3.6001 17.5998 3.6001C9.93461 3.6001 3.7998 9.82213 3.7998 17.4001C3.7998 25.0653 10.0218 31.2001 17.5998 31.2001H42.4998C43.3282 31.2001 43.9998 31.8717 43.9998 32.7001C43.9998 33.5285 43.3282 34.2001 42.4998 34.2001H17.5998C8.37777 34.2001 0.799805 26.7349 0.799805 17.4001Z" fill="black"/>
</svg>
