<!--
 ~ Copyright (c) 2025, WSO2 LLC. (https://www.wso2.com) All Rights Reserved.
 ~
 ~ WSO2 LLC. licenses this file to you under the Apache License,
 ~ Version 2.0 (the "License"); you may not use this file except
 ~ in compliance with the License.
 ~ You may obtain a copy of the License at
 ~
 ~     http://www.apache.org/licenses/LICENSE-2.0
 ~
 ~ Unless required by applicable law or agreed to in writing,
 ~ software distributed under the License is distributed on an
 ~ "AS IS" BASIS, WITHOUT WARRANTIES OR CONDITIONS OF ANY
 ~ KIND, either express or implied. See the License for the
 ~ specific language governing permissions and limitations
 ~ under the License.
-->
<svg width="16" height="17" viewBox="0 0 16 17" fill="none" xmlns="http://www.w3.org/2000/svg">
<path d="M4.7 11.9H6.5V12.2H5V13.1H6.4V13.4H5V14.3H6.5V14.6H4.7V11.9Z" fill="black"/>
<path d="M8.4 13.9C8.4 14.0334 8.36667 14.1334 8.3 14.2C8.3 14.2667 8.26667 14.3334 8.2 14.4C8.13333 14.4667 8.06667 14.5334 8 14.6C7.86667 14.6667 7.73333 14.7 7.6 14.7C7.33333 14.7 7.13333 14.6334 7 14.5C6.86667 14.3667 6.8 14.1667 6.8 13.9V13.7H7.2V13.8C7.2 13.8667 7.2 13.9334 7.2 14C7.2 14.0667 7.23333 14.1334 7.3 14.2C7.3 14.2667 7.33333 14.3 7.4 14.3C7.46667 14.3667 7.53333 14.4 7.6 14.4C7.8 14.4 7.9 14.3334 7.9 14.2C7.96667 14.1334 8 14.0334 8 13.9V11.9H8.4V13.9Z" fill="black"/>
<path d="M9.1 11.9H10C10.0667 11.9 10.1333 11.9 10.2 11.9C10.2667 11.9667 10.3333 12 10.4 12C10.4667 12 10.5333 12 10.6 12C10.6667 12 10.7 12 10.7 12C10.8333 12.0667 10.9333 12.1667 11 12.3C11 12.3667 11 12.4667 11 12.6C11 12.7334 10.9667 12.8667 10.9 13C10.8333 13.0667 10.7667 13.1334 10.7 13.2C10.8333 13.2 10.9333 13.2667 11 13.4C11.1333 13.5334 11.2 13.6667 11.2 13.8C11.2 13.9334 11.1667 14.0334 11.1 14.1C11.1 14.2334 11.0667 14.3334 11 14.4C10.9333 14.4667 10.8333 14.5 10.7 14.5C10.6333 14.5667 10.5333 14.6 10.4 14.6H9.1V11.9ZM9.4 13H10.1C10.3 13 10.4667 12.9667 10.6 12.9C10.6667 12.8334 10.7 12.7334 10.7 12.6C10.7 12.5334 10.7 12.4667 10.7 12.4C10.6333 12.3334 10.5667 12.3 10.5 12.3C10.5 12.2334 10.4333 12.2 10.3 12.2C10.2333 12.2 10.1667 12.2 10.1 12.2H9.4V13ZM9.4 14.2H10.3C10.4333 14.2 10.5667 14.1667 10.7 14.1C10.7667 13.9667 10.8 13.8334 10.8 13.7C10.8 13.6334 10.8 13.5667 10.8 13.5C10.7333 13.4334 10.6667 13.4 10.6 13.4C10.6 13.3334 10.5333 13.3 10.4 13.3C10.3333 13.3 10.2667 13.3 10.2 13.3H9.4V14.2Z" fill="black"/>
<path d="M7.1 5.10005C7.1 5.16672 7.1 5.20005 7.1 5.20005C7.1 5.26672 7.13333 5.33338 7.2 5.40005C7.2 5.46672 7.23333 5.50005 7.3 5.50005C7.3 5.56672 7.3 5.60005 7.3 5.60005C7.3 5.70005 7.3 5.80005 7.2 5.80005C7.06667 5.66672 6.96667 5.50005 6.9 5.30005C6.9 5.30005 6.86667 5.26672 6.8 5.20005C6.86667 5.13338 6.86667 5.10005 6.8 5.10005C6.8 5.03338 6.76667 5.00005 6.7 5.00005C6.7 4.93338 6.7 4.90005 6.7 4.90005C6.7 4.76672 6.7 4.66672 6.7 4.60005C6.7 4.53338 6.7 4.50005 6.7 4.50005C6.76667 4.43338 6.8 4.36672 6.8 4.30005C7.1 3.80005 7.5 3.60005 7.8 3.30005C8.1 3.10005 8.4 2.90005 8.6 2.60005C8.86667 2.26672 9 1.86672 9 1.40005C9.2 1.70005 9.2 2.00005 9 2.30005C8.8 2.90005 8.4 3.30005 8 3.70005C7.6 4.00005 7.3 4.30005 7.1 4.80005C7.03333 4.86672 7.03333 4.96672 7.1 5.10005Z" fill="black"/>
<path d="M9.9 10.2C8.9 10.4 8 10.4 7 10.4C6.26667 10.4 5.53333 10.3334 4.8 10.2C4.6 10.2 4.5 10.2 4.3 10C4.5 9.70005 4.7 9.60005 5 9.50005C5 9.56672 5 9.63338 5 9.70005C5 9.70005 4.9 9.80005 5 9.90005C5.5 10.1 6 10.1 6.6 10.2C7.7 10.3 8.8 10.1 9.9 10.1C9.9 10.1 9.9 10.1334 9.9 10.2Z" fill="black"/>
<path d="M8.6 6.30005C8.6 6.30005 8.6 6.26672 8.6 6.20005C8.6 6.13338 8.56667 6.10005 8.5 6.10005C8.43333 5.90005 8.33333 5.70005 8.2 5.50005C7.8 5.00005 7.9 4.50005 8.3 4.10005C8.56667 3.83338 8.86667 3.63338 9.2 3.50005C9.26667 3.56672 9.3 3.60005 9.3 3.60005C9.3 3.60005 9.26667 3.63338 9.2 3.70005C9.13333 3.70005 9.1 3.73338 9.1 3.80005C9.1 3.80005 9.06667 3.80005 9 3.80005C9 3.80005 9 3.83338 9 3.90005C8.86667 3.96672 8.76667 4.03338 8.7 4.10005C8.4 4.40005 8.4 4.70005 8.6 5.10005C8.66667 5.16672 8.73333 5.26672 8.8 5.40005C9.1 5.80005 9.1 6.10005 8.7 6.50005C8.6 6.40005 8.6 6.40005 8.6 6.30005Z" fill="black"/>
<path d="M6.2 9.00005C6.2 8.93338 6.23333 8.90005 6.3 8.90005C6.3 8.83338 6.33333 8.80005 6.4 8.80005C7.2 9.20005 8.1 9.00005 8.9 8.90005C9.03333 8.96671 9.16667 9.03338 9.3 9.10005C8.6 9.70005 6.6 9.60005 6.2 9.00005Z" fill="black"/>
<path d="M9.2 7.90005C9.3 8.00005 9.4 8.00005 9.5 8.20005C8.3 8.40005 7.1 8.60005 5.9 8.10005C5.9 7.80005 6.1 7.80005 6.2 7.70005C6.3 8.00005 6.5 8.00005 6.7 8.00005C7.5 8.10005 8.3 8.10005 9.2 7.90005Z" fill="black"/>
<path d="M9.6 7.10005C8.1 7.40005 6.6 7.50005 5.1 7.10005C5.3 6.80005 5.6 6.80005 5.9 6.70005C5.9 6.70005 5.9 6.73338 5.9 6.80005C5.83333 6.86672 5.8 6.90005 5.8 6.90005C5.9 7.10005 6 7.10005 6.1 7.10005C7.1 7.20005 8.1 7.10005 9.1 7.00005C9.23333 7.00005 9.4 7.00005 9.6 7.00005C9.6 7.00005 9.6 7.03338 9.6 7.10005Z" fill="black"/>
<path d="M8.7 10.9C8.16667 10.9 7.66667 10.9 7.2 10.9C7.2 10.8334 7.2 10.8 7.2 10.8C8.2 10.8 9.3 10.7 10.3 10.5C10.5667 10.4334 10.8 10.3667 11 10.3C11.0667 10.3667 11.1 10.4 11.1 10.4C10.5 10.7 9.7 10.8 9 10.8C8.9 10.8 8.8 10.8 8.7 10.9Z" fill="black"/>
<path d="M10.9 6.50005C11.1667 6.50005 11.3667 6.66672 11.5 7.00005C11.6 7.30005 11.4 7.50005 11.2 7.70005C11.1 7.80005 10.9 8.00005 10.7 8.00005C10.7 7.93338 10.7 7.90005 10.7 7.90005C10.7667 7.76672 10.8667 7.66672 11 7.60005C11.2 7.20005 11.2 6.90005 10.8 6.60005C10.8667 6.53338 10.9 6.50005 10.9 6.50005Z" fill="black"/>
<path d="M7.2 10.8C7.2 10.8 7.2 10.8334 7.2 10.9C6.9 10.9 6.6 10.8 6.4 10.8C6.4 10.8 6.4 10.7667 6.4 10.7C6.66667 10.7 6.93333 10.7334 7.2 10.8Z" fill="black"/>
<path d="M10.2 10C10.4 9.90005 10.7 9.90005 10.9 9.80005C10.9 9.80005 10.9333 9.80005 11 9.80005C10.7 10 10.5 10.1 10.2 10.1C10.2 10.1 10.2 10.0667 10.2 10Z" fill="black"/>
<path d="M7.2 5.80005C7.3 5.80005 7.3 5.70005 7.3 5.60005C7.43333 5.80005 7.56667 5.96672 7.7 6.10005C7.7 6.16672 7.7 6.20005 7.7 6.20005C7.5 6.06672 7.33333 5.93338 7.2 5.80005Z" fill="black"/>
<path d="M10.7 7.90005C10.7 7.90005 10.7 7.93338 10.7 8.00005C10.6 8.10005 10.5 8.10005 10.4 8.20005C10.4 8.13338 10.4 8.10005 10.4 8.10005C10.4667 8.03338 10.5667 7.96672 10.7 7.90005Z" fill="black"/>
<path d="M10.9 6.50005C10.9 6.50005 10.8667 6.53338 10.8 6.60005C10.7333 6.60005 10.6333 6.56672 10.5 6.50005C10.6 6.40005 10.8 6.40005 10.9 6.50005Z" fill="black"/>
<path d="M9.3 3.60005C9.3 3.60005 9.26667 3.56672 9.2 3.50005C9.33333 3.43338 9.46667 3.36672 9.6 3.30005C9.6 3.36672 9.6 3.43338 9.6 3.50005C9.46667 3.50005 9.36667 3.53338 9.3 3.60005Z" fill="black"/>
<path d="M6.4 10.7C6.4 10.7667 6.4 10.8 6.4 10.8C6.26667 10.8 6.13333 10.7667 6 10.7C6.13333 10.7 6.26667 10.7 6.4 10.7Z" fill="black"/>
<path d="M11.1 10.4C11.1 10.4 11.0667 10.3667 11 10.3C11.1333 10.2334 11.2333 10.2 11.3 10.2C11.3 10.2 11.3333 10.2 11.4 10.2C11.3333 10.3334 11.2333 10.4 11.1 10.4Z" fill="black"/>
<path d="M5 9.70005C5 9.63338 5 9.56672 5 9.50005C5.06667 9.50005 5.13333 9.50005 5.2 9.50005C5.2 9.50005 5.2 9.53338 5.2 9.60005C5.13333 9.60005 5.06667 9.63338 5 9.70005Z" fill="black"/>
<path d="M9 10.8C8.9 10.8 8.8 10.8 8.7 10.9C8.76667 10.9667 8.86667 10.9334 9 10.8Z" fill="black"/>
<path d="M5.4 9.40005C5.46667 9.33338 5.56667 9.33338 5.7 9.40005C5.6 9.60005 5.5 9.50005 5.4 9.50005C5.4 9.50005 5.4 9.46671 5.4 9.40005Z" fill="black"/>
<path d="M7.7 6.20005C7.7 6.20005 7.7 6.16672 7.7 6.10005C7.7 6.16672 7.73333 6.23338 7.8 6.30005C7.7 6.30005 7.7 6.30005 7.7 6.20005Z" fill="black"/>
<path d="M8.6 6.30005C8.6 6.40005 8.6 6.40005 8.7 6.50005C8.63333 6.56672 8.56667 6.60005 8.5 6.60005C8.5 6.50005 8.5 6.40005 8.6 6.30005Z" fill="black"/>
<path d="M5.9 6.80005C5.9 6.73338 5.9 6.70005 5.9 6.70005C5.96667 6.63338 6.03333 6.60005 6.1 6.60005C6.1 6.66672 6.1 6.70005 6.1 6.70005C6.03333 6.76672 5.96667 6.80005 5.9 6.80005Z" fill="black"/>
<path d="M10.4 8.10005C10.4 8.10005 10.4 8.13338 10.4 8.20005C10.3333 8.26672 10.2667 8.30005 10.2 8.30005C10.2 8.10005 10.3 8.10005 10.4 8.10005Z" fill="black"/>
<path d="M6.3 6.60005C6.36667 6.53338 6.43333 6.53338 6.5 6.60005C6.43333 6.66672 6.36667 6.70005 6.3 6.70005C6.3 6.63338 6.3 6.60005 6.3 6.60005Z" fill="black"/>
<path d="M9.6 7.00005C9.6 6.90005 9.7 6.90005 9.8 6.90005C9.8 7.00005 9.7 7.00005 9.7 7.00005C9.63333 7.00005 9.6 7.00005 9.6 7.00005Z" fill="black"/>
<path d="M6.3 6.60005C6.3 6.60005 6.3 6.63338 6.3 6.70005C6.23333 6.70005 6.16667 6.70005 6.1 6.70005C6.1 6.70005 6.1 6.66672 6.1 6.60005C6.16667 6.60005 6.23333 6.60005 6.3 6.60005Z" fill="black"/>
<path d="M9.7 3.30005C9.76667 3.23338 9.83333 3.20005 9.9 3.20005C9.9 3.30005 9.8 3.30005 9.7 3.30005Z" fill="black"/>
<path d="M7.1 4.80005C7.03333 4.86672 7.03333 4.96672 7.1 5.10005C7.1 4.96672 7.1 4.86672 7.1 4.80005Z" fill="black"/>
<path d="M5.4 9.40005C5.4 9.46671 5.4 9.50005 5.4 9.50005C5.33333 9.50005 5.26667 9.53338 5.2 9.60005C5.2 9.53338 5.2 9.50005 5.2 9.50005C5.26667 9.43338 5.33333 9.40005 5.4 9.40005Z" fill="black"/>
<path d="M10.9 9.80005C10.9 9.70005 10.9 9.60005 11 9.60005C11.1 9.70005 11 9.80005 11 9.80005C10.9333 9.80005 10.9 9.80005 10.9 9.80005Z" fill="black"/>
<path d="M10.2 10C10.2 10.0667 10.2 10.1 10.2 10.1C10.0667 10.1667 9.96667 10.2 9.9 10.2C9.9 10.1334 9.9 10.1 9.9 10.1C9.96667 10.0334 10.0667 10 10.2 10Z" fill="black"/>
<path d="M11.3 10.2C11.3 10.1334 11.3333 10.1 11.4 10.1C11.4 10.2 11.4 10.2 11.4 10.2C11.3333 10.2 11.3 10.2 11.3 10.2Z" fill="black"/>
<path d="M6 10.7C5.93333 10.7667 5.9 10.7667 5.9 10.7C5.9 10.6334 5.93333 10.6334 6 10.7Z" fill="black"/>
<path d="M9.6 3.50005C9.6 3.43338 9.6 3.36672 9.6 3.30005C9.6 3.30005 9.63333 3.30005 9.7 3.30005C9.7 3.36672 9.66667 3.43338 9.6 3.50005Z" fill="black"/>
<path d="M6.7 4.90005C6.7 4.76672 6.7 4.66672 6.7 4.60005C6.63333 4.66672 6.63333 4.76672 6.7 4.90005Z" fill="black"/>
<path d="M7.1 5.20005C7.1 5.26672 7.13333 5.33338 7.2 5.40005C7.2 5.33338 7.16667 5.26672 7.1 5.20005Z" fill="black"/>
<path d="M6.8 5.20005C6.86667 5.13338 6.86667 5.10005 6.8 5.10005C6.8 5.16672 6.8 5.20005 6.8 5.20005Z" fill="black"/>
<path d="M6.8 5.10005C6.8 5.03338 6.76667 5.00005 6.7 5.00005C6.7 5.06672 6.73333 5.10005 6.8 5.10005Z" fill="black"/>
<path d="M6.7 4.50005C6.76667 4.43338 6.8 4.36672 6.8 4.30005C6.73333 4.36672 6.7 4.43338 6.7 4.50005Z" fill="black"/>
<path d="M9.6 7.10005C9.6 7.03338 9.6 7.00005 9.6 7.00005C9.6 7.00005 9.63333 7.00005 9.7 7.00005C9.63333 7.06672 9.6 7.10005 9.6 7.10005Z" fill="black"/>
<path d="M0.5 1.20005C0.5 0.979135 0.679086 0.800049 0.9 0.800049H14.9C15.1209 0.800049 15.3 0.979135 15.3 1.20005V15.9C15.3 16.121 15.1209 16.3 14.9 16.3H0.9C0.679086 16.3 0.5 16.121 0.5 15.9V1.20005ZM1.3 1.60005V15.5H14.5V1.60005H1.3Z" fill="black"/>
<path d="M0.5 10.8C0.5 10.5791 0.679086 10.4 0.9 10.4H14.9C15.1209 10.4 15.3 10.5791 15.3 10.8C15.3 11.021 15.1209 11.2 14.9 11.2H0.9C0.679086 11.2 0.5 11.021 0.5 10.8Z" fill="black"/>
</svg>
