 <!--
 ~ Copyright (c) 2025, WSO2 LLC. (https://www.wso2.com) All Rights Reserved.
 ~
 ~ WSO2 LLC. licenses this file to you under the Apache License,
 ~ Version 2.0 (the "License"); you may not use this file except
 ~ in compliance with the License.
 ~ You may obtain a copy of the License at
 ~
 ~     http://www.apache.org/licenses/LICENSE-2.0
 ~
 ~ Unless required by applicable law or agreed to in writing,
 ~ software distributed under the License is distributed on an
 ~ "AS IS" BASIS, WITHOUT WARRANTIES OR CONDITIONS OF ANY
 ~ KIND, either express or implied. See the License for the
 ~ specific language governing permissions and limitations
 ~ under the License.
-->
<?xml version="1.0" encoding="utf-8"?><!-- Uploaded to: SVG Repo, www.svgrepo.com, Generator: SVG Repo Mixer Tools -->
<svg fill="#000000" width="800px" height="800px" viewBox="0 0 24 24" xmlns="http://www.w3.org/2000/svg"><path d="M2.293,7.707a1,1,0,0,1,0-1.414l4-4A1,1,0,0,1,7.707,3.707l-4,4a1,1,0,0,1-1.414,0Zm17.5,8.086-4,4a1,1,0,1,0,1.414,1.414l4-4a1,1,0,0,0-1.414-1.414Zm1.914-6.5a1,1,0,0,0-1.414,0l-11,11a1,1,0,1,0,1.414,1.414l11-11A1,1,0,0,0,21.707,9.293ZM3,15a1,1,0,0,0,.707-.293l11-11a1,1,0,1,0-1.414-1.414l-11,11A1,1,0,0,0,3,15Zm0,7a1,1,0,0,0,.707-.293l18-18a1,1,0,1,0-1.414-1.414l-18,18A1,1,0,0,0,3,22Z"/></svg>
