
<!--
 ~ Copyright (c) 2025, WSO2 LLC. (https://www.wso2.com) All Rights Reserved.
 ~
 ~ WSO2 LLC. licenses this file to you under the Apache License,
 ~ Version 2.0 (the "License"); you may not use this file except
 ~ in compliance with the License.
 ~ You may obtain a copy of the License at
 ~
 ~     http://www.apache.org/licenses/LICENSE-2.0
 ~
 ~ Unless required by applicable law or agreed to in writing,
 ~ software distributed under the License is distributed on an
 ~ "AS IS" BASIS, WITHOUT WARRANTIES OR CONDITIONS OF ANY
 ~ KIND, either express or implied. See the License for the
 ~ specific language governing permissions and limitations
 ~ under the License.
-->
<svg width="16" height="15" viewBox="0 0 16 15" fill="none" xmlns="http://www.w3.org/2000/svg">
<path d="M12.5594 4.12553C12.7154 4.06692 12.8913 4.11116 13.0011 4.23657L15.1011 6.63657C15.2352 6.78981 15.2327 7.01932 15.0954 7.16968L12.9954 9.46968C12.8841 9.59161 12.7093 9.63261 12.5554 9.57291C12.4015 9.51321 12.3 9.36507 12.3 9.19998V4.49998C12.3 4.33333 12.4034 4.18415 12.5594 4.12553ZM13.1 5.56456V8.16865L14.2636 6.8943L13.1 5.56456Z" fill="black"/>
<path d="M1.0001 10C1.22101 10 1.4001 10.1791 1.4001 10.4V13.7H14.4001V10.4C14.4001 10.1791 14.5792 10 14.8001 10C15.021 10 15.2001 10.1791 15.2001 10.4V14.1C15.2001 14.3209 15.021 14.5 14.8001 14.5H1.0001C0.779184 14.5 0.600098 14.3209 0.600098 14.1V10.4C0.600098 10.1791 0.779184 10 1.0001 10Z" fill="black"/>
<path d="M3.5 0.999976C3.5 0.779062 3.67909 0.599976 3.9 0.599976H5.7C5.92091 0.599976 6.1 0.779062 6.1 0.999976V12.7C6.1 12.9209 5.92091 13.1 5.7 13.1H3.9C3.67909 13.1 3.5 12.9209 3.5 12.7V0.999976ZM4.3 1.39998V12.3H5.3V1.39998H4.3Z" fill="black"/>
<path d="M6.5 0.999976C6.5 0.779062 6.67909 0.599976 6.9 0.599976H8.7C8.92091 0.599976 9.1 0.779062 9.1 0.999976V12.7C9.1 12.9209 8.92091 13.1 8.7 13.1H6.9C6.67909 13.1 6.5 12.9209 6.5 12.7V0.999976ZM7.3 1.39998V12.3H8.3V1.39998H7.3Z" fill="black"/>
<path d="M9.5 0.999976C9.5 0.779062 9.67909 0.599976 9.9 0.599976H11.7C11.9209 0.599976 12.1 0.779062 12.1 0.999976V12.7C12.1 12.9209 11.9209 13.1 11.7 13.1H9.9C9.67909 13.1 9.5 12.9209 9.5 12.7V0.999976ZM10.3 1.39998V12.3H11.3V1.39998H10.3Z" fill="black"/>
<path d="M0.859407 4.12553C1.0154 4.06692 1.19139 4.11116 1.30113 4.23657L3.40113 6.63657C3.53521 6.78981 3.53278 7.01932 3.39549 7.16968L1.29549 9.46968C1.18417 9.59161 1.00938 9.63261 0.855456 9.57291C0.70153 9.51321 0.600098 9.36507 0.600098 9.19998V4.49998C0.600098 4.33333 0.703412 4.18415 0.859407 4.12553ZM1.4001 5.56456V8.16865L2.56363 6.8943L1.4001 5.56456Z" fill="black"/>
</svg>
