<!--
 ~ Copyright (c) 2025, WSO2 LLC. (https://www.wso2.com) All Rights Reserved.
 ~
 ~ WSO2 LLC. licenses this file to you under the Apache License,
 ~ Version 2.0 (the "License"); you may not use this file except
 ~ in compliance with the License.
 ~ You may obtain a copy of the License at
 ~
 ~     http://www.apache.org/licenses/LICENSE-2.0
 ~
 ~ Unless required by applicable law or agreed to in writing,
 ~ software distributed under the License is distributed on an
 ~ "AS IS" BASIS, WITHOUT WARRANTIES OR CONDITIONS OF ANY
 ~ KIND, either express or implied. See the License for the
 ~ specific language governing permissions and limitations
 ~ under the License.
-->
<svg width="13" height="15" viewBox="0 0 13 15" fill="none" xmlns="http://www.w3.org/2000/svg">
<path d="M4.39997 6.7C4.39997 6.47909 4.57905 6.3 4.79997 6.3H12.5C12.7209 6.3 12.9 6.47909 12.9 6.7V14.4C12.9 14.6209 12.7209 14.8 12.5 14.8H4.79997C4.57905 14.8 4.39997 14.6209 4.39997 14.4V6.7ZM5.19997 7.1V14H12.1V7.1H5.19997Z" fill="black"/>
<path d="M0.899967 4C0.899967 3.77909 1.07905 3.6 1.29997 3.6H6.79997C7.02088 3.6 7.19997 3.77909 7.19997 4C7.19997 4.22091 7.02088 4.4 6.79997 4.4H1.69997V8.4C1.69997 8.62091 1.52088 8.8 1.29997 8.8C1.07905 8.8 0.899967 8.62091 0.899967 8.4V4Z" fill="black"/>
<path d="M3.99997 0C4.22088 0 4.39997 0.179086 4.39997 0.4V3.1C4.39997 3.32091 4.22088 3.5 3.99997 3.5C3.77905 3.5 3.59997 3.32091 3.59997 3.1V0.4C3.59997 0.179086 3.77905 0 3.99997 0Z" fill="black"/>
<path d="M1.82447 1.21C1.98463 1.05785 2.23781 1.06434 2.38997 1.2245L4.00731 2.92697L5.71712 1.21716C5.87333 1.06095 6.1266 1.06095 6.28281 1.21716C6.43902 1.37337 6.43902 1.62663 6.28281 1.78284L4.28281 3.78284C4.20654 3.85911 4.1027 3.90135 3.99484 3.89997C3.88699 3.89858 3.78426 3.8537 3.70997 3.7755L1.80997 1.7755C1.65781 1.61534 1.66431 1.36215 1.82447 1.21Z" fill="black"/>
<path d="M0.983255 3.75568C1.11819 3.58076 1.36937 3.54835 1.54429 3.68329L5.04429 6.38329C5.2192 6.51822 5.25162 6.76941 5.11668 6.94432C4.98175 7.11924 4.73056 7.15165 4.55565 7.01671L1.05565 4.31671C0.88073 4.18178 0.84832 3.93059 0.983255 3.75568Z" fill="black"/>
<path d="M1.09842 8.05449C1.28924 7.94318 1.53417 8.00763 1.64548 8.19845L5.14548 14.1985C5.25679 14.3893 5.19234 14.6342 5.00152 14.7455C4.8107 14.8568 4.56577 14.7924 4.45446 14.6015L0.954456 8.60155C0.843144 8.41073 0.907598 8.1658 1.09842 8.05449Z" fill="black"/>
<path d="M6.43847 3.82877C6.53304 3.62912 6.77155 3.54393 6.9712 3.6385L12.6712 6.3385C12.8709 6.43307 12.956 6.67159 12.8615 6.87123C12.7669 7.07088 12.5284 7.15607 12.3287 7.0615L6.62873 4.3615C6.42908 4.26692 6.3439 4.02841 6.43847 3.82877Z" fill="black"/>
</svg>
