
<!--
 ~ Copyright (c) 2025, WSO2 LLC. (https://www.wso2.com) All Rights Reserved.
 ~
 ~ WSO2 LLC. licenses this file to you under the Apache License,
 ~ Version 2.0 (the "License"); you may not use this file except
 ~ in compliance with the License.
 ~ You may obtain a copy of the License at
 ~
 ~     http://www.apache.org/licenses/LICENSE-2.0
 ~
 ~ Unless required by applicable law or agreed to in writing,
 ~ software distributed under the License is distributed on an
 ~ "AS IS" BASIS, WITHOUT WARRANTIES OR CONDITIONS OF ANY
 ~ KIND, either express or implied. See the License for the
 ~ specific language governing permissions and limitations
 ~ under the License.
-->
<svg width="16" height="15" viewBox="0 0 16 15" fill="none" xmlns="http://www.w3.org/2000/svg">
<path d="M1.35903 3.44794C1.30321 3.50934 1.25005 3.61989 1.25005 3.8V13.8C1.25005 13.9161 1.29504 14.0373 1.36893 14.1259C1.4413 14.2128 1.5238 14.25 1.60005 14.25H10.9C11.0933 14.25 11.25 14.4067 11.25 14.6C11.25 14.7933 11.0933 14.95 10.9 14.95H1.60005C1.2763 14.95 1.0088 14.7872 0.831171 14.5741C0.655057 14.3627 0.550049 14.0839 0.550049 13.8V3.8C0.550049 3.48011 0.64689 3.19066 0.84107 2.97706C1.03708 2.76146 1.30861 2.65 1.60005 2.65H14.4C14.6915 2.65 14.963 2.76146 15.159 2.97706C15.3532 3.19066 15.4501 3.48011 15.4501 3.8V10.3C15.4501 10.4933 15.2933 10.65 15.1 10.65C14.9068 10.65 14.75 10.4933 14.75 10.3V3.8C14.75 3.61989 14.6969 3.50934 14.6411 3.44794C14.5871 3.38854 14.5086 3.35 14.4 3.35H1.60005C1.49149 3.35 1.41302 3.38854 1.35903 3.44794Z" fill="black"/>
<path d="M4.80005 0C5.02096 0 5.20005 0.179086 5.20005 0.4V4.1C5.20005 4.32091 5.02096 4.5 4.80005 4.5C4.57913 4.5 4.40005 4.32091 4.40005 4.1V0.4C4.40005 0.179086 4.57913 0 4.80005 0Z" fill="black"/>
<path d="M11.2 0C11.421 0 11.6 0.179086 11.6 0.4V4.1C11.6 4.32091 11.421 4.5 11.2 4.5C10.9791 4.5 10.8 4.32091 10.8 4.1V0.4C10.8 0.179086 10.9791 0 11.2 0Z" fill="black"/>
<path d="M2.50005 6.2C2.50005 5.97909 2.67914 5.8 2.90005 5.8H5.10005C5.32096 5.8 5.50005 5.97909 5.50005 6.2V8.4C5.50005 8.62091 5.32096 8.8 5.10005 8.8H2.90005C2.67914 8.8 2.50005 8.62091 2.50005 8.4V6.2ZM3.30005 6.6V8H4.70005V6.6H3.30005Z" fill="black"/>
<path d="M2.50005 10.2C2.50005 9.97909 2.67914 9.8 2.90005 9.8H5.10005C5.32096 9.8 5.50005 9.97909 5.50005 10.2V12.4C5.50005 12.6209 5.32096 12.8 5.10005 12.8H2.90005C2.67914 12.8 2.50005 12.6209 2.50005 12.4V10.2ZM3.30005 10.6V12H4.70005V10.6H3.30005Z" fill="black"/>
<path d="M10.9 6.4C8.72096 6.4 7.00005 8.12091 7.00005 10.3C7.00005 12.373 8.71481 14.1 10.9 14.1C12.9791 14.1 14.7 12.3791 14.7 10.3C14.7 8.11476 12.973 6.4 10.9 6.4ZM6.20005 10.3C6.20005 7.67909 8.27913 5.6 10.9 5.6C13.4271 5.6 15.5 7.68524 15.5 10.3C15.5 12.8209 13.421 14.9 10.9 14.9C8.28529 14.9 6.20005 12.827 6.20005 10.3Z" fill="black"/>
<path d="M10.6 8.2C10.821 8.2 11 8.37909 11 8.6V10.4074L13.0002 9.25353C13.1915 9.14313 13.4361 9.20876 13.5465 9.40011C13.6569 9.59146 13.5913 9.83608 13.3999 9.94648L10.7999 11.4465C10.6762 11.5179 10.5237 11.5178 10.4 11.4464C10.2763 11.3749 10.2 11.2429 10.2 11.1V8.6C10.2 8.37909 10.3791 8.2 10.6 8.2Z" fill="black"/>
</svg>
