<!--
 ~ Copyright (c) 2025, WSO2 LLC. (https://www.wso2.com) All Rights Reserved.
 ~
 ~ WSO2 LLC. licenses this file to you under the Apache License,
 ~ Version 2.0 (the "License"); you may not use this file except
 ~ in compliance with the License.
 ~ You may obtain a copy of the License at
 ~
 ~     http://www.apache.org/licenses/LICENSE-2.0
 ~
 ~ Unless required by applicable law or agreed to in writing,
 ~ software distributed under the License is distributed on an
 ~ "AS IS" BASIS, WITHOUT WARRANTIES OR CONDITIONS OF ANY
 ~ KIND, either express or implied. See the License for the
 ~ specific language governing permissions and limitations
 ~ under the License.
-->
<svg xmlns="http://www.w3.org/2000/svg" width="24" height="24" viewBox="0 0 24 24"><path fill="currentColor" d="M14.5 18q-1.05 0-1.775-.725T12 15.5q0-1.05.725-1.775T14.5 13q1.05 0 1.775.725T17 15.5q0 1.05-.725 1.775T14.5 18ZM5 22q-.825 0-1.413-.588T3 20V6q0-.825.588-1.413T5 4h1V2h2v2h8V2h2v2h1q.825 0 1.413.588T21 6v14q0 .825-.588 1.413T19 22H5Zm0-2h14V10H5v10ZM5 8h14V6H5v2Zm0 0V6v2Z"/></svg>
