<svg width="60" height="54" viewBox="0 0 60 54" fill="none" xmlns="http://www.w3.org/2000/svg">
<path d="M43.7998 25.7C36.9515 25.7 31.3998 31.2517 31.3998 38.1C31.3998 44.9483 36.9515 50.5 43.7998 50.5C50.6481 50.5 56.1998 44.9483 56.1998 38.1C56.1998 31.2517 50.6481 25.7 43.7998 25.7ZM28.3998 38.1C28.3998 29.5948 35.2946 22.7 43.7998 22.7C52.305 22.7 59.1998 29.5948 59.1998 38.1C59.1998 46.6052 52.305 53.5 43.7998 53.5C35.2946 53.5 28.3998 46.6052 28.3998 38.1Z" fill="black"/>
<path d="M11.1998 9.9C12.0282 9.9 12.6998 10.5716 12.6998 11.4V25.5C12.6998 31.6716 17.6282 36.6 23.7998 36.6H43.7998C44.6282 36.6 45.2998 37.2716 45.2998 38.1C45.2998 38.9284 44.6282 39.6 43.7998 39.6H23.7998C15.9714 39.6 9.6998 33.3284 9.6998 25.5V11.4C9.6998 10.5716 10.3714 9.9 11.1998 9.9Z" fill="black"/>
<path d="M25.6998 3.5C21.3368 3.5 17.7998 7.03695 17.7998 11.4C17.7998 15.763 21.3368 19.3 25.6998 19.3C30.0629 19.3 33.5998 15.7631 33.5998 11.4C33.5998 7.03695 30.0629 3.5 25.6998 3.5ZM14.7998 11.4C14.7998 5.3801 19.6799 0.5 25.6998 0.5C31.7197 0.5 36.5998 5.3801 36.5998 11.4C36.5998 17.4199 31.7197 22.3 25.6998 22.3C19.6799 22.3 14.7998 17.4199 14.7998 11.4Z" fill="black"/>
<path d="M0.799805 11.4C0.799805 10.5716 1.47138 9.9 2.2998 9.9H16.3998C17.2282 9.9 17.8998 10.5716 17.8998 11.4C17.8998 12.2284 17.2282 12.9 16.3998 12.9H2.2998C1.47138 12.9 0.799805 12.2284 0.799805 11.4Z" fill="black"/>
<path d="M19.0391 4.63934C19.6249 4.05355 20.5747 4.05355 21.1605 4.63934L32.4605 15.9393C33.0463 16.5251 33.0463 17.4749 32.4605 18.0607C31.8747 18.6464 30.9249 18.6464 30.3391 18.0607L19.0391 6.76066C18.4534 6.17487 18.4534 5.22513 19.0391 4.63934Z" fill="black"/>
<path d="M32.4605 4.63934C33.0463 5.22513 33.0463 6.17487 32.4605 6.76066L21.1605 18.0607C20.5747 18.6464 19.6249 18.6464 19.0391 18.0607C18.4534 17.4749 18.4534 16.5251 19.0391 15.9393L30.3391 4.63934C30.9249 4.05355 31.8747 4.05355 32.4605 4.63934Z" fill="black"/>
</svg>
