<!--
 ~ Copyright (c) 2025, WSO2 LLC. (https://www.wso2.com) All Rights Reserved.
 ~
 ~ WSO2 LLC. licenses this file to you under the Apache License,
 ~ Version 2.0 (the "License"); you may not use this file except
 ~ in compliance with the License.
 ~ You may obtain a copy of the License at
 ~
 ~     http://www.apache.org/licenses/LICENSE-2.0
 ~
 ~ Unless required by applicable law or agreed to in writing,
 ~ software distributed under the License is distributed on an
 ~ "AS IS" BASIS, WITHOUT WARRANTIES OR CONDITIONS OF ANY
 ~ KIND, either express or implied. See the License for the
 ~ specific language governing permissions and limitations
 ~ under the License.
-->
<svg width="16" height="17" viewBox="0 0 16 17" fill="none" xmlns="http://www.w3.org/2000/svg">
<path d="M3.2999 14.7L4.4999 13.1V13.5L3.3999 11.9H4.0999L4.8999 13L4.5999 13.1L5.3999 11.9H6.0999L4.8999 13.5V13L6.1999 14.7H5.3999L4.5999 13.5H4.8999L4.0999 14.7H3.2999Z" fill="black"/>
<path d="M7.5999 14.8C7.33324 14.8 7.0999 14.7666 6.8999 14.7C6.6999 14.6333 6.53324 14.5666 6.3999 14.5L6.6999 14C6.76657 14.0666 6.8999 14.1333 7.0999 14.2C7.23324 14.2666 7.3999 14.3 7.5999 14.3C7.73324 14.3 7.83324 14.2666 7.8999 14.2C7.96657 14.2 8.03324 14.1666 8.0999 14.1C8.0999 14.0333 8.0999 14 8.0999 14C8.0999 13.8666 8.06657 13.8 7.9999 13.8C7.93324 13.7333 7.86657 13.7 7.7999 13.7C7.66657 13.6333 7.56657 13.6 7.4999 13.6C7.36657 13.6 7.23324 13.5666 7.0999 13.5C7.03324 13.4333 6.93324 13.4 6.7999 13.4C6.73324 13.3333 6.66657 13.2333 6.5999 13.1C6.53324 13.0333 6.4999 12.9333 6.4999 12.8C6.4999 12.6 6.53324 12.4333 6.5999 12.3C6.66657 12.1666 6.7999 12.0666 6.9999 12C7.1999 11.9333 7.43324 11.9 7.6999 11.9C7.83324 11.9 7.9999 11.9 8.1999 11.9C8.33324 11.9666 8.46657 12.0333 8.5999 12.1L8.3999 12.6C8.26657 12.5333 8.13324 12.5 7.9999 12.5C7.86657 12.4333 7.76657 12.4 7.6999 12.4C7.56657 12.4 7.46657 12.4 7.3999 12.4C7.26657 12.4666 7.1999 12.5333 7.1999 12.6C7.13324 12.6 7.0999 12.6333 7.0999 12.7C7.0999 12.7666 7.13324 12.8333 7.1999 12.9C7.26657 12.9666 7.36657 13 7.4999 13C7.56657 13 7.66657 13.0333 7.7999 13.1C7.86657 13.1 7.96657 13.1333 8.0999 13.2C8.23324 13.2 8.33324 13.2333 8.3999 13.3C8.53324 13.3666 8.63324 13.4333 8.6999 13.5C8.76657 13.6333 8.7999 13.7666 8.7999 13.9C8.7999 14.0333 8.73324 14.1666 8.5999 14.3C8.53324 14.4333 8.3999 14.5666 8.1999 14.7C8.06657 14.7666 7.86657 14.8 7.5999 14.8Z" fill="black"/>
<path d="M9.3999 14.7V11.9H10.0999V14.2H11.4999V14.7H9.3999Z" fill="black"/>
<path d="M12.2999 14.7V12.5H11.3999V11.9H13.8999V12.5H12.9999V14.7H12.2999Z" fill="black"/>
<path d="M2.7999 0.999976C2.7999 0.779062 2.97899 0.599976 3.1999 0.599976H11.1999C11.3087 0.599976 11.4128 0.644301 11.4882 0.722732L13.9882 3.32273C14.0599 3.39725 14.0999 3.4966 14.0999 3.59998V8.29998C14.0999 8.52089 13.9208 8.69998 13.6999 8.69998C13.479 8.69998 13.2999 8.52089 13.2999 8.29998V3.76109L11.0296 1.39998H3.5999V8.29998C3.5999 8.52089 3.42082 8.69998 3.1999 8.69998C2.97899 8.69998 2.7999 8.52089 2.7999 8.29998V0.999976Z" fill="black"/>
<path d="M0.899902 8.49998C0.899902 8.27906 1.07899 8.09998 1.2999 8.09998H15.5999C15.8208 8.09998 15.9999 8.27906 15.9999 8.49998V15.7C15.9999 15.9209 15.8208 16.1 15.5999 16.1H1.2999C1.07899 16.1 0.899902 15.9209 0.899902 15.7V8.49998ZM1.6999 8.89998V15.3H15.1999V8.89998H1.6999Z" fill="black"/>
<path d="M11.1999 1.19998C11.4208 1.19998 11.5999 1.37906 11.5999 1.59998V3.19998H13.2999C13.5208 3.19998 13.6999 3.37906 13.6999 3.59998C13.6999 3.82089 13.5208 3.99998 13.2999 3.99998H11.1999C10.979 3.99998 10.7999 3.82089 10.7999 3.59998V1.59998C10.7999 1.37906 10.979 1.19998 11.1999 1.19998Z" fill="black"/>
<path d="M4.4999 9.49998H6.1999V9.99998H4.9999V10.5H6.0999V10.9H4.9999V11.9H4.4999V9.49998Z" fill="black"/>
<path d="M7.1999 9.49998L6.1999 11.9H6.7999L6.9999 11.4H7.8999L8.0999 11.9H8.5999L7.6999 9.49998H7.1999ZM7.1999 11L7.4999 10.1L7.7999 11H7.1999Z" fill="black"/>
<path d="M9.3999 11.1C9.3999 11.1666 9.3999 11.2333 9.3999 11.3C9.3999 11.3666 9.43324 11.4333 9.4999 11.5C9.56657 11.5 9.63324 11.5 9.6999 11.5C9.76657 11.5666 9.83324 11.6 9.8999 11.6C9.96657 11.6 9.9999 11.6 9.9999 11.6C10.0666 11.5333 10.1332 11.5 10.1999 11.5C10.2666 11.5 10.2999 11.4666 10.2999 11.4C10.3666 11.4 10.3999 11.3666 10.3999 11.3C10.3999 11.2333 10.3666 11.1666 10.2999 11.1C10.2332 11.0333 10.1666 11 10.0999 11C10.0332 11 9.96657 10.9666 9.8999 10.9C9.83324 10.9 9.73324 10.9 9.5999 10.9C9.53324 10.8333 9.46657 10.8 9.3999 10.8C9.26657 10.7333 9.16657 10.7 9.0999 10.7C9.03324 10.6333 8.9999 10.5666 8.9999 10.5C8.93324 10.3666 8.8999 10.2666 8.8999 10.2C8.8999 10.0666 8.93324 9.96664 8.9999 9.89997C9.06657 9.76664 9.13324 9.66664 9.1999 9.59998C9.26657 9.53331 9.36657 9.49998 9.4999 9.49998C9.63324 9.43331 9.73324 9.39997 9.7999 9.39997C9.93324 9.39997 10.0666 9.43331 10.1999 9.49998C10.3332 9.49998 10.4332 9.53331 10.4999 9.59998C10.5666 9.66664 10.6332 9.76664 10.6999 9.89997C10.7666 9.96664 10.7999 10.0666 10.7999 10.2H10.2999C10.2999 10.1333 10.2666 10.0666 10.1999 9.99998C10.1999 9.99998 10.1666 9.96664 10.0999 9.89997C10.0999 9.89997 10.0666 9.89997 9.9999 9.89997C9.93324 9.89997 9.86657 9.89997 9.7999 9.89997C9.73324 9.89997 9.6999 9.89997 9.6999 9.89997C9.63324 9.89997 9.5999 9.89997 9.5999 9.89997C9.53324 9.96664 9.4999 9.99998 9.4999 9.99998C9.43324 10.0666 9.3999 10.1 9.3999 10.1C9.3999 10.1666 9.43324 10.2333 9.4999 10.3C9.4999 10.3 9.53324 10.3 9.5999 10.3C9.5999 10.3666 9.66657 10.4 9.7999 10.4C9.86657 10.4 9.9999 10.4333 10.1999 10.5C10.1999 10.5 10.2332 10.5 10.2999 10.5C10.2999 10.5 10.3332 10.5333 10.3999 10.6C10.4666 10.6 10.5332 10.6333 10.5999 10.7C10.6666 10.7 10.6999 10.7333 10.6999 10.8C10.7666 10.8666 10.7999 10.9333 10.7999 11C10.8666 11.0666 10.8999 11.1333 10.8999 11.2C10.8999 11.3333 10.8666 11.4333 10.7999 11.5C10.7332 11.6333 10.6666 11.7333 10.5999 11.8C10.5332 11.8666 10.4332 11.9 10.2999 11.9C10.1666 11.9666 10.0332 12 9.8999 12C9.76657 12 9.63324 11.9666 9.4999 11.9C9.36657 11.9 9.26657 11.8666 9.1999 11.8C9.06657 11.7333 8.96657 11.6333 8.8999 11.5C8.83324 11.3666 8.7999 11.2333 8.7999 11.1H9.3999Z" fill="black"/>
<path d="M11.7999 9.99998H11.0999V9.49998H13.0999V9.99998H12.3999V11.9H11.7999V9.99998Z" fill="black"/>
<path d="M9.98502 3.5237C10.1376 3.40503 10.3575 3.43251 10.4762 3.5851L11.8762 5.3851C11.9791 5.51746 11.9737 5.70425 11.8633 5.83045L10.4633 7.43045C10.336 7.57592 10.1149 7.59067 9.96943 7.46338C9.82395 7.33609 9.80921 7.11497 9.9365 6.9695L11.1463 5.58687L9.92363 4.01485C9.80496 3.86227 9.83244 3.64238 9.98502 3.5237Z" fill="black"/>
<path d="M7.10482 3.51624C7.26153 3.62941 7.29682 3.84819 7.18364 4.0049L6.04069 5.58745L7.17154 6.97927C7.29344 7.12929 7.27063 7.34972 7.12061 7.47161C6.97059 7.59351 6.75016 7.57071 6.62826 7.42068L5.32826 5.82068C5.22847 5.69786 5.22351 5.52335 5.31616 5.39505L6.61616 3.59505C6.72934 3.43835 6.94812 3.40306 7.10482 3.51624Z" fill="black"/>
<path d="M9.08479 3.36043C9.27232 3.40731 9.38633 3.59733 9.33945 3.78486L8.43945 7.38486C8.39257 7.57239 8.20254 7.68641 8.01502 7.63953C7.82749 7.59264 7.71347 7.40262 7.76035 7.21509L8.66035 3.61509C8.70723 3.42756 8.89726 3.31354 9.08479 3.36043Z" fill="black"/>
</svg>
