<svg width="44" height="59" viewBox="0 0 44 59" fill="none" xmlns="http://www.w3.org/2000/svg">
<path d="M0.899902 10.7C0.899902 9.87157 1.57148 9.2 2.3999 9.2H24.1999C25.0283 9.2 25.6999 9.87157 25.6999 10.7C25.6999 11.5284 25.0283 12.2 24.1999 12.2H2.3999C1.57148 12.2 0.899902 11.5284 0.899902 10.7Z" fill="black"/>
<path d="M15.4277 0.951059C16.007 0.358871 16.9567 0.348435 17.5488 0.927749L26.7488 9.92775C27.0437 10.2162 27.2068 10.6134 27.1997 11.0258C27.1926 11.4383 27.0159 11.8296 26.7113 12.1077L17.5113 20.5077C16.8995 21.0663 15.9508 21.0232 15.3922 20.4114C14.8336 19.7996 14.8767 18.8509 15.4885 18.2923L23.5165 10.9624L15.451 3.07225C14.8588 2.49294 14.8483 1.54325 15.4277 0.951059Z" fill="black"/>
<path d="M33.5999 4.2C32.0311 4.2 30.6585 4.69013 29.5266 5.57948C28.8752 6.0913 27.9322 5.97814 27.4204 5.32673C26.9086 4.67533 27.0218 3.73234 27.6732 3.22052C29.3413 1.90987 31.3687 1.2 33.5999 1.2C38.8283 1.2 43.0999 5.47157 43.0999 10.7C43.0999 15.9284 38.8283 20.2 33.5999 20.2C31.8477 20.2 30.0484 19.7351 28.5679 18.7481C27.8786 18.2885 27.6923 17.3572 28.1518 16.6679C28.6114 15.9787 29.5427 15.7924 30.232 16.2519C31.1514 16.8649 32.3521 17.2 33.5999 17.2C37.1715 17.2 40.0999 14.2716 40.0999 10.7C40.0999 7.12843 37.1715 4.2 33.5999 4.2Z" fill="black"/>
<path d="M9.7999 45.9C7.09371 45.9 4.8999 48.0938 4.8999 50.8C4.8999 53.5062 7.09371 55.7 9.7999 55.7C12.5061 55.7 14.6999 53.5062 14.6999 50.8C14.6999 48.0938 12.5061 45.9 9.7999 45.9ZM1.8999 50.8C1.8999 46.437 5.43685 42.9 9.7999 42.9C14.163 42.9 17.6999 46.437 17.6999 50.8C17.6999 55.1631 14.163 58.7 9.7999 58.7C5.43685 58.7 1.8999 55.1631 1.8999 50.8Z" fill="black"/>
<path d="M8.50554 19.6701C8.57731 18.8447 9.30453 18.2339 10.1298 18.3056C29.3517 19.9771 43.562 36.799 41.9949 56.0219C41.9276 56.8476 41.2037 57.4624 40.378 57.395C39.5523 57.3277 38.9375 56.6038 39.0049 55.7781C40.4378 38.201 27.4481 22.8229 9.86996 21.2944C9.04465 21.2226 8.43378 20.4954 8.50554 19.6701Z" fill="black"/>
<path d="M7.50508 31.1754C7.57388 30.3499 8.29891 29.7364 9.12447 29.8052C21.9517 30.8741 31.5628 42.2004 30.4948 55.1236C30.4266 55.9492 29.702 56.5631 28.8764 56.4949C28.0507 56.4267 27.4368 55.7021 27.505 54.8765C28.437 43.5996 20.0481 33.7259 8.87533 32.7948C8.04977 32.726 7.43629 32.001 7.50508 31.1754Z" fill="black"/>
</svg>
