<!--
 ~ Copyright (c) 2025, WSO2 LLC. (https://www.wso2.com) All Rights Reserved.
 ~
 ~ WSO2 LLC. licenses this file to you under the Apache License,
 ~ Version 2.0 (the "License"); you may not use this file except
 ~ in compliance with the License.
 ~ You may obtain a copy of the License at
 ~
 ~     http://www.apache.org/licenses/LICENSE-2.0
 ~
 ~ Unless required by applicable law or agreed to in writing,
 ~ software distributed under the License is distributed on an
 ~ "AS IS" BASIS, WITHOUT WARRANTIES OR CONDITIONS OF ANY
 ~ KIND, either express or implied. See the License for the
 ~ specific language governing permissions and limitations
 ~ under the License.
-->
<svg xmlns="http://www.w3.org/2000/svg" enable-background="new 0 0 24 24" height="24"
    viewBox="0 0 24 24" width="24">
    <g>
        <rect fill="none" height="24" width="24" />
    </g>
    <g>
        <path
            d="M7.4,10h1.59v5c0,0.55,0.45,1,1,1h4c0.55,0,1-0.45,1-1v-5h1.59c0.89,0,1.34-1.08,0.71-1.71L12.7,3.7 c-0.39-0.39-1.02-0.39-1.41,0L6.7,8.29C6.07,8.92,6.51,10,7.4,10z M5,19c0,0.55,0.45,1,1,1h12c0.55,0,1-0.45,1-1s-0.45-1-1-1H6 C5.45,18,5,18.45,5,19z" />
    </g>
</svg>