<svg width="56" height="58" viewBox="0 0 56 58" fill="none" xmlns="http://www.w3.org/2000/svg">
<path fill-rule="evenodd" clip-rule="evenodd" d="M9.0998 10.4C9.0998 9.57162 9.77138 8.90005 10.5998 8.90005H30.8998C31.7282 8.90005 32.3998 9.57162 32.3998 10.4C32.3998 11.2285 31.7282 11.9 30.8998 11.9H10.5998C9.77138 11.9 9.0998 11.2285 9.0998 10.4Z" fill="black"/>
<path fill-rule="evenodd" clip-rule="evenodd" d="M22.6267 1.25194C23.2056 0.659303 24.1553 0.64813 24.7479 1.22699L33.3479 9.62698C33.6438 9.91597 33.8072 10.3143 33.7995 10.7278C33.7919 11.1413 33.6139 11.5333 33.3075 11.8111L24.7075 19.6111C24.0939 20.1677 23.1453 20.1214 22.5887 19.5078C22.0322 18.8941 22.0784 17.9455 22.6921 17.389L30.1117 10.6596L22.6517 3.37311C22.0591 2.79426 22.0479 1.84458 22.6267 1.25194Z" fill="black"/>
<path fill-rule="evenodd" clip-rule="evenodd" d="M39.5998 4.50005C38.1476 4.50005 36.8659 4.9801 35.8144 5.78899C35.1577 6.29409 34.216 6.17125 33.7109 5.51462C33.2058 4.85798 33.3286 3.91621 33.9852 3.41111C35.5337 2.21999 37.452 1.50005 39.5998 1.50005C44.5152 1.50005 48.5998 5.45862 48.5998 10.5C48.5998 15.5285 44.6282 19.5 39.5998 19.5C37.9305 19.5 36.2483 19.027 34.8945 18.1655C34.1956 17.7208 33.9896 16.7936 34.4343 16.0947C34.8791 15.3958 35.8062 15.1898 36.5051 15.6346C37.3513 16.1731 38.4691 16.5 39.5998 16.5C42.9714 16.5 45.5998 13.8716 45.5998 10.5C45.5998 7.14148 42.8844 4.50005 39.5998 4.50005Z" fill="black"/>
<path fill-rule="evenodd" clip-rule="evenodd" d="M0.799805 26.9C0.799805 26.0716 1.47138 25.4 2.2998 25.4H19.7998C20.1976 25.4 20.5792 25.5581 20.8605 25.8394L26.9211 31.9H46.6998C47.5282 31.9 48.1998 32.5716 48.1998 33.4001V55.7001C48.1998 56.5285 47.5282 57.2001 46.6998 57.2001H2.2998C1.47138 57.2001 0.799805 56.5285 0.799805 55.7001V26.9ZM3.7998 28.4V54.2001H45.1998V34.9001H26.2998C25.902 34.9001 25.5204 34.742 25.2391 34.4607L19.1785 28.4H3.7998Z" fill="black"/>
<path fill-rule="evenodd" clip-rule="evenodd" d="M29.6998 25.9C29.6998 25.0716 30.3714 24.4 31.1998 24.4H53.6998C54.5282 24.4 55.1998 25.0716 55.1998 25.9V55.7001C55.1998 56.5285 54.5282 57.2001 53.6998 57.2001H46.6998C45.8714 57.2001 45.1998 56.5285 45.1998 55.7001C45.1998 54.8716 45.8714 54.2001 46.6998 54.2001H52.1998V27.4H31.1998C30.3714 27.4 29.6998 26.7285 29.6998 25.9Z" fill="black"/>
</svg>
