
<!--
 ~ Copyright (c) 2025, WSO2 LLC. (https://www.wso2.com) All Rights Reserved.
 ~
 ~ WSO2 LLC. licenses this file to you under the Apache License,
 ~ Version 2.0 (the "License"); you may not use this file except
 ~ in compliance with the License.
 ~ You may obtain a copy of the License at
 ~
 ~     http://www.apache.org/licenses/LICENSE-2.0
 ~
 ~ Unless required by applicable law or agreed to in writing,
 ~ software distributed under the License is distributed on an
 ~ "AS IS" BASIS, WITHOUT WARRANTIES OR CONDITIONS OF ANY
 ~ KIND, either express or implied. See the License for the
 ~ specific language governing permissions and limitations
 ~ under the License.
-->
<svg width="20" height="20" viewBox="0 0 20 20" xmlns="http://www.w3.org/2000/svg">
    <path transform="rotate(180 12 12)" d="m14.85,4.85l1.44,1.44l-2.88,2.88l1.42,1.42l2.88,-2.88l1.44,1.44a0.5,0.5 0 0 0 0.85,-0.36l0,-4.29c0,-0.28 -0.22,-0.5 -0.5,-0.5l-4.29,0a0.5,0.5 0 0 0 -0.36,0.85m-6.06,-0.85l-4.29,0c-0.28,0 -0.5,0.22 -0.5,0.5l0,4.29c0,0.45 0.54,0.67 0.85,0.35l1.44,-1.44l4.71,4.7l0,6.6c0,0.55 0.45,1 1,1s1,-0.45 1,-1l0,-7c0,-0.26 -0.11,-0.52 -0.29,-0.71l-5,-5.01l1.44,-1.44c0.31,-0.3 0.09,-0.84 -0.36,-0.84" fill="black"/>
</svg>
