<!--
 ~ Copyright (c) 2025, WSO2 LLC. (https://www.wso2.com) All Rights Reserved.
 ~
 ~ WSO2 LLC. licenses this file to you under the Apache License,
 ~ Version 2.0 (the "License"); you may not use this file except
 ~ in compliance with the License.
 ~ You may obtain a copy of the License at
 ~
 ~     http://www.apache.org/licenses/LICENSE-2.0
 ~
 ~ Unless required by applicable law or agreed to in writing,
 ~ software distributed under the License is distributed on an
 ~ "AS IS" BASIS, WITHOUT WARRANTIES OR CONDITIONS OF ANY
 ~ KIND, either express or implied. See the License for the
 ~ specific language governing permissions and limitations
 ~ under the License.
-->
<svg width="14" height="15" viewBox="0 0 14 15" fill="none" xmlns="http://www.w3.org/2000/svg">
<path d="M4.25779 3.55779C4.34768 3.46791 4.49085 3.39995 4.69995 3.39995H9.19995C9.40905 3.39995 9.55222 3.46791 9.64211 3.55779C9.732 3.64768 9.79995 3.79085 9.79995 3.99995V4.09995C9.79995 4.53088 9.53054 4.79995 9.19995 4.79995H4.69995C4.36937 4.79995 4.09995 4.53088 4.09995 4.09995V3.99995C4.09995 3.79085 4.16791 3.64768 4.25779 3.55779ZM3.69211 2.99211C3.432 3.25222 3.29995 3.60905 3.29995 3.99995V4.09995C3.29995 4.86902 3.83054 5.59995 4.69995 5.59995H9.19995C10.0694 5.59995 10.6 4.86902 10.6 4.09995V3.99995C10.6 3.60905 10.4679 3.25222 10.2078 2.99211C9.94768 2.732 9.59085 2.59995 9.19995 2.59995H4.69995C4.30905 2.59995 3.95222 2.732 3.69211 2.99211Z" fill="black"/>
<path d="M4.69995 7.69995C4.34641 7.69995 4.09995 7.99442 4.09995 8.29995V8.49995C4.09995 8.80548 4.34641 9.09995 4.69995 9.09995H9.19995C9.55349 9.09995 9.79995 8.80548 9.79995 8.49995V8.29995C9.79995 7.99442 9.55349 7.69995 9.19995 7.69995H4.69995ZM3.29995 8.29995C3.29995 7.60548 3.85349 6.89995 4.69995 6.89995H9.19995C10.0464 6.89995 10.6 7.60548 10.6 8.29995V8.49995C10.6 9.19442 10.0464 9.89995 9.19995 9.89995H4.69995C3.85349 9.89995 3.29995 9.19442 3.29995 8.49995V8.29995Z" fill="black"/>
<path d="M4.69995 12H9.19995C9.53054 12 9.79995 12.269 9.79995 12.7V12.8C9.79995 13.1055 9.55349 13.4 9.19995 13.4H4.69995C4.34641 13.4 4.09995 13.1055 4.09995 12.8V12.7C4.09995 12.269 4.36937 12 4.69995 12ZM3.29995 12.7V12.8C3.29995 13.4944 3.85349 14.2 4.69995 14.2H9.19995C10.0464 14.2 10.6 13.4944 10.6 12.8V12.7C10.6 11.9309 10.0694 11.2 9.19995 11.2H4.69995C3.83054 11.2 3.29995 11.9309 3.29995 12.7Z" fill="black"/>
<path d="M0.699951 6.19995C0.699951 7.59616 1.75511 8.79995 3.19995 8.79995H3.69995C3.92087 8.79995 4.09995 8.62086 4.09995 8.39995C4.09995 8.17904 3.92087 7.99995 3.69995 7.99995H3.19995C2.24479 7.99995 1.49995 7.20375 1.49995 6.19995C1.49995 5.22087 2.22087 4.49995 3.19995 4.49995H3.69995C3.92087 4.49995 4.09995 4.32086 4.09995 4.09995C4.09995 3.87904 3.92087 3.69995 3.69995 3.69995H3.19995C1.77904 3.69995 0.699951 4.77904 0.699951 6.19995Z" fill="black"/>
<path d="M3.19995 8.79995H3.69995C3.92087 8.79995 4.09995 8.62086 4.09995 8.39995C4.09995 8.17904 3.92087 7.99995 3.69995 7.99995H3.19995C1.75511 7.99995 0.699951 9.20375 0.699951 10.6C0.699951 11.9084 1.76678 13.1 3.19995 13.1H3.69995C3.92087 13.1 4.09995 12.9209 4.09995 12.7C4.09995 12.479 3.92087 12.3 3.69995 12.3H3.19995C2.23313 12.3 1.49995 11.4915 1.49995 10.6C1.49995 9.59616 2.24479 8.79995 3.19995 8.79995Z" fill="black"/>
<path d="M9.79995 4.09995C9.79995 4.32086 9.97904 4.49995 10.2 4.49995H12.9C13.1209 4.49995 13.3 4.32086 13.3 4.09995C13.3 3.87904 13.1209 3.69995 12.9 3.69995H10.2C9.97904 3.69995 9.79995 3.87904 9.79995 4.09995Z" fill="black"/>
<path d="M9.79995 8.39995C9.79995 8.17904 9.97904 7.99995 10.2 7.99995H12.9C13.1209 7.99995 13.3 8.17904 13.3 8.39995C13.3 8.62086 13.1209 8.79995 12.9 8.79995H10.2C9.97904 8.79995 9.79995 8.62086 9.79995 8.39995Z" fill="black"/>
<path d="M9.79995 12.7C9.79995 12.9209 9.97904 13.1 10.2 13.1H12.9C13.1209 13.1 13.3 12.9209 13.3 12.7C13.3 12.479 13.1209 12.3 12.9 12.3H10.2C9.97904 12.3 9.79995 12.479 9.79995 12.7Z" fill="black"/>
<path d="M6.99995 0.199951C6.77904 0.199951 6.59995 0.379037 6.59995 0.599951V2.99995C6.59995 3.22087 6.77904 3.39995 6.99995 3.39995C7.22086 3.39995 7.39995 3.22087 7.39995 2.99995V0.599951C7.39995 0.379037 7.22086 0.199951 6.99995 0.199951Z" fill="black"/>
</svg>
