<!--
 ~ Copyright (c) 2025, WSO2 LLC. (https://www.wso2.com) All Rights Reserved.
 ~
 ~ WSO2 LLC. licenses this file to you under the Apache License,
 ~ Version 2.0 (the "License"); you may not use this file except
 ~ in compliance with the License.
 ~ You may obtain a copy of the License at
 ~
 ~     http://www.apache.org/licenses/LICENSE-2.0
 ~
 ~ Unless required by applicable law or agreed to in writing,
 ~ software distributed under the License is distributed on an
 ~ "AS IS" BASIS, WITHOUT WARRANTIES OR CONDITIONS OF ANY
 ~ KIND, either express or implied. See the License for the
 ~ specific language governing permissions and limitations
 ~ under the License.
-->
<svg width="13" height="16" viewBox="0 0 13 16" fill="none" xmlns="http://www.w3.org/2000/svg">
<path d="M1.7 1.60005C1.55046 1.60005 1.3 1.79021 1.3 2.10005V14.7C1.3 15.0099 1.55046 15.2 1.7 15.2H11.2C11.4791 15.2 11.7 14.9791 11.7 14.7V2.10005C11.7 1.82096 11.4791 1.60005 11.2 1.60005H1.7ZM0.5 2.10005C0.5 1.40988 1.04954 0.800049 1.7 0.800049H11.2C11.9209 0.800049 12.5 1.37913 12.5 2.10005V14.7C12.5 15.421 11.9209 16 11.2 16H1.7C1.04954 16 0.5 15.3902 0.5 14.7V2.10005Z" fill="black"/>
<path d="M1.8 4.10005C1.8 3.87913 1.97909 3.70005 2.2 3.70005H10.8C11.0209 3.70005 11.2 3.87913 11.2 4.10005V6.00005C11.2 6.22096 11.0209 6.40005 10.8 6.40005H2.2C1.97909 6.40005 1.8 6.22096 1.8 6.00005V4.10005ZM2.6 4.50005V5.60005H10.4V4.50005H2.6Z" fill="black"/>
</svg>
