<svg width="52" height="51" viewBox="0 0 52 51" fill="none" xmlns="http://www.w3.org/2000/svg">
<path fill-rule="evenodd" clip-rule="evenodd" d="M2.2 12.2001C2.2 11.3716 2.87157 10.7001 3.7 10.7001H28.5C29.3284 10.7001 30 11.3716 30 12.2001C30 13.0285 29.3284 13.7001 28.5 13.7001H3.7C2.87157 13.7001 2.2 13.0285 2.2 12.2001Z" fill="black"/>
<path fill-rule="evenodd" clip-rule="evenodd" d="M18.7291 1.24974C19.3092 0.65829 20.2589 0.64907 20.8503 1.22914L31.2503 11.4291C31.5445 11.7177 31.7071 12.1146 31.6998 12.5267C31.6925 12.9387 31.5159 13.3296 31.2117 13.6075L20.8117 23.1075C20.2 23.6663 19.2512 23.6234 18.6925 23.0117C18.1338 22.4001 18.1767 21.4513 18.7883 20.8926L28.0183 12.4613L18.7497 3.37096C18.1582 2.79088 18.149 1.84118 18.7291 1.24974Z" fill="black"/>
<path fill-rule="evenodd" clip-rule="evenodd" d="M39.2 4.50005C37.3644 4.50005 35.6902 5.16879 34.437 6.17135C33.7901 6.68887 32.8462 6.58398 32.3287 5.93709C31.8112 5.2902 31.9161 4.34626 32.563 3.82875C34.3098 2.43131 36.6356 1.50005 39.2 1.50005C45.0284 1.50005 49.8 6.27162 49.8 12.1C49.8 17.9285 45.0284 22.7001 39.2 22.7001C37.1063 22.7001 35.2257 22.114 33.5889 21.0618C32.892 20.6138 32.6903 19.6858 33.1382 18.9889C33.5862 18.2921 34.5143 18.0903 35.2111 18.5383C36.3743 19.286 37.6937 19.7001 39.2 19.7001C43.3716 19.7001 46.8 16.2716 46.8 12.1C46.8 7.92848 43.3716 4.50005 39.2 4.50005Z" fill="black"/>
<path d="M0 31.3H4.2V38.7001H12V31.3H16.2V50.6H12V42.3H4.2V50.6H0V31.3Z" fill="black"/>
<path d="M21.9 31.3H26.1V47H35.5V50.6H21.9V31.3Z" fill="black"/>
<path d="M52 35C51 35.9 50.1 36.9001 49.4 38.2001C48.6 39.5001 48 40.8001 47.5 42.2001C47 43.6001 46.6 45.1 46.3 46.5C46 47.9 45.9 49.3 45.9 50.6H41.8C42 47.8 42.7 45.1001 43.8 42.4001C44.9 39.8001 46.4 37.4001 48.2 35.2001H39.2V31.6H52V35Z" fill="black"/>
</svg>
