<svg width="56" height="62" viewBox="0 0 56 62" fill="none" xmlns="http://www.w3.org/2000/svg">
<path d="M0.799805 32.7H3.8998V38H9.4998V32.7H12.5998V46.6H9.4998V40.6H3.8998V46.6H0.799805V32.7Z" fill="black"/>
<path d="M19.6998 35.2H15.4998V32.6H26.9998V35.2H22.7998V46.6H19.6998V35.2Z" fill="black"/>
<path d="M33.8998 35.2H29.6998V32.6H41.0998V35.2H36.8998V46.6H33.7998V35.2H33.8998Z" fill="black"/>
<path d="M44.0998 32.7H50.3998C51.2998 32.7 51.9998 32.8 52.5998 33.1C53.1998 33.4 53.6998 33.7 54.0998 34.1C54.4998 34.5 54.7998 35 54.8998 35.5C54.9998 36 55.1998 36.6 55.1998 37.1C55.1998 37.7 55.0998 38.2 54.8998 38.8C54.6998 39.3 54.3998 39.8 54.0998 40.2C53.6998 40.6 53.1998 41 52.5998 41.2C51.9998 41.5 51.1998 41.6 50.3998 41.6H47.1998V46.6H44.0998V32.7ZM47.1998 39.2H49.5998C49.9998 39.2 50.2998 39.2 50.5998 39.1C50.8998 39 51.1998 38.9 51.4998 38.8C51.7998 38.7 51.8998 38.4 52.0998 38.2C52.1998 37.9 52.2998 37.6 52.2998 37.1C52.2998 36.6 52.1998 36.3 52.0998 36C51.9998 35.7 51.7998 35.5 51.4998 35.4C51.2998 35.3 50.9998 35.2 50.5998 35.1C50.2998 35 49.8998 35 49.5998 35H47.1998V39.2Z" fill="black"/>
<path d="M27.8998 3.90002C23.6472 3.90002 20.1998 7.34743 20.1998 11.6C20.1998 15.8526 23.6472 19.3 27.8998 19.3C32.1524 19.3 35.5998 15.8526 35.5998 11.6C35.5998 7.34743 32.1524 3.90002 27.8998 3.90002ZM17.1998 11.6C17.1998 5.69058 21.9904 0.900024 27.8998 0.900024C33.8093 0.900024 38.5998 5.69058 38.5998 11.6C38.5998 17.5095 33.8092 22.3 27.8998 22.3C21.9904 22.3 17.1998 17.5095 17.1998 11.6Z" fill="black"/>
<path d="M7.1998 11.6C7.1998 10.7716 7.87138 10.1 8.6998 10.1H27.8998C28.7282 10.1 29.3998 10.7716 29.3998 11.6C29.3998 12.4285 28.7282 13.1 27.8998 13.1H8.6998C7.87138 13.1 7.1998 12.4285 7.1998 11.6Z" fill="black"/>
<path d="M9.2998 20.8C9.2998 19.9716 9.97138 19.3 10.7998 19.3H27.8998C28.7282 19.3 29.3998 19.9716 29.3998 20.8C29.3998 21.6285 28.7282 22.3 27.8998 22.3H12.2998V27C12.2998 27.8285 11.6282 28.5 10.7998 28.5C9.97138 28.5 9.2998 27.8285 9.2998 27V20.8Z" fill="black"/>
<path d="M10.7998 50.2C11.6282 50.2 12.2998 50.8716 12.2998 51.7V58.1H42.8998V51.7C42.8998 50.8716 43.5714 50.2 44.3998 50.2C45.2282 50.2 45.8998 50.8716 45.8998 51.7V59.6C45.8998 60.4284 45.2282 61.1 44.3998 61.1H10.7998C9.97138 61.1 9.2998 60.4284 9.2998 59.6V51.7C9.2998 50.8716 9.97138 50.2 10.7998 50.2Z" fill="black"/>
<path d="M26.3998 20.8C26.3998 19.9716 27.0714 19.3 27.8998 19.3H44.3998C45.2282 19.3 45.8998 19.9716 45.8998 20.8V27C45.8998 27.8285 45.2282 28.5 44.3998 28.5C43.5714 28.5 42.8998 27.8285 42.8998 27V22.3H27.8998C27.0714 22.3 26.3998 21.6285 26.3998 20.8Z" fill="black"/>
</svg>
