<svg width="60" height="54" viewBox="0 0 60 54" fill="none" xmlns="http://www.w3.org/2000/svg">
<path d="M38.2999 3.59998C30.7888 3.59998 24.6999 9.6889 24.6999 17.2C24.6999 24.711 30.7888 30.8 38.2999 30.8C45.811 30.8 51.8999 24.711 51.8999 17.2C51.8999 9.6889 45.811 3.59998 38.2999 3.59998ZM21.6999 17.2C21.6999 8.03205 29.132 0.599976 38.2999 0.599976C47.4678 0.599976 54.8999 8.03205 54.8999 17.2C54.8999 26.3679 47.4678 33.8 38.2999 33.8C29.132 33.8 21.6999 26.3679 21.6999 17.2Z" fill="black"/>
<path d="M5.0999 17.2C5.0999 16.3715 5.77148 15.7 6.5999 15.7H38.2999C39.1283 15.7 39.7999 16.3715 39.7999 17.2C39.7999 18.0284 39.1283 18.7 38.2999 18.7H6.5999C5.77148 18.7 5.0999 18.0284 5.0999 17.2Z" fill="black"/>
<path d="M0.899902 38.6H4.1999V44.3H10.1999V38.6H13.4999V53.5H10.1999V47H4.1999V53.4H0.899902V38.6Z" fill="black"/>
<path d="M21.1999 41.3H16.6999V38.5H28.8999V41.3H24.3999V53.5H21.0999V41.3H21.1999Z" fill="black"/>
<path d="M36.2999 41.3H31.7999V38.5H43.9999V41.3H39.4999V53.5H36.1999V41.3H36.2999Z" fill="black"/>
<path d="M47.1999 38.6H53.8999C54.7999 38.6 55.5999 38.7 56.2999 39C56.9999 39.3 57.4999 39.6 57.8999 40.1C58.2999 40.5 58.5999 41.1 58.7999 41.6C58.9999 42.2 59.0999 42.8 59.0999 43.4C59.0999 44 58.9999 44.6 58.7999 45.2C58.5999 45.8 58.2999 46.3 57.8999 46.7C57.4999 47.1 56.9999 47.5 56.2999 47.8C55.5999 48.1 54.8999 48.2 53.8999 48.2H50.4999V53.5H47.1999V38.6ZM50.4999 45.6H52.9999C53.3999 45.6 53.6999 45.6 54.0999 45.5C54.3999 45.4 54.7999 45.3 54.9999 45.2C55.1999 45.1 55.4999 44.8 55.5999 44.5C55.6999 44.2 55.7999 43.8 55.7999 43.4C55.7999 42.9 55.6999 42.5 55.5999 42.3C55.3999 42 55.1999 41.8 54.9999 41.6C54.7999 41.4 54.3999 41.3 54.0999 41.3C53.7999 41.2 53.3999 41.2 52.9999 41.2H50.4999V45.6Z" fill="black"/>
</svg>
