<?xml version="1.0" encoding="iso-8859-1"?>
<!-- Uploaded to: SVG Repo, www.svgrepo.com, Generator: SVG Repo Mixer Tools -->
<svg fill="#000000" height="800px" width="800px" version="1.1" id="Layer_1" xmlns="http://www.w3.org/2000/svg" xmlns:xlink="http://www.w3.org/1999/xlink" 
	 viewBox="0 0 512 512" xml:space="preserve">
<g transform="translate(1 1)">
	<g>
		<g>
			<path d="M75.8,408.6c28.16,0,51.2-23.04,51.2-51.2s-23.04-51.2-51.2-51.2c-28.16,0-51.2,23.04-51.2,51.2S47.64,408.6,75.8,408.6z
				 M75.8,323.267c18.773,0,34.133,15.36,34.133,34.133c0,18.773-15.36,34.133-34.133,34.133c-18.773,0-34.133-15.36-34.133-34.133
				C41.667,338.627,57.027,323.267,75.8,323.267z"/>
			<path d="M75.8,425.667c-40.96,0-76.8,28.16-76.8,51.2v25.6c0,5.12,3.413,8.533,8.533,8.533h136.533
				c5.12,0,8.533-3.413,8.533-8.533v-25.6C152.6,453.827,116.76,425.667,75.8,425.667z M135.533,493.933H16.067v-17.067
				c0-11.093,25.6-34.133,59.733-34.133c34.133,0,59.733,23.04,59.733,34.133V493.933z"/>
			<path d="M203.8,357.4c0,28.16,23.04,51.2,51.2,51.2c28.16,0,51.2-23.04,51.2-51.2s-23.04-51.2-51.2-51.2
				C226.84,306.2,203.8,329.24,203.8,357.4z M289.133,357.4c0,18.773-15.36,34.133-34.133,34.133
				c-18.773,0-34.133-15.36-34.133-34.133c0-18.773,15.36-34.133,34.133-34.133C273.773,323.267,289.133,338.627,289.133,357.4z"/>
			<path d="M255,425.667c-40.96,0-76.8,28.16-76.8,51.2v25.6c0,5.12,3.413,8.533,8.533,8.533h136.533
				c5.12,0,8.533-3.413,8.533-8.533v-25.6C331.8,453.827,295.96,425.667,255,425.667z M314.733,493.933H195.267v-17.067
				c0-11.093,25.6-34.133,59.733-34.133c34.133,0,59.733,23.04,59.733,34.133V493.933z"/>
			<path d="M383,357.4c0,28.16,23.04,51.2,51.2,51.2c28.16,0,51.2-23.04,51.2-51.2s-23.04-51.2-51.2-51.2
				C406.04,306.2,383,329.24,383,357.4z M468.333,357.4c0,18.773-15.36,34.133-34.133,34.133c-18.773,0-34.133-15.36-34.133-34.133
				c0-18.773,15.36-34.133,34.133-34.133C452.973,323.267,468.333,338.627,468.333,357.4z"/>
			<path d="M434.2,425.667c-40.96,0-76.8,28.16-76.8,51.2v25.6c0,5.12,3.413,8.533,8.533,8.533h136.533
				c5.12,0,8.533-3.413,8.533-8.533v-25.6C511,453.827,475.16,425.667,434.2,425.667z M493.933,493.933H374.467v-17.067
				c0-11.093,25.6-34.133,59.733-34.133c34.133,0,59.733,23.04,59.733,34.133V493.933z"/>
			<path d="M75.8,272.067c5.12,0,8.533-3.413,8.533-8.533v-25.6c0-28.16,23.04-51.2,51.2-51.2h110.933v76.8
				c0,5.12,3.413,8.533,8.533,8.533s8.533-3.413,8.533-8.533v-76.8h110.933c28.16,0,51.2,23.04,51.2,51.2v25.6
				c0,5.12,3.413,8.533,8.533,8.533s8.533-3.413,8.533-8.533v-25.6c0-37.547-30.72-68.267-68.267-68.267H263.533v-34.133h128
				c14.507,0,25.6-11.093,25.6-25.6V24.6c0-14.507-11.093-25.6-25.6-25.6H118.467c-14.507,0-25.6,11.093-25.6,25.6v85.333
				c0,14.507,11.093,25.6,25.6,25.6h128v34.133H135.533c-37.547,0-68.267,30.72-68.267,68.267v25.6
				C67.267,268.653,70.68,272.067,75.8,272.067z M109.933,109.933V24.6c0-5.12,3.413-8.533,8.533-8.533h273.067
				c5.12,0,8.533,3.413,8.533,8.533v85.333c0,5.12-3.413,8.533-8.533,8.533H118.467
				C113.347,118.467,109.933,115.053,109.933,109.933z"/>
			<path d="M169.667,33.133c-5.12,0-8.533,3.413-8.533,8.533v17.067h-17.067V41.667c0-5.12-3.413-8.533-8.533-8.533
				S127,36.547,127,41.667v51.2c0,5.12,3.413,8.533,8.533,8.533s8.533-3.413,8.533-8.533V75.8h17.067v17.067
				c0,5.12,3.413,8.533,8.533,8.533s8.533-3.413,8.533-8.533v-51.2C178.2,36.547,174.787,33.133,169.667,33.133z"/>
			<path d="M237.933,33.133H203.8c-5.12,0-8.533,3.413-8.533,8.533S198.68,50.2,203.8,50.2h8.533v42.667
				c0,5.12,3.413,8.533,8.533,8.533s8.533-3.413,8.533-8.533V50.2h8.533c5.12,0,8.533-3.413,8.533-8.533
				S243.053,33.133,237.933,33.133z"/>
			<path d="M272.067,50.2h8.533v42.667c0,5.12,3.413,8.533,8.533,8.533s8.533-3.413,8.533-8.533V50.2h8.533
				c5.12,0,8.533-3.413,8.533-8.533s-3.413-8.533-8.533-8.533h-34.133c-5.12,0-8.533,3.413-8.533,8.533S266.947,50.2,272.067,50.2z"
				/>
			<path d="M340.333,101.4c5.12,0,8.533-3.413,8.533-8.533v-8.533h8.533c14.507,0,25.6-11.093,25.6-25.6s-11.093-25.6-25.6-25.6
				h-17.067c-5.12,0-8.533,3.413-8.533,8.533v51.2C331.8,97.987,335.213,101.4,340.333,101.4z M348.867,50.2h8.533
				c5.12,0,8.533,3.413,8.533,8.533s-3.413,8.533-8.533,8.533h-8.533V50.2z"/>
		</g>
	</g>
</g>
</svg>