<svg width="60" height="43" viewBox="0 0 60 43" fill="none" xmlns="http://www.w3.org/2000/svg">
<path d="M7.6002 11.0999C7.6002 10.2715 8.27177 9.5999 9.1002 9.5999H32.3002C33.1286 9.5999 33.8002 10.2715 33.8002 11.0999C33.8002 11.9283 33.1286 12.5999 32.3002 12.5999H9.1002C8.27177 12.5999 7.6002 11.9283 7.6002 11.0999Z" fill="black"/>
<path d="M23.1341 0.844752C23.7168 0.255938 24.6665 0.251017 25.2553 0.833761L34.9553 10.4338C35.247 10.7224 35.4077 11.118 35.3999 11.5283C35.3922 11.9385 35.2167 12.3277 34.9143 12.6052L25.2143 21.5052C24.6039 22.0652 23.655 22.0244 23.0949 21.414C22.5349 20.8036 22.5757 19.8547 23.1861 19.2946L31.7263 11.4588L23.145 2.96604C22.5562 2.3833 22.5513 1.43357 23.1341 0.844752Z" fill="black"/>
<path d="M42.3002 3.9999C40.6692 3.9999 39.1943 4.56554 37.9372 5.57121C37.2903 6.08872 36.3464 5.98384 35.8289 5.33695C35.3114 4.69005 35.4163 3.74611 36.0632 3.2286C37.8061 1.83426 39.9312 0.999903 42.3002 0.999903C47.8286 0.999903 52.3002 5.47148 52.3002 10.9999C52.3002 16.5283 47.8286 20.9999 42.3002 20.9999C40.4 20.9999 38.5304 20.4105 37.014 19.4774C36.3085 19.0432 36.0885 18.1193 36.5227 17.4138C36.9569 16.7082 37.8808 16.4882 38.5863 16.9224C39.67 17.5893 41.0004 17.9999 42.3002 17.9999C46.1718 17.9999 49.3002 14.8715 49.3002 10.9999C49.3002 7.12833 46.1718 3.9999 42.3002 3.9999Z" fill="black"/>
<path d="M0.200195 30.4999H2.9002V35.1999H7.8002V30.4999H10.5002V42.5999H7.7002V37.3999H2.8002V42.5999H0.200195V30.4999Z" fill="black"/>
<path d="M16.7002 32.6999H13.0002V30.4999H23.0002V32.6999H19.4002V42.5999H16.7002V32.6999Z" fill="black"/>
<path d="M28.9002 32.6999H25.3002V30.4999H35.2002V32.6999H31.6002V42.5999H28.9002V32.6999Z" fill="black"/>
<path d="M37.8002 30.4999H43.3002C44.1002 30.4999 44.7002 30.5999 45.2002 30.7999C45.7002 30.9999 46.2002 31.2999 46.5002 31.6999C46.8002 32.0999 47.1002 32.4999 47.2002 32.8999C47.4002 33.3999 47.4002 33.7999 47.4002 34.2999C47.4002 34.7999 47.3002 35.2999 47.2002 35.6999C47.0002 36.1999 46.8002 36.5999 46.5002 36.8999C46.2002 37.2999 45.7002 37.5999 45.2002 37.7999C44.7002 37.9999 44.0002 38.0999 43.3002 38.0999H40.5002V42.3999H37.8002V30.4999ZM40.5002 36.1999H42.6002C42.9002 36.1999 43.2002 36.1999 43.5002 36.0999C43.8002 35.9999 44.0002 35.9999 44.2002 35.7999C44.4002 35.6999 44.6002 35.4999 44.7002 35.1999C44.8002 34.9999 44.9002 34.6999 44.9002 34.2999C44.9002 33.8999 44.8002 33.5999 44.7002 33.3999C44.6002 33.1999 44.4002 32.9999 44.2002 32.7999C44.0002 32.5999 43.7002 32.5999 43.5002 32.4999C43.2002 32.4999 42.9002 32.3999 42.6002 32.3999H40.5002V36.1999Z" fill="black"/>
<path d="M52.2002 38.5999C52.2002 38.9999 52.3002 39.3999 52.4002 39.5999C52.5002 39.8999 52.7002 40.0999 53.0002 40.2999C53.2002 40.4999 53.5002 40.5999 53.8002 40.6999C54.1002 40.7999 54.5002 40.7999 54.8002 40.7999C55.0002 40.7999 55.3002 40.7999 55.6002 40.6999C55.9002 40.6999 56.1002 40.5999 56.4002 40.4999C56.6002 40.3999 56.8002 40.1999 57.0002 39.9999C57.2002 39.7999 57.2002 39.4999 57.2002 39.1999C57.2002 38.8999 57.1002 38.5999 56.9002 38.3999C56.7002 38.1999 56.4002 37.9999 56.1002 37.8999C55.8002 37.7999 55.4002 37.5999 54.9002 37.4999C54.5002 37.3999 54.0002 37.2999 53.6002 37.1999C53.1002 37.0999 52.7002 36.8999 52.3002 36.7999C51.9002 36.5999 51.5002 36.3999 51.1002 36.1999C50.8002 35.8999 50.5002 35.5999 50.3002 35.1999C50.1002 34.7999 50.0002 34.3999 50.0002 33.8999C50.0002 33.2999 50.1002 32.6999 50.4002 32.2999C50.7002 31.7999 51.0002 31.4999 51.4002 31.1999C51.8002 30.8999 52.3002 30.6999 52.9002 30.4999C53.4002 30.3999 54.0002 30.2999 54.5002 30.2999C55.1002 30.2999 55.7002 30.3999 56.3002 30.4999C56.9002 30.5999 57.4002 30.8999 57.9002 31.1999C58.4002 31.4999 58.7002 31.8999 59.0002 32.3999C59.3002 32.8999 59.4002 33.4999 59.4002 34.1999H56.8002C56.8002 33.7999 56.7002 33.4999 56.6002 33.2999C56.5002 33.0999 56.3002 32.8999 56.1002 32.6999C55.9002 32.4999 55.6002 32.4999 55.4002 32.3999C55.2002 32.2999 54.8002 32.2999 54.5002 32.2999C54.3002 32.2999 54.1002 32.2999 53.9002 32.3999C53.7002 32.4999 53.5002 32.4999 53.3002 32.5999C53.1002 32.6999 53.0002 32.8999 52.9002 32.9999C52.8002 33.1999 52.7002 33.3999 52.7002 33.5999C52.7002 33.7999 52.7002 33.9999 52.8002 34.1999C52.9002 34.2999 53.1002 34.4999 53.3002 34.5999C53.6002 34.6999 53.9002 34.7999 54.4002 34.9999C54.9002 35.1999 55.5002 35.2999 56.2002 35.4999C56.3002 35.4999 56.5002 35.5999 56.8002 35.5999C57.0002 35.6999 57.3002 35.6999 57.6002 35.8999C57.9002 35.9999 58.1002 36.0999 58.4002 36.2999C58.7002 36.4999 58.9002 36.6999 59.1002 36.8999C59.3002 37.0999 59.5002 37.3999 59.6002 37.7999C59.7002 38.0999 59.8002 38.4999 59.8002 38.9999C59.8002 39.5999 59.7002 40.0999 59.5002 40.4999C59.3002 40.9999 59.0002 41.3999 58.5002 41.6999C58.1002 41.9999 57.5002 42.2999 56.9002 42.4999C56.3002 42.6999 55.5002 42.7999 54.7002 42.7999C54.0002 42.7999 53.4002 42.6999 52.8002 42.4999C52.2002 42.2999 51.6002 42.0999 51.1002 41.6999C50.6002 41.2999 50.2002 40.8999 50.0002 40.3999C49.7002 39.8999 49.6002 39.1999 49.6002 38.4999H52.2002V38.5999Z" fill="black"/>
</svg>
