<svg width="60" height="49" viewBox="0 0 60 49" fill="none" xmlns="http://www.w3.org/2000/svg">
<path d="M7.6 10.8C7.6 9.97157 8.27157 9.3 9.1 9.3H32.3C33.1284 9.3 33.8 9.97157 33.8 10.8C33.8 11.6284 33.1284 12.3 32.3 12.3H9.1C8.27157 12.3 7.6 11.6284 7.6 10.8Z" fill="black"/>
<path d="M23.1339 0.44485C23.7166 -0.143964 24.6663 -0.148885 25.2552 0.433859L34.9552 10.0339C35.2468 10.3225 35.4075 10.7181 35.3997 11.1284C35.392 11.5386 35.2165 11.9278 34.9141 12.2053L25.2141 21.1053C24.6037 21.6653 23.6548 21.6245 23.0947 21.0141C22.5347 20.4037 22.5755 19.4548 23.1859 18.8947L31.7261 11.0589L23.1448 2.56614C22.556 1.9834 22.5511 1.03366 23.1339 0.44485Z" fill="black"/>
<path d="M42.3 3.7C40.669 3.7 39.1941 4.26564 37.937 5.2713C37.2901 5.78882 36.3462 5.68394 35.8287 5.03704C35.3112 4.39015 35.4161 3.44621 36.063 2.9287C37.8059 1.53436 39.931 0.7 42.3 0.7C47.8284 0.7 52.3 5.17157 52.3 10.7C52.3 16.2284 47.8284 20.7 42.3 20.7C40.3998 20.7 38.5302 20.1106 37.0139 19.1775C36.3083 18.7433 36.0883 17.8194 36.5225 17.1139C36.9567 16.4083 37.8806 16.1883 38.5861 16.6225C39.6698 17.2894 41.0002 17.7 42.3 17.7C46.1716 17.7 49.3 14.5716 49.3 10.7C49.3 6.82843 46.1716 3.7 42.3 3.7Z" fill="black"/>
<path d="M0.5 33.9H3.8V39.7H9.9V33.9H13.2V49H9.9V42.5H3.8V49H0.5V33.9Z" fill="black"/>
<path d="M21 36.7H16.5V33.9H28.9V36.7H24.4V49H21V36.7Z" fill="black"/>
<path d="M31.8 36.7V33.9H44.2V36.7H39.7V49H36.4V36.7H31.8Z" fill="black"/>
<path d="M47.5 33.9C49.2 34 55.2 33.5 56.7 34.3C60.5 35.7 60.5 41.8 56.7 43.2C55.4 43.8 52.3 43.6 50.8 43.6V49H47.5V33.9ZM50.8 41C52.7 40.9 56.4 41.7 56.3 38.7C56.4 35.8 52.7 36.5 50.8 36.4V41Z" fill="black"/>
</svg>
