<svg width="58" height="56" viewBox="0 0 58 56" fill="none" xmlns="http://www.w3.org/2000/svg">
<path fill-rule="evenodd" clip-rule="evenodd" d="M0.399902 14.8C0.399902 13.9716 1.07148 13.3 1.8999 13.3H35.8999C36.7283 13.3 37.3999 13.9716 37.3999 14.8C37.3999 15.6285 36.7283 16.3 35.8999 16.3H3.3999V47H31.0999C31.9283 47 32.5999 47.6716 32.5999 48.5C32.5999 49.3284 31.9283 50 31.0999 50H1.8999C1.07148 50 0.399902 49.3284 0.399902 48.5V14.8Z" fill="black"/>
<path fill-rule="evenodd" clip-rule="evenodd" d="M57.6999 8.40002V47.6C57.6999 49.0925 56.8759 50.3264 55.7999 51.2649C54.7209 52.2059 53.2468 52.9843 51.5562 53.6074C48.1634 54.8581 43.5797 55.6 38.5999 55.6C33.6201 55.6 29.0364 54.8581 25.6436 53.6074C23.953 52.9843 22.4789 52.2059 21.3999 51.2649C20.3239 50.3264 19.4999 49.0925 19.4999 47.6H22.4999C22.4999 47.9076 22.6634 48.3861 23.3718 49.0039C24.0771 49.6191 25.1843 50.2408 26.6812 50.7926C29.6634 51.8919 33.8797 52.6 38.5999 52.6C43.3201 52.6 47.5364 51.8919 50.5186 50.7926C52.0155 50.2408 53.1227 49.6191 53.828 49.0039C54.5364 48.3861 54.6999 47.9076 54.6999 47.6V8.40002H57.6999Z" fill="black"/>
<path fill-rule="evenodd" clip-rule="evenodd" d="M19.4999 14.8V8.40002H22.4999V14.8H19.4999Z" fill="black"/>
<path fill-rule="evenodd" clip-rule="evenodd" d="M23.3696 6.99982C22.6624 7.61735 22.4999 8.09477 22.4999 8.40002C22.4999 8.70527 22.6624 9.1827 23.3696 9.80023C24.0736 10.4149 25.179 11.0368 26.6745 11.5891C29.6539 12.6894 33.8699 13.4 38.5999 13.4C43.3299 13.4 47.5459 12.6894 50.5253 11.5891C52.0209 11.0368 53.1262 10.4149 53.8302 9.80023C54.5374 9.1827 54.6999 8.70527 54.6999 8.40002C54.6999 8.09477 54.5374 7.61735 53.8302 6.99982C53.1262 6.38512 52.0209 5.76326 50.5253 5.21093C47.5459 4.1106 43.3299 3.40002 38.5999 3.40002C33.8699 3.40002 29.6539 4.1106 26.6745 5.21093C25.179 5.76326 24.0736 6.38512 23.3696 6.99982ZM25.6352 2.39673C29.0257 1.14452 33.6097 0.400024 38.5999 0.400024C43.5901 0.400024 48.1741 1.14452 51.5647 2.39673C53.2541 3.02067 54.7262 3.79945 55.8034 4.74004C56.8774 5.67781 57.6999 6.91035 57.6999 8.40002C57.6999 9.8897 56.8774 11.1222 55.8034 12.06C54.7262 13.0006 53.2541 13.7794 51.5647 14.4033C48.1741 15.6555 43.5901 16.4 38.5999 16.4C33.6097 16.4 29.0257 15.6555 25.6352 14.4033C23.9457 13.7794 22.4736 13.0006 21.3964 12.06C20.3224 11.1222 19.4999 9.8897 19.4999 8.40002C19.4999 6.91035 20.3224 5.67781 21.3964 4.74004C22.4736 3.79945 23.9457 3.02067 25.6352 2.39673Z" fill="black"/>
<path fill-rule="evenodd" clip-rule="evenodd" d="M56.0999 33.2C56.9283 33.2 57.5999 33.8716 57.5999 34.7C57.5999 36.1925 56.7759 37.4264 55.6999 38.3649C54.6209 39.3059 53.1468 40.0843 51.4562 40.7074C48.0634 41.9581 43.4797 42.7 38.4999 42.7C37.6715 42.7 36.9999 42.0285 36.9999 41.2C36.9999 40.3716 37.6715 39.7 38.4999 39.7C43.2201 39.7 47.4364 38.9919 50.4186 37.8926C51.9155 37.3408 53.0227 36.7191 53.728 36.1039C54.4364 35.4861 54.5999 35.0076 54.5999 34.7C54.5999 33.8716 55.2715 33.2 56.0999 33.2Z" fill="black"/>
<path fill-rule="evenodd" clip-rule="evenodd" d="M56.0999 18.5C56.9283 18.5 57.5999 19.1716 57.5999 20C57.5999 21.4925 56.7759 22.7264 55.6999 23.6649C54.6209 24.6059 53.1468 25.3843 51.4562 26.0074C48.0634 27.2581 43.4797 28 38.4999 28C37.6715 28 36.9999 27.3285 36.9999 26.5C36.9999 25.6716 37.6715 25 38.4999 25C43.2201 25 47.4364 24.2919 50.4186 23.1926C51.9155 22.6408 53.0227 22.0191 53.728 21.4039C54.4364 20.7861 54.5999 20.3076 54.5999 20C54.5999 19.1716 55.2715 18.5 56.0999 18.5Z" fill="black"/>
<path fill-rule="evenodd" clip-rule="evenodd" d="M26.5732 23.9205C27.2246 23.4087 28.1676 23.5219 28.6794 24.1733L34.1794 31.1733C34.6193 31.7332 34.605 32.5253 34.145 33.0689L28.645 39.5689C28.1099 40.2013 27.1634 40.2802 26.531 39.7451C25.8986 39.21 25.8197 38.2635 26.3548 37.6311L31.0647 32.0649L26.3204 26.0268C25.8086 25.3753 25.9218 24.4324 26.5732 23.9205Z" fill="black"/>
<path fill-rule="evenodd" clip-rule="evenodd" d="M15.4369 23.9287C16.0838 24.4462 16.1887 25.3902 15.6712 26.0371L10.8492 32.0645L15.6363 37.621C16.177 38.2486 16.1066 39.1957 15.479 39.7364C14.8513 40.2772 13.9042 40.2067 13.3635 39.5791L7.76349 33.0791C7.29218 32.532 7.27752 31.7268 7.7286 31.163L13.3286 24.163C13.8461 23.5161 14.7901 23.4112 15.4369 23.9287Z" fill="black"/>
<path fill-rule="evenodd" clip-rule="evenodd" d="M23.292 23.0522C24.0916 23.2687 24.5643 24.0925 24.3477 24.8921L20.4477 39.2921C20.2312 40.0918 19.4074 40.5644 18.6078 40.3479C17.8082 40.1313 17.3355 39.3075 17.5521 38.5079L21.4521 24.1079C21.6686 23.3083 22.4924 22.8356 23.292 23.0522Z" fill="black"/>
</svg>
