<svg width="62" height="54" viewBox="0 0 62 54" fill="none" xmlns="http://www.w3.org/2000/svg">
<path d="M13.1314 2.03094C17.2105 0.884115 22.7537 0.199951 28.7999 0.199951C34.8461 0.199951 40.3893 0.884115 44.4684 2.03094C46.4975 2.60142 48.2507 3.31001 49.5312 4.16492C50.7582 4.98406 51.8999 6.18267 51.8999 7.79995V46.0999C51.8999 47.7172 50.7582 48.9158 49.5312 49.735C48.2507 50.5899 46.4975 51.2985 44.4684 51.869C40.3893 53.0158 34.8461 53.7 28.7999 53.7C22.7537 53.7 17.2105 53.0158 13.1314 51.869C11.1023 51.2985 9.34913 50.5899 8.06859 49.735C6.84164 48.9158 5.6999 47.7172 5.6999 46.0999V40.9C5.6999 40.0715 6.37147 39.4 7.1999 39.4C8.02832 39.4 8.6999 40.0715 8.6999 40.9V46.0999C8.6999 46.1827 8.77066 46.5966 9.73433 47.2399C10.6444 47.8475 12.06 48.4514 13.9434 48.9809C17.6893 50.0341 22.9461 50.7 28.7999 50.7C34.6537 50.7 39.9104 50.0341 43.6564 48.9809C45.5398 48.4514 46.9554 47.8475 47.8655 47.2399C48.8291 46.5966 48.8999 46.1827 48.8999 46.0999V7.80054C48.8999 7.71782 48.8291 7.30335 47.8655 6.65998C46.9554 6.05239 45.5398 5.44848 43.6564 4.91897C39.9104 3.86579 34.6537 3.19995 28.7999 3.19995C22.9461 3.19995 17.6893 3.86579 13.9434 4.91897C12.06 5.44848 10.6444 6.05239 9.73433 6.65998C8.77066 7.30335 8.6999 7.71724 8.6999 7.79995V19C8.6999 19.8284 8.02832 20.5 7.1999 20.5C6.37147 20.5 5.6999 19.8284 5.6999 19V7.79995C5.6999 6.18267 6.84164 4.98406 8.06859 4.16492C9.34913 3.31001 11.1023 2.60142 13.1314 2.03094Z" fill="black"/>
<path d="M9.73026 6.77304C8.76574 7.41704 8.6999 7.8272 8.6999 7.89995C8.6999 7.97271 8.76574 8.38286 9.73026 9.02686C10.6389 9.63356 12.0526 10.2384 13.9341 10.7698C17.6763 11.8266 22.9327 12.5 28.7999 12.5C34.6671 12.5 39.9235 11.8266 43.6657 10.7698C45.5472 10.2384 46.9609 9.63356 47.8695 9.02686C48.8341 8.38286 48.8999 7.97271 48.8999 7.89995C48.8999 7.8272 48.8341 7.41704 47.8695 6.77304C46.9609 6.16635 45.5472 5.56148 43.6657 5.03014C39.9235 3.9733 34.6671 3.29995 28.7999 3.29995C22.9327 3.29995 17.6763 3.9733 13.9341 5.03014C12.0526 5.56148 10.6389 6.16635 9.73026 6.77304ZM13.1187 2.14306C17.1941 0.992131 22.7378 0.299952 28.7999 0.299952C34.862 0.299952 40.4057 0.992131 44.4811 2.14306C46.5084 2.7156 48.258 3.42518 49.5354 4.27807C50.7569 5.09366 51.8999 6.28824 51.8999 7.89995C51.8999 9.51166 50.7569 10.7062 49.5354 11.5218C48.258 12.3747 46.5084 13.0843 44.4811 13.6568C40.4057 14.8078 34.862 15.5 28.7999 15.5C22.7378 15.5 17.1941 14.8078 13.1187 13.6568C11.0914 13.0843 9.34178 12.3747 8.0644 11.5218C6.84288 10.7062 5.6999 9.51166 5.6999 7.89995C5.6999 6.28824 6.84288 5.09366 8.0644 4.27807C9.34178 3.42518 11.0914 2.7156 13.1187 2.14306Z" fill="black"/>
<path d="M0.699898 19C0.699898 18.1715 1.37147 17.5 2.1999 17.5H29.4999C30.3283 17.5 30.9999 18.1715 30.9999 19V40.9C30.9999 41.7284 30.3283 42.4 29.4999 42.4H2.1999C1.37147 42.4 0.699898 41.7284 0.699898 40.9C0.699898 40.0715 1.37147 39.4 2.1999 39.4H27.9999V20.5H2.1999C1.37147 20.5 0.699898 19.8284 0.699898 19Z" fill="black"/>
<path d="M30.7309 18.1429C31.2043 18.8228 31.0368 19.7577 30.357 20.231L14.557 31.231C14.061 31.5763 13.4062 31.5902 12.896 31.2663L1.39601 23.9663C0.696598 23.5224 0.489525 22.5955 0.9335 21.8961C1.37747 21.1967 2.30437 20.9896 3.00379 21.4336L13.6616 28.1989L28.6428 17.7689C29.3227 17.2956 30.2576 17.463 30.7309 18.1429Z" fill="black"/>
<path d="M11.7999 19C11.7999 18.1715 12.4715 17.5 13.2999 17.5H40.4999C41.3283 17.5 41.9999 18.1715 41.9999 19V40.9C41.9999 41.7284 41.3283 42.4 40.4999 42.4H13.2999C12.4715 42.4 11.7999 41.7284 11.7999 40.9C11.7999 40.0715 12.4715 39.4 13.2999 39.4H38.9999V20.5H13.2999C12.4715 20.5 11.7999 19.8284 11.7999 19Z" fill="black"/>
<path d="M41.7324 18.145C42.2046 18.8257 42.0356 19.7603 41.3549 20.2324L30.2549 27.9324C29.5742 28.4046 28.6396 28.2356 28.1674 27.5549C27.6952 26.8742 27.8642 25.9397 28.5449 25.4675L39.6449 17.7675C40.3256 17.2953 41.2602 17.4643 41.7324 18.145Z" fill="black"/>
<path d="M48.8999 19C48.8999 18.1715 49.5715 17.5 50.3999 17.5H59.7999C60.6283 17.5 61.2999 18.1715 61.2999 19V40.9C61.2999 41.7284 60.6283 42.4 59.7999 42.4H50.3999C49.5715 42.4 48.8999 41.7284 48.8999 40.9C48.8999 40.0715 49.5715 39.4 50.3999 39.4H58.2999V20.5H50.3999C49.5715 20.5 48.8999 19.8284 48.8999 19Z" fill="black"/>
<path d="M61.0275 18.138C61.5036 18.816 61.3398 19.7515 60.6618 20.2276L51.2618 26.8276C50.5838 27.3036 49.6483 27.1399 49.1723 26.4619C48.6962 25.7839 48.86 24.8484 49.538 24.3723L58.938 17.7723C59.6159 17.2963 60.5515 17.46 61.0275 18.138Z" fill="black"/>
</svg>
