<!--
 ~ Copyright (c) 2025, WSO2 LLC. (https://www.wso2.com) All Rights Reserved.
 ~
 ~ WSO2 LLC. licenses this file to you under the Apache License,
 ~ Version 2.0 (the "License"); you may not use this file except
 ~ in compliance with the License.
 ~ You may obtain a copy of the License at
 ~
 ~     http://www.apache.org/licenses/LICENSE-2.0
 ~
 ~ Unless required by applicable law or agreed to in writing,
 ~ software distributed under the License is distributed on an
 ~ "AS IS" BASIS, WITHOUT WARRANTIES OR CONDITIONS OF ANY
 ~ KIND, either express or implied. See the License for the
 ~ specific language governing permissions and limitations
 ~ under the License.
-->
<svg width="15" height="12" viewBox="0 0 15 12" fill="none" xmlns="http://www.w3.org/2000/svg">
<path fill-rule="evenodd" clip-rule="evenodd" d="M6.61197 3.12254C6.7652 2.96341 7.01843 2.95864 7.17755 3.11187L9.87755 5.71187C9.95684 5.78822 10.0012 5.89386 10.0001 6.00392C9.999 6.11397 9.95262 6.21873 9.87186 6.2935L7.17186 8.7935C7.00976 8.9436 6.75668 8.93386 6.60659 8.77176C6.4565 8.60966 6.46624 8.35659 6.62833 8.2065L9.01751 5.9943L6.62264 3.68813C6.46351 3.53489 6.45873 3.28167 6.61197 3.12254Z" fill="black"/>
<path fill-rule="evenodd" clip-rule="evenodd" d="M8.9001 0.8C6.12101 0.8 3.8001 3.12091 3.8001 5.9C3.8001 8.77436 6.11625 11 8.9001 11C11.7792 11 14.0001 8.77909 14.0001 5.9C14.0001 3.11616 11.7745 0.8 8.9001 0.8ZM3.0001 5.9C3.0001 2.67909 5.67918 0 8.9001 0C12.2257 0 14.8001 2.68384 14.8001 5.9C14.8001 9.22091 12.221 11.8 8.9001 11.8C5.68394 11.8 3.0001 9.22564 3.0001 5.9Z" fill="black"/>
<path fill-rule="evenodd" clip-rule="evenodd" d="M0.100098 5.9C0.100098 5.67909 0.279184 5.5 0.500098 5.5H6.8001C7.02101 5.5 7.2001 5.67909 7.2001 5.9C7.2001 6.12091 7.02101 6.3 6.8001 6.3H0.500098C0.279184 6.3 0.100098 6.12091 0.100098 5.9Z" fill="black"/>
</svg>
