<!--
 ~ Copyright (c) 2025, WSO2 LLC. (https://www.wso2.com) All Rights Reserved.
 ~
 ~ WSO2 LLC. licenses this file to you under the Apache License,
 ~ Version 2.0 (the "License"); you may not use this file except
 ~ in compliance with the License.
 ~ You may obtain a copy of the License at
 ~
 ~     http://www.apache.org/licenses/LICENSE-2.0
 ~
 ~ Unless required by applicable law or agreed to in writing,
 ~ software distributed under the License is distributed on an
 ~ "AS IS" BASIS, WITHOUT WARRANTIES OR CONDITIONS OF ANY
 ~ KIND, either express or implied. See the License for the
 ~ specific language governing permissions and limitations
 ~ under the License.
-->
<svg xmlns="http://www.w3.org/2000/svg" width="24" height="24" viewBox="0 0 24 24">
    <path fill="currentColor"
        d="M5 22q-.825 0-1.413-.588T3 20V8.725q-.45-.275-.725-.713T2 7V4q0-.825.588-1.413T4 2h16q.825 0 1.413.588T22 4v3q0 .575-.275 1.012T21 8.725V20q0 .825-.588 1.413T19 22H5ZM5 9v11h14V9H5ZM4 7h16V4H4v3Zm6 7h4q.425 0 .713-.288T15 13q0-.425-.288-.713T14 12h-4q-.425 0-.713.288T9 13q0 .425.288.713T10 14Zm2 .5Z" />
</svg>
