
<svg width="16" height="12" viewBox="0 0 16 12" fill="none" xmlns="http://www.w3.org/2000/svg">
<path d="M7.0999 1.70002C5.22735 1.70002 3.5999 3.31435 3.5999 5.30002C3.5999 5.52094 3.42082 5.70002 3.1999 5.70002C2.97899 5.70002 2.7999 5.52094 2.7999 5.30002C2.7999 2.8857 4.77246 0.900024 7.0999 0.900024C9.52082 0.900024 11.4999 2.87911 11.4999 5.30002C11.4999 7.62747 9.51423 9.60002 7.0999 9.60002C6.87899 9.60002 6.6999 9.42094 6.6999 9.20002C6.6999 8.97911 6.87899 8.80002 7.0999 8.80002C9.08558 8.80002 10.6999 7.17258 10.6999 5.30002C10.6999 3.32094 9.07899 1.70002 7.0999 1.70002Z" fill="black"/>
<path d="M0.899902 9.20002C0.899902 8.97911 1.07899 8.80002 1.2999 8.80002L7.0999 8.80002C7.32082 8.80002 7.4999 8.97911 7.4999 9.20002C7.4999 9.42094 7.32082 9.60002 7.0999 9.60002L1.2999 9.60002C1.07899 9.60002 0.899902 9.42094 0.899902 9.20002Z" fill="black"/>
<path d="M11.0999 9.20002C11.0999 8.97911 11.279 8.80002 11.4999 8.80002H13.7999C14.0208 8.80002 14.1999 8.97911 14.1999 9.20002C14.1999 9.42094 14.0208 9.60002 13.7999 9.60002H11.4999C11.279 9.60002 11.0999 9.42094 11.0999 9.20002Z" fill="black"/>
<path d="M12.4099 7.02452C12.5621 6.86436 12.8152 6.85787 12.9754 7.01002L14.9754 8.91002C15.0549 8.98554 15.0999 9.09038 15.0999 9.20002C15.0999 9.30967 15.0549 9.41451 14.9754 9.49002L12.9754 11.39C12.8152 11.5422 12.5621 11.5357 12.4099 11.3755C12.2577 11.2154 12.2642 10.9622 12.4244 10.81L14.1191 9.20002L12.4244 7.59002C12.2642 7.43787 12.2577 7.18469 12.4099 7.02452Z" fill="black"/>
<path d="M1.26463 3.67653C1.44329 3.54659 1.69346 3.58609 1.8234 3.76476L3.18118 5.63171L5.05532 4.18351C5.23013 4.04843 5.48134 4.08064 5.61642 4.25545C5.75149 4.43025 5.71929 4.68146 5.54448 4.81654L3.34448 6.51654C3.25894 6.58264 3.15029 6.6113 3.04327 6.59599C2.93626 6.58069 2.83999 6.52272 2.77641 6.43529L1.17641 4.23529C1.04647 4.05663 1.08597 3.80647 1.26463 3.67653Z" fill="black"/>
</svg>
