<svg width="58" height="63" viewBox="0 0 58 63" fill="none" xmlns="http://www.w3.org/2000/svg">
<path d="M29.0002 0.300049C35.5005 0.300049 41.4213 1.06005 45.7646 2.30842C47.9261 2.92969 49.7813 3.69555 51.1305 4.60712C52.4244 5.48127 53.6002 6.73584 53.6002 8.40005V41.3C53.6002 42.1285 52.9286 42.8 52.1002 42.8C51.2718 42.8 50.6002 42.1285 50.6002 41.3V8.40063C50.6002 8.26484 50.4885 7.79383 49.4511 7.09297C48.4691 6.42955 46.9493 5.77041 44.9358 5.19168C40.9304 4.04041 35.3034 3.30051 29.0061 3.30005C22.7565 3.34971 17.1264 4.11394 13.1049 5.27837C11.0833 5.86372 9.55217 6.5265 8.56065 7.19324C7.51042 7.89945 7.4002 8.37001 7.4002 8.50005V41.3C7.4002 42.1285 6.72862 42.8 5.9002 42.8C5.07177 42.8 4.4002 42.1285 4.4002 41.3V8.50005C4.4002 6.83009 5.58997 5.57565 6.88662 4.70374C8.24197 3.79234 10.1046 3.02388 12.2705 2.39673C16.6228 1.13653 22.5404 0.350867 28.9884 0.300095L29.0002 0.300049Z" fill="black"/>
<path d="M8.55515 7.17401C7.51868 7.87415 7.4002 8.35003 7.4002 8.50005C7.4002 8.65007 7.51868 9.12595 8.55515 9.82609C9.53926 10.4909 11.0619 11.1486 13.0781 11.7247C17.0902 12.871 22.72 13.6 29.0002 13.6C35.2804 13.6 40.9102 12.871 44.9223 11.7247C46.9385 11.1486 48.4611 10.4909 49.4452 9.82609C50.4817 9.12595 50.6002 8.65007 50.6002 8.50005C50.6002 8.35003 50.4817 7.87415 49.4452 7.17401C48.4611 6.50924 46.9385 5.8515 44.9223 5.27543C40.9102 4.12912 35.2804 3.40005 29.0002 3.40005C22.72 3.40005 17.0902 4.12912 13.0781 5.27543C11.0619 5.8515 9.53926 6.50924 8.55515 7.17401ZM12.2539 2.39086C16.6024 1.14843 22.5226 0.400049 29.0002 0.400049C35.4777 0.400049 41.398 1.14843 45.7464 2.39086C47.9105 3.00915 49.7708 3.77359 51.1245 4.68805C52.4259 5.56714 53.6002 6.82753 53.6002 8.50005C53.6002 10.1726 52.4259 11.433 51.1245 12.312C49.7708 13.2265 47.9105 13.9909 45.7464 14.6092C41.398 15.8517 35.4777 16.6 29.0002 16.6C22.5226 16.6 16.6024 15.8517 12.2539 14.6092C10.0899 13.9909 8.2296 13.2265 6.87587 12.312C5.57448 11.433 4.4002 10.1726 4.4002 8.50005C4.4002 6.82753 5.57448 5.56714 6.87587 4.68805C8.2296 3.77359 10.0899 3.00915 12.2539 2.39086Z" fill="black"/>
<path d="M10.3002 56.9001C10.3002 57.2001 10.3002 57.6 10.2002 58C10.2002 58.4 10.1002 58.8001 10.0002 59.2001C9.9002 59.6001 9.7002 60 9.5002 60.3C9.3002 60.7 9.0002 61.0001 8.6002 61.2001C8.2002 61.5001 7.8002 61.7001 7.2002 61.9001C6.7002 62.1001 6.0002 62.1 5.2002 62.1C4.6002 62.1 3.9002 62 3.3002 61.8C2.7002 61.6 2.2002 61.3 1.7002 61C1.2002 60.6 0.800195 60.1 0.600195 59.5C0.300195 58.9 0.200195 58.2 0.200195 57.3V56H3.2002V56.7001C3.2002 57.1001 3.2002 57.4001 3.3002 57.7001C3.4002 58.0001 3.5002 58.3 3.6002 58.5C3.7002 58.7 3.9002 58.9 4.2002 59C4.4002 59.1 4.8002 59.2001 5.2002 59.2001C5.6002 59.2001 6.0002 59.1 6.2002 59C6.4002 58.8 6.6002 58.6001 6.7002 58.4001C6.8002 58.1001 6.9002 57.9 6.9002 57.6C6.9002 57.3 6.9002 57 6.9002 56.8V46.4001H10.3002V56.9001Z" fill="black"/>
<path d="M13.3002 46.4001H19.9002C20.9002 46.4001 21.8002 46.6001 22.7002 46.9001C23.5002 47.2001 24.3002 47.7 24.9002 48.3C25.5002 48.9 26.0002 49.7001 26.4002 50.7001C26.8002 51.6001 26.9002 52.8 26.9002 54C26.9002 55.1 26.8002 56.1 26.5002 57.1C26.2002 58 25.8002 58.9 25.2002 59.5C24.6002 60.2 23.9002 60.7 23.0002 61.1C22.1002 61.5 21.1002 61.7001 19.9002 61.7001H13.3002V46.4001ZM16.6002 58.9001H19.6002C20.1002 58.9001 20.6002 58.8001 21.0002 58.7001C21.5002 58.5001 21.9002 58.3001 22.2002 57.9001C22.6002 57.5001 22.8002 57.1 23.1002 56.5C23.3002 55.9 23.4002 55.2001 23.4002 54.4001C23.4002 53.6001 23.3002 52.9 23.2002 52.3C23.1002 51.7 22.8002 51.2001 22.5002 50.7001C22.2002 50.3001 21.7002 49.9001 21.1002 49.7001C20.5002 49.5001 19.8002 49.3 19.0002 49.3H16.6002V58.9001Z" fill="black"/>
<path d="M29.2002 46.4001H36.4002C37.1002 46.4001 37.8002 46.5 38.4002 46.6C39.0002 46.7 39.5002 46.9001 39.9002 47.2001C40.3002 47.5001 40.7002 47.9001 40.9002 48.4001C41.1002 48.9001 41.3002 49.5001 41.3002 50.2001C41.3002 51.0001 41.1002 51.6 40.8002 52.1C40.4002 52.6 39.9002 53.0001 39.3002 53.4001C40.2002 53.7001 40.9002 54.1 41.4002 54.8C41.9002 55.5 42.1002 56.3 42.1002 57.3C42.1002 58.1 42.0002 58.7 41.7002 59.3C41.4002 59.9 41.0002 60.3001 40.5002 60.7001C40.0002 61.1001 39.4002 61.3 38.8002 61.5C38.1002 61.7 37.5002 61.8 36.8002 61.8H29.4002V46.4001H29.2002ZM32.5002 52.6H35.9002C36.5002 52.6 37.0002 52.5001 37.4002 52.2001C37.8002 51.9001 38.0002 51.5 38.0002 50.8C38.0002 50.4 37.9002 50.1001 37.8002 49.9001C37.7002 49.7001 37.5002 49.5001 37.3002 49.4001C37.1002 49.3001 36.8002 49.2 36.6002 49.1C36.3002 49.1 36.0002 49 35.7002 49H32.6002V52.6H32.5002ZM36.1002 59.1C36.4002 59.1 36.7002 59.1 37.0002 59C37.3002 58.9 37.6002 58.8001 37.8002 58.7001C38.0002 58.6001 38.2002 58.3 38.3002 58.1C38.4002 57.8 38.5002 57.5 38.5002 57.1C38.5002 56.3 38.3002 55.8001 37.8002 55.4001C37.4002 55.1001 36.8002 54.9001 36.0002 54.9001H32.3002V59.1H36.1002Z" fill="black"/>
<path d="M54.4002 51.6C54.3002 51.2 54.2002 50.9 54.0002 50.5C53.8002 50.2 53.6002 49.9001 53.3002 49.7001C53.0002 49.5001 52.7002 49.3 52.3002 49.1C51.9002 49 51.5002 48.9001 51.1002 48.9001C50.3002 48.9001 49.7002 49 49.2002 49.3C48.7002 49.6 48.2002 50 47.9002 50.5C47.6002 51 47.3002 51.6001 47.2002 52.2001C47.1002 52.8001 47.0002 53.5001 47.0002 54.2001C47.0002 54.8001 47.1002 55.5 47.2002 56.1C47.3002 56.7 47.6002 57.3001 47.9002 57.7001C48.2002 58.2001 48.7002 58.6001 49.2002 58.9001C49.7002 59.2001 50.4002 59.3 51.1002 59.3C52.1002 59.3 52.9002 59 53.5002 58.3C54.1002 57.7 54.4002 56.8 54.6002 55.8H57.9002C57.8002 56.8 57.6002 57.6001 57.2002 58.4001C56.8002 59.2001 56.4002 59.8001 55.8002 60.4001C55.2002 60.9001 54.5002 61.4001 53.7002 61.7001C52.9002 62.0001 52.0002 62.1 51.1002 62.1C49.9002 62.1 48.9002 61.9 47.9002 61.5C47.0002 61.1 46.2002 60.5 45.5002 59.8C44.9002 59.1 44.4002 58.2 44.0002 57.3C43.7002 56.3 43.5002 55.3001 43.5002 54.2001C43.5002 53.1001 43.7002 52 44.0002 51C44.3002 50 44.8002 49.2001 45.5002 48.4001C46.1002 47.7001 46.9002 47.1001 47.9002 46.7001C48.8002 46.3001 49.9002 46.1 51.1002 46.1C51.9002 46.1 52.7002 46.2 53.5002 46.5C54.3002 46.7 54.9002 47.1 55.5002 47.6C56.1002 48.1 56.6002 48.6 57.0002 49.3C57.4002 50 57.6002 50.8001 57.7002 51.7001H54.4002V51.6Z" fill="black"/>
<path d="M13.2002 20.4C13.2002 19.5716 13.8718 18.9 14.7002 18.9H43.6002C44.4286 18.9 45.1002 19.5716 45.1002 20.4C45.1002 20.5208 45.0859 20.6382 45.059 20.7507C45.0861 20.8637 45.1002 20.9808 45.1002 21.1V40.6C45.1002 41.4285 44.4286 42.1 43.6002 42.1H14.7002C13.8718 42.1 13.2002 41.4285 13.2002 40.6V20.4ZM39.8248 21.9H19.0615L28.851 29.5372L39.8248 21.9ZM16.2002 23.4727V39.1H42.1002V23.9715L29.657 32.6312C29.1173 33.0068 28.396 32.9872 27.8775 32.5827L16.2002 23.4727Z" fill="black"/>
</svg>
