<svg width="60" height="60" viewBox="0 0 60 60" fill="none" xmlns="http://www.w3.org/2000/svg">
<path d="M16.5389 2.5324C21.0083 1.25913 27.1038 0.5 33.7999 0.5C40.4515 0.5 46.5466 1.28526 51.0261 2.57069C53.2557 3.21048 55.169 3.99767 56.5595 4.93122C57.8909 5.82517 59.0999 7.10464 59.0999 8.8V51.1C59.0999 52.8028 57.9207 54.0953 56.5806 55.0062C55.1939 55.9487 53.2854 56.7339 51.0609 57.3676C46.5915 58.6409 40.496 59.4 33.7999 59.4C27.1483 59.4 21.0532 58.6147 16.5737 57.3293C14.3441 56.6895 12.4308 55.9023 11.0403 54.9688C9.70887 54.0748 8.4999 52.7954 8.4999 51.1C8.4999 50.2716 9.17148 49.6 9.9999 49.6C10.8283 49.6 11.4999 50.2716 11.4999 51.1C11.4999 51.2546 11.6284 51.7502 12.7126 52.4781C13.7378 53.1664 15.3182 53.848 17.4011 54.4457C21.5466 55.6353 27.3515 56.4 33.7999 56.4C40.3038 56.4 46.1083 55.6591 50.2389 54.4824C52.3144 53.8911 53.8809 53.2138 54.8942 52.5251C55.9541 51.8047 56.0999 51.2972 56.0999 51.1V8.80058C56.0999 8.64594 55.9714 8.14983 54.8872 7.42191C53.862 6.73357 52.2816 6.05202 50.1987 5.45431C46.0532 4.26474 40.2483 3.5 33.7999 3.5C27.296 3.5 21.4915 4.24087 17.3609 5.4176C15.2854 6.00888 13.7189 6.68624 12.7056 7.37495C11.6457 8.09534 11.4999 8.60281 11.4999 8.8V14.3C11.4999 15.1284 10.8283 15.8 9.9999 15.8C9.17148 15.8 8.4999 15.1284 8.4999 14.3V8.8C8.4999 7.09719 9.67909 5.80466 11.0192 4.89381C12.4059 3.95126 14.3144 3.16612 16.5389 2.5324Z" fill="black"/>
<path d="M12.7099 7.49611C11.638 8.22018 11.4999 8.72236 11.4999 8.9C11.4999 9.07763 11.638 9.57982 12.7099 10.3039C13.7294 10.9926 15.3033 11.6719 17.3828 12.266C21.5216 13.4485 27.3264 14.2 33.7999 14.2C40.2734 14.2 46.0782 13.4485 50.217 12.266C52.2965 11.6719 53.8704 10.9926 54.8899 10.3039C55.9618 9.57982 56.0999 9.07763 56.0999 8.9C56.0999 8.72236 55.9618 8.22018 54.8899 7.49611C53.8704 6.80742 52.2965 6.12812 50.217 5.53396C46.0782 4.35146 40.2734 3.6 33.7999 3.6C27.3264 3.6 21.5216 4.35146 17.3828 5.53396C15.3033 6.12812 13.7294 6.80742 12.7099 7.49611ZM16.5587 2.64939C21.0338 1.37077 27.1291 0.6 33.7999 0.6C40.4708 0.6 46.566 1.37077 51.0411 2.64939C53.2685 3.28578 55.1801 4.07177 56.5692 5.01015C57.906 5.91317 59.0999 7.19987 59.0999 8.9C59.0999 10.6001 57.906 11.8868 56.5692 12.7898C55.1801 13.7282 53.2685 14.5142 51.0411 15.1506C46.566 16.4292 40.4708 17.2 33.7999 17.2C27.1291 17.2 21.0338 16.4292 16.5587 15.1506C14.3313 14.5142 12.4197 13.7282 11.0306 12.7898C9.69378 11.8868 8.4999 10.6001 8.4999 8.9C8.4999 7.19987 9.69378 5.91317 11.0306 5.01015C12.4197 4.07177 14.3313 3.28578 16.5587 2.64939Z" fill="black"/>
<path d="M20.8999 21.2C20.8999 20.3716 21.5715 19.7 22.3999 19.7H57.5999C58.4283 19.7 59.0999 20.3716 59.0999 21.2V46.3C59.0999 47.1284 58.4283 47.8 57.5999 47.8H36.2999C35.4715 47.8 34.7999 47.1284 34.7999 46.3C34.7999 45.4716 35.4715 44.8 36.2999 44.8H56.0999V22.7H22.3999C21.5715 22.7 20.8999 22.0284 20.8999 21.2Z" fill="black"/>
<path d="M58.8342 20.3476C59.3049 21.0293 59.134 21.9635 58.4523 22.4343L40.3523 34.9343C39.8271 35.297 39.13 35.2876 38.6147 34.911L21.5147 22.411C20.8459 21.9221 20.7001 20.9836 21.1889 20.3148C21.6778 19.646 22.6163 19.5002 23.2851 19.989L39.5246 31.86L56.7475 19.9657C57.4292 19.495 58.3634 19.6659 58.8342 20.3476Z" fill="black"/>
<path d="M10.9999 27.5C10.9999 27.6 10.9999 27.8 11.0999 27.9C10.9999 28.2 11.0999 28.4 11.2999 28.5C11.3999 28.5 11.3999 28.6 11.3999 28.6C11.4999 28.7 11.4999 28.9 11.5999 29C11.6999 29.2 11.7999 29.3 11.8999 29.5C11.8999 29.7 11.7999 30 11.5999 30.1C10.9999 29.6 10.5999 29 10.1999 28.4C10.0999 28.3 10.0999 28.2 9.9999 28.1C9.9999 27.9 9.9999 27.7 9.6999 27.6C9.6999 27.4 9.6999 27.2 9.4999 27C9.4999 26.9 9.3999 26.7 9.3999 26.6C9.3999 26.3 9.3999 25.9 9.3999 25.6C9.3999 25.5 9.4999 25.3 9.4999 25.2C9.6999 25.1 9.7999 24.9 9.6999 24.6C9.7999 24.5 9.7999 24.4 9.8999 24.3C10.8999 22.7 12.3999 21.8 13.6999 20.7C14.6999 19.9 15.6999 19.1 16.5999 18.1C17.6999 16.8 18.1999 15.3 18.1999 13.5C18.8999 14.6 18.8999 15.8 18.3999 16.9C17.5999 19.1 15.9999 20.7 14.1999 22.1C12.7999 23.2 11.4999 24.4 10.9999 26.2C10.5999 26.7 10.5999 27.1 10.9999 27.5Z" fill="black"/>
<path d="M21.6999 46.9C17.9999 47.8 14.1999 47.9 10.3999 47.8C7.6999 47.7 4.9999 47.5 2.2999 47C1.5999 46.9 0.799902 46.8 0.399902 46.1C0.999902 45.1 1.9999 44.8 2.9999 44.5C2.9999 44.7 2.9999 44.8 3.0999 45C2.8999 45.2 2.6999 45.4 2.8999 45.9C4.6999 46.7 6.7999 46.8 8.8999 46.9C13.1999 47.3 17.3999 46.8 21.6999 46.5C21.6999 46.6 21.6999 46.8 21.6999 46.9Z" fill="black"/>
<path d="M16.5999 32.2C16.5999 32 16.5999 31.9 16.5999 31.7C16.7999 31.5 16.6999 31.3 16.4999 31.2C15.9999 30.5 15.4999 29.9 15.0999 29.2C13.7999 27.2 13.9999 25.4 15.6999 23.7C16.6999 22.7 17.6999 22 18.9999 21.5C19.0999 21.6 19.2999 21.7 19.3999 21.9C19.2999 22 19.1999 22.1 19.0999 22.1C19.0999 22.2 19.0999 22.2 18.9999 22.2C18.7999 22.2 18.6999 22.3 18.5999 22.5C18.4999 22.6 18.3999 22.6 18.3999 22.7C18.2999 22.8 18.1999 22.9 18.0999 22.9C17.7999 23.2 17.4999 23.5 17.1999 23.8C16.0999 25 15.8999 26.1 16.7999 27.5C16.9999 27.9 17.2999 28.2 17.4999 28.6C18.6999 30.3 18.5999 31.2 17.0999 32.8C16.6999 32.7 16.7999 32.4 16.5999 32.2Z" fill="black"/>
<path d="M7.4999 42.4C7.5999 42.3 7.5999 42.1 7.7999 42C7.9999 41.8 8.1999 41.7 8.2999 41.7C11.4999 43.2 14.6999 42.6 17.8999 42.2C18.2999 42.4 18.8999 42.7 19.3999 43C16.7999 45 9.0999 44.6 7.4999 42.4Z" fill="black"/>
<path d="M18.9999 38.2C19.3999 38.5 19.8999 38.6 20.0999 39.2C15.4999 40.1 10.8999 40.9 6.3999 39C6.5999 38.1 7.0999 37.9 7.5999 37.6C7.7999 38.7 8.5999 38.7 9.3999 38.8C12.5999 39.1 15.6999 38.8 18.9999 38.2Z" fill="black"/>
<path d="M20.3999 35.1C14.7999 36.4 9.0999 36.6 3.4999 35.2C4.2999 34.1 5.3999 33.9 6.3999 33.6C6.3999 33.8 6.3999 33.9 6.3999 34.1C6.2999 34.3 6.0999 34.4 5.9999 34.6C6.2999 35.2 6.7999 35.2 7.2999 35.2C10.9999 35.7 14.7999 35.3 18.4999 34.9C19.1999 34.8 19.8999 34.8 20.4999 34.7C20.4999 34.8 20.3999 34.9 20.3999 35.1Z" fill="black"/>
<path d="M16.9999 49.6C15.0999 49.8 13.1999 49.7 11.2999 49.6C11.2999 49.5 11.2999 49.3 11.2999 49.2C15.2999 49.2 19.1999 49.1 23.0999 48.2C24.0999 48 24.9999 47.7 25.9999 47.4C26.0999 47.5 26.1999 47.6 26.3999 47.7C23.7999 49 20.9999 49.2 18.1999 49.4C17.7999 49.4 17.3999 49.2 16.9999 49.6Z" fill="black"/>
<path d="M25.2999 32.8C26.4999 33 27.2999 33.6 27.5999 34.8C27.8999 35.9 27.2999 36.8 26.4999 37.5C25.9999 38 25.3999 38.5 24.6999 38.7C24.6999 38.5 24.6999 38.3 24.6999 38.1C24.9999 37.7 25.3999 37.4 25.5999 37C26.5999 35.6 26.4999 34.5 25.1999 33.3C25.2999 33.1 25.2999 32.9 25.2999 32.8Z" fill="black"/>
<path d="M11.2999 49.2C11.2999 49.3 11.2999 49.5 11.2999 49.6C10.1999 49.8 9.1999 49.4 8.1999 49.3C8.1999 49.2 8.1999 49 8.1999 48.9C9.1999 49 10.2999 49.1 11.2999 49.2Z" fill="black"/>
<path d="M22.6999 46.3C23.5999 45.9 24.5999 45.9 25.4999 45.3C25.5999 45.4 25.5999 45.4 25.6999 45.5C24.8999 46.3 23.7999 46.5 22.6999 46.7C22.6999 46.6 22.6999 46.4 22.6999 46.3Z" fill="black"/>
<path d="M11.4999 30.2C11.7999 30.1 11.7999 29.8 11.7999 29.6C12.1999 30.2 12.6999 30.8 13.0999 31.5C13.0999 31.6 13.0999 31.7 13.0999 31.9C12.3999 31.3 11.8999 30.8 11.4999 30.2Z" fill="black"/>
<path d="M24.6999 38.1C24.6999 38.3 24.6999 38.5 24.6999 38.7C24.2999 39.1 23.8999 39.2 23.3999 39.3C23.3999 39.2 23.3999 39.1 23.3999 39C23.8999 38.7 24.2999 38.4 24.6999 38.1Z" fill="black"/>
<path d="M25.2999 32.8C25.2999 33 25.1999 33.2 25.1999 33.3C24.7999 33.2 24.3999 33.1 23.8999 33C23.8999 32.9 23.8999 32.8 23.8999 32.7C24.4999 32.6 24.8999 32.5 25.2999 32.8Z" fill="black"/>
<path d="M19.3999 21.9C19.2999 21.8 19.0999 21.7 18.9999 21.5C19.4999 21.3 19.8999 21.1 20.3999 20.8C20.3999 20.9 20.3999 21.1 20.3999 21.2C19.9999 21.5 19.6999 21.7 19.3999 21.9Z" fill="black"/>
<path d="M8.1999 48.9C8.1999 49 8.1999 49.2 8.1999 49.3C7.6999 49.2 7.1999 49.1 6.6999 49C6.6999 48.9 6.6999 48.8 6.6999 48.8C7.0999 48.8 7.6999 48.9 8.1999 48.9Z" fill="black"/>
<path d="M26.2999 47.8C26.1999 47.7 26.0999 47.6 25.8999 47.5C26.2999 47.3 26.5999 47.2 26.9999 47C26.9999 47.1 27.0999 47.1 27.1999 47.2C26.9999 47.4 26.6999 47.7 26.2999 47.8Z" fill="black"/>
<path d="M2.9999 45C2.9999 44.8 2.9999 44.7 2.8999 44.5C3.0999 44.3 3.3999 44.2 3.6999 44.2C3.6999 44.3 3.6999 44.5 3.6999 44.6C3.4999 44.7 3.1999 44.8 2.9999 45Z" fill="black"/>
<path d="M16.9999 49.6C17.3999 49.2 17.7999 49.4 18.1999 49.5C17.7999 49.8 17.3999 49.8 16.9999 49.6Z" fill="black"/>
<path d="M4.4999 44C4.7999 43.8 5.0999 43.8 5.3999 44C5.1999 44.5 4.7999 44.3 4.4999 44.4C4.4999 44.3 4.4999 44.2 4.4999 44Z" fill="black"/>
<path d="M13.0999 31.8C13.0999 31.7 13.0999 31.6 13.0999 31.4C13.2999 31.6 13.4999 31.9 13.7999 32.2C13.2999 32.2 13.1999 32 13.0999 31.8Z" fill="black"/>
<path d="M16.5999 32.2C16.7999 32.4 16.6999 32.7 16.9999 32.8C16.7999 33.1 16.5999 33.3 16.1999 33.5C16.0999 32.9 16.4999 32.6 16.5999 32.2Z" fill="black"/>
<path d="M6.3999 34C6.3999 33.8 6.3999 33.7 6.3999 33.5C6.6999 33.4 6.8999 33.3 7.1999 33.3C7.1999 33.4 7.1999 33.6 7.1999 33.7C6.8999 33.8 6.5999 33.9 6.3999 34Z" fill="black"/>
<path d="M23.4999 39C23.4999 39.1 23.4999 39.2 23.4999 39.3C23.3999 39.5 23.1999 39.6 22.7999 39.6C22.7999 39.1 23.1999 39.1 23.4999 39Z" fill="black"/>
<path d="M7.8999 33.1C8.1999 32.9 8.3999 32.9 8.6999 33.1C8.4999 33.4 8.1999 33.5 7.8999 33.5C7.8999 33.4 7.8999 33.2 7.8999 33.1Z" fill="black"/>
<path d="M20.5999 34.7C20.6999 34.4 20.9999 34.4 21.1999 34.4C21.2999 34.8 20.8999 34.8 20.6999 34.9C20.6999 34.8 20.5999 34.7 20.5999 34.7Z" fill="black"/>
<path d="M7.8999 33.1C7.8999 33.2 7.8999 33.3 7.8999 33.5C7.5999 33.6 7.3999 33.7 7.0999 33.7C7.0999 33.6 7.0999 33.4 7.0999 33.3C7.3999 33.2 7.5999 33.2 7.8999 33.1Z" fill="black"/>
<path d="M20.8999 20.6C21.0999 20.4 21.2999 20.3 21.4999 20.3C21.4999 20.7 21.1999 20.7 20.9999 20.7C20.9999 20.7 20.8999 20.7 20.8999 20.6Z" fill="black"/>
<path d="M10.9999 27.5C10.5999 27.1 10.5999 26.6 10.9999 26.2C10.9999 26.7 10.9999 27.1 10.9999 27.5Z" fill="black"/>
<path d="M4.4999 44C4.4999 44.1 4.4999 44.2 4.4999 44.4C4.1999 44.5 3.9999 44.6 3.6999 44.6C3.6999 44.5 3.6999 44.3 3.6999 44.2C3.9999 44.2 4.2999 44.1 4.4999 44Z" fill="black"/>
<path d="M25.4999 45.3C25.5999 45.1 25.5999 44.7 25.9999 44.7C26.2999 45.1 25.9999 45.3 25.6999 45.5C25.5999 45.5 25.4999 45.4 25.4999 45.3Z" fill="black"/>
<path d="M22.6999 46.3C22.6999 46.4 22.6999 46.6 22.6999 46.7C22.3999 46.8 22.0999 46.8 21.6999 46.9C21.6999 46.7 21.6999 46.6 21.5999 46.4C21.9999 46.4 22.2999 46.4 22.6999 46.3Z" fill="black"/>
<path d="M27.0999 46.9C27.1999 46.7 27.2999 46.6 27.4999 46.7C27.5999 46.9 27.3999 47 27.2999 47.1C27.1999 47 27.0999 47 27.0999 46.9Z" fill="black"/>
<path d="M6.5999 48.8C6.5999 48.9 6.5999 49 6.5999 49C6.3999 49 6.2999 49 6.1999 48.8C6.2999 48.6 6.3999 48.6 6.5999 48.8Z" fill="black"/>
<path d="M20.3999 21.3C20.3999 21.2 20.3999 21 20.3999 20.9C20.5999 20.8 20.7999 20.8 20.8999 20.7L20.9999 20.8C20.8999 21.1 20.5999 21.2 20.3999 21.3Z" fill="black"/>
<path d="M9.3999 26.6C9.3999 26.3 9.3999 25.9 9.3999 25.6C9.0999 25.9 9.1999 26.3 9.3999 26.6Z" fill="black"/>
<path d="M16.5999 31.7C16.7999 31.5 16.6999 31.3 16.4999 31.2C16.4999 31.3 16.5999 31.5 16.5999 31.7Z" fill="black"/>
<path d="M11.2999 28.6C10.9999 28.5 10.9999 28.2 11.0999 28C11.2999 28.1 11.2999 28.3 11.2999 28.6Z" fill="black"/>
<path d="M9.6999 27.6C9.8999 27.7 9.9999 27.9 9.9999 28.1C9.6999 28 9.6999 27.8 9.6999 27.6Z" fill="black"/>
<path d="M9.3999 27C9.5999 27.1 9.6999 27.3 9.5999 27.6C9.4999 27.4 9.3999 27.2 9.3999 27Z" fill="black"/>
<path d="M9.6999 24.6C9.7999 24.8 9.6999 25 9.4999 25.2C9.3999 25 9.4999 24.8 9.6999 24.6Z" fill="black"/>
<path d="M23.9999 32.7C23.9999 32.8 23.9999 32.9 23.9999 33C23.8999 33 23.6999 33 23.5999 32.9V32.8C23.6999 32.8 23.8999 32.8 23.9999 32.7Z" fill="black"/>
<path d="M20.3999 35.1C20.3999 35 20.4999 34.8 20.4999 34.7C20.5999 34.8 20.5999 34.8 20.6999 34.9C20.5999 35 20.4999 35 20.3999 35.1Z" fill="black"/>
<path d="M11.5999 29.1C11.4999 29 11.4999 28.8 11.3999 28.7C11.4999 28.8 11.4999 28.9 11.5999 29.1Z" fill="black"/>
<path d="M9.8999 28.1C9.9999 28.2 9.9999 28.3 10.0999 28.4C10.0999 28.3 9.9999 28.2 9.8999 28.1Z" fill="black"/>
<path d="M9.6999 24.6C9.7999 24.5 9.7999 24.4 9.8999 24.3C9.7999 24.4 9.6999 24.5 9.6999 24.6Z" fill="black"/>
<path d="M18.5999 22.4C18.6999 22.2 18.7999 22.1 18.9999 22.1C18.7999 22.2 18.6999 22.3 18.5999 22.4Z" fill="black"/>
</svg>
