<svg width="44" height="61" viewBox="0 0 44 61" fill="none" xmlns="http://www.w3.org/2000/svg">
<path d="M0.158203 10.7001C0.158203 9.84851 0.848513 9.1582 1.70005 9.1582H24.3001C25.1516 9.1582 25.8419 9.84851 25.8419 10.7001C25.8419 11.5516 25.1516 12.2419 24.3001 12.2419H1.70005C0.848513 12.2419 0.158203 11.5516 0.158203 10.7001Z" fill="black"/>
<path d="M15.1983 0.62146C15.794 0.0129594 16.7701 0.0025745 17.3786 0.598265L26.8786 9.89826C27.1813 10.1945 27.3487 10.6023 27.3417 11.0257C27.3346 11.4492 27.1537 11.8511 26.8414 12.1371L17.3414 20.8371C16.7134 21.4122 15.7381 21.3694 15.163 20.7414C14.5879 20.1134 14.6307 19.1381 15.2587 18.563L23.5578 10.9627L15.2215 2.80184C14.613 2.20615 14.6026 1.22996 15.1983 0.62146Z" fill="black"/>
<path d="M34.0001 3.9419C32.3138 3.9419 30.8854 4.44338 29.8035 5.37071C29.1569 5.92489 28.1836 5.85001 27.6294 5.20348C27.0752 4.55694 27.1501 3.58357 27.7966 3.02939C29.5147 1.55672 31.6863 0.858204 34.0001 0.858204C39.4516 0.858204 43.8419 5.24851 43.8419 10.7001C43.8419 16.1516 39.4516 20.5419 34.0001 20.5419C32.0785 20.5419 30.3269 19.9426 28.8691 19.1576C28.1193 18.7539 27.8388 17.8188 28.2425 17.0691C28.6462 16.3193 29.5813 16.0388 30.331 16.4425C31.4732 17.0575 32.7216 17.4582 34.0001 17.4582C37.7485 17.4582 40.7582 14.4485 40.7582 10.7001C40.7582 6.95159 37.7485 3.9419 34.0001 3.9419Z" fill="black"/>
<path d="M18.4001 34.3001C18.4001 34.5001 18.4001 34.6001 18.5001 34.8001C18.4001 35.1001 18.5001 35.4001 18.8001 35.6001C18.9001 35.6001 18.9001 35.7001 18.9001 35.8001C19.0001 36.0001 19.0001 36.1001 19.1001 36.3001C19.2001 36.5001 19.3001 36.7001 19.4001 36.9001C19.4001 37.2001 19.3001 37.5001 19.0001 37.6001C18.3001 37.0001 17.8001 36.3001 17.4001 35.5001C17.3001 35.4001 17.2001 35.2001 17.2001 35.1001C17.3001 34.8001 17.2001 34.6001 16.9001 34.5001C17.0001 34.2001 16.9001 34.0001 16.6001 33.8001C16.6001 33.6001 16.5001 33.5001 16.5001 33.3001C16.5001 32.9001 16.5001 32.5001 16.5001 32.1001C16.5001 31.9001 16.6001 31.8001 16.6001 31.6001C16.8001 31.4001 17.0001 31.2001 16.9001 30.9001C17.0001 30.8001 17.1001 30.6001 17.1001 30.5001C18.2001 28.6001 20.1001 27.5001 21.7001 26.2001C22.9001 25.2001 24.1001 24.3001 25.1001 23.1001C26.4001 21.5001 27.1001 19.7001 27.0001 17.6001C27.9001 18.9001 27.8001 20.3001 27.3001 21.7001C26.3001 24.3001 24.4001 26.2001 22.3001 27.9001C20.6001 29.3001 19.1001 30.7001 18.5001 32.8001C17.9001 33.3001 17.9001 33.8001 18.4001 34.3001Z" fill="black"/>
<path d="M31.2001 57.5001C26.7001 58.5001 22.2001 58.7001 17.7001 58.6001C14.5001 58.5001 11.2001 58.2001 8.00005 57.7001C7.10005 57.6001 6.30005 57.5001 5.70005 56.6001C6.40005 55.4001 7.60005 55.1001 8.80005 54.7001C8.80005 54.9001 8.80005 55.1001 8.90005 55.2001C8.70005 55.4001 8.40005 55.6001 8.70005 56.2001C10.9001 57.2001 13.4001 57.2001 15.9001 57.4001C21.0001 57.8001 26.1001 57.3001 31.2001 56.9001C31.1001 57.1001 31.1001 57.3001 31.2001 57.5001Z" fill="black"/>
<path d="M25.0001 39.9001C25.0001 39.7001 25.0001 39.5001 25.0001 39.3001C25.2001 39.0001 25.1001 38.8001 24.9001 38.7001C24.3001 37.9001 23.8001 37.1001 23.2001 36.3001C21.6001 33.9001 21.8001 31.8001 23.9001 29.7001C25.0001 28.6001 26.3001 27.7001 27.9001 27.1001C28.1001 27.2001 28.2001 27.4001 28.4001 27.5001C28.3001 27.6001 28.2001 27.7001 28.0001 27.8001C28.0001 27.9001 27.9001 27.9001 27.9001 27.9001C27.7001 27.9001 27.5001 28.0001 27.4001 28.2001C27.3001 28.3001 27.2001 28.4001 27.1001 28.4001C27.0001 28.5001 26.9001 28.6001 26.7001 28.7001C26.3001 29.1001 26.0001 29.4001 25.6001 29.8001C24.2001 31.3001 24.1001 32.5001 25.1001 34.3001C25.4001 34.7001 25.7001 35.2001 26.0001 35.6001C27.4001 37.7001 27.3001 38.7001 25.5001 40.6001C25.2001 40.5001 25.2001 40.1001 25.0001 39.9001Z" fill="black"/>
<path d="M14.2001 52.1001C14.3001 51.9001 14.4001 51.7001 14.5001 51.6001C14.7001 51.4001 15.0001 51.3001 15.1001 51.2001C18.9001 53.0001 22.7001 52.2001 26.6001 51.8001C27.1001 52.1001 27.8001 52.4001 28.4001 52.7001C25.3001 55.1001 16.0001 54.8001 14.2001 52.1001Z" fill="black"/>
<path d="M27.9001 47.1001C28.4001 47.5001 28.9001 47.6001 29.2001 48.2001C23.7001 49.3001 18.2001 50.2001 12.8001 47.9001C13.0001 46.8001 13.6001 46.6001 14.3001 46.2001C14.5001 47.5001 15.5001 47.5001 16.4001 47.6001C20.2001 48.2001 24.0001 47.8001 27.9001 47.1001Z" fill="black"/>
<path d="M29.6001 43.4001C22.9001 45.0001 16.1001 45.2001 9.40005 43.5001C10.3001 42.2001 11.6001 42.0001 12.9001 41.6001C12.9001 41.8001 12.9001 42.0001 12.9001 42.2001C12.7001 42.4001 12.6001 42.6001 12.4001 42.8001C12.8001 43.5001 13.4001 43.5001 14.0001 43.6001C18.5001 44.1001 22.9001 43.7001 27.3001 43.3001C28.1001 43.2001 28.9001 43.1001 29.7001 43.0001C29.7001 43.0001 29.6001 43.2001 29.6001 43.4001Z" fill="black"/>
<path d="M25.5001 60.7001C23.2001 60.9001 21.0001 60.9001 18.7001 60.7001C18.7001 60.5001 18.7001 60.4001 18.7001 60.2001C23.4001 60.2001 28.2001 60.1001 32.8001 59.1001C34.0001 58.9001 35.1001 58.5001 36.2001 58.2001C36.3001 58.3001 36.5001 58.5001 36.6001 58.6001C33.5001 60.2001 30.2001 60.4001 26.9001 60.6001C26.4001 60.4001 25.9001 60.2001 25.5001 60.7001Z" fill="black"/>
<path d="M35.5001 40.6001C36.9001 40.8001 37.9001 41.6001 38.2001 42.9001C38.6001 44.3001 37.8001 45.3001 36.9001 46.2001C36.3001 46.8001 35.6001 47.4001 34.8001 47.6001C34.8001 47.4001 34.8001 47.1001 34.8001 46.9001C35.2001 46.5001 35.6001 46.1001 35.9001 45.6001C37.1001 44.0001 36.9001 42.6001 35.4001 41.1001C35.4001 41.0001 35.5001 40.8001 35.5001 40.6001Z" fill="black"/>
<path d="M18.7001 60.2001C18.7001 60.4001 18.7001 60.5001 18.7001 60.7001C17.4001 60.9001 16.2001 60.4001 15.0001 60.4001C15.0001 60.2001 15.0001 60.1001 15.0001 59.9001C16.2001 60.0001 17.5001 60.1001 18.7001 60.2001Z" fill="black"/>
<path d="M32.3001 56.8001C33.4001 56.3001 34.6001 56.3001 35.6001 55.6001C35.7001 55.7001 35.8001 55.7001 35.9001 55.8001C34.9001 56.7001 33.6001 57.0001 32.3001 57.2001C32.3001 57.1001 32.3001 56.9001 32.3001 56.8001Z" fill="black"/>
<path d="M18.9001 37.5001C19.2001 37.4001 19.3001 37.1001 19.3001 36.8001C19.8001 37.5001 20.3001 38.3001 20.8001 39.0001C20.8001 39.1001 20.8001 39.3001 20.8001 39.4001C20.1001 38.9001 19.5001 38.2001 18.9001 37.5001Z" fill="black"/>
<path d="M34.8001 47.0001C34.8001 47.2001 34.8001 47.5001 34.8001 47.7001C34.4001 48.1001 33.8001 48.3001 33.2001 48.4001C33.2001 48.3001 33.2001 48.1001 33.2001 48.0001C33.8001 47.6001 34.3001 47.3001 34.8001 47.0001Z" fill="black"/>
<path d="M35.5001 40.6001C35.5001 40.8001 35.4001 41.0001 35.4001 41.2001C34.9001 41.1001 34.4001 41.0001 33.9001 40.8001C33.9001 40.7001 33.9001 40.6001 33.9001 40.5001C34.4001 40.4001 35.0001 40.2001 35.5001 40.6001Z" fill="black"/>
<path d="M28.3001 27.6001C28.1001 27.5001 28.0001 27.3001 27.8001 27.2001C28.4001 26.9001 28.9001 26.7001 29.5001 26.4001C29.5001 26.6001 29.5001 26.7001 29.5001 26.9001C29.1001 27.1001 28.7001 27.3001 28.3001 27.6001Z" fill="black"/>
<path d="M15.0001 59.9001C15.0001 60.1001 15.0001 60.2001 15.0001 60.4001C14.4001 60.3001 13.8001 60.2001 13.2001 60.1001C13.2001 60.0001 13.2001 59.9001 13.2001 59.8001C13.7001 59.8001 14.4001 59.8001 15.0001 59.9001Z" fill="black"/>
<path d="M36.7001 58.5001C36.6001 58.4001 36.4001 58.2001 36.3001 58.1001C36.7001 57.9001 37.2001 57.7001 37.6001 57.5001C37.7001 57.6001 37.7001 57.6001 37.8001 57.7001C37.5001 58.1001 37.1001 58.4001 36.7001 58.5001Z" fill="black"/>
<path d="M8.80005 55.1001C8.80005 54.9001 8.80005 54.7001 8.70005 54.6001C9.00005 54.3001 9.30005 54.3001 9.70005 54.3001C9.70005 54.5001 9.70005 54.6001 9.70005 54.8001C9.40005 54.9001 9.10005 55.0001 8.80005 55.1001Z" fill="black"/>
<path d="M25.5001 60.7001C25.9001 60.3001 26.4001 60.5001 26.9001 60.6001C26.5001 60.9001 26.0001 60.9001 25.5001 60.7001Z" fill="black"/>
<path d="M10.6001 54.0001C11.0001 53.8001 11.3001 53.7001 11.7001 54.0001C11.5001 54.6001 11.0001 54.4001 10.6001 54.4001C10.6001 54.3001 10.6001 54.2001 10.6001 54.0001Z" fill="black"/>
<path d="M20.8001 39.4001C20.8001 39.3001 20.8001 39.1001 20.8001 39.0001C21.0001 39.3001 21.3001 39.6001 21.6001 40.0001C21.1001 40.0001 20.9001 39.7001 20.8001 39.4001Z" fill="black"/>
<path d="M25.0001 39.9001C25.2001 40.1001 25.2001 40.5001 25.5001 40.6001C25.3001 41.0001 25.0001 41.2001 24.6001 41.4001C24.5001 40.8001 24.9001 40.4001 25.0001 39.9001Z" fill="black"/>
<path d="M12.8001 42.1001C12.8001 41.9001 12.8001 41.7001 12.8001 41.5001C13.1001 41.4001 13.4001 41.3001 13.7001 41.2001C13.7001 41.4001 13.7001 41.5001 13.7001 41.7001C13.4001 41.9001 13.1001 42.0001 12.8001 42.1001Z" fill="black"/>
<path d="M33.3 48.0001C33.3 48.1001 33.3 48.3001 33.3 48.4001C33.1 48.7001 32.9 48.8001 32.5 48.7001C32.4 48.2001 32.9 48.1001 33.3 48.0001Z" fill="black"/>
<path d="M14.7001 41.0001C15.0001 40.8001 15.3001 40.7001 15.7001 40.9001C15.5001 41.3001 15.1001 41.4001 14.7001 41.4001C14.7001 41.3001 14.7001 41.2001 14.7001 41.0001Z" fill="black"/>
<path d="M29.8001 42.9001C30.0001 42.5001 30.2001 42.6001 30.6001 42.6001C30.7001 43.1001 30.3001 43.0001 30.1001 43.2001C29.9001 43.1001 29.8001 43.0001 29.8001 42.9001Z" fill="black"/>
<path d="M14.7001 41.0001C14.7001 41.1001 14.7001 41.3001 14.7001 41.4001C14.4001 41.5001 14.1001 41.6001 13.8001 41.7001C13.8001 41.5001 13.8001 41.4001 13.8001 41.2001C14.0001 41.2001 14.4001 41.1001 14.7001 41.0001Z" fill="black"/>
<path d="M30.2001 26.1001C30.4001 25.9001 30.6001 25.7001 31.0001 25.8001C31.0001 26.3001 30.7001 26.2001 30.4001 26.3001C30.3001 26.2001 30.2001 26.2001 30.2001 26.1001Z" fill="black"/>
<path d="M18.4001 34.3001C18.0001 33.8001 18.0001 33.3001 18.4001 32.7001C18.4001 33.3001 18.4001 33.8001 18.4001 34.3001Z" fill="black"/>
<path d="M10.6001 54.0001C10.6001 54.1001 10.6001 54.3001 10.6001 54.4001C10.3001 54.5001 10.0001 54.6001 9.70005 54.7001C9.70005 54.5001 9.70005 54.4001 9.70005 54.2001C10.0001 54.2001 10.3001 54.1001 10.6001 54.0001Z" fill="black"/>
<path d="M35.6001 55.6001C35.7001 55.3001 35.8001 54.9001 36.2001 54.9001C36.5001 55.4001 36.2001 55.6001 35.8001 55.8001C35.8001 55.7001 35.7001 55.7001 35.6001 55.6001Z" fill="black"/>
<path d="M32.3001 56.8001C32.3001 57.0001 32.3001 57.1001 32.3001 57.3001C31.9001 57.4001 31.5001 57.5001 31.1001 57.6001C31.1001 57.4001 31.0001 57.2001 31.0001 57.0001C31.5001 56.9001 31.9001 56.8001 32.3001 56.8001Z" fill="black"/>
<path d="M37.5001 57.5001C37.6001 57.3001 37.7001 57.2001 37.9001 57.2001C38.0001 57.5001 37.8001 57.6001 37.7001 57.7001C37.7001 57.6001 37.6001 57.6001 37.5001 57.5001Z" fill="black"/>
<path d="M13.1001 59.7001C13.1001 59.8001 13.1001 59.9001 13.1001 60.0001C12.9001 60.0001 12.7001 60.0001 12.6001 59.8001C12.8001 59.4001 12.9001 59.5001 13.1001 59.7001Z" fill="black"/>
<path d="M29.5001 26.9001C29.5001 26.7001 29.5001 26.6001 29.5001 26.4001C29.7001 26.3001 29.9001 26.2001 30.1001 26.2001C30.2001 26.3001 30.2001 26.3001 30.3001 26.4001C30.2001 26.6001 29.9001 26.8001 29.5001 26.9001Z" fill="black"/>
<path d="M16.4001 32.0001C16.4001 32.4001 16.4001 32.8001 16.4001 33.2001C16.2001 32.8001 16.1001 32.4001 16.4001 32.0001Z" fill="black"/>
<path d="M24.9001 38.7001C25.2001 38.9001 25.3001 39.1001 25.0001 39.3001C25.0001 39.1001 24.9001 38.9001 24.9001 38.7001Z" fill="black"/>
<path d="M18.7001 35.6001C18.4001 35.4001 18.4001 35.2001 18.4001 34.8001C18.7001 35.0001 18.7001 35.3001 18.7001 35.6001Z" fill="black"/>
<path d="M16.8001 34.4001C17.1001 34.5001 17.2001 34.7001 17.1001 35.0001C16.9001 34.9001 16.8001 34.6001 16.8001 34.4001Z" fill="black"/>
<path d="M16.5001 33.7001C16.7001 33.9001 16.8001 34.1001 16.8001 34.4001C16.5001 34.2001 16.5001 34.0001 16.5001 33.7001Z" fill="black"/>
<path d="M16.8001 30.9001C16.9001 31.2001 16.8001 31.4001 16.5001 31.6001C16.5001 31.3001 16.5001 31.0001 16.8001 30.9001Z" fill="black"/>
<path d="M33.9001 40.5001C33.9001 40.6001 33.9001 40.7001 33.9001 40.8001C33.7001 40.8001 33.6001 40.8001 33.4001 40.7001C33.4001 40.6001 33.4001 40.6001 33.4001 40.5001C33.6001 40.6001 33.7001 40.6001 33.9001 40.5001Z" fill="black"/>
<path d="M29.6001 43.4001C29.7001 43.2001 29.7001 43.1001 29.8001 42.9001C29.9001 43.0001 29.9001 43.1001 30.0001 43.2001C29.8001 43.2001 29.7001 43.3001 29.6001 43.4001Z" fill="black"/>
<path d="M19.0001 36.2001C18.9001 36.0001 18.9001 35.9001 18.8001 35.7001C18.9001 35.9001 19.0001 36.0001 19.0001 36.2001Z" fill="black"/>
<path d="M17.0001 30.5001C16.9001 30.6001 16.8001 30.8001 16.8001 30.9001C16.9001 30.8001 16.9001 30.6001 17.0001 30.5001Z" fill="black"/>
<path d="M26.7001 28.8001C26.8001 28.7001 26.9001 28.6001 27.1001 28.5001C27.0001 28.6001 26.9001 28.7001 26.7001 28.8001Z" fill="black"/>
<path d="M27.4001 28.2001C27.5001 28.0001 27.6001 27.9001 27.9001 27.9001C27.7001 28.0001 27.6001 28.1001 27.4001 28.2001Z" fill="black"/>
</svg>
