
<!--
 ~ Copyright (c) 2025, WSO2 LLC. (https://www.wso2.com) All Rights Reserved.
 ~
 ~ WSO2 LLC. licenses this file to you under the Apache License,
 ~ Version 2.0 (the "License"); you may not use this file except
 ~ in compliance with the License.
 ~ You may obtain a copy of the License at
 ~
 ~     http://www.apache.org/licenses/LICENSE-2.0
 ~
 ~ Unless required by applicable law or agreed to in writing,
 ~ software distributed under the License is distributed on an
 ~ "AS IS" BASIS, WITHOUT WARRANTIES OR CONDITIONS OF ANY
 ~ KIND, either express or implied. See the License for the
 ~ specific language governing permissions and limitations
 ~ under the License.
-->
<svg width="15" height="13" viewBox="0 0 15 13" fill="none" xmlns="http://www.w3.org/2000/svg">
<path d="M11.5171 1.41711C11.6733 1.2609 11.9266 1.2609 12.0828 1.41711L13.9828 3.31711C14.0591 3.39345 14.1014 3.4974 14.0999 3.60536C14.0985 3.71331 14.0534 3.81608 13.975 3.89033L12.075 5.69033C11.9147 5.84226 11.6615 5.83542 11.5096 5.67505C11.3576 5.51468 11.3645 5.2615 11.5249 5.10957L13.1265 3.5922L11.5171 1.98279C11.3609 1.82658 11.3609 1.57332 11.5171 1.41711Z" fill="black"/>
<path d="M10.2 3.59995C10.2 3.37904 10.379 3.19995 10.6 3.19995H13.4C13.6209 3.19995 13.8 3.37904 13.8 3.59995C13.8 3.82086 13.6209 3.99995 13.4 3.99995H10.6C10.379 3.99995 10.2 3.82086 10.2 3.59995Z" fill="black"/>
<path d="M2.39995 11.4C2.39995 11.4666 2.39995 11.5666 2.39995 11.7C2.33328 11.7666 2.29995 11.8333 2.29995 11.9C2.29995 11.9666 2.26662 12.0333 2.19995 12.1C2.13328 12.2333 2.06662 12.3 1.99995 12.3C1.93328 12.3666 1.83328 12.4333 1.69995 12.5C1.56662 12.5 1.43328 12.5 1.29995 12.5C1.16662 12.5 1.03328 12.5 0.899951 12.5C0.766618 12.4333 0.633285 12.3666 0.499951 12.3C0.433285 12.2333 0.366618 12.1333 0.299951 12C0.233285 11.8666 0.199951 11.7 0.199951 11.5V11.3H0.899951V11.4C0.899951 11.4666 0.899951 11.5333 0.899951 11.6C0.899951 11.6666 0.899951 11.7333 0.899951 11.8C0.966618 11.8666 1.03328 11.9 1.09995 11.9C1.09995 11.9 1.16662 11.9 1.29995 11.9C1.36662 11.9 1.43328 11.9 1.49995 11.9C1.56662 11.8333 1.59995 11.8 1.59995 11.8C1.59995 11.7333 1.59995 11.6666 1.59995 11.6C1.66662 11.5333 1.69995 11.4666 1.69995 11.4V9.19995H2.39995V11.4Z" fill="black"/>
<path d="M3.69995 11.4C3.69995 11.4666 3.73328 11.5666 3.79995 11.7C3.79995 11.7666 3.83328 11.8 3.89995 11.8C3.96662 11.8666 4.06662 11.9 4.19995 11.9C4.26662 11.9666 4.33328 12 4.39995 12C4.46662 12 4.53328 12 4.59995 12C4.66662 12 4.73328 11.9666 4.79995 11.9C4.86662 11.9 4.93328 11.8666 4.99995 11.8C5.06662 11.7333 5.09995 11.6666 5.09995 11.6C5.09995 11.4666 5.06662 11.4 4.99995 11.4C4.93328 11.3333 4.86662 11.2666 4.79995 11.2C4.66662 11.2 4.53328 11.1666 4.39995 11.1C4.33328 11.1 4.23328 11.0666 4.09995 11C3.96662 11 3.83328 10.9666 3.69995 10.9C3.63328 10.9 3.53328 10.8666 3.39995 10.8C3.33328 10.7333 3.26662 10.6333 3.19995 10.5C3.13328 10.3666 3.09995 10.2333 3.09995 10.1C3.09995 9.96662 3.13328 9.83328 3.19995 9.69995C3.26662 9.56662 3.36662 9.46662 3.49995 9.39995C3.63328 9.33328 3.76662 9.26662 3.89995 9.19995C4.03328 9.13328 4.16662 9.09995 4.29995 9.09995C4.49995 9.09995 4.66662 9.13328 4.79995 9.19995C4.99995 9.19995 5.13328 9.26662 5.19995 9.39995C5.33328 9.46662 5.43328 9.56662 5.49995 9.69995C5.56662 9.83328 5.59995 9.99995 5.59995 10.2H4.99995C4.93328 10.0666 4.89995 9.96662 4.89995 9.89995C4.83328 9.83328 4.79995 9.79995 4.79995 9.79995C4.73328 9.73328 4.66662 9.69995 4.59995 9.69995C4.46662 9.69995 4.36662 9.69995 4.29995 9.69995C4.23328 9.69995 4.16662 9.69995 4.09995 9.69995C4.03328 9.69995 3.99995 9.73328 3.99995 9.79995C3.93328 9.79995 3.89995 9.83328 3.89995 9.89995C3.83328 9.96662 3.79995 10.0333 3.79995 10.1C3.79995 10.1666 3.83328 10.2 3.89995 10.2C3.89995 10.2666 3.93328 10.3 3.99995 10.3C4.06662 10.3666 4.16662 10.4 4.29995 10.4C4.43328 10.4666 4.59995 10.5 4.79995 10.5C4.79995 10.5666 4.83328 10.6 4.89995 10.6C4.96662 10.6 5.03328 10.6333 5.09995 10.7C5.23328 10.7 5.33328 10.7333 5.39995 10.8C5.46662 10.8 5.53328 10.8333 5.59995 10.9C5.59995 10.9666 5.63328 11.0666 5.69995 11.2C5.76662 11.2666 5.79995 11.3666 5.79995 11.5C5.79995 11.6333 5.76662 11.7666 5.69995 11.9C5.63328 12.0333 5.53328 12.1333 5.39995 12.2C5.26662 12.3333 5.13328 12.4333 4.99995 12.5C4.79995 12.5 4.59995 12.5 4.39995 12.5C4.19995 12.5 4.03328 12.5 3.89995 12.5C3.69995 12.4333 3.53328 12.3666 3.39995 12.3C3.26662 12.1666 3.16662 12.0333 3.09995 11.9C3.03328 11.7666 2.99995 11.6 2.99995 11.4H3.69995Z" fill="black"/>
<path d="M6.39995 10.2C6.46662 9.99995 6.56662 9.79995 6.69995 9.59995C6.83328 9.46662 6.99995 9.36662 7.19995 9.29995C7.39995 9.16662 7.63328 9.09995 7.89995 9.09995C8.09995 9.09995 8.29995 9.16662 8.49995 9.29995C8.69995 9.36662 8.86662 9.46662 8.99995 9.59995C9.13328 9.79995 9.23328 9.99995 9.29995 10.2C9.43328 10.4 9.49995 10.6 9.49995 10.8C9.49995 11.0666 9.43328 11.3 9.29995 11.5C9.23328 11.7 9.13328 11.8666 8.99995 12C8.86662 12.2 8.69995 12.3333 8.49995 12.4C8.29995 12.4666 8.09995 12.5 7.89995 12.5C7.63328 12.5 7.39995 12.4666 7.19995 12.4C6.99995 12.3333 6.83328 12.2 6.69995 12C6.56662 11.8666 6.46662 11.7 6.39995 11.5C6.33328 11.3 6.29995 11.0666 6.29995 10.8C6.29995 10.6 6.33328 10.4 6.39995 10.2ZM6.99995 11.2C7.06662 11.3333 7.13328 11.4666 7.19995 11.6C7.26662 11.7333 7.33328 11.8 7.39995 11.8C7.53328 11.8666 7.69995 11.9 7.89995 11.9C8.03328 11.9 8.16662 11.8666 8.29995 11.8C8.36662 11.8 8.43328 11.7333 8.49995 11.6C8.56662 11.4666 8.63328 11.3333 8.69995 11.2C8.69995 11.1333 8.69995 11 8.69995 10.8C8.69995 10.6666 8.69995 10.5333 8.69995 10.4C8.63328 10.2666 8.56662 10.1666 8.49995 10.1C8.43328 9.96662 8.36662 9.86662 8.29995 9.79995C8.16662 9.73328 8.03328 9.69995 7.89995 9.69995C7.69995 9.69995 7.53328 9.73328 7.39995 9.79995C7.33328 9.86662 7.26662 9.96662 7.19995 10.1C7.13328 10.1666 7.06662 10.2666 6.99995 10.4C6.99995 10.5333 6.99995 10.6666 6.99995 10.8C6.99995 11 6.99995 11.1333 6.99995 11.2Z" fill="black"/>
<path d="M10.2 9.19995H10.9L12.2 11.4V9.19995H12.9V12.5H12.2L10.8 10.3V12.5H10.2V9.19995Z" fill="black"/>
<path d="M5.39995 1.39995C5.39995 1.69995 5.19995 1.99995 4.89995 1.99995C4.59995 1.99995 4.39995 1.69995 4.39995 1.39995C4.39995 1.19995 4.59995 0.899951 4.89995 0.899951C5.19995 0.899951 5.39995 1.19995 5.39995 1.39995Z" fill="black"/>
<path d="M5.39995 4.19995L4.89995 5.69995C4.79995 5.89995 4.59995 5.99995 4.39995 5.99995C4.33328 5.99995 4.26662 5.99995 4.19995 5.99995C3.99995 5.89995 3.79995 5.59995 3.89995 5.39995L4.39995 3.89995C4.49995 3.59995 4.79995 3.49995 5.09995 3.59995C5.39995 3.69995 5.49995 3.99995 5.39995 4.19995Z" fill="black"/>
<path d="M9.29995 3.19995H9.49995V3.99995H9.29995C9.16662 3.99995 9.06662 4.03328 8.99995 4.09995C8.93328 4.16662 8.89995 4.26662 8.89995 4.39995V5.49995C8.89995 5.89995 8.76662 6.23328 8.49995 6.49995C8.29995 6.76662 7.99995 6.89995 7.59995 6.89995C7.33328 6.89995 7.09995 6.83328 6.89995 6.69995V5.99995C7.03328 6.06662 7.19995 6.09995 7.39995 6.09995C7.66662 6.09995 7.79995 5.93328 7.79995 5.59995V4.39995C7.79995 4.19995 7.86662 4.03328 7.99995 3.89995C8.06662 3.76662 8.23328 3.63328 8.49995 3.49995C8.23328 3.43328 8.06662 3.33328 7.99995 3.19995C7.86662 3.13328 7.79995 2.96662 7.79995 2.69995V1.49995C7.79995 1.16662 7.66662 0.999951 7.39995 0.999951C7.19995 0.999951 7.03328 1.03328 6.89995 1.09995V0.399951C7.09995 0.333285 7.33328 0.266618 7.59995 0.199951C7.99995 0.199951 8.29995 0.333285 8.49995 0.599951C8.76662 0.866618 8.89995 1.19995 8.89995 1.59995V2.69995C8.89995 2.83328 8.93328 2.93328 8.99995 2.99995C9.06662 3.13328 9.16662 3.19995 9.29995 3.19995Z" fill="black"/>
<path d="M2.29995 0.199951C2.49995 0.266618 2.69995 0.333285 2.89995 0.399951V1.09995C2.76662 1.03328 2.63328 0.999951 2.49995 0.999951C2.16662 0.999951 1.99995 1.16662 1.99995 1.49995V2.69995C1.99995 2.89995 1.96662 3.06662 1.89995 3.19995C1.76662 3.33328 1.56662 3.43328 1.29995 3.49995C1.56662 3.63328 1.76662 3.76662 1.89995 3.89995C1.96662 4.03328 1.99995 4.19995 1.99995 4.39995V5.59995C1.99995 5.93328 2.16662 6.09995 2.49995 6.09995C2.63328 6.09995 2.76662 6.06662 2.89995 5.99995V6.69995C2.69995 6.83328 2.49995 6.89995 2.29995 6.89995C1.89995 6.89995 1.56662 6.76662 1.29995 6.49995C1.09995 6.23328 0.999951 5.89995 0.999951 5.49995V4.39995C0.999951 4.26662 0.966618 4.16662 0.899951 4.09995C0.766618 4.03328 0.633285 3.99995 0.499951 3.99995H0.399951V3.19995H0.499951C0.633285 3.19995 0.766618 3.13328 0.899951 2.99995C0.966618 2.93328 0.999951 2.83328 0.999951 2.69995V1.59995C0.999951 1.19995 1.09995 0.866618 1.29995 0.599951C1.56662 0.333285 1.89995 0.199951 2.29995 0.199951Z" fill="black"/>
</svg>
