<svg width="41" height="61" viewBox="0 0 41 61" fill="none" xmlns="http://www.w3.org/2000/svg">
<path d="M1.19995 10C1.19995 9.1716 1.87152 8.50002 2.69995 8.50002H23C23.8284 8.50002 24.5 9.1716 24.5 10C24.5 10.8285 23.8284 11.5 23 11.5H2.69995C1.87152 11.5 1.19995 10.8285 1.19995 10Z" fill="black"/>
<path d="M14.833 0.845659C15.4153 0.256417 16.3651 0.250797 16.9543 0.833107L25.4543 9.23311C25.7451 9.52051 25.906 9.91418 25.8998 10.323C25.8935 10.7318 25.7206 11.1204 25.4211 11.3988L16.9211 19.2988C16.3143 19.8627 15.3652 19.828 14.8012 19.2212C14.2372 18.6144 14.272 17.6653 14.8788 17.1013L22.2323 10.2668L14.8456 2.96694C14.2563 2.38463 14.2507 1.4349 14.833 0.845659Z" fill="black"/>
<path d="M31.9 4.10002C30.4477 4.10002 29.1661 4.58008 28.1145 5.38896C27.4579 5.89406 26.5161 5.77122 26.011 5.11459C25.5059 4.45796 25.6288 3.51619 26.2854 3.01109C27.8338 1.81997 29.7522 1.10002 31.9 1.10002C36.8284 1.10002 40.9 5.1716 40.9 10.1C40.9 15.0285 36.8284 19.1 31.9 19.1C30.2306 19.1 28.5484 18.627 27.1946 17.7655C26.4957 17.3208 26.2897 16.3936 26.7345 15.6947C27.1792 14.9958 28.1064 14.7898 28.8053 15.2345C29.6515 15.773 30.7693 16.1 31.9 16.1C35.1715 16.1 37.9 13.3716 37.9 10.1C37.9 6.82845 35.1715 4.10002 31.9 4.10002Z" fill="black"/>
<path d="M21.7976 41.3727C20.1017 41.3727 18.5868 42.1234 17.5478 43.3032L14.8867 41.4196C15.1682 40.642 15.3291 39.8041 15.3291 38.9327C15.3291 38.0747 15.1749 37.2502 14.9001 36.486L17.5612 34.6225C18.6002 35.7956 20.1151 36.5463 21.8043 36.5463C24.928 36.5463 27.4752 34.0058 27.4752 30.8754C27.4752 27.745 24.9347 25.2045 21.8043 25.2045C18.6739 25.2045 16.1267 27.745 16.1267 30.8687C16.1267 31.4251 16.2139 31.9681 16.3614 32.4775L13.7002 34.341C12.5875 32.9601 10.9921 32.0016 9.16884 31.7066V28.5025C11.7362 27.9662 13.6734 25.6805 13.6734 22.959C13.6734 19.8353 11.1329 17.288 8.00249 17.288C4.8721 17.288 2.3316 19.8286 2.3316 22.959C2.3316 25.6469 4.21519 27.8992 6.73559 28.4824V31.7267C3.30356 32.33 0.682617 35.3264 0.682617 38.9327C0.682617 42.5524 3.33037 45.5622 6.78921 46.1453V49.5774C4.24871 50.1337 2.3383 52.4061 2.3383 55.1142C2.3383 58.2379 4.87881 60.7851 8.00919 60.7851C11.1396 60.7851 13.6801 58.2446 13.6801 55.1142C13.6801 52.4061 11.7697 50.1404 9.22917 49.5774V46.1453C11.0189 45.8437 12.5875 44.8985 13.6868 43.5512L16.3681 45.4482C16.2206 45.9576 16.1334 46.4872 16.1334 47.0436C16.1334 50.1673 18.6739 52.7145 21.8043 52.7145C24.9347 52.7145 27.4752 50.174 27.4752 47.0436C27.4618 43.9199 24.9213 41.3727 21.7976 41.3727ZM21.7976 28.1204C23.3125 28.1204 24.5459 29.3538 24.5459 30.8687C24.5459 32.3837 23.3125 33.617 21.7976 33.617C20.2827 33.617 19.0493 32.3837 19.0493 30.8687C19.0493 29.3538 20.2827 28.1204 21.7976 28.1204ZM5.25418 22.959C5.25418 21.444 6.48757 20.2106 8.00249 20.2106C9.51741 20.2106 10.7508 21.444 10.7508 22.959C10.7508 24.4739 9.51741 25.7073 8.00249 25.7073C6.48757 25.7073 5.25418 24.4739 5.25418 22.959ZM10.7508 55.1075C10.7508 56.6224 9.51741 57.8558 8.00249 57.8558C6.48757 57.8558 5.25418 56.6224 5.25418 55.1075C5.25418 53.5926 6.48757 52.3592 8.00249 52.3592C9.51741 52.3592 10.7508 53.5926 10.7508 55.1075ZM8.00249 42.7602C5.89099 42.7602 4.16827 41.0442 4.16827 38.926C4.16827 36.8145 5.89099 35.0918 8.00249 35.0918C10.114 35.0918 11.8367 36.8145 11.8367 38.926C11.8367 41.0442 10.114 42.7602 8.00249 42.7602ZM21.7976 49.7919C20.2827 49.7919 19.0493 48.5585 19.0493 47.0436C19.0493 45.5286 20.2827 44.2952 21.7976 44.2952C23.3125 44.2952 24.5459 45.5286 24.5459 47.0436C24.5459 48.5585 23.3125 49.7919 21.7976 49.7919Z" fill="black"/>
</svg>
