<!--
 ~ Copyright (c) 2025, WSO2 LLC. (https://www.wso2.com) All Rights Reserved.
 ~
 ~ WSO2 LLC. licenses this file to you under the Apache License,
 ~ Version 2.0 (the "License"); you may not use this file except
 ~ in compliance with the License.
 ~ You may obtain a copy of the License at
 ~
 ~     http://www.apache.org/licenses/LICENSE-2.0
 ~
 ~ Unless required by applicable law or agreed to in writing,
 ~ software distributed under the License is distributed on an
 ~ "AS IS" BASIS, WITHOUT WARRANTIES OR CONDITIONS OF ANY
 ~ KIND, either express or implied. See the License for the
 ~ specific language governing permissions and limitations
 ~ under the License.
-->
<svg xmlns="http://www.w3.org/2000/svg" width="24" height="24" viewBox="0 0 24 24">
    <path fill="black"
        d="m13.691 15.778l-.63-.49a2 2 0 0 0 .023-.288a1.6 1.6 0 0 0-.024-.289l.625-.49a.15.15 0 0 0 .036-.188l-.59-1.02a.15.15 0 0 0-.183-.065l-.73.295a2 2 0 0 0-.502-.289l-.112-.778a.14.14 0 0 0-.141-.124h-1.18a.15.15 0 0 0-.147.124l-.112.778a2.4 2.4 0 0 0-.5.29l-.732-.296a.154.154 0 0 0-.183.065l-.59 1.02a.146.146 0 0 0 .036.189l.625.49a2.4 2.4 0 0 0 0 .577l-.625.49a.15.15 0 0 0-.035.188l.59 1.02a.15.15 0 0 0 .182.065l.731-.295a2 2 0 0 0 .501.289l.112.778a.15.15 0 0 0 .148.124h1.179a.15.15 0 0 0 .147-.124l.112-.778a2.2 2.2 0 0 0 .495-.29l.737.296a.154.154 0 0 0 .183-.065l.59-1.02a.15.15 0 0 0-.036-.189m-2.818.106a.884.884 0 1 1 .885-.884a.883.883 0 0 1-.885.884" />
    <path fill="black"
        d="M14 2H6a2.006 2.006 0 0 0-2 2v16a2.006 2.006 0 0 0 2 2h12a2.006 2.006 0 0 0 2-2V8Zm4 18H6V4h7v5h5Z" />
</svg>
