<svg width="56" height="62" viewBox="0 0 56 62" fill="none" xmlns="http://www.w3.org/2000/svg">
<path fill-rule="evenodd" clip-rule="evenodd" d="M16.7 25.2C13.4967 25.2 10.9 27.7968 10.9 31C10.9 34.2033 13.4967 36.8 16.7 36.8C19.9033 36.8 22.5 34.2033 22.5 31C22.5 27.7968 19.9033 25.2 16.7 25.2ZM7.9 31C7.9 26.1399 11.8399 22.2 16.7 22.2C21.5601 22.2 25.5 26.1399 25.5 31C25.5 35.8601 21.5601 39.8 16.7 39.8C11.8399 39.8 7.9 35.8601 7.9 31Z" fill="black"/>
<path fill-rule="evenodd" clip-rule="evenodd" d="M0 31C0 30.1716 0.671573 29.5 1.5 29.5H16.7C17.5284 29.5 18.2 30.1716 18.2 31C18.2 31.8285 17.5284 32.5 16.7 32.5H1.5C0.671573 32.5 0 31.8285 0 31Z" fill="black"/>
<path fill-rule="evenodd" clip-rule="evenodd" d="M47.2 3.40002C43.9967 3.40002 41.4 5.99677 41.4 9.20002C41.4 12.4033 43.9967 15 47.2 15C50.4033 15 53 12.4033 53 9.20002C53 5.99677 50.4033 3.40002 47.2 3.40002ZM38.4 9.20002C38.4 4.33992 42.3399 0.400024 47.2 0.400024C52.0601 0.400024 56 4.33992 56 9.20002C56 14.0601 52.0601 18 47.2 18C42.3399 18 38.4 14.0601 38.4 9.20002Z" fill="black"/>
<path fill-rule="evenodd" clip-rule="evenodd" d="M30.7701 8.34139C31.0506 7.93949 31.5099 7.70002 32 7.70002H47.2C48.0284 7.70002 48.7 8.3716 48.7 9.20002C48.7 10.0285 48.0284 10.7 47.2 10.7H32.7822L22.1299 25.9587C21.6557 26.6379 20.7206 26.8042 20.0414 26.33C19.3621 25.8558 19.1959 24.9207 19.6701 24.2414L30.7701 8.34139Z" fill="black"/>
<path fill-rule="evenodd" clip-rule="evenodd" d="M47.2 25.2C43.9967 25.2 41.4 27.7968 41.4 31C41.4 34.2033 43.9967 36.8 47.2 36.8C50.4033 36.8 53 34.2033 53 31C53 27.7968 50.4033 25.2 47.2 25.2ZM38.4 31C38.4 26.1399 42.3399 22.2 47.2 22.2C52.0601 22.2 56 26.1399 56 31C56 35.8601 52.0601 39.8 47.2 39.8C42.3399 39.8 38.4 35.8601 38.4 31Z" fill="black"/>
<path fill-rule="evenodd" clip-rule="evenodd" d="M22.5 31C22.5 30.1716 23.1716 29.5 24 29.5H47.2C48.0284 29.5 48.7 30.1716 48.7 31C48.7 31.8285 48.0284 32.5 47.2 32.5H24C23.1716 32.5 22.5 31.8285 22.5 31Z" fill="black"/>
<path fill-rule="evenodd" clip-rule="evenodd" d="M47.2 47C43.9967 47 41.4 49.5968 41.4 52.8C41.4 56.0033 43.9967 58.6 47.2 58.6C50.4033 58.6 53 56.0033 53 52.8C53 49.5968 50.4033 47 47.2 47ZM38.4 52.8C38.4 47.9399 42.3399 44 47.2 44C52.0601 44 56 47.9399 56 52.8C56 57.6601 52.0601 61.6 47.2 61.6C42.3399 61.6 38.4 57.6601 38.4 52.8Z" fill="black"/>
<path fill-rule="evenodd" clip-rule="evenodd" d="M20.0414 35.6701C20.7206 35.1959 21.6557 35.3621 22.1299 36.0414L32.7822 51.3H47.2C48.0284 51.3 48.7 51.9716 48.7 52.8C48.7 53.6284 48.0284 54.3 47.2 54.3H32C31.5099 54.3 31.0506 54.0606 30.7701 53.6587L19.6701 37.7587C19.1959 37.0794 19.3621 36.1443 20.0414 35.6701Z" fill="black"/>
</svg>
