<?xml version="1.0" standalone="no"?>
<!DOCTYPE svg PUBLIC "-//W3C//DTD SVG 20010904//EN"
 "http://www.w3.org/TR/2001/REC-SVG-20010904/DTD/svg10.dtd">
<svg version="1.0" xmlns="http://www.w3.org/2000/svg"
 width="512.000000pt" height="512.000000pt" viewBox="0 0 512.000000 512.000000"
 preserveAspectRatio="xMidYMid meet">

<g transform="translate(0.000000,512.000000) scale(0.100000,-0.100000)"
fill="#000000" stroke="none">
<path d="M646 4625 c-57 -20 -108 -66 -138 -125 l-28 -52 0 -347 c0 -326 2
-349 21 -391 25 -55 62 -95 114 -123 40 -22 41 -22 960 -27 l920 -5 3 -415 2
-415 -52 -19 c-69 -24 -150 -105 -174 -175 l-19 -51 -695 0 -695 1 -18 -22
c-16 -20 -17 -63 -17 -590 l0 -569 -163 0 c-146 0 -166 -2 -180 -18 -15 -17
-17 -59 -17 -405 l0 -386 22 -15 c19 -14 74 -16 396 -16 l373 0 25 25 25 25
-3 379 c-2 295 -6 383 -16 393 -9 9 -60 15 -170 18 l-157 5 -3 523 -2 522 495
0 495 0 -2 -522 -3 -523 -167 -5 c-118 -4 -171 -9 -180 -18 -10 -10 -14 -98
-16 -393 l-3 -379 25 -25 25 -25 373 0 c322 0 377 2 396 16 l22 15 0 388 c0
363 -1 389 -18 404 -16 14 -43 17 -170 17 l-152 0 0 525 0 525 88 0 88 0 23
-55 c28 -68 110 -146 177 -169 26 -9 77 -16 113 -16 122 0 224 69 278 187 l24
53 95 0 94 0 0 -525 0 -525 -164 0 c-159 0 -165 -1 -180 -22 -14 -19 -16 -74
-16 -396 l0 -373 25 -24 24 -25 376 0 c362 0 376 1 395 20 19 19 20 33 20 403
0 359 -1 385 -18 400 -16 14 -43 17 -175 17 l-157 0 0 525 0 525 490 0 490 0
0 -525 0 -525 -158 0 c-141 0 -161 -2 -175 -18 -15 -17 -17 -59 -17 -398 0
-208 4 -384 8 -390 21 -31 54 -34 415 -34 353 0 365 1 391 21 l26 20 0 378 c0
325 -2 380 -16 399 -15 21 -21 22 -175 22 l-159 0 0 569 c0 527 -1 570 -18
590 l-17 22 -702 -1 -701 0 -12 34 c-28 87 -106 165 -192 197 l-38 13 0 418 0
418 913 0 913 0 53 27 c55 27 105 84 128 146 8 22 12 137 12 367 1 332 1 335
-23 386 -13 28 -40 67 -61 87 -74 72 80 67 -2004 67 -1569 -1 -1882 -3 -1915
-15z m3812 -135 c59 -36 62 -56 62 -390 0 -334 -3 -354 -62 -390 -33 -20 -45
-20 -1894 -20 l-1861 0 -34 23 c-58 39 -59 42 -59 387 0 345 1 348 59 387 l34
23 1861 0 c1849 0 1861 0 1894 -20z m-1808 -1915 c66 -34 106 -131 86 -209 -9
-36 -65 -96 -103 -112 -74 -31 -169 -5 -214 57 -24 34 -37 117 -25 163 9 37
55 87 101 108 45 21 106 18 155 -7z m-1472 -1692 l-3 -288 -287 -3 -288 -2 0
290 0 290 290 0 290 0 -2 -287z m1112 -3 l0 -290 -287 2 -288 3 -3 288 -2 287
290 0 290 0 0 -290z m1120 0 l0 -290 -290 0 -290 0 0 290 0 290 290 0 290 0 0
-290z m1120 0 l0 -290 -290 0 -290 0 0 290 0 290 290 0 290 0 0 -290z"/>
<path d="M1151 4379 c-132 -26 -220 -136 -221 -274 0 -120 59 -213 169 -263
45 -21 64 -24 125 -20 83 6 134 29 188 85 71 73 97 183 67 283 -39 130 -190
217 -328 189z m137 -149 c66 -41 90 -124 56 -196 -35 -73 -133 -105 -204 -66
-138 75 -87 282 70 282 27 0 58 -8 78 -20z"/>
<path d="M3893 4320 c-38 -15 -43 -41 -43 -224 0 -163 2 -178 20 -196 25 -25
72 -26 93 -2 15 16 17 45 17 203 0 101 -4 189 -8 195 -6 10 -47 35 -54 33 -2
0 -13 -4 -25 -9z"/>
<path d="M4120 4322 c-8 -2 -23 -11 -32 -20 -16 -13 -18 -36 -18 -202 0 -208
4 -220 68 -220 56 0 62 21 62 226 0 160 -2 183 -17 196 -23 19 -44 26 -63 20z"/>
<path d="M1925 4145 c-30 -29 -32 -58 -5 -85 20 -20 33 -20 698 -20 645 0 680
1 695 18 23 25 21 68 -3 92 -20 20 -33 20 -690 20 l-671 0 -24 -25z"/>
<path d="M685 1035 c-30 -29 -32 -58 -5 -85 19 -19 33 -20 208 -20 170 0 191
2 205 18 18 19 22 59 9 78 -19 28 -56 34 -222 34 -168 0 -171 0 -195 -25z"/>
<path d="M681 814 c-12 -15 -21 -32 -21 -39 0 -7 9 -24 21 -39 l20 -26 185 0
c171 0 185 1 204 20 11 11 20 31 20 45 0 14 -9 34 -20 45 -19 19 -33 20 -204
20 l-185 0 -20 -26z"/>
<path d="M1806 1039 c-29 -23 -33 -54 -10 -87 15 -21 20 -22 209 -22 189 0
194 1 209 22 22 32 20 55 -9 83 -24 25 -27 25 -198 25 -161 0 -176 -2 -201
-21z"/>
<path d="M1800 820 c-11 -11 -20 -31 -20 -45 0 -14 9 -34 20 -45 19 -19 33
-20 205 -20 172 0 186 1 205 20 26 26 25 60 0 88 -20 21 -28 22 -205 22 -172
0 -186 -1 -205 -20z"/>
<path d="M2920 1040 c-25 -25 -26 -72 -2 -93 16 -15 45 -17 203 -17 199 0 213
3 224 52 5 21 1 33 -19 52 -25 26 -25 26 -206 26 -167 0 -181 -1 -200 -20z"/>
<path d="M2920 820 c-11 -11 -20 -31 -20 -45 0 -14 9 -34 20 -45 19 -19 33
-20 204 -20 l185 0 20 26 c12 15 21 32 21 39 0 7 -9 24 -21 39 l-20 26 -185 0
c-171 0 -185 -1 -204 -20z"/>
<path d="M4042 1044 c-28 -19 -30 -74 -4 -97 16 -15 45 -17 204 -17 206 0 218
4 218 68 0 56 -22 62 -220 62 -143 0 -180 -3 -198 -16z"/>
<path d="M4037 822 c-22 -25 -21 -75 1 -95 16 -15 45 -17 204 -17 166 0 187 2
201 18 22 25 21 75 -1 95 -16 15 -45 17 -204 17 -166 0 -187 -2 -201 -18z"/>
</g>
</svg>
