<!--
 ~ Copyright (c) 2025, WSO2 LLC. (https://www.wso2.com) All Rights Reserved.
 ~
 ~ WSO2 LLC. licenses this file to you under the Apache License,
 ~ Version 2.0 (the "License"); you may not use this file except
 ~ in compliance with the License.
 ~ You may obtain a copy of the License at
 ~
 ~     http://www.apache.org/licenses/LICENSE-2.0
 ~
 ~ Unless required by applicable law or agreed to in writing,
 ~ software distributed under the License is distributed on an
 ~ "AS IS" BASIS, WITHOUT WARRANTIES OR CONDITIONS OF ANY
 ~ KIND, either express or implied. See the License for the
 ~ specific language governing permissions and limitations
 ~ under the License.
-->
<svg width="12" height="14" viewBox="0 0 12 14" fill="none" xmlns="http://www.w3.org/2000/svg">
<path fill-rule="evenodd" clip-rule="evenodd" d="M0.5 0.9C0.5 0.679086 0.679086 0.5 0.9 0.5H10.9C11.1209 0.5 11.3 0.679086 11.3 0.9V13C11.3 13.2209 11.1209 13.4 10.9 13.4H0.9C0.679086 13.4 0.5 13.2209 0.5 13V0.9ZM1.3 1.3V12.6H10.5V1.3H1.3Z" fill="black"/>
<path fill-rule="evenodd" clip-rule="evenodd" d="M3.2 3.1C3.2 2.87909 3.37909 2.7 3.6 2.7H5.9C6.12091 2.7 6.3 2.87909 6.3 3.1V5.4C6.3 5.62091 6.12091 5.8 5.9 5.8H3.6C3.37909 5.8 3.2 5.62091 3.2 5.4V3.1ZM4 3.5V5H5.5V3.5H4Z" fill="black"/>
</svg>
