<!--
 ~ Copyright (c) 2025, WSO2 LLC. (https://www.wso2.com) All Rights Reserved.
 ~
 ~ WSO2 LLC. licenses this file to you under the Apache License,
 ~ Version 2.0 (the "License"); you may not use this file except
 ~ in compliance with the License.
 ~ You may obtain a copy of the License at
 ~
 ~     http://www.apache.org/licenses/LICENSE-2.0
 ~
 ~ Unless required by applicable law or agreed to in writing,
 ~ software distributed under the License is distributed on an
 ~ "AS IS" BASIS, WITHOUT WARRANTIES OR CONDITIONS OF ANY
 ~ KIND, either express or implied. See the License for the
 ~ specific language governing permissions and limitations
 ~ under the License.
-->
<svg width="14" height="15" viewBox="0 0 14 15" fill="none" xmlns="http://www.w3.org/2000/svg">
<path d="M0.5 10.8C0.5 10.579 0.679086 10.4 0.9 10.4H8.3C8.52091 10.4 8.7 10.579 8.7 10.8C8.7 11.0209 8.52091 11.2 8.3 11.2H0.9C0.679086 11.2 0.5 11.0209 0.5 10.8Z" fill="black"/>
<path d="M0.5 14C0.5 13.779 0.679086 13.6 0.9 13.6H7.5C7.72091 13.6 7.9 13.779 7.9 14C7.9 14.2209 7.72091 14.4 7.5 14.4H0.9C0.679086 14.4 0.5 14.2209 0.5 14Z" fill="black"/>
<path d="M0.5 1.09995C0.5 0.879037 0.679086 0.699951 0.9 0.699951H13.1C13.3209 0.699951 13.5 0.879037 13.5 1.09995C13.5 1.32087 13.3209 1.49995 13.1 1.49995H0.9C0.679086 1.49995 0.5 1.32087 0.5 1.09995Z" fill="black"/>
<path d="M0.5 4.29995C0.5 4.07904 0.679086 3.89995 0.9 3.89995H13.1C13.3209 3.89995 13.5 4.07904 13.5 4.29995C13.5 4.52087 13.3209 4.69995 13.1 4.69995H0.9C0.679086 4.69995 0.5 4.52087 0.5 4.29995Z" fill="black"/>
<path d="M0.5 7.59995C0.5 7.37904 0.679086 7.19995 0.9 7.19995H10.1C10.3209 7.19995 10.5 7.37904 10.5 7.59995C10.5 7.82086 10.3209 7.99995 10.1 7.99995H0.9C0.679086 7.99995 0.5 7.82086 0.5 7.59995Z" fill="black"/>
<path d="M12.5924 5.84901C13.3723 6.248 13.6696 7.19134 13.2445 7.90318L10.7458 12.201C10.6349 12.3917 10.3905 12.4567 10.1996 12.3461L8.29959 11.2461C8.11052 11.1367 8.04425 10.8958 8.15072 10.705L10.5568 6.39405C10.9596 5.72281 11.8908 5.43874 12.5924 5.84901ZM11.2459 6.80103L9.04118 10.7511L10.2549 11.4537L12.557 7.49413C12.7272 7.21036 12.6302 6.76228 12.2211 6.55772C12.212 6.55314 12.203 6.54821 12.1942 6.54295C11.8987 6.36564 11.4421 6.48015 11.2459 6.80103Z" fill="black"/>
<path d="M8.57845 10.6077C8.79507 10.651 8.93556 10.8618 8.89223 11.0784L8.50759 13.0016L10.1501 11.6876C10.3226 11.5496 10.5743 11.5776 10.7123 11.7501C10.8504 11.9226 10.8224 12.1743 10.6499 12.3123L8.14988 14.3123C8.0186 14.4173 7.83566 14.429 7.69204 14.3416C7.54843 14.2542 7.4748 14.0864 7.50777 13.9215L8.10777 10.9215C8.15109 10.7049 8.36182 10.5644 8.57845 10.6077Z" fill="black"/>
</svg>
