<!--
 ~ Copyright (c) 2025, WSO2 LLC. (https://www.wso2.com) All Rights Reserved.
 ~
 ~ WSO2 LLC. licenses this file to you under the Apache License,
 ~ Version 2.0 (the "License"); you may not use this file except
 ~ in compliance with the License.
 ~ You may obtain a copy of the License at
 ~
 ~     http://www.apache.org/licenses/LICENSE-2.0
 ~
 ~ Unless required by applicable law or agreed to in writing,
 ~ software distributed under the License is distributed on an
 ~ "AS IS" BASIS, WITHOUT WARRANTIES OR CONDITIONS OF ANY
 ~ KIND, either express or implied. See the License for the
 ~ specific language governing permissions and limitations
 ~ under the License.
-->
<svg width="15" height="13" viewBox="0 0 15 13" fill="none" xmlns="http://www.w3.org/2000/svg">
<path fill-rule="evenodd" clip-rule="evenodd" d="M9.63674 2.87593C9.16382 3.0539 8.79133 3.31518 8.50723 3.6561C8.36581 3.82581 8.11358 3.84874 7.94387 3.70731C7.77416 3.56589 7.75123 3.31366 7.89266 3.14395C8.27449 2.68575 8.76749 2.3475 9.3595 2.12549L9.36679 2.12276C11.2469 1.45919 13.4904 2.33163 14.175 4.36049C14.951 6.26585 13.9484 8.49729 12.039 9.17511C10.0284 9.95346 7.90837 8.94248 7.13007 7.05232C7.12658 7.04383 7.12337 7.03523 7.12047 7.02652C6.60054 5.46671 4.8535 4.7441 3.33901 5.27513C1.73817 5.90104 0.959358 7.57206 1.57132 9.15137C2.19346 10.657 3.86866 11.4441 5.45497 10.8272C5.46107 10.8248 5.46724 10.8226 5.47345 10.8205C5.97662 10.6528 6.51734 10.213 6.8876 9.75015C7.0256 9.57764 7.27732 9.54967 7.44982 9.68768C7.62233 9.82568 7.6503 10.0774 7.51229 10.2499C7.08449 10.7846 6.42924 11.3421 5.73591 11.5763C3.72617 12.3524 1.60797 11.3415 0.830073 9.45232L0.82707 9.44503C0.0424213 7.42736 1.06105 5.30263 3.05497 4.52722L3.06675 4.52264C4.94663 3.85915 7.18986 4.73141 7.87478 6.75972C8.49966 8.25991 10.1716 9.04298 11.755 8.42722L11.7667 8.42264C13.2492 7.89942 14.0435 6.14219 13.4301 4.65232C13.4266 4.64383 13.4234 4.63523 13.4205 4.62652C12.9003 3.06593 11.1518 2.34338 9.63674 2.87593Z" fill="black"/>
<path fill-rule="evenodd" clip-rule="evenodd" d="M7.69994 0.900024C7.92086 0.900024 8.09994 1.07911 8.09994 1.30002V3.58548L10.4857 3.50028C10.7064 3.49239 10.8918 3.66497 10.8997 3.88575C10.9076 4.10652 10.735 4.29189 10.5142 4.29977L7.71422 4.39977C7.60573 4.40364 7.50032 4.36325 7.42219 4.28787C7.34407 4.21249 7.29994 4.10859 7.29994 4.00002V1.30002C7.29994 1.07911 7.47903 0.900024 7.69994 0.900024Z" fill="black"/>
<path fill-rule="evenodd" clip-rule="evenodd" d="M7.67769 9.31218C7.75582 9.38756 7.79994 9.49146 7.79994 9.60002V12.3C7.79994 12.5209 7.62086 12.7 7.39994 12.7C7.17903 12.7 6.99994 12.5209 6.99994 12.3V10.0146L4.61422 10.0998C4.39345 10.1077 4.20808 9.93507 4.2002 9.7143C4.19231 9.49353 4.36489 9.30816 4.58567 9.30028L7.38567 9.20028C7.49416 9.1964 7.59957 9.2368 7.67769 9.31218Z" fill="black"/>
</svg>
