<!--
 ~ Copyright (c) 2025, WSO2 LLC. (https://www.wso2.com) All Rights Reserved.
 ~
 ~ WSO2 LLC. licenses this file to you under the Apache License,
 ~ Version 2.0 (the "License"); you may not use this file except
 ~ in compliance with the License.
 ~ You may obtain a copy of the License at
 ~
 ~     http://www.apache.org/licenses/LICENSE-2.0
 ~
 ~ Unless required by applicable law or agreed to in writing,
 ~ software distributed under the License is distributed on an
 ~ "AS IS" BASIS, WITHOUT WARRANTIES OR CONDITIONS OF ANY
 ~ KIND, either express or implied. See the License for the
 ~ specific language governing permissions and limitations
 ~ under the License.
-->
<svg width="15" height="14" viewBox="0 0 15 14" fill="none" xmlns="http://www.w3.org/2000/svg">
<path d="M9.34906 0.947472L8.89025 1.63569C8.88898 1.64366 8.88755 1.65168 8.88594 1.65972C8.87708 1.70403 8.85115 1.81451 8.7578 1.90786C8.70414 1.96152 8.63034 2.00686 8.53934 2.02506C8.45129 2.04267 8.3738 2.0296 8.31721 2.01074C8.30728 2.00743 8.29767 2.00384 8.28838 2.00002H7.79996C7.56543 2.00002 7.3765 2.02948 7.22645 2.07949C7.18566 2.09309 7.14295 2.10002 7.09996 2.10002C7.01286 2.10002 6.88799 2.09125 6.77107 2.03279C6.70695 2.00073 6.63483 1.94844 6.57964 1.86565C6.55284 1.82546 6.53361 1.78341 6.52076 1.74112L6.11776 1.01572L5.13096 1.34466L5.38309 2.18508C5.44657 2.39668 5.32649 2.61967 5.1149 2.68315C4.9033 2.74663 4.6803 2.62656 4.61683 2.41496L4.31683 1.41496C4.30564 1.37767 4.29996 1.33895 4.29996 1.30002C4.29996 1.1195 4.38772 0.982999 4.44246 0.91002C4.49744 0.836711 4.56515 0.769084 4.61017 0.724117C4.61255 0.72174 4.61487 0.719426 4.61711 0.717177C4.66102 0.673267 4.71455 0.640184 4.77347 0.620547L5.91007 0.241679C5.9704 0.202531 6.04228 0.172866 6.12534 0.162484C6.25206 0.146644 6.3577 0.18168 6.42884 0.217249C6.54037 0.273013 6.63358 0.36738 6.67391 0.408215C6.67724 0.411584 6.68021 0.414589 6.6828 0.417177C6.70908 0.443458 6.73157 0.473273 6.74962 0.505763L7.17158 1.26529C7.36757 1.22056 7.57795 1.20002 7.79996 1.20002H8.21832L8.72436 0.442299C8.74028 0.393028 8.765 0.343435 8.8014 0.296632C8.87528 0.201652 8.96828 0.155609 9.03596 0.133047C9.13977 0.098445 9.25348 0.099578 9.29192 0.099961C9.29514 0.0999932 9.29784 0.10002 9.29996 0.10002C9.34905 0.10002 9.39773 0.109058 9.44355 0.126682L10.6982 0.609224C10.7663 0.622233 10.8376 0.650317 10.9033 0.701467C10.9983 0.775341 11.0444 0.868344 11.0669 0.93603C11.1015 1.03983 11.1004 1.15354 11.1 1.19198C11.1 1.19521 11.1 1.1979 11.1 1.20002C11.1 1.22636 11.0974 1.25264 11.0922 1.27847L10.922 2.12925C11.2281 2.32586 11.5287 2.57028 11.8244 2.85943L12.5967 2.55051C12.6551 2.51 12.7216 2.48027 12.7949 2.4656C12.9012 2.44434 12.9949 2.46002 13.0639 2.48305C13.1314 2.50552 13.1827 2.53722 13.2153 2.56046C13.2323 2.57265 13.2465 2.58412 13.2574 2.59364C13.263 2.59845 13.2679 2.60288 13.2721 2.60681L13.2779 2.61237L13.2805 2.61487L13.2817 2.61605L13.2825 2.6169C13.2827 2.61704 13.2828 2.61718 13 2.90002L13.2825 2.6169C13.3068 2.64119 13.3282 2.66879 13.3455 2.69847L14.0266 3.86607C14.0799 3.93288 14.1185 4.0119 14.1353 4.1013C14.1549 4.2059 14.1387 4.29446 14.1255 4.34703C14.1188 4.37374 14.1113 4.39713 14.1064 4.41223C14.1034 4.42122 14.1016 4.42673 14.1002 4.4309C14.0995 4.43307 14.0989 4.43489 14.0983 4.43665C14.088 4.54866 14.0308 4.65185 13.94 4.72002L13.2352 5.2486C13.3422 5.60103 13.4252 5.9743 13.4848 6.36787L14.2778 6.60577C14.352 6.61685 14.431 6.6452 14.5033 6.70147C14.5983 6.77534 14.6444 6.86834 14.6669 6.93603C14.7015 7.03983 14.7004 7.15354 14.7 7.19198C14.7 7.19521 14.7 7.1979 14.7 7.20002C14.7 7.21895 14.6986 7.23785 14.6959 7.25659L14.4986 8.63786C14.4925 8.72303 14.465 8.81788 14.3985 8.90341C14.3246 8.99839 14.2316 9.04443 14.1639 9.06699C14.0601 9.10159 13.9464 9.10046 13.908 9.10008C13.9048 9.10005 13.9021 9.10002 13.9 9.10002H13.0258C12.9 9.4768 12.7296 9.81741 12.5122 10.1185L12.8843 10.7882C12.8962 10.7967 12.908 10.806 12.9196 10.8162C13.0344 10.9166 13.075 11.0508 13.075 11.1625C13.075 11.3556 12.9635 11.5021 12.8828 11.5829C12.8734 11.5923 12.8635 11.6012 12.8533 11.6096L11.8411 12.4377C11.8259 12.4655 11.807 12.4931 11.7838 12.5197C11.6833 12.6345 11.5492 12.675 11.4375 12.675C11.2543 12.675 11.113 12.5747 11.03 12.4955L10.37 11.9297C10.0204 12.1426 9.66213 12.2917 9.29581 12.3699L9.28376 12.3819L9.1993 13.2266C9.1949 13.3146 9.16798 13.4141 9.09851 13.5034C9.02464 13.5984 8.93164 13.6444 8.86395 13.667C8.76014 13.7016 8.64644 13.7005 8.608 13.7001C8.60477 13.7 8.60207 13.7 8.59996 13.7H7.19996C7.19843 13.7 7.19622 13.7001 7.1934 13.7001C7.1598 13.7009 7.03823 13.7039 6.92107 13.6453C6.86147 13.6155 6.81788 13.5787 6.79174 13.5552C6.76804 13.5338 6.74249 13.5083 6.72129 13.487L6.71711 13.4829C6.65182 13.4176 6.61113 13.3317 6.60194 13.2398L6.52425 12.4629C6.18314 12.347 5.84304 12.2083 5.50397 12.047L4.75869 12.606C4.67453 12.6833 4.53763 12.775 4.36246 12.775C4.2507 12.775 4.11657 12.7345 4.01611 12.6197C3.9922 12.5923 3.97295 12.5639 3.95753 12.5354L3.44388 12.1073C3.27417 11.9659 3.25124 11.7137 3.39267 11.5439C3.53409 11.3742 3.78632 11.3513 3.95603 11.4927L4.40776 11.8692L4.97227 11.4458C4.97466 11.442 4.97712 11.4382 4.97964 11.4344C5.03483 11.3516 5.10695 11.2993 5.17107 11.2672C5.28799 11.2088 5.41286 11.2 5.49996 11.2C5.56205 11.2 5.6233 11.2145 5.67884 11.2422C6.04482 11.4252 6.40937 11.5785 6.77254 11.7024C6.8497 11.7076 6.94149 11.7236 7.02884 11.7672C7.09296 11.7993 7.16508 11.8516 7.22028 11.9344C7.27112 12.0106 7.29474 12.0936 7.29917 12.1723L7.37195 12.9H8.42796L8.50194 12.1602C8.51113 12.0683 8.55182 11.9825 8.61711 11.9172L8.81711 11.7172C8.87606 11.6582 8.95196 11.6192 9.0342 11.6055C9.36899 11.5497 9.71655 11.4082 10.0781 11.1672C10.1438 11.1234 10.221 11.1 10.3 11.1C10.4899 11.1 10.7032 11.1465 10.8695 11.3042L11.4036 11.762L12.1644 11.1396L11.7709 10.4314C11.7081 10.3532 11.65 10.242 11.65 10.1C11.65 9.93793 11.7258 9.81598 11.7976 9.73752C12.0221 9.45323 12.1964 9.10657 12.3153 8.69013C12.334 8.62477 12.369 8.56524 12.4171 8.51718C12.5274 8.40691 12.6898 8.30002 12.9 8.30002H13.7388L13.8786 7.32122L13.085 7.08315C13.0216 7.06413 12.9639 7.02967 12.9171 6.98286C12.8132 6.87897 12.7123 6.7288 12.701 6.536C12.6374 6.09831 12.5435 5.69549 12.4205 5.32651C12.4069 5.28572 12.4 5.24301 12.4 5.20002C12.4 4.98985 12.5068 4.82744 12.6171 4.71718C12.6305 4.70379 12.6448 4.69138 12.66 4.68002L13.2967 4.2025L12.7904 3.33465L11.9485 3.67141C11.9013 3.69031 11.8508 3.70002 11.8 3.70002C11.5898 3.70002 11.4274 3.59313 11.3171 3.48286C11.0022 3.16794 10.6943 2.92308 10.3942 2.74302C10.3661 2.72619 10.3402 2.70599 10.3171 2.68286C10.2068 2.5726 10.1 2.41019 10.1 2.20002C10.1 2.17368 10.1026 2.1474 10.1077 2.12157L10.2716 1.30229L9.34906 0.947472ZM10.2992 1.15262C10.2991 1.1515 10.2991 1.15089 10.2991 1.15087ZM6.72439 12.5012C6.72436 12.5012 6.72343 12.5011 6.72171 12.5008ZM14.0944 4.44937C14.0944 4.44933 14.0945 4.44857 14.095 4.447ZM7.39996 3.60002C7.39996 3.37911 7.57904 3.20002 7.79996 3.20002C8.91693 3.20002 9.92611 3.65105 10.701 4.53662C10.7056 4.54192 10.7101 4.54735 10.7145 4.55289C11.9426 6.11594 11.7302 8.46646 10.1516 9.71097C9.49488 10.2569 8.68928 10.6143 7.75034 10.4969C7.55017 10.4719 7.39996 10.3018 7.39996 10.1V3.60002ZM8.19996 4.02477V9.71679C8.72088 9.69172 9.19933 9.46319 9.64388 9.09273L9.65273 9.08536C10.8673 8.13107 11.0553 6.29083 10.0919 5.05542C9.56407 4.45567 8.91876 4.11541 8.19996 4.02477Z" fill="black"/>
<path d="M0.199956 3.60002C0.199956 3.37911 0.379042 3.20002 0.599956 3.20002H7.79996C8.02087 3.20002 8.19996 3.37911 8.19996 3.60002C8.19996 3.82093 8.02087 4.00002 7.79996 4.00002H0.999956V9.70002H7.79996C8.02087 9.70002 8.19996 9.87911 8.19996 10.1C8.19996 10.3209 8.02087 10.5 7.79996 10.5H0.599956C0.379042 10.5 0.199956 10.3209 0.199956 10.1V3.60002Z" fill="black"/>
<path d="M0.29938 3.3361C0.153621 3.5021 0.170032 3.75484 0.336036 3.9006L4.43604 7.5006C4.58115 7.62801 4.79657 7.63356 4.94805 7.51379L9.24805 4.11379C9.42134 3.97677 9.45074 3.72521 9.31372 3.55193C9.1767 3.37864 8.92515 3.34924 8.75186 3.48625L4.71337 6.67948L0.863877 3.29944C0.697873 3.15368 0.44514 3.1701 0.29938 3.3361Z" fill="black"/>
</svg>
