<svg width="15" height="14" viewBox="0 0 15 14" fill="none" xmlns="http://www.w3.org/2000/svg">
<path fill-rule="evenodd" clip-rule="evenodd" d="M0.300056 3.7001C0.300056 3.47918 0.479143 3.3001 0.700056 3.3001H9.10006C9.32097 3.3001 9.50006 3.47918 9.50006 3.7001C9.50006 3.92101 9.32097 4.1001 9.10006 4.1001H1.10006V9.8001H8.00006C8.22097 9.8001 8.40006 9.97918 8.40006 10.2001C8.40006 10.421 8.22097 10.6001 8.00006 10.6001H0.700056C0.479143 10.6001 0.300056 10.421 0.300056 10.2001V3.7001Z" fill="black"/>
<path fill-rule="evenodd" clip-rule="evenodd" d="M0.395831 3.44039C0.539262 3.27237 0.791742 3.25244 0.959761 3.39587L4.81345 6.6856L8.85653 3.58277C9.03178 3.44828 9.28288 3.48132 9.41738 3.65657C9.55188 3.83182 9.51884 4.08293 9.34358 4.21742L5.04358 7.51742C4.89378 7.63239 4.68397 7.62693 4.54035 7.50432L0.440352 4.00432C0.272332 3.86089 0.2524 3.60841 0.395831 3.44039Z" fill="black"/>
<path fill-rule="evenodd" clip-rule="evenodd" d="M14.6001 2.1001V11.8001C14.6001 12.1857 14.3842 12.4996 14.1098 12.7339C13.8346 12.969 13.4606 13.1612 13.0353 13.314C12.1815 13.6209 11.0336 13.8001 9.80006 13.8001C8.56652 13.8001 7.41861 13.6209 6.56478 13.314C6.13953 13.1612 5.76549 12.969 5.49026 12.7339C5.21591 12.4996 5.00006 12.1857 5.00006 11.8001V10.2001H5.80006V11.8001C5.80006 11.8645 5.83421 11.9756 6.00985 12.1256C6.18462 12.2749 6.46058 12.4265 6.83534 12.5612C7.5815 12.8293 8.63359 13.0001 9.80006 13.0001C10.9665 13.0001 12.0186 12.8293 12.7648 12.5612C13.1395 12.4265 13.4155 12.2749 13.5903 12.1256C13.7659 11.9756 13.8001 11.8645 13.8001 11.8001V2.1001H14.6001Z" fill="black"/>
<path fill-rule="evenodd" clip-rule="evenodd" d="M5.00006 3.7001V2.1001H5.80006V3.7001H5.00006Z" fill="black"/>
<path fill-rule="evenodd" clip-rule="evenodd" d="M6.00985 1.77456C5.83421 1.92459 5.80006 2.03573 5.80006 2.1001C5.80006 2.16446 5.83421 2.27561 6.00985 2.42564C6.18462 2.57492 6.46058 2.72649 6.83534 2.86117C7.5815 3.12932 8.63359 3.3001 9.80006 3.3001C10.9665 3.3001 12.0186 3.12932 12.7648 2.86117C13.1395 2.72649 13.4155 2.57492 13.5903 2.42564C13.7659 2.27561 13.8001 2.16446 13.8001 2.1001C13.8001 2.03573 13.7659 1.92459 13.5903 1.77456C13.4155 1.62528 13.1395 1.4737 12.7648 1.33903C12.0186 1.07088 10.9665 0.900098 9.80006 0.900098C8.63359 0.900098 7.5815 1.07088 6.83534 1.33903C6.46058 1.4737 6.18462 1.62528 6.00985 1.77456ZM6.56478 0.586168C7.41861 0.27932 8.56652 0.100098 9.80006 0.100098C11.0336 0.100098 12.1815 0.27932 13.0353 0.586168C13.4606 0.738991 13.8346 0.931166 14.1098 1.16626C14.3842 1.40061 14.6001 1.71446 14.6001 2.1001C14.6001 2.48573 14.3842 2.79959 14.1098 3.03393C13.8346 3.26903 13.4606 3.4612 13.0353 3.61403C12.1815 3.92088 11.0336 4.1001 9.80006 4.1001C8.56652 4.1001 7.41861 3.92088 6.56478 3.61403C6.13953 3.4612 5.76549 3.26903 5.49026 3.03393C5.21591 2.79959 5.00006 2.48573 5.00006 2.1001C5.00006 1.71446 5.21591 1.40061 5.49026 1.16626C5.76549 0.931166 6.13953 0.738991 6.56478 0.586168Z" fill="black"/>
<path fill-rule="evenodd" clip-rule="evenodd" d="M14.2001 8.2001C14.421 8.2001 14.6001 8.37918 14.6001 8.6001C14.6001 8.98573 14.3842 9.29959 14.1099 9.53394C13.8346 9.76903 13.4606 9.9612 13.0353 10.114C12.1815 10.4209 11.0336 10.6001 9.80006 10.6001C9.57914 10.6001 9.40006 10.421 9.40006 10.2001C9.40006 9.97918 9.57914 9.8001 9.80006 9.8001C10.9665 9.8001 12.0186 9.62932 12.7648 9.36117C13.1395 9.22649 13.4155 9.07492 13.5903 8.92564C13.7659 8.77561 13.8001 8.66446 13.8001 8.6001C13.8001 8.37918 13.9791 8.2001 14.2001 8.2001Z" fill="black"/>
<path fill-rule="evenodd" clip-rule="evenodd" d="M14.2001 4.5001C14.421 4.5001 14.6001 4.67918 14.6001 4.9001C14.6001 5.2825 14.3875 5.60099 14.117 5.84334C13.844 6.08784 13.4717 6.29373 13.0456 6.46018C12.1905 6.79421 11.0395 7.0001 9.80006 7.0001C9.57914 7.0001 9.40006 6.82101 9.40006 6.6001C9.40006 6.37918 9.57914 6.2001 9.80006 6.2001C10.9606 6.2001 12.0096 6.00598 12.7545 5.71501C13.1284 5.56897 13.4061 5.4061 13.5832 5.24748C13.7626 5.08671 13.8001 4.9677 13.8001 4.9001C13.8001 4.67918 13.9791 4.5001 14.2001 4.5001Z" fill="black"/>
</svg>
