<svg width="58" height="60" viewBox="0 0 58 60" fill="none" xmlns="http://www.w3.org/2000/svg">
<path d="M9.99981 1.69998C9.99981 0.871548 10.6714 0.199976 11.4998 0.199976H44.5998C45.4282 0.199976 46.0998 0.871548 46.0998 1.69998C46.0998 2.5284 45.4282 3.19998 44.5998 3.19998H12.9998V25.9H39.8998C40.7282 25.9 41.3998 26.5715 41.3998 27.4C41.3998 28.2284 40.7282 28.9 39.8998 28.9H11.4998C10.6714 28.9 9.99981 28.2284 9.99981 27.4V1.69998Z" fill="black"/>
<path d="M10.3649 0.719181C10.9066 0.0923824 11.8538 0.0233783 12.4806 0.565056L27.7514 13.7621L43.6808 1.41444C44.3356 0.906906 45.2778 1.02625 45.7853 1.68101C46.2929 2.33576 46.1735 3.27798 45.5188 3.78551L28.6188 16.8855C28.0542 17.3231 27.2594 17.3019 26.719 16.8349L10.519 2.83489C9.89221 2.29322 9.82321 1.34598 10.3649 0.719181Z" fill="black"/>
<path d="M0.299807 9.19998C0.299807 8.37155 0.97138 7.69998 1.79981 7.69998H11.4998C12.3282 7.69998 12.9998 8.37155 12.9998 9.19998C12.9998 10.0284 12.3282 10.7 11.4998 10.7H3.29981V32.7H29.4998V27.5C29.4998 26.6715 30.1714 26 30.9998 26C31.8282 26 32.4998 26.6715 32.4998 27.5V34.2C32.4998 35.0284 31.8282 35.7 30.9998 35.7H1.79981C0.97138 35.7 0.299807 35.0284 0.299807 34.2V9.19998Z" fill="black"/>
<path d="M0.717057 8.16188C1.29038 7.56389 2.23992 7.5439 2.83791 8.11723L12.5379 17.4172C13.1359 17.9906 13.1559 18.9401 12.5826 19.5381C12.0092 20.1361 11.0597 20.1561 10.4617 19.5827L0.761706 10.2827C0.16372 9.7094 0.14373 8.75986 0.717057 8.16188Z" fill="black"/>
<path d="M33.8998 20.3C33.8998 19.4715 34.5714 18.8 35.3998 18.8H45.7998C46.6282 18.8 47.2998 19.4715 47.2998 20.3V47.9C47.2998 48.7284 46.6282 49.4 45.7998 49.4H16.3998C15.5714 49.4 14.8998 48.7284 14.8998 47.9V34.2C14.8998 33.3715 15.5714 32.7 16.3998 32.7C17.2282 32.7 17.8998 33.3715 17.8998 34.2V46.4H44.2998V21.8H35.3998C34.5714 21.8 33.8998 21.1284 33.8998 20.3Z" fill="black"/>
<path d="M44.2998 40.8C44.2998 39.9715 44.9714 39.3 45.7998 39.3H56.1998C57.0282 39.3 57.6998 39.9715 57.6998 40.8C57.6998 41.6284 57.0282 42.3 56.1998 42.3H45.7998C44.9714 42.3 44.2998 41.6284 44.2998 40.8Z" fill="black"/>
<path d="M44.2998 27.5C44.2998 26.6715 44.9714 26 45.7998 26H56.1998C57.0282 26 57.6998 26.6715 57.6998 27.5C57.6998 28.3284 57.0282 29 56.1998 29H45.7998C44.9714 29 44.2998 28.3284 44.2998 27.5Z" fill="black"/>
<path d="M24.3998 46.4C25.2282 46.4 25.8998 47.0715 25.8998 47.9V58.3C25.8998 59.1284 25.2282 59.8 24.3998 59.8C23.5714 59.8 22.8998 59.1284 22.8998 58.3V47.9C22.8998 47.0715 23.5714 46.4 24.3998 46.4Z" fill="black"/>
<path d="M37.7998 46.4C38.6282 46.4 39.2998 47.0715 39.2998 47.9V58.3C39.2998 59.1284 38.6282 59.8 37.7998 59.8C36.9714 59.8 36.2998 59.1284 36.2998 58.3V47.9C36.2998 47.0715 36.9714 46.4 37.7998 46.4Z" fill="black"/>
<path d="M4.49981 40.8C4.49981 39.9715 5.17138 39.3 5.99981 39.3H16.3998C17.2282 39.3 17.8998 39.9715 17.8998 40.8C17.8998 41.6284 17.2282 42.3 16.3998 42.3H5.99981C5.17138 42.3 4.49981 41.6284 4.49981 40.8Z" fill="black"/>
</svg>
