<?xml version="1.0" encoding="UTF-8"?>
<!--
 ~ Copyright (c) 2025, WSO2 LLC. (https://www.wso2.com) All Rights Reserved.
 ~
 ~ WSO2 LLC. licenses this file to you under the Apache License,
 ~ Version 2.0 (the "License"); you may not use this file except
 ~ in compliance with the License.
 ~ You may obtain a copy of the License at
 ~
 ~     http://www.apache.org/licenses/LICENSE-2.0
 ~
 ~ Unless required by applicable law or agreed to in writing,
 ~ software distributed under the License is distributed on an
 ~ "AS IS" BASIS, WITHOUT WARRANTIES OR CONDITIONS OF ANY
 ~ KIND, either express or implied. See the License for the
 ~ specific language governing permissions and limitations
 ~ under the License.
-->
<svg width="16px" height="16px" viewBox="0 0 16 16" version="1.1" xmlns="http://www.w3.org/2000/svg" xmlnsXlink="http://www.w3.org/1999/xlink">
    <g id="Home" stroke="none" stroke-width="1" fill="none" fill-rule="evenodd">
        <g id="VSC-icons" transform="translate(-800.000000, -480.000000)" fill="#000" fill-rule="nonzero">
            <g id="module-icon" transform="translate(800.636600, 480.000000)">
                <path d="M5.96465138,0.340534471 C6.83019994,-0.11351149 7.89659973,-0.11351149 8.76214828,0.340534471 L8.76214828,0.340534471 L13.3465541,3.06964252 C14.2121026,3.52368849 14.7453025,4.36280002 14.7453025,5.27089195 L14.7453025,5.27089195 L14.7453025,10.7291081 C14.7453025,11.6372 14.2121026,12.4763115 13.3465541,12.9303575 L13.3465541,12.9303575 L8.76214828,15.6594655 C7.89659973,16.1135115 6.83019994,16.1135115 5.96465138,15.6594655 L5.96465138,15.6594655 L1.39865594,12.9303575 C0.533107389,12.4763115 0,11.6372 0,10.7291081 L0,10.7291081 L0,5.27089195 C0,4.36280002 0.533107389,3.52368849 1.39865594,3.06964252 L1.39865594,3.06964252 Z M8.07596979,1.42039268 C7.63502997,1.18908624 7.0917697,1.18908624 6.65082987,1.42039268 L6.65082987,1.42039268 L2.08483442,4.14950073 C1.6438946,4.38080716 1.37235697,4.80827908 1.37235697,5.27089195 L1.37235697,5.27089195 L1.37235697,10.7291081 C1.37235697,11.1917209 1.6438946,11.6191928 2.08483442,11.8504993 L2.08483442,11.8504993 L6.65082987,14.5796073 C7.0917697,14.8109138 7.63502997,14.8109138 8.07596979,14.5796073 L8.07596979,14.5796073 L12.6603756,11.8504993 C13.1013154,11.6191928 13.3729456,11.1917209 13.3729456,10.7291081 L13.3729456,10.7291081 L13.3729456,5.27089195 C13.3729456,4.80827908 13.1013154,4.38080716 12.6603756,4.14950073 L12.6603756,4.14950073 Z M11.84252,5.93267728 C11.923525,6.10818498 11.8666172,6.31207498 11.7167515,6.42232461 L11.6469631,6.46348562 L7.763,8.255 L7.76339983,11.5435701 C7.76339983,11.764484 7.58431373,11.9435701 7.36339983,11.9435701 C7.17010017,11.9435701 7.00882492,11.8064573 6.97152641,11.624184 L6.96339983,11.5435701 L6.963,8.251 L3.24626099,6.4776889 C3.04690091,6.3825127 2.96244319,6.14374387 3.05761938,5.94438379 C3.14089856,5.76994372 3.33411584,5.68347576 3.51467461,5.72834502 L3.5909245,5.75574218 L7.36539983,7.558 L11.3117116,5.73712036 C11.5122919,5.64454324 11.7499429,5.73209705 11.84252,5.93267728 Z" id="module"/>
            </g>
        </g>
    </g>
</svg>
