<svg width="60" height="48" viewBox="0 0 60 48" fill="none" xmlns="http://www.w3.org/2000/svg">
<path fill-rule="evenodd" clip-rule="evenodd" d="M6.2002 12.1C6.2002 11.2715 6.87177 10.6 7.7002 10.6H32.5002C33.3286 10.6 34.0002 11.2715 34.0002 12.1C34.0002 12.9284 33.3286 13.6 32.5002 13.6H7.7002C6.87177 13.6 6.2002 12.9284 6.2002 12.1Z" fill="black"/>
<path fill-rule="evenodd" clip-rule="evenodd" d="M22.7344 1.14443C23.3174 0.555818 24.2671 0.55123 24.8557 1.13418L35.2557 11.4342C35.5476 11.7233 35.7082 12.1195 35.6999 12.5302C35.6916 12.941 35.5152 13.3304 35.2119 13.6074L24.8118 23.1074C24.2002 23.6662 23.2514 23.6233 22.6927 23.0116C22.134 22.4 22.1769 21.4512 22.7885 20.8925L32.0242 12.456L22.7447 3.26572C22.1561 2.68277 22.1515 1.73304 22.7344 1.14443Z" fill="black"/>
<path fill-rule="evenodd" clip-rule="evenodd" d="M43.2002 4.49995C41.3875 4.49995 39.7957 5.15332 38.4002 6.19995C37.7375 6.69701 36.7973 6.56269 36.3002 5.89995C35.8031 5.23721 35.9375 4.29701 36.6002 3.79995C38.4047 2.44658 40.6129 1.49995 43.2002 1.49995C49.0286 1.49995 53.8002 6.27153 53.8002 12.1C53.8002 17.9284 49.0286 22.7 43.2002 22.7C41.1065 22.7 39.2259 22.1139 37.5891 21.0617C36.8922 20.6137 36.6904 19.6857 37.1384 18.9888C37.5864 18.292 38.5145 18.0902 39.2113 18.5382C40.3745 19.286 41.6939 19.7 43.2002 19.7C47.3718 19.7 50.8002 16.2715 50.8002 12.1C50.8002 7.92838 47.3718 4.49995 43.2002 4.49995Z" fill="black"/>
<path d="M0.200195 32.5H4.5002L7.7002 42L10.8002 32.5H15.1002V46.2999H12.3002V36.5L8.9002 46.2999H6.5002L3.1002 36.5999V46.2999H0.200195V32.5Z" fill="black"/>
<path d="M30.6002 47.5999L28.6002 45.7999C28.1002 46.0999 27.6002 46.3 27.1002 46.4C26.6002 46.5 25.9002 46.5999 25.3002 46.5999C24.2002 46.5999 23.3002 46.4 22.4002 46C21.6002 45.6 20.9002 45.1 20.3002 44.5C19.7002 43.9 19.3002 43.1 19.0002 42.2C18.7002 41.3 18.5002 40.4 18.5002 39.4C18.5002 38.4 18.7002 37.4 19.0002 36.5C19.3002 35.6 19.8002 34.8 20.3002 34.2C20.9002 33.5 21.6002 33 22.4002 32.7C23.2002 32.3 24.2002 32.0999 25.3002 32.0999C26.4002 32.0999 27.3002 32.3 28.2002 32.7C29.1002 33.1 29.7002 33.6 30.3002 34.2C30.9002 34.9 31.3002 35.6 31.6002 36.5C31.9002 37.4 32.1002 38.3 32.1002 39.4C32.1002 40.4 31.9002 41.3 31.6002 42.2C31.3002 43.1 30.8002 43.8 30.3002 44.5L32.0002 46.0999L30.6002 47.5999ZM26.7002 41.2L28.3002 42.5999C28.6002 42.2999 28.8002 41.7999 28.9002 41.2999C29.1002 40.7999 29.1002 40.2 29.1002 39.4C29.1002 38.8 29.0002 38.1999 28.9002 37.5999C28.8002 36.9999 28.5002 36.4999 28.3002 36.0999C28.0002 35.6999 27.6002 35.3 27.1002 35C26.6002 34.7 26.0002 34.5999 25.4002 34.5999C24.7002 34.5999 24.1002 34.7 23.7002 35C23.3002 35.3 22.8002 35.5999 22.5002 36.0999C22.2002 36.4999 22.0002 37.0999 21.9002 37.5999C21.8002 38.1999 21.7002 38.8 21.7002 39.4C21.7002 40 21.8002 40.4999 21.9002 41.0999C22.0002 41.5999 22.3002 42.0999 22.5002 42.5999C22.8002 42.9999 23.2002 43.4 23.7002 43.7C24.2002 44 24.8002 44.0999 25.4002 44.0999C25.6002 44.0999 25.9002 44.0999 26.1002 44.0999C26.3002 44.0999 26.5002 44 26.6002 43.9L25.3002 42.7L26.7002 41.2Z" fill="black"/>
<path d="M34.5002 35V32.4H45.8002V35H41.7002V46.2999H38.7002V35H34.5002Z" fill="black"/>
<path d="M48.5002 35V32.4H59.8002V35H55.7002V46.2999H52.7002V35H48.5002Z" fill="black"/>
</svg>
