<svg width="21" height="15" viewBox="0 0 21 15" fill="none" xmlns="http://www.w3.org/2000/svg">
<path d="M20.3 0.7H3.7V14.3H20.3V0.7ZM3 0H21V15H3V0Z" fill="black"/>
<path d="M12 4H19V10H12V4Z" fill="black"/>
<path d="M9.0201 4.52513C8.88342 4.38844 8.66181 4.38844 8.52513 4.52513C8.38844 4.66181 8.38844 4.88342 8.52513 5.0201L10.155 6.65H0V7.35H10.155L8.52513 8.9799C8.38844 9.11658 8.38844 9.33819 8.52513 9.47487C8.66181 9.61156 8.88342 9.61156 9.0201 9.47487L11.2475 7.24749C11.3842 7.1108 11.3842 6.8892 11.2475 6.75251L9.0201 4.52513Z" fill="black"/>
<path fill-rule="evenodd" clip-rule="evenodd" d="M11.2475 7.24749C11.3842 7.1108 11.3842 6.8892 11.2475 6.75251L9.0201 4.52513C8.88342 4.38844 8.66181 4.38844 8.52513 4.52513C8.38844 4.66181 8.38844 4.88342 8.52513 5.0201L10.155 6.65H0V7.35H10.155L8.52513 8.9799C8.38844 9.11658 8.38844 9.33819 8.52513 9.47487C8.66181 9.61156 8.88342 9.61156 9.0201 9.47487L11.2475 7.24749Z" fill="black"/>
<path d="M17.2597 13.0266C17.1354 13.0266 17.0228 12.9947 16.922 12.9308C16.8218 12.8661 16.7423 12.7713 16.6833 12.6463C16.6251 12.5206 16.596 12.3665 16.596 12.1839C16.596 11.9964 16.6262 11.8406 16.6865 11.7163C16.7469 11.5913 16.8271 11.4979 16.9273 11.4361C17.0281 11.3736 17.1386 11.3423 17.2586 11.3423C17.3502 11.3423 17.4266 11.358 17.4877 11.3892C17.5494 11.4197 17.5992 11.4581 17.6368 11.5043C17.6752 11.5497 17.7043 11.5945 17.7242 11.6385H17.738V10.8182H18.1908V13H17.7433V12.7379H17.7242C17.7029 12.7834 17.6727 12.8285 17.6336 12.8732C17.5953 12.9173 17.5452 12.9538 17.4834 12.983C17.4223 13.0121 17.3477 13.0266 17.2597 13.0266ZM17.4035 12.6655C17.4767 12.6655 17.5384 12.6456 17.5889 12.6058C17.64 12.5653 17.6791 12.5089 17.7061 12.4364C17.7338 12.364 17.7476 12.2791 17.7476 12.1818C17.7476 12.0845 17.7341 12 17.7071 11.9283C17.6801 11.8565 17.6411 11.8011 17.5899 11.7621C17.5388 11.723 17.4767 11.7035 17.4035 11.7035C17.3289 11.7035 17.2661 11.7237 17.2149 11.7642C17.1638 11.8047 17.1251 11.8608 17.0988 11.9325C17.0725 12.0043 17.0594 12.0874 17.0594 12.1818C17.0594 12.277 17.0725 12.3612 17.0988 12.4343C17.1258 12.5067 17.1645 12.5636 17.2149 12.6048C17.2661 12.6452 17.3289 12.6655 17.4035 12.6655Z" fill="black"/>
<path d="M15.6095 13.032C15.4411 13.032 15.2963 12.9979 15.1748 12.9297C15.0541 12.8608 14.961 12.7635 14.8957 12.6378C14.8303 12.5114 14.7977 12.3619 14.7977 12.1893C14.7977 12.021 14.8303 11.8732 14.8957 11.7461C14.961 11.619 15.053 11.5199 15.1716 11.4489C15.2909 11.3778 15.4308 11.3423 15.5914 11.3423C15.6993 11.3423 15.7998 11.3597 15.8928 11.3945C15.9866 11.4286 16.0683 11.4801 16.1379 11.549C16.2082 11.6179 16.2629 11.7045 16.3019 11.8089C16.341 11.9126 16.3605 12.0341 16.3605 12.1733V12.2979H14.9788V12.0167H15.9333C15.9333 11.9513 15.9191 11.8935 15.8907 11.843C15.8623 11.7926 15.8229 11.7532 15.7725 11.7248C15.7227 11.6957 15.6649 11.6811 15.5988 11.6811C15.5299 11.6811 15.4688 11.6971 15.4156 11.729C15.363 11.7603 15.3218 11.8026 15.292 11.8558C15.2622 11.9084 15.2469 11.967 15.2462 12.0316V12.299C15.2462 12.38 15.2611 12.4499 15.2909 12.5089C15.3215 12.5678 15.3644 12.6133 15.4198 12.6452C15.4752 12.6772 15.5409 12.6932 15.6169 12.6932C15.6673 12.6932 15.7135 12.6861 15.7554 12.6719C15.7973 12.6577 15.8332 12.6364 15.863 12.608C15.8928 12.5795 15.9156 12.5447 15.9312 12.5036L16.3509 12.5312C16.3296 12.6321 16.286 12.7202 16.2199 12.7955C16.1546 12.87 16.07 12.9283 15.9664 12.9702C15.8634 13.0114 15.7444 13.032 15.6095 13.032Z" fill="black"/>
<path d="M12.1274 13V11.3636H12.5599V11.6523H12.5791C12.6132 11.5565 12.67 11.4808 12.7496 11.4254C12.8291 11.37 12.9243 11.3423 13.0351 11.3423C13.1473 11.3423 13.2428 11.3704 13.3216 11.4265C13.4005 11.4819 13.453 11.5572 13.4793 11.6523H13.4964C13.5297 11.5586 13.5901 11.4837 13.6775 11.4276C13.7655 11.3707 13.8696 11.3423 13.9896 11.3423C14.1423 11.3423 14.2662 11.391 14.3614 11.4883C14.4573 11.5849 14.5052 11.7219 14.5052 11.8995V13H14.0525V11.989C14.0525 11.8981 14.0283 11.8299 13.98 11.7844C13.9317 11.739 13.8714 11.7163 13.7989 11.7163C13.7165 11.7163 13.6523 11.7425 13.6061 11.7951C13.5599 11.8469 13.5368 11.9155 13.5368 12.0007V13H13.0969V11.9794C13.0969 11.8991 13.0738 11.8352 13.0276 11.7876C12.9822 11.7401 12.9221 11.7163 12.8476 11.7163C12.7971 11.7163 12.7517 11.729 12.7112 11.7546C12.6714 11.7795 12.6398 11.8146 12.6164 11.8601C12.593 11.9048 12.5812 11.9574 12.5812 12.0178V13H12.1274Z" fill="black"/>
<path d="M10.8538 13.0309C10.7494 13.0309 10.6563 13.0128 10.5747 12.9766C10.493 12.9396 10.4284 12.8853 10.3808 12.8136C10.3339 12.7411 10.3105 12.6509 10.3105 12.543C10.3105 12.4521 10.3271 12.3757 10.3605 12.3139C10.3939 12.2521 10.4394 12.2024 10.4969 12.1648C10.5544 12.1271 10.6198 12.0987 10.6929 12.0795C10.7668 12.0604 10.8442 12.0469 10.9252 12.0391C11.0203 12.0291 11.097 12.0199 11.1553 12.0114C11.2135 12.0021 11.2558 11.9886 11.282 11.9709C11.3083 11.9531 11.3215 11.9268 11.3215 11.892V11.8857C11.3215 11.8182 11.3002 11.766 11.2575 11.729C11.2156 11.6921 11.156 11.6736 11.0786 11.6736C10.9969 11.6736 10.9319 11.6918 10.8836 11.728C10.8353 11.7635 10.8034 11.8082 10.7877 11.8622L10.368 11.8281C10.3893 11.7287 10.4312 11.6428 10.4937 11.5703C10.5562 11.4972 10.6368 11.4411 10.7355 11.402C10.835 11.3622 10.95 11.3423 11.0807 11.3423C11.1716 11.3423 11.2586 11.353 11.3417 11.3743C11.4255 11.3956 11.4997 11.4286 11.5644 11.4734C11.6297 11.5181 11.6812 11.5756 11.7188 11.646C11.7565 11.7156 11.7753 11.799 11.7753 11.8963V13H11.3449V12.7731H11.3321C11.3058 12.8242 11.2707 12.8693 11.2267 12.9084C11.1826 12.9467 11.1297 12.9769 11.0679 12.9989C11.0061 13.0202 10.9347 13.0309 10.8538 13.0309ZM10.9838 12.7177C11.0505 12.7177 11.1095 12.7045 11.1606 12.6783C11.2117 12.6513 11.2519 12.6151 11.281 12.5696C11.3101 12.5241 11.3247 12.4727 11.3247 12.4151V12.2415C11.3105 12.2507 11.2909 12.2592 11.2661 12.267C11.2419 12.2741 11.2146 12.2809 11.184 12.2873C11.1535 12.293 11.123 12.2983 11.0924 12.3033C11.0619 12.3075 11.0342 12.3114 11.0093 12.315C10.9561 12.3228 10.9095 12.3352 10.8698 12.3523C10.83 12.3693 10.7991 12.3924 10.7771 12.4215C10.7551 12.4499 10.7441 12.4854 10.7441 12.5281C10.7441 12.5898 10.7664 12.6371 10.8112 12.6697C10.8566 12.7017 10.9142 12.7177 10.9838 12.7177Z" fill="black"/>
<path d="M10.0146 10.8182V13H9.61612L8.6669 11.6268H8.65092V13H8.18963V10.8182H8.59446L9.53622 12.1903H9.5554V10.8182H10.0146Z" fill="black"/>
</svg>
