<!--
 ~ Copyright (c) 2025, WSO2 LLC. (https://www.wso2.com) All Rights Reserved.
 ~
 ~ WSO2 LLC. licenses this file to you under the Apache License,
 ~ Version 2.0 (the "License"); you may not use this file except
 ~ in compliance with the License.
 ~ You may obtain a copy of the License at
 ~
 ~     http://www.apache.org/licenses/LICENSE-2.0
 ~
 ~ Unless required by applicable law or agreed to in writing,
 ~ software distributed under the License is distributed on an
 ~ "AS IS" BASIS, WITHOUT WARRANTIES OR CONDITIONS OF ANY
 ~ KIND, either express or implied. See the License for the
 ~ specific language governing permissions and limitations
 ~ under the License.
-->
<svg width="16" height="16" viewBox="0 0 16 16" fill="none" xmlns="http://www.w3.org/2000/svg">
<path d="M12.5 4.30002C12.7209 4.30002 12.9 4.47911 12.9 4.70002V9.20002H13.6V8.30002H13.3C13.079 8.30002 12.9 8.12094 12.9 7.90002C12.9 7.67911 13.079 7.50002 13.3 7.50002H14C14.2209 7.50002 14.4 7.67911 14.4 7.90002V9.60003C14.4 9.82094 14.2209 10 14 10H12.5C12.279 10 12.1 9.82094 12.1 9.60003V4.70002C12.1 4.47911 12.279 4.30002 12.5 4.30002Z" fill="black"/>
<path d="M13.4996 2.92861C13.4132 2.41559 12.9828 2.03028 12.4496 2.09694C12.4331 2.09899 12.4165 2.10002 12.4 2.10002C11.9328 2.10002 11.5277 2.49679 11.5969 3.05041C11.5989 3.06687 11.6 3.08344 11.6 3.10002C11.6 3.31482 11.7089 3.53444 11.8978 3.69632C12.0865 3.85811 12.3241 3.93538 12.5434 3.90404C12.5621 3.90137 12.581 3.90002 12.6 3.90002C13.0526 3.90002 13.4859 3.51143 13.4996 2.92861ZM12.3748 1.30022C13.4192 1.18332 14.1722 1.9771 14.2959 2.84346C14.2986 2.86219 14.3 2.8811 14.3 2.90002C14.3 3.89134 13.5551 4.68402 12.6281 4.69979C12.1577 4.75782 11.7068 4.58626 11.3771 4.30373C11.0469 4.02065 10.8084 3.60023 10.8002 3.12541C10.6856 2.10028 11.4601 1.31441 12.3748 1.30022Z" fill="black"/>
<path d="M2.89995 5.10002H8.09995C8.37904 5.10002 8.59995 5.32094 8.59995 5.60002V9.00002C8.59995 9.27911 8.37904 9.50002 8.09995 9.50002H6.59995V8.10002C6.59995 7.81993 6.46393 7.57332 6.29529 7.40468C6.12666 7.23604 5.88004 7.10002 5.59995 7.10002C5.01972 7.10002 4.49995 7.54051 4.49995 8.10002V9.50002H2.89995C2.62086 9.50002 2.39995 9.27911 2.39995 9.00002V5.60002C2.39995 5.32094 2.62087 5.10002 2.89995 5.10002ZM5.79995 9.50002H5.29995V8.10002C5.29995 8.08344 5.3107 8.036 5.36754 7.98484C5.421 7.93672 5.50131 7.90002 5.59995 7.90002C5.61986 7.90002 5.67325 7.91401 5.72961 7.97037C5.78597 8.02673 5.79995 8.08012 5.79995 8.10002V9.50002ZM8.09995 10.3C8.82087 10.3 9.39995 9.72094 9.39995 9.00002V5.60002C9.39995 4.87911 8.82087 4.30002 8.09995 4.30002H2.89995C2.17904 4.30002 1.59995 4.87911 1.59995 5.60002V9.00002C1.59995 9.72094 2.17904 10.3 2.89995 10.3H8.09995Z" fill="black"/>
<path d="M3.09995 2.80002V4.70002C3.09995 4.92094 3.27904 5.10002 3.49995 5.10002C3.72087 5.10002 3.89995 4.92094 3.89995 4.70002V2.80002C3.89995 1.92094 4.62087 1.20002 5.49995 1.20002C6.3526 1.20002 6.99995 1.89354 6.99995 2.80002V4.70002C6.99995 4.92094 7.17904 5.10002 7.39995 5.10002C7.62087 5.10002 7.79995 4.92094 7.79995 4.70002V2.80002C7.79995 1.50651 6.8473 0.400024 5.49995 0.400024C4.17904 0.400024 3.09995 1.47911 3.09995 2.80002Z" fill="black"/>
<path d="M0.699951 11.7H1.49995L2.99995 14.2V11.7H3.79995V15.4H2.99995L1.39995 13V15.4H0.699951V11.7Z" fill="black"/>
<path d="M5.49995 12.4H4.39995V11.7H7.49995V12.4H6.39995V15.4H5.49995V12.4Z" fill="black"/>
<path d="M8.09995 11.7H8.89995V14.7H10.7V15.4H8.09995V11.7Z" fill="black"/>
<path d="M11.4 11.7H12.6L13.4 14.3L14.2 11.7H15.4V15.4H14.6V12.8L13.7 15.4H13.1L12.2 12.8V15.4H11.4V11.7Z" fill="black"/>
</svg>
