<!--
 ~ Copyright (c) 2025, WSO2 LLC. (https://www.wso2.com) All Rights Reserved.
 ~
 ~ WSO2 LLC. licenses this file to you under the Apache License,
 ~ Version 2.0 (the "License"); you may not use this file except
 ~ in compliance with the License.
 ~ You may obtain a copy of the License at
 ~
 ~     http://www.apache.org/licenses/LICENSE-2.0
 ~
 ~ Unless required by applicable law or agreed to in writing,
 ~ software distributed under the License is distributed on an
 ~ "AS IS" BASIS, WITHOUT WARRANTIES OR CONDITIONS OF ANY
 ~ KIND, either express or implied. See the License for the
 ~ specific language governing permissions and limitations
 ~ under the License.
-->

<svg width="718" height="718" viewBox="0 0 718 718" fill="none" xmlns="http://www.w3.org/2000/svg">
    <path
        d="M357.087 0.666753H409C422.807 0.666753 434 11.8598 434 25.6668C434 39.4738 422.807 50.6668 409 50.6668H359C279.726 50.6668 222.786 50.7197 179.453 56.5457C136.839 62.2751 111.149 73.1714 92.1603 92.1601C73.1717 111.148 62.2753 136.839 56.546 179.453C50.72 222.785 50.667 279.726 50.667 359C50.667 438.273 50.72 495.213 56.546 538.547C62.2753 581.16 73.1717 606.85 92.1603 625.84C111.149 644.83 136.839 655.727 179.453 661.453C222.786 667.28 279.726 667.333 359 667.333C438.274 667.333 495.214 667.28 538.547 661.453C581.16 655.727 606.85 644.83 625.84 625.84C644.83 606.85 655.727 581.16 661.454 538.547C667.28 495.213 667.334 438.273 667.334 359V309C667.334 295.193 678.527 284 692.334 284C706.14 284 717.334 295.193 717.334 309V360.913C717.334 437.86 717.334 498.16 711.01 545.21C704.534 593.367 691.024 631.37 661.197 661.197C631.37 691.023 593.367 704.533 545.21 711.01C498.16 717.333 437.86 717.333 360.914 717.333H357.087C280.141 717.333 219.84 717.333 172.791 711.01C124.633 704.533 86.632 691.023 56.805 661.197C26.978 631.37 13.4667 593.367 6.992 545.21C0.666329 498.16 0.666664 437.86 0.666997 360.913V357.087C0.666664 280.141 0.666329 219.84 6.992 172.79C13.4667 124.632 26.978 86.6317 56.805 56.8047C86.632 26.9777 124.633 13.4664 172.791 6.99175C219.84 0.666085 280.141 0.66642 357.087 0.666753ZM518.017 34.8641C563.614 -10.7323 637.54 -10.7323 683.137 34.8641C728.734 80.4601 728.734 154.386 683.137 199.982L461.534 421.587C449.157 433.963 441.404 441.717 432.754 448.467C422.564 456.413 411.537 463.227 399.87 468.787C389.967 473.507 379.564 476.973 362.96 482.507L266.142 514.78C248.267 520.737 228.56 516.087 215.237 502.763C201.914 489.44 197.262 469.733 203.22 451.857L235.493 355.04C241.027 338.437 244.493 328.033 249.214 318.13C254.773 306.463 261.587 295.437 269.535 285.247C276.283 276.596 284.037 268.843 296.414 256.467L518.017 34.8641ZM647.78 70.2194C621.71 44.1494 579.444 44.1494 553.374 70.2194L540.82 82.7734C541.577 85.9688 542.634 89.7758 544.107 94.0221C548.884 107.791 557.924 125.924 575 143C592.077 160.076 610.21 169.115 623.977 173.892C628.224 175.366 632.03 176.424 635.227 177.181L647.78 164.627C673.85 138.557 673.85 96.2891 647.78 70.2194ZM595.837 216.57C578.64 209.173 558.607 197.315 539.644 178.355C520.684 159.395 508.827 139.361 501.43 122.162L332.917 290.675C319.034 304.56 313.587 310.067 308.96 315.997C303.247 323.323 298.347 331.253 294.35 339.64C291.113 346.433 288.623 353.763 282.414 372.39L268.017 415.58L302.42 449.983L345.61 435.587C364.237 429.377 371.567 426.887 378.36 423.65C386.747 419.653 394.677 414.753 402.004 409.04C407.934 404.413 413.44 398.967 427.324 385.083L595.837 216.57Z"
        fill="#1C274C"
    />
</svg>
