<!--
 ~ Copyright (c) 2025, WSO2 LLC. (https://www.wso2.com) All Rights Reserved.
 ~
 ~ WSO2 LLC. licenses this file to you under the Apache License,
 ~ Version 2.0 (the "License"); you may not use this file except
 ~ in compliance with the License.
 ~ You may obtain a copy of the License at
 ~
 ~     http://www.apache.org/licenses/LICENSE-2.0
 ~
 ~ Unless required by applicable law or agreed to in writing,
 ~ software distributed under the License is distributed on an
 ~ "AS IS" BASIS, WITHOUT WARRANTIES OR CONDITIONS OF ANY
 ~ KIND, either express or implied. See the License for the
 ~ specific language governing permissions and limitations
 ~ under the License.
-->
<svg width="17" height="16" viewBox="0 0 17 16" fill="none" xmlns="http://www.w3.org/2000/svg">
<path d="M5.09261 7.15607C4.7604 6.75741 4.11972 6.72083 3.65598 7.10729C3.25731 7.43951 3.22074 8.08018 3.60719 8.54393C3.93601 8.93851 4.56701 8.97838 5.02954 8.60444C5.38441 8.23599 5.44534 7.57934 5.09261 7.15607ZM3.14383 6.49271C3.88008 5.87917 5.03941 5.84259 5.70719 6.64393C6.35037 7.41574 6.21686 8.54872 5.58275 9.18284C5.5742 9.19139 5.56526 9.19955 5.55598 9.20729C4.81972 9.82083 3.6604 9.85741 2.99261 9.05607C2.37907 8.31982 2.34249 7.16049 3.14383 6.49271Z" fill="black"/>
<path d="M9.19261 7.15607C8.86039 6.75741 8.21972 6.72083 7.75598 7.10729C7.35731 7.43951 7.32074 8.08018 7.70719 8.54393C8.03941 8.94259 8.68008 8.97917 9.14383 8.59271C9.54249 8.26049 9.57907 7.61982 9.19261 7.15607ZM7.24383 6.49271C7.98008 5.87917 9.13941 5.84259 9.80719 6.64393C10.4207 7.38018 10.4573 8.53951 9.65598 9.20729C8.91972 9.82083 7.7604 9.85741 7.09261 9.05607C6.47907 8.31982 6.44249 7.16049 7.24383 6.49271Z" fill="black"/>
<path d="M13.2926 7.15607C13.3004 7.16536 13.3085 7.17429 13.3171 7.18284C13.7377 7.60351 13.6776 8.23125 13.2438 8.59271C12.7801 8.97917 12.1394 8.94259 11.8072 8.54393C11.4546 8.12079 11.5184 7.4719 11.956 7.10729C11.9653 7.09955 11.9742 7.09139 11.9827 7.08284C12.3218 6.74375 12.948 6.74259 13.2926 7.15607ZM13.8954 6.62994C13.2421 5.86251 12.0894 5.86019 11.4301 6.50425C10.6797 7.14195 10.5491 8.28389 11.1926 9.05607C11.8604 9.85741 13.0197 9.82083 13.756 9.20729C14.518 8.57223 14.6605 7.40926 13.8954 6.62994Z" fill="black"/>
<path d="M4.3999 5.2C2.82082 5.2 1.6999 6.32091 1.6999 7.9C1.6999 9.38761 2.82924 10.6 4.3999 10.6H12.4999C14.0873 10.6 15.2999 9.37084 15.2999 7.9C15.2999 6.33748 14.0959 5.2 12.4999 5.2H4.3999ZM0.899902 7.9C0.899902 5.87909 2.37899 4.4 4.3999 4.4H12.4999C14.5039 4.4 16.0999 5.86251 16.0999 7.9C16.0999 9.82916 14.5125 11.4 12.4999 11.4H4.3999C2.37056 11.4 0.899902 9.81239 0.899902 7.9Z" fill="black"/>
<path d="M2.8999 2.8C2.8999 2.57909 3.07899 2.4 3.2999 2.4H6.4999C6.72082 2.4 6.8999 2.57909 6.8999 2.8C6.8999 3.02091 6.72082 3.2 6.4999 3.2H3.2999C3.07899 3.2 2.8999 3.02091 2.8999 2.8Z" fill="black"/>
<path d="M4.61706 0.617157C4.77327 0.460948 5.02654 0.460948 5.18274 0.617157L7.18274 2.61716C7.25902 2.69343 7.30125 2.79727 7.29987 2.90513C7.29849 3.01298 7.2536 3.11571 7.1754 3.19L5.1754 5.09C5.01524 5.24215 4.76206 5.23566 4.6099 5.0755C4.45775 4.91534 4.46424 4.66215 4.6244 4.51L6.32687 2.89265L4.61706 1.18284C4.46085 1.02663 4.46085 0.773367 4.61706 0.617157Z" fill="black"/>
<path d="M9.8999 13.2C9.8999 12.9791 10.079 12.8 10.2999 12.8H13.5999C13.8208 12.8 13.9999 12.9791 13.9999 13.2C13.9999 13.4209 13.8208 13.6 13.5999 13.6H10.2999C10.079 13.6 9.8999 13.4209 9.8999 13.2Z" fill="black"/>
<path d="M11.7171 11.0172C11.8733 10.8609 12.1265 10.8609 12.2827 11.0172L14.2827 13.0172C14.359 13.0934 14.4013 13.1973 14.3999 13.3051C14.3985 13.413 14.3536 13.5157 14.2754 13.59L12.2754 15.49C12.1152 15.6422 11.8621 15.6357 11.7099 15.4755C11.5577 15.3153 11.5642 15.0622 11.7244 14.91L13.4269 13.2927L11.7171 11.5828C11.5609 11.4266 11.5609 11.1734 11.7171 11.0172Z" fill="black"/>
</svg>
