<?xml version="1.0" standalone="no"?>
<!--
 ~ Copyright (c) 2025, WSO2 LLC. (https://www.wso2.com) All Rights Reserved.
 ~
 ~ WSO2 LLC. licenses this file to you under the Apache License,
 ~ Version 2.0 (the "License"); you may not use this file except
 ~ in compliance with the License.
 ~ You may obtain a copy of the License at
 ~
 ~     http://www.apache.org/licenses/LICENSE-2.0
 ~
 ~ Unless required by applicable law or agreed to in writing,
 ~ software distributed under the License is distributed on an
 ~ "AS IS" BASIS, WITHOUT WARRANTIES OR CONDITIONS OF ANY
 ~ KIND, either express or implied. See the License for the
 ~ specific language governing permissions and limitations
 ~ under the License.
-->
<?xml version="1.0" encoding="UTF-8"?>

<!-- Adopted from https://github.com/microsoft/vscode-codicons/blob/main/src/icons/group-by-ref-type.svg with minor modifications -->

<svg width="16" height="16" viewBox="0 0 16 16" xmlns="http://www.w3.org/2000/svg" fill="black">
    <path fill-rule="evenodd" clip-rule="evenodd" d="M1.5 1h2v1H2v12h1.5v1h-2l-.5-.5v-13l.5-.5zm6 6h-2L5 6.5v-2l.5-.5h2l.5.5v2l-.5.5zM6 6h1V5H6v1zm7.5 1h-3l-.5-.5v-3l.5-.5h3l.5.5v3l-.5.5zM11 6h2V4h-2v2zm-3.5 6h-2l-.5-.5v-2l.5-.5h2l.5.5v2l-.5.5zM6 11h1v-1H6v1zm7.5 2h-3l-.5-.5v-3l.5-.5h3l.5.5v3l-.5.5zM11 12h2v-2h-2v2zm-1-2H8v1h2v-1zm0-5H8v1h2V5z"/>
</svg>
