<!--
 ~ Copyright (c) 2025, WSO2 LLC. (https://www.wso2.com) All Rights Reserved.
 ~
 ~ WSO2 LLC. licenses this file to you under the Apache License,
 ~ Version 2.0 (the "License"); you may not use this file except
 ~ in compliance with the License.
 ~ You may obtain a copy of the License at
 ~
 ~     http://www.apache.org/licenses/LICENSE-2.0
 ~
 ~ Unless required by applicable law or agreed to in writing,
 ~ software distributed under the License is distributed on an
 ~ "AS IS" BASIS, WITHOUT WARRANTIES OR CONDITIONS OF ANY
 ~ KIND, either express or implied. See the License for the
 ~ specific language governing permissions and limitations
 ~ under the License.
-->
<svg xmlns="http://www.w3.org/2000/svg" width="24" height="24" viewBox="0 0 24 24">
    <path fill="black"
        d="M5 21q-.825 0-1.412-.587T3 19V5q0-.825.588-1.412T5 3h14q.825 0 1.413.588T21 5v14q0 .825-.587 1.413T19 21zm0-2h14V7H5zm7-2q-2.05 0-3.662-1.112T6 13q.725-1.775 2.338-2.887T12 9t3.663 1.113T18 13q-.725 1.775-2.337 2.888T12 17m0-2.5q-.625 0-1.062-.437T10.5 13t.438-1.062T12 11.5t1.063.438T13.5 13t-.437 1.063T12 14.5m0 1q1.05 0 1.775-.725T14.5 13t-.725-1.775T12 10.5t-1.775.725T9.5 13t.725 1.775T12 15.5" />
</svg>
