<!--
 ~ Copyright (c) 2025, WSO2 LLC. (https://www.wso2.com) All Rights Reserved.
 ~
 ~ WSO2 LLC. licenses this file to you under the Apache License,
 ~ Version 2.0 (the "License"); you may not use this file except
 ~ in compliance with the License.
 ~ You may obtain a copy of the License at
 ~
 ~     http://www.apache.org/licenses/LICENSE-2.0
 ~
 ~ Unless required by applicable law or agreed to in writing,
 ~ software distributed under the License is distributed on an
 ~ "AS IS" BASIS, WITHOUT WARRANTIES OR CONDITIONS OF ANY
 ~ KIND, either express or implied. See the License for the
 ~ specific language governing permissions and limitations
 ~ under the License.
-->
<svg width="16" height="13" viewBox="0 0 16 13" fill="none" xmlns="http://www.w3.org/2000/svg">
<path fill-rule="evenodd" clip-rule="evenodd" d="M4.7999 3.49994C4.39611 3.49994 4.0999 3.84478 4.0999 4.09994C4.0999 4.47903 4.42082 4.79994 4.7999 4.79994C5.17899 4.79994 5.4999 4.47903 5.4999 4.09994C5.4999 3.84478 5.2037 3.49994 4.7999 3.49994ZM3.2999 4.09994C3.2999 3.3551 4.0037 2.69994 4.7999 2.69994C5.59611 2.69994 6.2999 3.3551 6.2999 4.09994C6.2999 4.92085 5.62082 5.59994 4.7999 5.59994C3.97899 5.59994 3.2999 4.92085 3.2999 4.09994Z" fill="black"/>
<path fill-rule="evenodd" clip-rule="evenodd" d="M5.6999 4.09994C5.6999 3.87903 5.87899 3.69994 6.0999 3.69994H12.2999C12.5208 3.69994 12.6999 3.87903 12.6999 4.09994C12.6999 4.32085 12.5208 4.49994 12.2999 4.49994H6.0999C5.87899 4.49994 5.6999 4.32085 5.6999 4.09994Z" fill="black"/>
<path fill-rule="evenodd" clip-rule="evenodd" d="M3.15214 0.389494C3.32359 0.528801 3.34965 0.780722 3.21035 0.952177C1.96442 2.48563 1.1999 4.39775 1.1999 6.59994C1.1999 8.59882 1.96235 10.5165 3.1199 12.0599C3.25245 12.2367 3.21663 12.4874 3.0399 12.6199C2.86317 12.7525 2.61245 12.7167 2.4799 12.5399C1.23746 10.8833 0.399902 8.80106 0.399902 6.59994C0.399902 4.20213 1.23539 2.11425 2.58946 0.447703C2.72876 0.276248 2.98069 0.250187 3.15214 0.389494Z" fill="black"/>
<path fill-rule="evenodd" clip-rule="evenodd" d="M12.8477 0.389494C13.0191 0.250187 13.271 0.276248 13.4103 0.447703C14.7724 2.12411 15.4999 4.21488 15.4999 6.59994C15.4999 8.88939 14.77 10.9745 13.4176 12.7429C13.2835 12.9184 13.0324 12.9519 12.8569 12.8177C12.6814 12.6835 12.648 12.4324 12.7822 12.257C14.0298 10.6254 14.6999 8.71048 14.6999 6.59994C14.6999 4.385 14.0274 2.47577 12.7895 0.952177C12.6502 0.780722 12.6762 0.528801 12.8477 0.389494Z" fill="black"/>
<path fill-rule="evenodd" clip-rule="evenodd" d="M4.7999 7.99994C4.42082 7.99994 4.0999 8.32085 4.0999 8.69994C4.0999 9.07903 4.42082 9.39994 4.7999 9.39994C5.17899 9.39994 5.4999 9.07903 5.4999 8.69994C5.4999 8.32085 5.17899 7.99994 4.7999 7.99994ZM3.2999 8.69994C3.2999 7.87903 3.97899 7.19994 4.7999 7.19994C5.62082 7.19994 6.2999 7.87903 6.2999 8.69994C6.2999 9.52085 5.62082 10.1999 4.7999 10.1999C3.97899 10.1999 3.2999 9.52085 3.2999 8.69994Z" fill="black"/>
<path fill-rule="evenodd" clip-rule="evenodd" d="M5.6999 8.69994C5.6999 8.47903 5.87899 8.29994 6.0999 8.29994H12.2999C12.5208 8.29994 12.6999 8.47903 12.6999 8.69994C12.6999 8.92085 12.5208 9.09994 12.2999 9.09994H6.0999C5.87899 9.09994 5.6999 8.92085 5.6999 8.69994Z" fill="black"/>
</svg>
