<!--
 ~ Copyright (c) 2025, WSO2 LLC. (https://www.wso2.com) All Rights Reserved.
 ~
 ~ WSO2 LLC. licenses this file to you under the Apache License,
 ~ Version 2.0 (the "License"); you may not use this file except
 ~ in compliance with the License.
 ~ You may obtain a copy of the License at
 ~
 ~     http://www.apache.org/licenses/LICENSE-2.0
 ~
 ~ Unless required by applicable law or agreed to in writing,
 ~ software distributed under the License is distributed on an
 ~ "AS IS" BASIS, WITHOUT WARRANTIES OR CONDITIONS OF ANY
 ~ KIND, either express or implied. See the License for the
 ~ specific language governing permissions and limitations
 ~ under the License.
-->
<svg width="16" height="13" viewBox="0 0 16 13" fill="none" xmlns="http://www.w3.org/2000/svg">
<path d="M4.5533 2.09036C4.72427 2.23025 4.74947 2.48226 4.60958 2.65323C3.7754 3.67279 3.3 5.07997 3.3 6.59994C3.3 8.01133 3.77076 9.32967 4.52349 10.3647C4.65343 10.5433 4.61393 10.7935 4.43527 10.9234C4.25661 11.0534 4.00644 11.0139 3.87651 10.8352C3.02924 9.67021 2.5 8.18855 2.5 6.59994C2.5 4.91991 3.0246 3.32709 3.99042 2.14664C4.13031 1.97567 4.38232 1.95047 4.5533 2.09036Z" fill="black"/>
<path d="M11.3467 2.09036C11.5177 1.95047 11.7697 1.97567 11.9096 2.14664C12.8754 3.32709 13.4 4.91991 13.4 6.59994C13.4 8.28947 12.8701 9.77312 11.92 11.0399C11.7875 11.2167 11.5367 11.2525 11.36 11.1199C11.1833 10.9874 11.1475 10.7367 11.28 10.5599C12.1299 9.42675 12.6 8.11041 12.6 6.59994C12.6 5.07997 12.1246 3.67279 11.2904 2.65323C11.1505 2.48226 11.1757 2.23025 11.3467 2.09036Z" fill="black"/>
<path d="M3.15224 0.389494C3.32369 0.528801 3.34975 0.780722 3.21045 0.952177C1.97384 2.47415 1.3 4.48275 1.3 6.59994C1.3 8.60679 1.96783 10.4237 3.12 11.9599C3.25255 12.1367 3.21673 12.3874 3.04 12.5199C2.86327 12.6525 2.61255 12.6167 2.48 12.4399C1.23217 10.7762 0.5 8.79309 0.5 6.59994C0.5 4.31713 1.22616 2.12573 2.58955 0.447703C2.72886 0.276248 2.98078 0.250187 3.15224 0.389494Z" fill="black"/>
<path d="M12.7478 0.389494C12.9192 0.250187 13.1711 0.276248 13.3104 0.447703C14.6738 2.12573 15.4 4.31713 15.4 6.59994C15.4 8.88728 14.6712 10.9774 13.3104 12.6522C13.1711 12.8236 12.9192 12.8497 12.7478 12.7104C12.5763 12.5711 12.5502 12.3192 12.6896 12.1477C13.9288 10.6224 14.6 8.7126 14.6 6.59994C14.6 4.48275 13.9262 2.47415 12.6896 0.952177C12.5502 0.780722 12.5763 0.528801 12.7478 0.389494Z" fill="black"/>
<path d="M6.4 3.99994C5.96907 3.99994 5.7 4.26935 5.7 4.59994C5.7 4.97903 6.02091 5.29994 6.4 5.29994C6.77909 5.29994 7.1 4.97903 7.1 4.59994C7.1 4.26935 6.83093 3.99994 6.4 3.99994ZM4.9 4.59994C4.9 3.73052 5.63093 3.19994 6.4 3.19994C7.16907 3.19994 7.9 3.73052 7.9 4.59994C7.9 5.42085 7.22091 6.09994 6.4 6.09994C5.57909 6.09994 4.9 5.42085 4.9 4.59994Z" fill="black"/>
<path d="M7.3 4.59994C7.3 4.37903 7.47909 4.19994 7.7 4.19994H10.7C10.9209 4.19994 11.1 4.37903 11.1 4.59994C11.1 4.82085 10.9209 4.99994 10.7 4.99994H7.7C7.47909 4.99994 7.3 4.82085 7.3 4.59994Z" fill="black"/>
<path d="M6.4 7.79994C6.02091 7.79994 5.7 8.12085 5.7 8.49994C5.7 8.87903 6.02091 9.19994 6.4 9.19994C6.77909 9.19994 7.1 8.87903 7.1 8.49994C7.1 8.12085 6.77909 7.79994 6.4 7.79994ZM4.9 8.49994C4.9 7.67903 5.57909 6.99994 6.4 6.99994C7.22091 6.99994 7.9 7.67903 7.9 8.49994C7.9 9.32085 7.22091 9.99994 6.4 9.99994C5.57909 9.99994 4.9 9.32085 4.9 8.49994Z" fill="black"/>
<path d="M7.3 8.49994C7.3 8.27903 7.47909 8.09994 7.7 8.09994H10.7C10.9209 8.09994 11.1 8.27903 11.1 8.49994C11.1 8.72085 10.9209 8.89994 10.7 8.89994H7.7C7.47909 8.89994 7.3 8.72085 7.3 8.49994Z" fill="black"/>
</svg>
