<!--
 ~ Copyright (c) 2025, WSO2 LLC. (https://www.wso2.com) All Rights Reserved.
 ~
 ~ WSO2 LLC. licenses this file to you under the Apache License,
 ~ Version 2.0 (the "License"); you may not use this file except
 ~ in compliance with the License.
 ~ You may obtain a copy of the License at
 ~
 ~     http://www.apache.org/licenses/LICENSE-2.0
 ~
 ~ Unless required by applicable law or agreed to in writing,
 ~ software distributed under the License is distributed on an
 ~ "AS IS" BASIS, WITHOUT WARRANTIES OR CONDITIONS OF ANY
 ~ KIND, either express or implied. See the License for the
 ~ specific language governing permissions and limitations
 ~ under the License.
-->
<svg xmlns="http://www.w3.org/2000/svg" width="24" height="24" viewBox="0 0 24 24">
    <path fill="currentColor"
        d="M9.64 13.4C8.63 12.5 7.34 12.03 6 12v3l-4-4l4-4v3c1.67 0 3.3.57 4.63 1.59a7.97 7.97 0 0 0-.99 1.81M18 15v-3c-.5 0-4.5.16-4.95 4.2c1.56.55 2.38 2.27 1.83 3.83a3.006 3.006 0 0 1-3.83 1.83c-1.55-.56-2.38-2.27-1.83-3.83c.28-.86.98-1.53 1.83-1.83A6.748 6.748 0 0 1 18 10V7l4 4l-4 4m-5 4a1 1 0 0 0-1-1a1 1 0 0 0-1 1a1 1 0 0 0 1 1a1 1 0 0 0 1-1m-2-7.88c.58-.66 1.25-1.23 2-1.69V5h3l-4-4l-4 4h3v6.12Z" />
</svg>
