<!--
 ~ Copyright (c) 2025, WSO2 LLC. (https://www.wso2.com) All Rights Reserved.
 ~
 ~ WSO2 LLC. licenses this file to you under the Apache License,
 ~ Version 2.0 (the "License"); you may not use this file except
 ~ in compliance with the License.
 ~ You may obtain a copy of the License at
 ~
 ~     http://www.apache.org/licenses/LICENSE-2.0
 ~
 ~ Unless required by applicable law or agreed to in writing,
 ~ software distributed under the License is distributed on an
 ~ "AS IS" BASIS, WITHOUT WARRANTIES OR CONDITIONS OF ANY
 ~ KIND, either express or implied. See the License for the
 ~ specific language governing permissions and limitations
 ~ under the License.
-->
<svg width="14" height="15" viewBox="0 0 14 15" fill="none" xmlns="http://www.w3.org/2000/svg">
<path d="M13.7344 0.380367C13.8385 0.538879 13.817 0.748728 13.6829 0.882835L7.98294 6.58284C7.87101 6.69477 7.7036 6.73016 7.55594 6.67311L3.15594 4.97311C3.00233 4.91376 2.90079 4.76634 2.9001 4.60167C2.89941 4.437 2.99971 4.28873 3.15281 4.2281L13.2528 0.228096C13.4291 0.158262 13.6303 0.221856 13.7344 0.380367ZM4.39805 4.59539L7.60137 5.83303L11.7511 1.68328L4.39805 4.59539Z" fill="black"/>
<path d="M13.6217 0.267005C13.7804 0.372588 13.8425 0.575419 13.7702 0.751734L9.6702 10.7517C9.60772 10.9041 9.45821 11.0026 9.29352 10.9999C9.12884 10.9972 8.98265 10.8939 8.92521 10.7395L7.32521 6.43949C7.27064 6.29282 7.3066 6.1278 7.41725 6.01715L13.1173 0.31715C13.252 0.182404 13.4631 0.161422 13.6217 0.267005ZM8.16456 6.40122L9.31816 9.50152L12.2743 2.29152L8.16456 6.40122Z" fill="black"/>
<path d="M2.8001 10.3C1.70932 10.3 0.900098 11.1324 0.900098 12.1C0.900098 13.1791 1.72101 14 2.8001 14C3.79052 14 4.7001 13.1679 4.7001 12.1C4.7001 11.1434 3.80238 10.3 2.8001 10.3ZM0.100098 12.1C0.100098 10.6676 1.29088 9.49999 2.8001 9.49999C4.19782 9.49999 5.5001 10.6566 5.5001 12.1C5.5001 13.6321 4.20967 14.8 2.8001 14.8C1.27918 14.8 0.100098 13.6209 0.100098 12.1Z" fill="black"/>
<path d="M11.2829 2.71715C11.4391 2.87336 11.4391 3.12663 11.2829 3.28284L5.38294 9.18283C5.22673 9.33904 4.97346 9.33904 4.81725 9.18283C4.66104 9.02663 4.66104 8.77336 4.81725 8.61715L10.7173 2.71715C10.8735 2.56094 11.1267 2.56094 11.2829 2.71715Z" fill="black"/>
</svg>
