<svg width="57" height="60" viewBox="0 0 57 60" fill="none" xmlns="http://www.w3.org/2000/svg">
<path d="M14.8157 2.81947C19.2576 1.55964 25.3017 0.800049 31.9 0.800049C38.4983 0.800049 44.5424 1.55964 48.9843 2.81947C51.1949 3.44646 53.0942 4.22094 54.4753 5.14592C55.8011 6.03383 57 7.30728 57 9.00005V51C57 52.6928 55.8011 53.9663 54.4753 54.8542C53.0942 55.7792 51.1949 56.5536 48.9843 57.1806C44.5424 58.4405 38.4983 59.2001 31.9 59.2001C25.3017 59.2001 19.2576 58.4405 14.8157 57.1806C12.6051 56.5536 10.7058 55.7792 9.3247 54.8542C7.99889 53.9663 6.8 52.6928 6.8 51C6.8 50.1716 7.47157 49.5 8.3 49.5C9.12843 49.5 9.8 50.1716 9.8 51C9.8 51.1573 9.92611 51.6463 10.9941 52.3615C12.0067 53.0397 13.5699 53.709 15.6343 54.2945C19.7424 55.4596 25.4983 56.2001 31.9 56.2001C38.3017 56.2001 44.0576 55.4596 48.1657 54.2945C50.2301 53.709 51.7933 53.0397 52.806 52.3615C53.8739 51.6463 54 51.1573 54 51V9.00063C54 8.8434 53.8739 8.35377 52.806 7.63856C51.7933 6.9604 50.2301 6.29114 48.1657 5.70563C44.0576 4.54046 38.3017 3.80005 31.9 3.80005C25.4983 3.80005 19.7424 4.54046 15.6343 5.70563C13.5699 6.29114 12.0067 6.9604 10.9941 7.63856C9.92611 8.35377 9.8 8.84282 9.8 9.00005V14.4C9.8 15.2285 9.12843 15.9 8.3 15.9C7.47157 15.9 6.8 15.2285 6.8 14.4V9.00005C6.8 7.30728 7.99889 6.03383 9.3247 5.14592C10.7058 4.22094 12.6051 3.44646 14.8157 2.81947Z" fill="black"/>
<path d="M10.9906 7.63756C9.92665 8.35168 9.8 8.84072 9.8 9.00005C9.8 9.15937 9.92665 9.64842 10.9906 10.3625C12.0002 11.0402 13.5599 11.7093 15.6219 12.2947C19.7254 13.4596 25.481 14.2 31.9 14.2C38.319 14.2 44.0746 13.4596 48.1781 12.2947C50.2401 11.7093 51.7998 11.0402 52.8094 10.3625C53.8733 9.64842 54 9.15996 54 9.00063C54 8.84131 53.8733 8.35167 52.8094 7.63756C51.7998 6.95987 50.2401 6.29081 48.1781 5.70541C44.0746 4.54045 38.319 3.80005 31.9 3.80005C25.481 3.80005 19.7254 4.54045 15.6219 5.70541C13.5599 6.29081 12.0002 6.95987 10.9906 7.63756ZM14.8026 2.81946C19.2407 1.55949 25.285 0.800049 31.9 0.800049C38.515 0.800049 44.5593 1.55949 48.9974 2.81946C51.2061 3.44652 53.1026 4.22119 54.4814 5.14665C55.8059 6.03569 57 7.30922 57 9.00005C57 10.6909 55.8059 11.9644 54.4814 12.8534C53.1026 13.7789 51.2061 14.5536 48.9974 15.1806C44.5593 16.4406 38.515 17.2001 31.9 17.2001C25.285 17.2001 19.2407 16.4406 14.8026 15.1806C12.5939 14.5536 10.6974 13.7789 9.31864 12.8534C7.99411 11.9644 6.8 10.6909 6.8 9.00005C6.8 7.30922 7.99411 6.03569 9.31864 5.14665C10.6974 4.22119 12.5939 3.44652 14.8026 2.81946Z" fill="black"/>
<path d="M25.8 31.1H17.5C16.8 31 16.3 30.4 16.3 29.7V20.9C16.3 20.2 15.7 19.6 15 19.6H12C11.3 19.6 10.7 20.2 10.7 20.9V29.8C10.7 30.5 10.1 31 9.4 31.1H7.2C6.6 31 6.1 30.5 6 29.8V20.9C6 20.2 5.4 19.6 4.7 19.6H1.8C1.1 19.6 0.5 20.2 0.5 20.9V46.5C0.5 47.2 1.1 47.8 1.8 47.8H25.8C26.5 47.8 27.1 47.2 27.1 46.5V32.4C27.2 31.7 26.6 31.1 25.8 31.1ZM22 40.7001C22 41.4001 21.4 42 20.7 42H17.8C17.1 42 16.5 41.4001 16.5 40.7001V38C16.5 37.3 17.1 36.7001 17.8 36.7001H20.7C21.4 36.7001 22 37.3 22 38V40.7001Z" fill="black"/>
<path d="M19.1 21.3C19.1 20.4716 19.7716 19.8 20.6 19.8H55.5C56.3284 19.8 57 20.4716 57 21.3V46.2001C57 47.0285 56.3284 47.7001 55.5 47.7001H34.4C33.5716 47.7001 32.9 47.0285 32.9 46.2001C32.9 45.3716 33.5716 44.7001 34.4 44.7001H54V22.8H20.6C19.7716 22.8 19.1 22.1285 19.1 21.3Z" fill="black"/>
<path d="M56.733 20.4459C57.2048 21.1269 57.0352 22.0613 56.3542 22.5331L38.4542 34.9331C37.9293 35.2967 37.2319 35.2882 36.716 34.9119L19.716 22.5119C19.0468 22.0237 18.8999 21.0854 19.3881 20.4161C19.8763 19.7468 20.8147 19.6 21.484 20.0882L37.6224 31.8598L54.6458 20.067C55.3268 19.5953 56.2613 19.7649 56.733 20.4459Z" fill="black"/>
</svg>
