<svg width="44" height="61" viewBox="0 0 44 61" fill="none" xmlns="http://www.w3.org/2000/svg">
<path d="M0.200195 11.2C0.200195 10.3715 0.871768 9.69995 1.7002 9.69995H24.3002C25.1286 9.69995 25.8002 10.3715 25.8002 11.2C25.8002 12.0284 25.1286 12.7 24.3002 12.7H1.7002C0.871768 12.7 0.200195 12.0284 0.200195 11.2Z" fill="black"/>
<path d="M15.2339 1.14492C15.8166 0.55604 16.7664 0.551015 17.3552 1.13369L26.8552 10.5337C27.1471 10.8225 27.3078 11.2184 27.2999 11.6289C27.292 12.0395 27.1161 12.4288 26.8133 12.7062L17.3133 21.4062C16.7023 21.9657 15.7535 21.924 15.194 21.313C14.6345 20.7021 14.6762 19.7532 15.2871 19.1937L23.6251 11.5579L15.2452 3.26621C14.6563 2.68353 14.6513 1.7338 15.2339 1.14492Z" fill="black"/>
<path d="M34.0002 4.39995C32.3572 4.39995 30.8796 4.97376 29.7269 5.87943C29.0755 6.39125 28.1325 6.27809 27.6207 5.62668C27.1089 4.97528 27.2221 4.03229 27.8735 3.52047C29.5208 2.22614 31.6432 1.39995 34.0002 1.39995C39.4286 1.39995 43.8002 5.77152 43.8002 11.2C43.8002 16.6284 39.4286 21 34.0002 21C32.0873 21 30.3426 20.4033 28.889 19.6207C28.1596 19.2279 27.8867 18.3182 28.2795 17.5888C28.6722 16.8594 29.5819 16.5865 30.3113 16.9792C31.4578 17.5966 32.713 18 34.0002 18C37.7718 18 40.8002 14.9715 40.8002 11.2C40.8002 7.42838 37.7718 4.39995 34.0002 4.39995Z" fill="black"/>
<path d="M37.2002 39.2999H26.6002C25.8002 39.1999 25.1002 38.4999 25.1002 37.5999V26.5C25.1002 25.6 24.3002 24.7999 23.4002 24.7999H19.7002C18.8002 24.7999 18.0002 25.6 18.0002 26.5V37.7C18.0002 38.5 17.3002 39.1999 16.4002 39.2999H13.6002C12.8002 39.1999 12.2002 38.5 12.1002 37.7V26.5C12.1002 25.6 11.3002 24.7999 10.4002 24.7999H6.7002C5.7002 24.7999 5.0002 25.6 5.0002 26.5V59C5.0002 59.9 5.8002 60.7 6.7002 60.7H37.2002C38.1002 60.7 38.9002 59.9 38.9002 59V41C39.0002 40.1 38.2002 39.2999 37.2002 39.2999ZM32.4002 51.5999C32.4002 52.4999 31.6002 53.2999 30.7002 53.2999H27.0002C26.1002 53.2999 25.3002 52.4999 25.3002 51.5999V48.0999C25.3002 47.1999 26.1002 46.4 27.0002 46.4H30.7002C31.6002 46.4 32.4002 47.1999 32.4002 48.0999V51.5999Z" fill="black"/>
</svg>
