<svg width="56" height="62" viewBox="0 0 56 62" fill="none" xmlns="http://www.w3.org/2000/svg">
<path d="M20.5001 23.9C16.358 23.9 13.0001 27.2579 13.0001 31.4C13.0001 35.5421 16.358 38.9 20.5001 38.9C24.6422 38.9 28.0001 35.5421 28.0001 31.4C28.0001 27.2579 24.6422 23.9 20.5001 23.9ZM10.0001 31.4C10.0001 25.601 14.7011 20.9 20.5001 20.9C26.2991 20.9 31.0001 25.601 31.0001 31.4C31.0001 37.199 26.2991 41.9 20.5001 41.9C14.7011 41.9 10.0001 37.199 10.0001 31.4Z" fill="black"/>
<path d="M0.100098 31.4C0.100098 30.5716 0.771671 29.9 1.6001 29.9H20.5001C21.3285 29.9 22.0001 30.5716 22.0001 31.4C22.0001 32.2284 21.3285 32.9 20.5001 32.9H1.6001C0.771671 32.9 0.100098 32.2284 0.100098 31.4Z" fill="black"/>
<path d="M33.8001 9.1C33.8001 8.27157 34.4717 7.6 35.3001 7.6H53.1001C53.9285 7.6 54.6001 8.27157 54.6001 9.1C54.6001 9.92843 53.9285 10.6 53.1001 10.6H35.3001C34.4717 10.6 33.8001 9.92843 33.8001 9.1Z" fill="black"/>
<path d="M45.8323 0.946482C46.4142 0.356778 47.3639 0.350404 47.9536 0.932246L55.4536 8.33225C55.7458 8.62049 55.907 9.01585 55.8999 9.4262C55.8927 9.83654 55.7177 10.226 55.4157 10.5039L47.9157 17.4039C47.306 17.9648 46.3571 17.9252 45.7962 17.3156C45.2353 16.7059 45.2749 15.757 45.8845 15.1961L52.2259 9.36202L45.8466 3.06775C45.2569 2.48591 45.2505 1.53619 45.8323 0.946482Z" fill="black"/>
<path d="M33.8001 31C33.8001 30.1716 34.4717 29.5 35.3001 29.5H53.1001C53.9285 29.5 54.6001 30.1716 54.6001 31C54.6001 31.8284 53.9285 32.5 53.1001 32.5H35.3001C34.4717 32.5 33.8001 31.8284 33.8001 31Z" fill="black"/>
<path d="M45.8323 22.8465C46.4142 22.2568 47.3639 22.2504 47.9536 22.8322L55.4536 30.2322C55.7471 30.5218 55.9085 30.9194 55.8998 31.3316C55.8911 31.7439 55.7131 32.1343 55.4076 32.4112L47.9076 39.2113C47.2939 39.7677 46.3453 39.7213 45.7888 39.1075C45.2324 38.4938 45.2788 37.5452 45.8926 36.9888L52.2177 31.2539L45.8466 24.9678C45.2569 24.3859 45.2505 23.4362 45.8323 22.8465Z" fill="black"/>
<path d="M33.8001 52.9C33.8001 52.0716 34.4717 51.4 35.3001 51.4H53.1001C53.9285 51.4 54.6001 52.0716 54.6001 52.9C54.6001 53.7284 53.9285 54.4 53.1001 54.4H35.3001C34.4717 54.4 33.8001 53.7284 33.8001 52.9Z" fill="black"/>
<path d="M45.8323 44.6465C46.4142 44.0568 47.3639 44.0504 47.9536 44.6322L55.4536 52.0322C55.7458 52.3205 55.907 52.7159 55.8999 53.1262C55.8927 53.5365 55.7177 53.926 55.4157 54.2039L47.9157 61.1039C47.306 61.6648 46.3571 61.6253 45.7962 61.0156C45.2353 60.4059 45.2748 59.457 45.8845 58.8961L52.2259 53.062L45.8466 46.7678C45.2569 46.1859 45.2505 45.2362 45.8323 44.6465Z" fill="black"/>
</svg>
