<!--
 ~ Copyright (c) 2025, WSO2 LLC. (https://www.wso2.com) All Rights Reserved.
 ~
 ~ WSO2 LLC. licenses this file to you under the Apache License,
 ~ Version 2.0 (the "License"); you may not use this file except
 ~ in compliance with the License.
 ~ You may obtain a copy of the License at
 ~
 ~     http://www.apache.org/licenses/LICENSE-2.0
 ~
 ~ Unless required by applicable law or agreed to in writing,
 ~ software distributed under the License is distributed on an
 ~ "AS IS" BASIS, WITHOUT WARRANTIES OR CONDITIONS OF ANY
 ~ KIND, either express or implied. See the License for the
 ~ specific language governing permissions and limitations
 ~ under the License.
-->
<svg width="16" height="16" viewBox="0 0 16 16" fill="none" xmlns="http://www.w3.org/2000/svg">
<path d="M0.600098 10.8999C0.600098 10.679 0.779184 10.4999 1.0001 10.4999H5.1001C5.32101 10.4999 5.5001 10.679 5.5001 10.8999V14.9999C5.5001 15.2208 5.32101 15.3999 5.1001 15.3999H1.0001C0.779184 15.3999 0.600098 15.2208 0.600098 14.9999V10.8999ZM1.4001 11.2999V14.5999H4.7001V11.2999H1.4001Z" fill="black"/>
<path d="M6.6001 10.8999C6.6001 10.679 6.77918 10.4999 7.0001 10.4999H11.1001C11.321 10.4999 11.5001 10.679 11.5001 10.8999V14.9999C11.5001 15.2208 11.321 15.3999 11.1001 15.3999H7.0001C6.77918 15.3999 6.6001 15.2208 6.6001 14.9999V10.8999ZM7.4001 11.2999V14.5999H10.7001V11.2999H7.4001Z" fill="black"/>
<path d="M0.600098 4.9999C0.600098 4.77899 0.779184 4.5999 1.0001 4.5999H5.1001C5.32101 4.5999 5.5001 4.77899 5.5001 4.9999V9.0999C5.5001 9.32082 5.32101 9.4999 5.1001 9.4999H1.0001C0.779184 9.4999 0.600098 9.32082 0.600098 9.0999V4.9999ZM1.4001 5.3999V8.6999H4.7001V5.3999H1.4001Z" fill="black"/>
<path d="M7.79152 0.458591C7.88204 0.403272 7.99083 0.386179 8.09395 0.411071L10.994 1.11107C11.2087 1.16291 11.3408 1.37901 11.2889 1.59376L10.5889 4.49376C10.564 4.59689 10.4992 4.6859 10.4087 4.74122C10.3182 4.79654 10.2094 4.81363 10.1062 4.78874L7.20624 4.08874C6.9915 4.0369 6.85943 3.82079 6.91126 3.60605L7.61126 0.706047C7.63616 0.602923 7.701 0.51391 7.79152 0.458591ZM8.29507 1.28259L7.78279 3.40493L9.90512 3.91721L10.4174 1.79488L8.29507 1.28259Z" fill="black"/>
<path d="M7.93815 4.90473C8.04482 4.88801 8.15372 4.91512 8.2401 4.9799L10.6401 6.7799C10.8168 6.91245 10.8526 7.16317 10.7201 7.3399L8.9201 9.7399C8.85559 9.82591 8.75918 9.88233 8.6526 9.89644C8.54601 9.91055 8.43824 9.88117 8.35357 9.81491L6.05357 8.0149C5.88545 7.88333 5.85029 7.64291 5.97369 7.4687L7.67369 5.0687C7.7361 4.98059 7.83148 4.92145 7.93815 4.90473ZM8.08892 5.86652L6.84693 7.61993L8.52508 8.93326L9.8401 7.1799L8.08892 5.86652Z" fill="black"/>
<path d="M14.2886 3.44711C14.3842 3.49818 14.4549 3.58583 14.4847 3.69002L15.2847 6.49002C15.344 6.69753 15.228 6.91467 15.0225 6.98071L12.2225 7.88071C12.1193 7.91387 12.0071 7.90376 11.9116 7.8527C11.816 7.80163 11.7453 7.71398 11.7155 7.60979L10.9155 4.80979C10.8562 4.60227 10.9722 4.38514 11.1777 4.31909L13.9777 3.41909C14.0809 3.38593 14.193 3.39605 14.2886 3.44711ZM11.7911 4.96225L12.3712 6.99262L14.4091 6.33756L13.829 4.30719L11.7911 4.96225Z" fill="black"/>
</svg>
