<svg width="60" height="56" viewBox="0 0 60 56" fill="none" xmlns="http://www.w3.org/2000/svg">
<path d="M13.8785 2.39437C18.059 1.20923 23.7535 0.5 30.0001 0.5C36.2467 0.5 41.9412 1.20923 46.1217 2.39437C48.2017 2.98402 49.9931 3.71526 51.2991 4.59501C52.554 5.44038 53.7001 6.66402 53.7001 8.3V23.2C53.7001 24.0284 53.0285 24.7 52.2001 24.7C51.3717 24.7 50.7001 24.0284 50.7001 23.2V8.30058C50.7001 8.18656 50.6087 7.74712 49.623 7.08312C48.6883 6.45349 47.236 5.82848 45.3035 5.28063C41.459 4.19077 36.0535 3.5 30.0001 3.5C23.9467 3.5 18.5412 4.19077 14.6967 5.28063C12.7642 5.82848 11.3119 6.45349 10.3772 7.08312C9.39151 7.74712 9.3001 8.18598 9.3001 8.3V8.4C9.3001 9.22843 8.62853 9.9 7.8001 9.9C6.97167 9.9 6.3001 9.22843 6.3001 8.4V8.3C6.3001 6.66402 7.44619 5.44038 8.70111 4.59501C10.0071 3.71526 11.7985 2.98402 13.8785 2.39437Z" fill="black"/>
<path d="M7.8001 40.7C8.62853 40.7 9.3001 41.3716 9.3001 42.2V47.7C9.3001 47.814 9.39151 48.2529 10.3772 48.9169C11.3119 49.5465 12.7642 50.1715 14.6967 50.7194C18.5412 51.8092 23.9467 52.5 30.0001 52.5C36.0535 52.5 41.459 51.8092 45.3035 50.7194C47.236 50.1715 48.6883 49.5465 49.623 48.9169C50.6087 48.2529 50.7001 47.814 50.7001 47.7V42.2C50.7001 41.3716 51.3717 40.7 52.2001 40.7C53.0285 40.7 53.7001 41.3716 53.7001 42.2V47.7C53.7001 49.336 52.554 50.5596 51.2991 51.405C49.9931 52.2847 48.2017 53.016 46.1217 53.6056C41.9412 54.7908 36.2467 55.5 30.0001 55.5C23.7535 55.5 18.059 54.7908 13.8785 53.6056C11.7985 53.016 10.0071 52.2847 8.70111 51.405C7.44619 50.5596 6.3001 49.336 6.3001 47.7V42.2C6.3001 41.3716 6.97167 40.7 7.8001 40.7Z" fill="black"/>
<path d="M10.3804 7.09337C9.38721 7.75975 9.3001 8.19619 9.3001 8.3C9.3001 8.40381 9.38721 8.84025 10.3804 9.50663C11.3192 10.1365 12.7765 10.7625 14.7118 11.3118C18.562 12.4044 23.9677 13.1 30.0001 13.1C36.0325 13.1 41.4382 12.4044 45.2884 11.3118C47.2237 10.7625 48.681 10.1365 49.6198 9.50663C50.613 8.84025 50.7001 8.4044 50.7001 8.30058C50.7001 8.19677 50.613 7.75975 49.6198 7.09337C48.681 6.46347 47.2237 5.83747 45.2884 5.28825C41.4382 4.19564 36.0325 3.5 30.0001 3.5C23.9677 3.5 18.562 4.19564 14.7118 5.28825C12.7765 5.83747 11.3192 6.46347 10.3804 7.09337ZM13.8928 2.40221C18.0775 1.21466 23.7718 0.5 30.0001 0.5C36.2284 0.5 41.9227 1.21466 46.1074 2.40221C48.1894 2.99306 49.9833 3.7246 51.2912 4.60214C52.5448 5.4432 53.7001 6.66411 53.7001 8.3C53.7001 9.93589 52.5448 11.1568 51.2912 11.9979C49.9833 12.8754 48.1894 13.6069 46.1074 14.1978C41.9227 15.3853 36.2284 16.1 30.0001 16.1C23.7718 16.1 18.0775 15.3853 13.8928 14.1978C11.8108 13.6069 10.0169 12.8754 8.70895 11.9979C7.4554 11.1568 6.3001 9.93589 6.3001 8.3C6.3001 6.66411 7.4554 5.4432 8.70895 4.60214C10.0169 3.7246 11.8108 2.99306 13.8928 2.40221Z" fill="black"/>
<path d="M0.100098 31.5C0.100098 30.6716 0.771671 30 1.6001 30H12.2001C13.0285 30 13.7001 30.6716 13.7001 31.5V42.1C13.7001 42.9284 13.0285 43.6 12.2001 43.6H1.6001C0.771671 43.6 0.100098 42.9284 0.100098 42.1V31.5ZM3.1001 33V40.6H10.7001V33H3.1001Z" fill="black"/>
<path d="M23.2001 31.5C23.2001 30.6716 23.8717 30 24.7001 30H35.3001C36.1285 30 36.8001 30.6716 36.8001 31.5V42.1C36.8001 42.9284 36.1285 43.6 35.3001 43.6H24.7001C23.8717 43.6 23.2001 42.9284 23.2001 42.1V31.5ZM26.2001 33V40.6H33.8001V33H26.2001Z" fill="black"/>
<path d="M46.3001 31.5C46.3001 30.6716 46.9717 30 47.8001 30H58.4001C59.2285 30 59.9001 30.6716 59.9001 31.5V42.1C59.9001 42.9284 59.2285 43.6 58.4001 43.6H47.8001C46.9717 43.6 46.3001 42.9284 46.3001 42.1V31.5ZM49.3001 33V40.6H56.9001V33H49.3001Z" fill="black"/>
<path d="M5.4001 21C5.4001 20.1716 6.07167 19.5 6.9001 19.5H41.4001C42.2285 19.5 42.9001 20.1716 42.9001 21V31.5C42.9001 32.3284 42.2285 33 41.4001 33C40.5717 33 39.9001 32.3284 39.9001 31.5V22.5H8.4001V31.5C8.4001 32.3284 7.72852 33 6.9001 33C6.07167 33 5.4001 32.3284 5.4001 31.5V21Z" fill="black"/>
<path d="M47.3608 26.8393C47.9465 27.4251 47.9465 28.3749 47.3608 28.9607L42.2608 34.0607C41.9775 34.3439 41.5926 34.5021 41.192 34.5C40.7914 34.4978 40.4083 34.3355 40.1281 34.0492L35.5281 29.3492C34.9486 28.7571 34.9589 27.8075 35.5509 27.228C36.143 26.6485 37.0926 26.6588 37.6721 27.2508L41.2116 30.8672L45.2394 26.8393C45.8252 26.2536 46.775 26.2536 47.3608 26.8393Z" fill="black"/>
<path d="M7.8001 6.8C8.62853 6.8 9.3001 7.47157 9.3001 8.3V15.9C9.3001 16.7284 8.62853 17.4 7.8001 17.4C6.97167 17.4 6.3001 16.7284 6.3001 15.9V8.3C6.3001 7.47157 6.97167 6.8 7.8001 6.8Z" fill="black"/>
</svg>
