<!--
 ~ Copyright (c) 2025, WSO2 LLC. (https://www.wso2.com) All Rights Reserved.
 ~
 ~ WSO2 LLC. licenses this file to you under the Apache License,
 ~ Version 2.0 (the "License"); you may not use this file except
 ~ in compliance with the License.
 ~ You may obtain a copy of the License at
 ~
 ~     http://www.apache.org/licenses/LICENSE-2.0
 ~
 ~ Unless required by applicable law or agreed to in writing,
 ~ software distributed under the License is distributed on an
 ~ "AS IS" BASIS, WITHOUT WARRANTIES OR CONDITIONS OF ANY
 ~ KIND, either express or implied. See the License for the
 ~ specific language governing permissions and limitations
 ~ under the License.
-->
<svg width="14" height="16" viewBox="0 0 14 16" fill="none" xmlns="http://www.w3.org/2000/svg">
<path d="M0.100098 1.20005C0.100098 0.979135 0.279184 0.800049 0.500098 0.800049H9.7001C9.80839 0.800049 9.91205 0.843954 9.98739 0.921731L13.0874 4.12173C13.1597 4.19635 13.2001 4.29616 13.2001 4.40005V15.5C13.2001 15.721 13.021 15.9 12.8001 15.9H0.500098C0.279184 15.9 0.100098 15.721 0.100098 15.5V1.20005ZM0.900098 1.60005V15.1H12.4001V4.56203L9.53068 1.60005H0.900098Z" fill="black"/>
<path d="M9.7001 1.60005C9.92101 1.60005 10.1001 1.77913 10.1001 2.00005V4.00005H12.3001C12.521 4.00005 12.7001 4.17914 12.7001 4.40005C12.7001 4.62096 12.521 4.80005 12.3001 4.80005H9.7001C9.47918 4.80005 9.3001 4.62096 9.3001 4.40005V2.00005C9.3001 1.77913 9.47918 1.60005 9.7001 1.60005Z" fill="black"/>
<path d="M2.51176 10.2228C2.66488 10.0636 2.9181 10.0586 3.07734 10.2117L5.67734 12.7117C5.83658 12.8648 5.84155 13.1181 5.68843 13.2773C5.53531 13.4365 5.2821 13.4415 5.12285 13.2884L2.52285 10.7884C2.36361 10.6353 2.35865 10.382 2.51176 10.2228Z" fill="black"/>
<path d="M5.68843 10.2228C5.84155 10.382 5.83658 10.6353 5.67734 10.7884L3.07734 13.2884C2.9181 13.4415 2.66488 13.4365 2.51176 13.2773C2.35865 13.1181 2.36361 12.8648 2.52285 12.7117L5.12285 10.2117C5.2821 10.0586 5.53531 10.0636 5.68843 10.2228Z" fill="black"/>
<path d="M6.17186 5.10654C6.33396 5.25664 6.34369 5.50971 6.1936 5.67181L3.6936 8.37181C3.61971 8.45161 3.51652 8.49789 3.40779 8.49998C3.29905 8.50207 3.19416 8.45979 3.11725 8.38289L2.11725 7.38289C1.96105 7.22668 1.96105 6.97342 2.11725 6.81721C2.27346 6.661 2.52673 6.661 2.68294 6.81721L3.38901 7.52328L5.60659 5.12829C5.75668 4.96619 6.00976 4.95645 6.17186 5.10654Z" fill="black"/>
<path d="M6.6001 6.80005C6.6001 6.57913 6.77918 6.40005 7.0001 6.40005H11.2001C11.421 6.40005 11.6001 6.57913 11.6001 6.80005C11.6001 7.02096 11.421 7.20005 11.2001 7.20005H7.0001C6.77918 7.20005 6.6001 7.02096 6.6001 6.80005Z" fill="black"/>
<path d="M6.6001 11.8C6.6001 11.5791 6.77918 11.4 7.0001 11.4H11.2001C11.421 11.4 11.6001 11.5791 11.6001 11.8C11.6001 12.021 11.421 12.2 11.2001 12.2H7.0001C6.77918 12.2 6.6001 12.021 6.6001 11.8Z" fill="black"/>
</svg>
