<svg width="15" height="14" viewBox="0 0 15 14" fill="none" xmlns="http://www.w3.org/2000/svg">
<path d="M0.14502 0.910156C0.14502 0.703049 0.312913 0.535156 0.52002 0.535156H3.04002C4.11882 0.535156 5.10791 1.1321 5.60295 2.08759C5.60297 2.08761 5.60294 2.08757 5.60295 2.08759L6.59295 3.99759C6.95792 4.70206 7.68884 5.14516 8.49002 5.14516H9.00002C9.20713 5.14516 9.37502 5.31305 9.37502 5.52016C9.37502 5.72726 9.20713 5.89516 9.00002 5.89516H8.49002C7.41122 5.89516 6.42213 5.29822 5.92709 4.34272C5.92707 4.3427 5.9271 4.34275 5.92709 4.34272L4.93709 2.43272C4.57212 1.72825 3.84119 1.28516 3.04002 1.28516H0.52002C0.312913 1.28516 0.14502 1.11726 0.14502 0.910156ZM0.14502 3.21016C0.14502 3.00305 0.312913 2.83516 0.52002 2.83516H3.71002C3.91713 2.83516 4.08502 3.00305 4.08502 3.21016C4.08502 3.41726 3.91713 3.58516 3.71002 3.58516H0.52002C0.312913 3.58516 0.14502 3.41726 0.14502 3.21016ZM11.6822 5.06764C11.8272 4.91975 12.0646 4.91738 12.2125 5.06237L14.2425 7.05237C14.3162 7.12455 14.3568 7.22388 14.355 7.32698C14.3531 7.43009 14.3088 7.52786 14.2326 7.59732L12.2026 9.44732C12.0495 9.58683 11.8124 9.57582 11.6729 9.42275C11.5333 9.26967 11.5444 9.03249 11.6974 8.89299L13.1256 7.59147C13.0782 7.6131 13.0255 7.62516 12.97 7.62516H5.42002C5.21291 7.62516 5.04502 7.45726 5.04502 7.25016C5.04502 7.04305 5.21291 6.87516 5.42002 6.87516H12.97C12.9771 6.87516 12.984 6.87535 12.991 6.87573L11.6875 5.59795C11.5396 5.45296 11.5372 5.21554 11.6822 5.06764ZM13.344 7.22176C13.3447 7.23114 13.345 7.2406 13.345 7.25016C13.345 7.31807 13.327 7.38177 13.2954 7.43671L13.4342 7.31022L13.344 7.22176ZM0.14502 5.86016C0.14502 6.06726 0.312913 6.23516 0.52002 6.23516H3.71002C3.91713 6.23516 4.08502 6.06726 4.08502 5.86016C4.08502 5.65305 3.91713 5.48516 3.71002 5.48516H0.52002C0.312913 5.48516 0.14502 5.65305 0.14502 5.86016ZM0.14502 8.51016C0.14502 8.30305 0.312913 8.13516 0.52002 8.13516H3.71002C3.91713 8.13516 4.08502 8.30305 4.08502 8.51016C4.08502 8.71726 3.91713 8.88516 3.71002 8.88516H0.52002C0.312913 8.88516 0.14502 8.71726 0.14502 8.51016ZM8.49002 9.35516C7.68884 9.35516 6.95795 9.79819 6.59299 10.5027L5.60299 12.4127C5.60298 12.4127 5.603 12.4126 5.60299 12.4127C5.10794 13.3681 4.11882 13.9652 3.04002 13.9652H0.52002C0.312913 13.9652 0.14502 13.7973 0.14502 13.5902C0.14502 13.383 0.312913 13.2152 0.52002 13.2152H3.04002C3.84119 13.2152 4.57208 12.7721 4.93705 12.0677L5.92705 10.1577C5.92706 10.1576 5.92704 10.1577 5.92705 10.1577C6.4221 9.20216 7.41122 8.60516 8.49002 8.60516H9.00002C9.20713 8.60516 9.37502 8.77305 9.37502 8.98016C9.37502 9.18726 9.20713 9.35516 9.00002 9.35516H8.49002ZM0.14502 11.1602C0.14502 10.953 0.312913 10.7852 0.52002 10.7852H3.71002C3.91713 10.7852 4.08502 10.953 4.08502 11.1602C4.08502 11.3673 3.91713 11.5352 3.71002 11.5352H0.52002C0.312913 11.5352 0.14502 11.3673 0.14502 11.1602Z" fill="black"/>
</svg>
