<svg width="60" height="62" viewBox="0 0 60 62" fill="none" xmlns="http://www.w3.org/2000/svg">
<path d="M0.20022 2.39993C0.20022 1.5715 0.871792 0.899927 1.70022 0.899927H35.0002C35.8286 0.899927 36.5002 1.5715 36.5002 2.39993C36.5002 3.22835 35.8286 3.89993 35.0002 3.89993H3.20022V26.6999H23.1002C23.9286 26.6999 24.6002 27.3715 24.6002 28.1999C24.6002 29.0284 23.9286 29.6999 23.1002 29.6999H1.70022C0.871792 29.6999 0.20022 29.0284 0.20022 28.1999V2.39993Z" fill="black"/>
<path d="M0.565768 1.41859C1.10774 0.792051 2.05501 0.723498 2.68156 1.26547L18.0515 14.561L34.0803 2.11515C34.5326 1.76393 35.1455 1.7009 35.6598 1.95272C36.1741 2.20454 36.5002 2.72725 36.5002 3.29993V12.0999C36.5002 12.9284 35.8286 13.5999 35.0002 13.5999C34.1718 13.5999 33.5002 12.9284 33.5002 12.0999V6.36372L18.9202 17.6847C18.3554 18.1232 17.5596 18.1022 17.0189 17.6344L0.718884 3.53438C0.0923435 2.9924 0.0237911 2.04513 0.565768 1.41859Z" fill="black"/>
<path d="M18.3002 26.6999C19.1286 26.6999 19.8002 27.3715 19.8002 28.1999V47.6999H46.4002V28.5999C46.4002 27.7715 47.0718 27.0999 47.9002 27.0999C48.7286 27.0999 49.4002 27.7715 49.4002 28.5999V49.1999C49.4002 50.0284 48.7286 50.6999 47.9002 50.6999H18.3002C17.4718 50.6999 16.8002 50.0284 16.8002 49.1999V28.1999C16.8002 27.3715 17.4718 26.6999 18.3002 26.6999Z" fill="black"/>
<path d="M46.4002 41.7999C46.4002 40.9715 47.0718 40.2999 47.9002 40.2999H58.3002C59.1286 40.2999 59.8002 40.9715 59.8002 41.7999C59.8002 42.6284 59.1286 43.2999 58.3002 43.2999H47.9002C47.0718 43.2999 46.4002 42.6284 46.4002 41.7999Z" fill="black"/>
<path d="M46.4002 28.3999C46.4002 27.5715 47.0718 26.8999 47.9002 26.8999H58.3002C59.1286 26.8999 59.8002 27.5715 59.8002 28.3999C59.8002 29.2284 59.1286 29.8999 58.3002 29.8999H47.9002C47.0718 29.8999 46.4002 29.2284 46.4002 28.3999Z" fill="black"/>
<path d="M26.4002 47.6999C27.2286 47.6999 27.9002 48.3715 27.9002 49.1999V59.5999C27.9002 60.4283 27.2286 61.0999 26.4002 61.0999C25.5718 61.0999 24.9002 60.4283 24.9002 59.5999V49.1999C24.9002 48.3715 25.5718 47.6999 26.4002 47.6999Z" fill="black"/>
<path d="M39.8002 47.6999C40.6286 47.6999 41.3002 48.3715 41.3002 49.1999V59.5999C41.3002 60.4283 40.6286 61.0999 39.8002 61.0999C38.9718 61.0999 38.3002 60.4283 38.3002 59.5999V49.1999C38.3002 48.3715 38.9718 47.6999 39.8002 47.6999Z" fill="black"/>
<path d="M6.40022 41.7999C6.40022 40.9715 7.07179 40.2999 7.90022 40.2999H18.4002C19.2286 40.2999 19.9002 40.9715 19.9002 41.7999C19.9002 42.6284 19.2286 43.2999 18.4002 43.2999H7.90022C7.07179 43.2999 6.40022 42.6284 6.40022 41.7999Z" fill="black"/>
<path d="M29.0396 17.6393C29.6253 17.0535 30.5751 17.0535 31.1609 17.6393L40.9609 27.4393C41.5467 28.0251 41.5467 28.9748 40.9609 29.5606C40.3751 30.1464 39.4253 30.1464 38.8396 29.5606L29.0396 19.7606C28.4538 19.1748 28.4538 18.2251 29.0396 17.6393Z" fill="black"/>
<path d="M40.9609 17.6393C41.5467 18.2251 41.5467 19.1748 40.9609 19.7606L31.1609 29.5606C30.5751 30.1464 29.6253 30.1464 29.0396 29.5606C28.4538 28.9748 28.4538 28.0251 29.0396 27.4393L38.8396 17.6393C39.4253 17.0535 40.3751 17.0535 40.9609 17.6393Z" fill="black"/>
</svg>
