<svg width="60" height="60" viewBox="0 0 60 60" fill="none" xmlns="http://www.w3.org/2000/svg">
<path fill-rule="evenodd" clip-rule="evenodd" d="M0.700218 1.90005C0.700218 1.07162 1.37179 0.400047 2.20022 0.400047H34.9002C35.7286 0.400047 36.4002 1.07162 36.4002 1.90005C36.4002 2.72847 35.7286 3.40005 34.9002 3.40005H3.70022V25.8H18.5002C19.3286 25.8 20.0002 26.4716 20.0002 27.3C20.0002 28.1285 19.3286 28.8 18.5002 28.8H2.20022C1.37179 28.8 0.700218 28.1285 0.700218 27.3V1.90005Z" fill="black"/>
<path fill-rule="evenodd" clip-rule="evenodd" d="M1.06785 0.916305C1.61116 0.290917 2.55857 0.224376 3.18396 0.767682L18.2489 13.8554L33.9744 1.51983C34.4261 1.16555 35.0403 1.10009 35.5565 1.35122C36.0726 1.60235 36.4002 2.12603 36.4002 2.70005V11.4C36.4002 12.2285 35.7286 12.9 34.9002 12.9C34.0718 12.9 33.4002 12.2285 33.4002 11.4V5.78313L19.126 16.9803C18.5603 17.424 17.7593 17.404 17.2165 16.9324L1.21648 3.03241C0.591088 2.48911 0.524547 1.54169 1.06785 0.916305Z" fill="black"/>
<path fill-rule="evenodd" clip-rule="evenodd" d="M18.5002 25.8C19.3286 25.8 20.0002 26.4716 20.0002 27.3V46.3H46.1002V27.6C46.1002 26.7716 46.7718 26.1 47.6002 26.1C48.4286 26.1 49.1002 26.7716 49.1002 27.6V47.8C49.1002 48.6285 48.4286 49.3 47.6002 49.3H18.5002C17.6718 49.3 17.0002 48.6285 17.0002 47.8V27.3C17.0002 26.4716 17.6718 25.8 18.5002 25.8Z" fill="black"/>
<path fill-rule="evenodd" clip-rule="evenodd" d="M46.1002 40.6C46.1002 39.7716 46.7718 39.1 47.6002 39.1H57.8002C58.6286 39.1 59.3002 39.7716 59.3002 40.6C59.3002 41.4285 58.6286 42.1 57.8002 42.1H47.6002C46.7718 42.1 46.1002 41.4285 46.1002 40.6Z" fill="black"/>
<path fill-rule="evenodd" clip-rule="evenodd" d="M46.1002 27.4C46.1002 26.5716 46.7718 25.9 47.6002 25.9H57.8002C58.6286 25.9 59.3002 26.5716 59.3002 27.4C59.3002 28.2285 58.6286 28.9 57.8002 28.9H47.6002C46.7718 28.9 46.1002 28.2285 46.1002 27.4Z" fill="black"/>
<path fill-rule="evenodd" clip-rule="evenodd" d="M26.4002 46.3C27.2286 46.3 27.9002 46.9716 27.9002 47.8V58.1C27.9002 58.9285 27.2286 59.6 26.4002 59.6C25.5718 59.6 24.9002 58.9285 24.9002 58.1V47.8C24.9002 46.9716 25.5718 46.3 26.4002 46.3Z" fill="black"/>
<path fill-rule="evenodd" clip-rule="evenodd" d="M39.6002 46.3C40.4286 46.3 41.1002 46.9716 41.1002 47.8V58.1C41.1002 58.9285 40.4286 59.6 39.6002 59.6C38.7718 59.6 38.1002 58.9285 38.1002 58.1V47.8C38.1002 46.9716 38.7718 46.3 39.6002 46.3Z" fill="black"/>
<path fill-rule="evenodd" clip-rule="evenodd" d="M31.6002 11.4C31.6002 10.5716 32.2718 9.90005 33.1002 9.90005C41.9286 9.90005 49.1002 17.0716 49.1002 25.9C49.1002 34.7285 41.9286 41.9 33.1002 41.9C24.2718 41.9 17.1002 34.7285 17.1002 25.9C17.1002 25.0716 17.7718 24.4 18.6002 24.4C19.4286 24.4 20.1002 25.0716 20.1002 25.9C20.1002 33.0716 25.9286 38.9 33.1002 38.9C40.2718 38.9 46.1002 33.0716 46.1002 25.9C46.1002 18.7285 40.2718 12.9 33.1002 12.9C32.2718 12.9 31.6002 12.2285 31.6002 11.4Z" fill="black"/>
<path fill-rule="evenodd" clip-rule="evenodd" d="M32.0002 15.5C32.8286 15.5 33.5002 16.1716 33.5002 17V26.1117L40.1544 22.2986C40.8732 21.8867 41.7898 22.1355 42.2017 22.8543C42.6136 23.573 42.3648 24.4896 41.646 24.9015L32.746 30.0015C32.2818 30.2675 31.711 30.2661 31.2481 29.9979C30.7852 29.7296 30.5002 29.2351 30.5002 28.7V17C30.5002 16.1716 31.1718 15.5 32.0002 15.5Z" fill="black"/>
<path fill-rule="evenodd" clip-rule="evenodd" d="M6.80022 40.6C6.80022 39.7716 7.47179 39.1 8.30022 39.1H18.6002C19.4286 39.1 20.1002 39.7716 20.1002 40.6C20.1002 41.4285 19.4286 42.1 18.6002 42.1H8.30022C7.47179 42.1 6.80022 41.4285 6.80022 40.6Z" fill="black"/>
</svg>
