<!--
 ~ Copyright (c) 2025, WSO2 LLC. (https://www.wso2.com) All Rights Reserved.
 ~
 ~ WSO2 LLC. licenses this file to you under the Apache License,
 ~ Version 2.0 (the "License"); you may not use this file except
 ~ in compliance with the License.
 ~ You may obtain a copy of the License at
 ~
 ~     http://www.apache.org/licenses/LICENSE-2.0
 ~
 ~ Unless required by applicable law or agreed to in writing,
 ~ software distributed under the License is distributed on an
 ~ "AS IS" BASIS, WITHOUT WARRANTIES OR CONDITIONS OF ANY
 ~ KIND, either express or implied. See the License for the
 ~ specific language governing permissions and limitations
 ~ under the License.
-->
<svg width="14" height="16" viewBox="0 0 14 16" fill="none" xmlns="http://www.w3.org/2000/svg">
<path d="M10.9 8.60005H11.1V9.40005H10.9C10.7667 9.40005 10.6667 9.43338 10.6 9.50005C10.5334 9.56672 10.5 9.70005 10.5 9.90005V11C10.5 11.4 10.3667 11.7334 10.1 12C9.90005 12.2 9.60005 12.3 9.20005 12.3C8.93338 12.3 8.70005 12.2667 8.50005 12.2V11.5C8.63338 11.5667 8.80005 11.6 9.00005 11.6C9.26672 11.5334 9.40005 11.3667 9.40005 11.1V9.90005C9.40005 9.63338 9.43338 9.43338 9.50005 9.30005C9.63338 9.16672 9.83338 9.06672 10.1 9.00005C9.83338 8.93338 9.63338 8.83338 9.50005 8.70005C9.43338 8.56672 9.40005 8.40005 9.40005 8.20005V7.00005C9.40005 6.66672 9.26672 6.50005 9.00005 6.50005C8.80005 6.50005 8.63338 6.53338 8.50005 6.60005V5.90005C8.70005 5.76672 8.93338 5.70005 9.20005 5.70005C9.60005 5.70005 9.90005 5.83338 10.1 6.10005C10.3667 6.36672 10.5 6.70005 10.5 7.10005V8.20005C10.5 8.33338 10.5334 8.43338 10.6 8.50005C10.6667 8.56672 10.7667 8.60005 10.9 8.60005Z" fill="black"/>
<path d="M4.90005 5.70005C5.10005 5.70005 5.30005 5.76672 5.50005 5.90005V6.60005C5.36672 6.53338 5.23338 6.50005 5.10005 6.50005C4.76672 6.50005 4.60005 6.66672 4.60005 7.00005V8.20005C4.60005 8.40005 4.56672 8.56672 4.50005 8.70005C4.36672 8.83338 4.16672 8.93338 3.90005 9.00005C4.16672 9.06672 4.36672 9.16672 4.50005 9.30005C4.56672 9.50005 4.60005 9.70005 4.60005 9.90005V11.1C4.60005 11.3667 4.76672 11.5334 5.10005 11.6C5.23338 11.6 5.36672 11.5667 5.50005 11.5V12.2C5.30005 12.2667 5.10005 12.3 4.90005 12.3C4.43338 12.3 4.10005 12.2 3.90005 12C3.70005 11.7334 3.60005 11.4 3.60005 11V9.90005C3.60005 9.70005 3.53338 9.56672 3.40005 9.50005C3.33338 9.43338 3.23338 9.40005 3.10005 9.40005H2.90005V8.60005H3.10005C3.23338 8.60005 3.33338 8.56672 3.40005 8.50005C3.53338 8.43338 3.60005 8.33338 3.60005 8.20005V7.10005C3.60005 6.70005 3.70005 6.36672 3.90005 6.10005C4.10005 5.83338 4.43338 5.70005 4.90005 5.70005Z" fill="black"/>
<path d="M0.300049 0.700049C0.300049 0.479135 0.479135 0.300049 0.700049 0.300049H10.9C11.0061 0.300049 11.1079 0.342192 11.1829 0.417206L13.6829 2.91721C13.7579 2.99222 13.8 3.09396 13.8 3.20005V15.4C13.8 15.621 13.621 15.8 13.4 15.8H0.700049C0.479135 15.8 0.300049 15.621 0.300049 15.4V0.700049ZM1.10005 1.10005V15H13V3.36573L10.7344 1.10005H1.10005Z" fill="black"/>
<path d="M10.9 0.800049C11.121 0.800049 11.3 0.979135 11.3 1.20005V2.80005H13C13.221 2.80005 13.4 2.97914 13.4 3.20005C13.4 3.42096 13.221 3.60005 13 3.60005H10.9C10.6791 3.60005 10.5 3.42096 10.5 3.20005V1.20005C10.5 0.979135 10.6791 0.800049 10.9 0.800049Z" fill="black"/>
</svg>
