<!--
 ~ Copyright (c) 2025, WSO2 LLC. (https://www.wso2.com) All Rights Reserved.
 ~
 ~ WSO2 LLC. licenses this file to you under the Apache License,
 ~ Version 2.0 (the "License"); you may not use this file except
 ~ in compliance with the License.
 ~ You may obtain a copy of the License at
 ~
 ~     http://www.apache.org/licenses/LICENSE-2.0
 ~
 ~ Unless required by applicable law or agreed to in writing,
 ~ software distributed under the License is distributed on an
 ~ "AS IS" BASIS, WITHOUT WARRANTIES OR CONDITIONS OF ANY
 ~ KIND, either express or implied. See the License for the
 ~ specific language governing permissions and limitations
 ~ under the License.
-->
<svg width="15" height="13" viewBox="0 0 15 13" fill="none" xmlns="http://www.w3.org/2000/svg">
<path d="M0.100098 0.599951C0.100098 0.379037 0.279184 0.199951 0.500098 0.199951H7.4001C7.50618 0.199951 7.60793 0.242094 7.68294 0.317108L10.1829 2.81711C10.258 2.89212 10.3001 2.99386 10.3001 3.09995V12.1C10.3001 12.3209 10.121 12.5 9.9001 12.5H0.500098C0.279184 12.5 0.100098 12.3209 0.100098 12.1V0.599951ZM0.900098 0.999951V11.7H9.5001V3.26564L7.23441 0.999951H0.900098Z" fill="black"/>
<path d="M7.4001 0.699951C7.62101 0.699951 7.8001 0.879037 7.8001 1.09995V2.69995H9.5001C9.72101 2.69995 9.9001 2.87904 9.9001 3.09995C9.9001 3.32087 9.72101 3.49995 9.5001 3.49995H7.4001C7.17918 3.49995 7.0001 3.32087 7.0001 3.09995V1.09995C7.0001 0.879037 7.17918 0.699951 7.4001 0.699951Z" fill="black"/>
<path d="M10.1001 6.69995C10.1001 6.47904 10.2792 6.29995 10.5001 6.29995H14.0001C14.221 6.29995 14.4001 6.47904 14.4001 6.69995C14.4001 6.92086 14.221 7.09995 14.0001 7.09995H10.5001C10.2792 7.09995 10.1001 6.92086 10.1001 6.69995Z" fill="black"/>
<path d="M11.811 4.22346C11.9637 4.06382 12.2169 4.05819 12.3766 4.21089L14.6766 6.41089C14.7566 6.48747 14.8014 6.59382 14.8001 6.70459C14.7988 6.81537 14.7516 6.92065 14.6698 6.99535L12.3698 9.09535C12.2067 9.2443 11.9537 9.2328 11.8047 9.06966C11.6557 8.90652 11.6672 8.65351 11.8304 8.50456L13.8143 6.69315L11.8236 4.78901C11.664 4.63631 11.6583 4.3831 11.811 4.22346Z" fill="black"/>
<path d="M2.0001 4.99995C2.0001 4.77904 2.17918 4.59995 2.4001 4.59995H8.0001C8.22101 4.59995 8.4001 4.77904 8.4001 4.99995C8.4001 5.22086 8.22101 5.39995 8.0001 5.39995H2.4001C2.17918 5.39995 2.0001 5.22086 2.0001 4.99995Z" fill="black"/>
<path d="M2.0001 6.99995C2.0001 6.77904 2.17918 6.59995 2.4001 6.59995H8.0001C8.22101 6.59995 8.4001 6.77904 8.4001 6.99995C8.4001 7.22086 8.22101 7.39995 8.0001 7.39995H2.4001C2.17918 7.39995 2.0001 7.22086 2.0001 6.99995Z" fill="black"/>
<path d="M2.0001 9.09995C2.0001 8.87904 2.17918 8.69995 2.4001 8.69995H8.0001C8.22101 8.69995 8.4001 8.87904 8.4001 9.09995C8.4001 9.32087 8.22101 9.49995 8.0001 9.49995H2.4001C2.17918 9.49995 2.0001 9.32087 2.0001 9.09995Z" fill="black"/>
</svg>
