<svg width="48" height="62" viewBox="0 0 48 62" fill="none" xmlns="http://www.w3.org/2000/svg">
<path d="M24.3001 3.5C19.8266 3.5 16.2001 7.12649 16.2001 11.6C16.2001 16.0735 19.8266 19.7 24.3001 19.7C28.7736 19.7 32.4001 16.0735 32.4001 11.6C32.4001 7.12649 28.7736 3.5 24.3001 3.5ZM13.2001 11.6C13.2001 5.46964 18.1697 0.5 24.3001 0.5C30.4305 0.5 35.4001 5.46964 35.4001 11.6C35.4001 17.7304 30.4305 22.7 24.3001 22.7C18.1697 22.7 13.2001 17.7304 13.2001 11.6Z" fill="black"/>
<path d="M2.8001 11.6C2.8001 10.7716 3.47167 10.1 4.3001 10.1H24.3001C25.1285 10.1 25.8001 10.7716 25.8001 11.6C25.8001 12.4284 25.1285 13.1 24.3001 13.1H4.3001C3.47167 13.1 2.8001 12.4284 2.8001 11.6Z" fill="black"/>
<path d="M12.1001 28.3C12.1001 27.4716 12.7717 26.8 13.6001 26.8H32.3001C35.102 26.8 37.5001 29.0453 37.5001 32C37.5001 34.8019 35.2548 37.2 32.3001 37.2H16.4001C14.8285 37.2 13.5001 38.5284 13.5001 40.1C13.5001 41.6716 14.8285 43 16.4001 43H32.3001C35.102 43 37.5001 45.2453 37.5001 48.2C37.5001 51.0019 35.2548 53.4 32.3001 53.4H13.6001C12.7717 53.4 12.1001 52.7284 12.1001 51.9C12.1001 51.0716 12.7717 50.4 13.6001 50.4H32.3001C33.5454 50.4 34.5001 49.3981 34.5001 48.2C34.5001 46.9547 33.4982 46 32.3001 46H16.4001C13.1717 46 10.5001 43.3284 10.5001 40.1C10.5001 36.8716 13.1717 34.2 16.4001 34.2H32.3001C33.5454 34.2 34.5001 33.1981 34.5001 32C34.5001 30.7547 33.4982 29.8 32.3001 29.8H13.6001C12.7717 29.8 12.1001 29.1284 12.1001 28.3Z" fill="black"/>
<path d="M0.600098 19.5C0.600098 18.6716 1.27167 18 2.1001 18H18.9001C19.7285 18 20.4001 18.6716 20.4001 19.5C20.4001 20.3284 19.7285 21 18.9001 21H3.6001V58.5H44.4001V21H29.8001C28.9717 21 28.3001 20.3284 28.3001 19.5C28.3001 18.6716 28.9717 18 29.8001 18H45.9001C46.7285 18 47.4001 18.6716 47.4001 19.5V60C47.4001 60.8284 46.7285 61.5 45.9001 61.5H2.1001C1.27167 61.5 0.600098 60.8284 0.600098 60V19.5Z" fill="black"/>
</svg>
