<!--
 ~ Copyright (c) 2025, WSO2 LLC. (https://www.wso2.com) All Rights Reserved.
 ~
 ~ WSO2 LLC. licenses this file to you under the Apache License,
 ~ Version 2.0 (the "License"); you may not use this file except
 ~ in compliance with the License.
 ~ You may obtain a copy of the License at
 ~
 ~     http://www.apache.org/licenses/LICENSE-2.0
 ~
 ~ Unless required by applicable law or agreed to in writing,
 ~ software distributed under the License is distributed on an
 ~ "AS IS" BASIS, WITHOUT WARRANTIES OR CONDITIONS OF ANY
 ~ KIND, either express or implied. See the License for the
 ~ specific language governing permissions and limitations
 ~ under the License.
-->
<svg width="15" height="14" viewBox="0 0 15 14" fill="none" xmlns="http://www.w3.org/2000/svg">
<path d="M11.2999 1.8C11.2999 1.57909 11.479 1.4 11.6999 1.4C13.3208 1.4 14.5999 2.67909 14.5999 4.3C14.5999 5.81051 13.3311 7.2 11.6999 7.2C11.479 7.2 11.2999 7.02091 11.2999 6.8C11.2999 6.57909 11.479 6.4 11.6999 6.4C12.8687 6.4 13.7999 5.38949 13.7999 4.3C13.7999 3.12091 12.879 2.2 11.6999 2.2C11.479 2.2 11.2999 2.02091 11.2999 1.8Z" fill="black"/>
<path d="M3.2999 7.2C2.11012 7.2 1.1999 8.13146 1.1999 9.2C1.1999 10.3791 2.12082 11.3 3.2999 11.3C3.52082 11.3 3.6999 11.4791 3.6999 11.7C3.6999 11.9209 3.52082 12.1 3.2999 12.1C1.67899 12.1 0.399902 10.8209 0.399902 9.2C0.399902 7.66854 1.68969 6.4 3.2999 6.4C3.52082 6.4 3.6999 6.57909 3.6999 6.8C3.6999 7.02091 3.52082 7.2 3.2999 7.2Z" fill="black"/>
<path d="M4.4999 1.3C4.04205 1.3 3.6999 1.69907 3.6999 2.1C3.6999 2.62209 4.06149 3 4.4999 3H10.4999C10.6682 3 10.8686 2.91258 11.0345 2.7374C11.1981 2.56476 11.2999 2.33535 11.2999 2.1C11.2999 1.93009 11.2109 1.7267 11.0421 1.55784C10.8732 1.38898 10.6698 1.3 10.4999 1.3H4.4999ZM2.8999 2.1C2.8999 1.30093 3.55775 0.5 4.4999 0.5H10.4999C10.93 0.5 11.3266 0.711019 11.6077 0.992157C11.8889 1.2733 12.0999 1.66991 12.0999 2.1C12.0999 2.56465 11.9017 2.98524 11.6153 3.2876C11.3312 3.58742 10.9316 3.8 10.4999 3.8H4.4999C3.53831 3.8 2.8999 2.97791 2.8999 2.1Z" fill="black"/>
<path d="M4.4999 5.9C4.06149 5.9 3.6999 6.27791 3.6999 6.8C3.6999 7.20094 4.04205 7.6 4.4999 7.6H10.4999C10.6698 7.6 10.8732 7.51102 11.0421 7.34216C11.2109 7.1733 11.2999 6.96991 11.2999 6.8C11.2999 6.56465 11.1981 6.33524 11.0345 6.1626C10.8686 5.98742 10.6682 5.9 10.4999 5.9H4.4999ZM2.8999 6.8C2.8999 5.92209 3.53831 5.1 4.4999 5.1H10.4999C10.9316 5.1 11.3312 5.31258 11.6153 5.6124C11.9017 5.91476 12.0999 6.33535 12.0999 6.8C12.0999 7.23009 11.8889 7.6267 11.6077 7.90784C11.3266 8.18898 10.93 8.4 10.4999 8.4H4.4999C3.55775 8.4 2.8999 7.59907 2.8999 6.8Z" fill="black"/>
<path d="M4.4999 10.9C4.02082 10.9 3.6999 11.2209 3.6999 11.7C3.6999 12.1791 4.02082 12.5 4.4999 12.5H10.4999C10.9008 12.5 11.2999 12.1579 11.2999 11.7C11.2999 11.2421 10.9008 10.9 10.4999 10.9H4.4999ZM2.8999 11.7C2.8999 10.7791 3.57899 10.1 4.4999 10.1H10.4999C11.299 10.1 12.0999 10.7579 12.0999 11.7C12.0999 12.6421 11.299 13.3 10.4999 13.3H4.4999C3.57899 13.3 2.8999 12.6209 2.8999 11.7Z" fill="black"/>
</svg>
