<!--
 ~ Copyright (c) 2025, WSO2 LLC. (https://www.wso2.com) All Rights Reserved.
 ~
 ~ WSO2 LLC. licenses this file to you under the Apache License,
 ~ Version 2.0 (the "License"); you may not use this file except
 ~ in compliance with the License.
 ~ You may obtain a copy of the License at
 ~
 ~     http://www.apache.org/licenses/LICENSE-2.0
 ~
 ~ Unless required by applicable law or agreed to in writing,
 ~ software distributed under the License is distributed on an
 ~ "AS IS" BASIS, WITHOUT WARRANTIES OR CONDITIONS OF ANY
 ~ KIND, either express or implied. See the License for the
 ~ specific language governing permissions and limitations
 ~ under the License.
-->
<svg width="17" height="15" viewBox="0 0 17 15" fill="none" xmlns="http://www.w3.org/2000/svg">
<path d="M4.55823 4.19219C4.6329 4.06934 4.76776 3.996 4.91147 4.00011L8.41147 4.10011C8.54059 4.1038 8.65999 4.16962 8.73204 4.27683C8.80409 4.38404 8.81994 4.51945 8.77458 4.6404L8.61082 5.07709C9.00708 5.26893 9.34963 5.53211 9.61316 5.81386L10.9397 5.23348C11.124 5.15285 11.3395 5.22164 11.443 5.39415L12.643 7.39415C12.7144 7.51302 12.7191 7.66035 12.6554 7.78352C12.5918 7.90669 12.469 7.98813 12.3307 7.99877L9.98663 8.17908C9.70024 8.82224 9.08386 9.33329 8.30405 9.64704L8.67952 10.7735C8.72162 10.8998 8.69813 11.0387 8.61685 11.1442C8.53556 11.2496 8.40715 11.3077 8.2743 11.2991L5.1743 11.0991C5.05715 11.0916 4.94924 11.0329 4.87916 10.9388C4.80908 10.8446 4.7839 10.7244 4.81029 10.61L5.03084 9.65431C4.62178 9.49099 4.2064 9.27076 3.89791 8.98124L2.56038 9.56641C2.3731 9.64834 2.15417 9.57589 2.05275 9.3984L0.852752 7.2984C0.782008 7.1746 0.782516 7.0225 0.854085 6.89918C0.925654 6.77585 1.05746 6.69995 1.20005 6.69995H3.31192C3.5537 6.0333 4.1259 5.48757 4.84057 5.11654L4.55039 4.5942C4.48057 4.46853 4.48356 4.31505 4.55823 4.19219ZM3.33547 7.49995H1.88932L2.56902 8.68941L3.83972 8.13348C4.00978 8.05908 4.20868 8.11145 4.32005 8.25995C4.54192 8.55578 5.03856 8.82448 5.62654 9.02047C5.82218 9.08569 5.93618 9.28895 5.88981 9.48989L5.69568 10.3311L7.7326 10.4625L7.42058 9.52644C7.38636 9.4238 7.39519 9.31168 7.44503 9.21566C7.49487 9.11964 7.58149 9.0479 7.68511 9.01682C8.61098 8.73905 9.16663 8.2109 9.31544 7.69006C9.36139 7.52921 9.50258 7.41395 9.66937 7.40112L11.6241 7.25076L10.9381 6.10742L9.66038 6.66641C9.49032 6.74081 9.29142 6.68844 9.18005 6.53995C8.92529 6.20026 8.4909 5.85187 7.97356 5.67942C7.87048 5.64506 7.78581 5.57025 7.73903 5.47218C7.69224 5.37411 7.68737 5.26123 7.72552 5.1595L7.82891 4.88379L5.59091 4.81985L5.74971 5.10569C5.80551 5.20612 5.81542 5.32569 5.77694 5.43394C5.73845 5.54219 5.65528 5.62867 5.5486 5.67134C4.61581 6.04445 4.07135 6.65442 3.99696 7.24956C3.97801 7.40115 3.87437 7.52871 3.72986 7.57829C3.5933 7.62515 3.44278 7.59463 3.33547 7.49995Z" fill="black"/>
<path d="M12.7308 7.5461C12.8123 7.35051 13.0322 7.2524 13.2322 7.3224L15.2322 8.0224C15.3668 8.06953 15.4662 8.18479 15.4929 8.32491C15.5197 8.46503 15.4698 8.60879 15.362 8.70222L14.0208 9.86465C14.0555 10.4278 13.8838 11.023 13.5425 11.5999L14.3353 12.1765C14.4345 12.2486 14.4951 12.3622 14.4998 12.4848C14.5044 12.6074 14.4526 12.7253 14.3591 12.8047L12.3591 14.5047C12.2618 14.5874 12.1308 14.6187 12.0066 14.5889C11.8824 14.559 11.7799 14.4717 11.7308 14.3538L11.3945 13.5466C11.0366 13.6909 10.6705 13.7629 10.3628 13.7886L9.9642 14.6655C9.88049 14.8496 9.67249 14.9423 9.4796 14.8814L7.5796 14.2814C7.4438 14.2385 7.34105 14.1267 7.3098 13.9877C7.27855 13.8488 7.32352 13.7037 7.42787 13.6068L8.67512 12.4487C8.6323 11.9697 8.72498 11.3629 9.02282 10.7811L8.53759 10.5655C8.41036 10.5089 8.32169 10.3903 8.30348 10.2523C8.28528 10.1142 8.34015 9.97665 8.44837 9.88905L10.5484 8.18905C10.6396 8.11523 10.7585 8.08517 10.8738 8.10681C10.9892 8.12846 11.0891 8.19963 11.1473 8.30149L11.3576 8.6694C11.6881 8.52589 12.0264 8.45193 12.3486 8.46347L12.7308 7.5461ZM10.6861 9.10681L9.45953 10.0998L9.7625 10.2344C9.87231 10.2832 9.95436 10.3788 9.98596 10.4947C10.0176 10.6107 9.99539 10.7347 9.92554 10.8324C9.48992 11.4423 9.41393 12.1297 9.49228 12.5215C9.51954 12.6578 9.47409 12.7985 9.37223 12.8931L8.47581 13.7255L9.38255 14.0118L9.7359 13.2344C9.80081 13.0916 9.94319 12.9999 10.1 12.9999C10.4491 12.9999 10.9726 12.91 11.3943 12.6569C11.4939 12.5972 11.6146 12.5837 11.725 12.62C11.8354 12.6563 11.9246 12.7388 11.9693 12.8461L12.2585 13.5403L13.4536 12.5244L12.7648 12.0234C12.5872 11.8943 12.5469 11.6461 12.6746 11.4675C13.1347 10.8233 13.2827 10.2291 13.2055 9.76571C13.1826 9.62831 13.2328 9.4889 13.3381 9.39767L14.3167 8.54955L13.3241 8.20216L12.9693 9.05379C12.8932 9.23643 12.695 9.33599 12.503 9.288C12.237 9.22149 11.8466 9.2785 11.4058 9.54294C11.3136 9.59828 11.203 9.61414 11.0989 9.58695C10.9948 9.55975 10.9061 9.49179 10.8528 9.3984L10.6861 9.10681Z" fill="black"/>
<path d="M14.0963 0.439629C14.2212 0.293956 14.4319 0.257458 14.5985 0.352649L15.9985 1.15265C16.1207 1.22247 16.1972 1.35136 16.2 1.49206C16.2027 1.63275 16.1314 1.76456 16.012 1.83915L14.5775 2.73572C14.5387 2.94152 14.4544 3.1303 14.3612 3.29605C14.2846 3.43217 14.194 3.5663 14.1021 3.69392L14.6158 4.35437C14.6922 4.45257 14.7185 4.58072 14.6871 4.70108C14.6556 4.82145 14.5699 4.92032 14.4553 4.9686L12.5553 5.7686C12.4526 5.81184 12.3365 5.81029 12.235 5.76432C12.1335 5.71835 12.0558 5.63214 12.0206 5.52644L11.8297 4.9538C11.5983 4.97784 11.3569 4.9678 11.127 4.89731L10.72 5.43995C10.6041 5.5946 10.3941 5.64417 10.2212 5.55772L8.82116 4.85772C8.68922 4.79174 8.6043 4.65851 8.6002 4.51104C8.59611 4.36358 8.67351 4.22584 8.80159 4.15265L9.97464 3.48234C9.97479 3.07004 10.1518 2.61791 10.4537 2.21925L10.2172 1.98279C10.1252 1.89081 10.0837 1.75985 10.1059 1.63168C10.1281 1.50351 10.2113 1.39414 10.3288 1.33845L12.2288 0.438451C12.3286 0.391198 12.4434 0.387268 12.5462 0.42759C12.6489 0.467913 12.7304 0.548903 12.7714 0.651389L12.8563 0.863549C13.1679 0.843644 13.4391 0.885528 13.6649 0.94293L14.0963 0.439629ZM11.1842 1.81846L11.2829 1.9171C11.4391 2.07331 11.4391 2.32658 11.2829 2.48279C10.8383 2.92738 10.7349 3.3903 10.7881 3.60293C10.8316 3.77679 10.7541 3.95833 10.5985 4.04724L9.84743 4.47643L10.2803 4.69288L10.68 4.15995C10.8074 3.99011 11.0453 3.94937 11.2219 4.06713C11.3834 4.17475 11.6461 4.20113 12.003 4.11189C12.2058 4.0612 12.4134 4.17517 12.4795 4.37346L12.6429 4.86367L13.664 4.43373L13.2843 3.94552C13.1736 3.80314 13.1718 3.60425 13.28 3.45995C13.4337 3.25507 13.5667 3.07667 13.6639 2.90384C13.7611 2.73109 13.8 2.60161 13.8 2.49995C13.8 2.36203 13.8711 2.23384 13.988 2.16075L15.0207 1.51532L14.4886 1.21126L14.1038 1.66026C13.9979 1.78374 13.8278 1.83085 13.6736 1.77942C13.4033 1.68932 13.0806 1.61177 12.6785 1.69218C12.4894 1.72999 12.3003 1.62753 12.2287 1.4485L12.1867 1.34361L11.1842 1.81846Z" fill="black"/>
</svg>
