<svg width="58" height="56" viewBox="0 0 58 56" fill="none" xmlns="http://www.w3.org/2000/svg">
<path d="M0.399902 14.7999C0.399902 13.9715 1.07148 13.2999 1.8999 13.2999H35.8999C36.7283 13.2999 37.3999 13.9715 37.3999 14.7999C37.3999 15.6283 36.7283 16.2999 35.8999 16.2999H3.3999V46.9999H31.0999C31.9283 46.9999 32.5999 47.6715 32.5999 48.4999C32.5999 49.3283 31.9283 49.9999 31.0999 49.9999H1.8999C1.07148 49.9999 0.399902 49.3283 0.399902 48.4999V14.7999Z" fill="black"/>
<path d="M57.6999 8.3999V47.5999C57.6999 49.0923 56.8759 50.3263 55.7999 51.2647C54.7209 52.2058 53.2468 52.9841 51.5562 53.6073C48.1634 54.858 43.5797 55.5999 38.5999 55.5999C33.6201 55.5999 29.0364 54.858 25.6436 53.6073C23.953 52.9841 22.4789 52.2058 21.3999 51.2647C20.3239 50.3263 19.4999 49.0923 19.4999 47.5999H22.4999C22.4999 47.9075 22.6634 48.386 23.3718 49.0038C24.0771 49.619 25.1843 50.2407 26.6812 50.7925C29.6634 51.8918 33.8797 52.5999 38.5999 52.5999C43.3201 52.5999 47.5364 51.8918 50.5186 50.7925C52.0155 50.2407 53.1227 49.619 53.828 49.0038C54.5364 48.386 54.6999 47.9075 54.6999 47.5999V8.3999H57.6999Z" fill="black"/>
<path d="M19.4999 14.7999V8.3999H22.4999V14.7999H19.4999Z" fill="black"/>
<path d="M23.3696 6.9997C22.6624 7.61722 22.4999 8.09465 22.4999 8.3999C22.4999 8.70515 22.6624 9.18258 23.3696 9.8001C24.0736 10.4148 25.179 11.0367 26.6745 11.589C29.6539 12.6893 33.8699 13.3999 38.5999 13.3999C43.3299 13.3999 47.5459 12.6893 50.5253 11.589C52.0209 11.0367 53.1262 10.4148 53.8302 9.8001C54.5374 9.18258 54.6999 8.70515 54.6999 8.3999C54.6999 8.09465 54.5374 7.61722 53.8302 6.9997C53.1262 6.38499 52.0209 5.76314 50.5253 5.21081C47.5459 4.11048 43.3299 3.3999 38.5999 3.3999C33.8699 3.3999 29.6539 4.11048 26.6745 5.21081C25.179 5.76314 24.0736 6.38499 23.3696 6.9997ZM25.6352 2.3966C29.0257 1.1444 33.6097 0.399902 38.5999 0.399902C43.5901 0.399902 48.1741 1.1444 51.5647 2.3966C53.2541 3.02054 54.7262 3.79933 55.8034 4.73992C56.8774 5.67769 57.6999 6.91023 57.6999 8.3999C57.6999 9.88958 56.8774 11.1221 55.8034 12.0599C54.7262 13.0005 53.2541 13.7793 51.5647 14.4032C48.1741 15.6554 43.5901 16.3999 38.5999 16.3999C33.6097 16.3999 29.0257 15.6554 25.6352 14.4032C23.9457 13.7793 22.4736 13.0005 21.3964 12.0599C20.3224 11.1221 19.4999 9.88958 19.4999 8.3999C19.4999 6.91023 20.3224 5.67769 21.3964 4.73992C22.4736 3.79933 23.9457 3.02054 25.6352 2.3966Z" fill="black"/>
<path d="M56.0999 33.1999C56.9283 33.1999 57.5999 33.8715 57.5999 34.6999C57.5999 36.1923 56.7759 37.4263 55.6999 38.3647C54.6209 39.3058 53.1468 40.0841 51.4562 40.7073C48.0634 41.958 43.4797 42.6999 38.4999 42.6999C37.6715 42.6999 36.9999 42.0283 36.9999 41.1999C36.9999 40.3715 37.6715 39.6999 38.4999 39.6999C43.2201 39.6999 47.4364 38.9918 50.4186 37.8925C51.9155 37.3407 53.0227 36.719 53.728 36.1038C54.4364 35.486 54.5999 35.0075 54.5999 34.6999C54.5999 33.8715 55.2715 33.1999 56.0999 33.1999Z" fill="black"/>
<path d="M56.0999 18.4999C56.9283 18.4999 57.5999 19.1715 57.5999 19.9999C57.5999 21.4923 56.7759 22.7263 55.6999 23.6647C54.6209 24.6058 53.1468 25.3841 51.4562 26.0073C48.0634 27.258 43.4797 27.9999 38.4999 27.9999C37.6715 27.9999 36.9999 27.3283 36.9999 26.4999C36.9999 25.6715 37.6715 24.9999 38.4999 24.9999C43.2201 24.9999 47.4364 24.2918 50.4186 23.1925C51.9155 22.6407 53.0227 22.019 53.728 21.4038C54.4364 20.786 54.5999 20.3075 54.5999 19.9999C54.5999 19.1715 55.2715 18.4999 56.0999 18.4999Z" fill="black"/>
<path d="M20.3999 31.2999C19.6718 30.3291 18.2041 30.1217 17.2999 30.7999L17.2862 30.8101L10.194 36.0043C9.22829 36.7339 9.02311 38.1975 9.6999 39.0999C10.428 40.0707 11.8957 40.2781 12.7999 39.5999L12.8149 39.5888L18.0149 35.7888C18.6837 35.3 19.6222 35.446 20.111 36.1149C20.5998 36.7837 20.4538 37.7222 19.7849 38.211L14.5918 42.006C12.2963 43.7203 8.96985 43.1265 7.2999 40.8999C5.57808 38.6041 6.17068 35.2718 8.3999 33.5999L8.4136 33.5898L15.5073 28.3943C17.8029 26.6794 21.1298 27.2731 22.7999 29.4999C23.297 30.1626 23.1626 31.1028 22.4999 31.5999C21.8372 32.097 20.897 31.9626 20.3999 31.2999Z" fill="black"/>
<path d="M30.2999 24.1999C29.5718 23.2291 28.1041 23.0217 27.1999 23.6999L27.1837 23.7119L22.3837 27.2119C21.7143 27.7 20.776 27.553 20.2879 26.8837C19.7998 26.2143 19.9468 25.276 20.6161 24.7879L25.4087 21.2933C27.7042 19.5796 31.0301 20.1735 32.6999 22.3999C34.4217 24.6957 33.8291 28.028 31.5999 29.6999L31.5862 29.7101L24.4925 34.9054C22.197 36.6205 18.87 36.0267 17.1999 33.7999C16.7028 33.1372 16.8372 32.197 17.4999 31.6999C18.1626 31.2028 19.1028 31.3372 19.5999 31.9999C20.328 32.9707 21.7957 33.1781 22.6999 32.4999L22.7136 32.4898L29.8058 27.2954C30.7715 26.5658 30.9767 25.1023 30.2999 24.1999Z" fill="black"/>
</svg>
