<!--
 ~ Copyright (c) 2025, WSO2 LLC. (https://www.wso2.com) All Rights Reserved.
 ~
 ~ WSO2 LLC. licenses this file to you under the Apache License,
 ~ Version 2.0 (the "License"); you may not use this file except
 ~ in compliance with the License.
 ~ You may obtain a copy of the License at
 ~
 ~     http://www.apache.org/licenses/LICENSE-2.0
 ~
 ~ Unless required by applicable law or agreed to in writing,
 ~ software distributed under the License is distributed on an
 ~ "AS IS" BASIS, WITHOUT WARRANTIES OR CONDITIONS OF ANY
 ~ KIND, either express or implied. See the License for the
 ~ specific language governing permissions and limitations
 ~ under the License.
-->
<svg width="15" height="16" viewBox="0 0 15 16" fill="none" xmlns="http://www.w3.org/2000/svg">
<path d="M0.100098 3.70005C0.100098 3.47914 0.279184 3.30005 0.500098 3.30005H5.0001C5.22101 3.30005 5.4001 3.47914 5.4001 3.70005C5.4001 3.92096 5.22101 4.10005 5.0001 4.10005H0.500098C0.279184 4.10005 0.100098 3.92096 0.100098 3.70005Z" fill="black"/>
<path d="M3.01197 0.922593C3.1652 0.763464 3.41843 0.758686 3.57755 0.911921L6.27755 3.51192C6.35684 3.58827 6.40116 3.69391 6.40008 3.80396C6.399 3.91402 6.35262 4.01878 6.27186 4.09355L3.57186 6.59355C3.40976 6.74364 3.15668 6.73391 3.00659 6.57181C2.8565 6.40972 2.86624 6.15664 3.02833 6.00655L5.41751 3.79435L3.02264 1.48818C2.86351 1.33494 2.85873 1.08172 3.01197 0.922593Z" fill="black"/>
<path d="M9.2001 12.7C9.2001 12.921 9.37918 13.1 9.6001 13.1H13.8001C14.021 13.1 14.2001 12.921 14.2001 12.7C14.2001 12.4791 14.021 12.3 13.8001 12.3H9.6001C9.37918 12.3 9.2001 12.4791 9.2001 12.7Z" fill="black"/>
<path d="M11.412 9.92259C11.2587 10.0817 11.2635 10.3349 11.4226 10.4882L13.8112 12.7883L11.4344 14.9011C11.2692 15.0479 11.2544 15.3007 11.4011 15.4658C11.5479 15.6309 11.8007 15.6458 11.9658 15.499L14.6658 13.099C14.7492 13.025 14.7978 12.9195 14.8 12.808C14.8022 12.6966 14.7579 12.5892 14.6776 12.5119L11.9776 9.91192C11.8184 9.75869 11.5652 9.76346 11.412 9.92259Z" fill="black"/>
<path d="M4.75965 6.43802C4.4844 6.54124 4.23819 6.67071 4.05314 6.82843C3.87387 6.98121 3.7001 7.2082 3.7001 7.50089V12.7C3.7001 12.9927 3.87387 13.2189 4.05314 13.3717C4.23819 13.5294 4.4844 13.6589 4.75965 13.7621C5.31358 13.9698 6.06282 14.1 6.9001 14.1C7.68997 14.1 8.43737 13.9691 9.00003 13.7632C9.27951 13.6609 9.53299 13.5332 9.72464 13.3786C9.90618 13.2322 10.1001 13.0047 10.1001 12.7V7.50005C10.1001 7.19539 9.90618 6.96791 9.72464 6.8215C9.53299 6.66694 9.27951 6.53915 9.00003 6.4369C8.43737 6.23105 7.68997 6.10005 6.9001 6.10005C6.06282 6.10005 5.31358 6.23029 4.75965 6.43802ZM4.5001 7.51546C4.50604 7.50473 4.52398 7.47827 4.57206 7.4373C4.662 7.36064 4.8158 7.27136 5.04055 7.18708C5.48662 7.01981 6.13738 6.90005 6.9001 6.90005C7.61022 6.90005 8.26283 7.01905 8.72516 7.1882C8.95818 7.27345 9.12346 7.36441 9.22243 7.44423C9.27171 7.48397 9.29232 7.51119 9.3001 7.52313V12.6778C9.29232 12.6897 9.27171 12.7161 9.22243 12.7559C9.12346 12.8357 8.95818 12.9266 8.72516 13.0119C8.26283 13.181 7.61022 13.3 6.9001 13.3C6.13738 13.3 5.48662 13.1803 5.04055 13.013C4.8158 12.9287 4.662 12.8395 4.57206 12.7628C4.52398 12.7218 4.50604 12.6954 4.5001 12.6847V7.51546Z" fill="black"/>
<path d="M4.50176 7.51255C4.5091 7.50037 4.52782 7.475 4.57206 7.4373C4.662 7.36064 4.8158 7.27136 5.04055 7.18708C5.48662 7.01981 6.13738 6.90005 6.9001 6.90005C7.61022 6.90005 8.26283 7.01905 8.72516 7.1882C8.95818 7.27345 9.12346 7.36441 9.22243 7.44423C9.2645 7.47815 9.28567 7.50234 9.29581 7.51612C9.2943 7.51978 9.29227 7.52412 9.28952 7.52919C9.27747 7.55146 9.25271 7.5855 9.20542 7.62821C9.10855 7.71571 8.94715 7.81267 8.71718 7.90242C8.25997 8.08084 7.61094 8.20005 6.9001 8.20005C6.13646 8.20005 5.48957 8.08003 5.04865 7.90366C4.82714 7.81505 4.67705 7.71996 4.58879 7.63571C4.52372 7.5736 4.50637 7.53223 4.50176 7.51255ZM4.75965 6.43802C4.4844 6.54124 4.23819 6.67071 4.05314 6.82843C3.87387 6.98121 3.7001 7.2082 3.7001 7.50089C3.7001 7.79439 3.84854 8.03506 4.03641 8.21439C4.22314 8.39264 4.47305 8.53504 4.75154 8.64644C5.31062 8.87007 6.06373 9.00005 6.9001 9.00005C7.68926 9.00005 8.44023 8.86926 9.00801 8.64768C9.29054 8.53743 9.5479 8.39689 9.74165 8.22189C9.93423 8.04794 10.1001 7.80466 10.1001 7.50005C10.1001 7.19539 9.90618 6.96791 9.72464 6.8215C9.53299 6.66694 9.27951 6.53915 9.00003 6.4369C8.43737 6.23105 7.68997 6.10005 6.9001 6.10005C6.06282 6.10005 5.31358 6.23029 4.75965 6.43802Z" fill="black"/>
</svg>
