<!--
 ~ Copyright (c) 2025, WSO2 LLC. (https://www.wso2.com) All Rights Reserved.
 ~
 ~ WSO2 LLC. licenses this file to you under the Apache License,
 ~ Version 2.0 (the "License"); you may not use this file except
 ~ in compliance with the License.
 ~ You may obtain a copy of the License at
 ~
 ~     http://www.apache.org/licenses/LICENSE-2.0
 ~
 ~ Unless required by applicable law or agreed to in writing,
 ~ software distributed under the License is distributed on an
 ~ "AS IS" BASIS, WITHOUT WARRANTIES OR CONDITIONS OF ANY
 ~ KIND, either express or implied. See the License for the
 ~ specific language governing permissions and limitations
 ~ under the License.
-->
<svg width="16" height="12" viewBox="0 0 16 12" fill="none" xmlns="http://www.w3.org/2000/svg">
<path fill-rule="evenodd" clip-rule="evenodd" d="M0.800049 9.30005C0.800049 9.07914 0.979135 8.90005 1.20005 8.90005H3.80005C4.02096 8.90005 4.20005 9.07914 4.20005 9.30005C4.20005 9.52096 4.02096 9.70005 3.80005 9.70005H1.20005C0.979135 9.70005 0.800049 9.52096 0.800049 9.30005Z" fill="black"/>
<path fill-rule="evenodd" clip-rule="evenodd" d="M10.1 9.30005C10.1 9.07914 10.2791 8.90005 10.5 8.90005H14.8C15.021 8.90005 15.2 9.07914 15.2 9.30005C15.2 9.52096 15.021 9.70005 14.8 9.70005H10.5C10.2791 9.70005 10.1 9.52096 10.1 9.30005Z" fill="black"/>
<path fill-rule="evenodd" clip-rule="evenodd" d="M0.800049 3.10005C0.800049 2.87913 0.979135 2.70005 1.20005 2.70005H3.80005C4.02096 2.70005 4.20005 2.87913 4.20005 3.10005C4.20005 3.32096 4.02096 3.50005 3.80005 3.50005H1.20005C0.979135 3.50005 0.800049 3.32096 0.800049 3.10005Z" fill="black"/>
<path fill-rule="evenodd" clip-rule="evenodd" d="M10.1 3.10005C10.1 2.87913 10.2791 2.70005 10.5 2.70005H14.8C15.021 2.70005 15.2 2.87913 15.2 3.10005C15.2 3.32096 15.021 3.50005 14.8 3.50005H10.5C10.2791 3.50005 10.1 3.32096 10.1 3.10005Z" fill="black"/>
<path fill-rule="evenodd" clip-rule="evenodd" d="M12.5172 7.11721C12.6734 6.961 12.9267 6.961 13.0829 7.11721L15.0829 9.11721C15.1592 9.19348 15.2014 9.29732 15.2 9.40518C15.1986 9.51303 15.1538 9.61576 15.0755 9.69005L13.0755 11.59C12.9154 11.7422 12.6622 11.7357 12.51 11.5755C12.3579 11.4154 12.3644 11.1622 12.5245 11.01L14.227 9.3927L12.5172 7.68289C12.361 7.52668 12.361 7.27342 12.5172 7.11721Z" fill="black"/>
<path fill-rule="evenodd" clip-rule="evenodd" d="M12.5172 0.917206C12.6734 0.760996 12.9267 0.760996 13.0829 0.917206L15.0829 2.91721C15.1605 2.9948 15.2028 3.10087 15.1999 3.21056C15.197 3.32026 15.1492 3.42396 15.0676 3.49737L13.0676 5.29737C12.9034 5.44515 12.6505 5.43184 12.5027 5.26763C12.3549 5.10343 12.3683 4.85051 12.5325 4.70273L14.2191 3.18477L12.5172 1.48289C12.361 1.32668 12.361 1.07342 12.5172 0.917206Z" fill="black"/>
<path fill-rule="evenodd" clip-rule="evenodd" d="M8.76468 2.7355C8.96602 2.82643 9.05552 3.06335 8.9646 3.26468L6.1646 9.46468C6.07367 9.66602 5.83675 9.75552 5.63541 9.6646C5.43408 9.57367 5.34458 9.33675 5.4355 9.13542L8.2355 2.93541C8.32643 2.73408 8.56335 2.64458 8.76468 2.7355Z" fill="black"/>
</svg>
