<!--
 ~ Copyright (c) 2025, WSO2 LLC. (https://www.wso2.com) All Rights Reserved.
 ~
 ~ WSO2 LLC. licenses this file to you under the Apache License,
 ~ Version 2.0 (the "License"); you may not use this file except
 ~ in compliance with the License.
 ~ You may obtain a copy of the License at
 ~
 ~     http://www.apache.org/licenses/LICENSE-2.0
 ~
 ~ Unless required by applicable law or agreed to in writing,
 ~ software distributed under the License is distributed on an
 ~ "AS IS" BASIS, WITHOUT WARRANTIES OR CONDITIONS OF ANY
 ~ KIND, either express or implied. See the License for the
 ~ specific language governing permissions and limitations
 ~ under the License.
-->
<svg width="14" height="14" viewBox="0 0 14 14" fill="none" xmlns="http://www.w3.org/2000/svg">
<path d="M9.2001 0.999951C7.12101 0.999951 5.4001 2.72087 5.4001 4.79995C5.4001 6.98519 7.12712 8.69995 9.2001 8.69995C11.3792 8.69995 13.1001 6.97904 13.1001 4.79995C13.1001 2.72697 11.3853 0.999951 9.2001 0.999951ZM4.6001 4.79995C4.6001 2.27904 6.67918 0.199951 9.2001 0.199951C11.8149 0.199951 13.9001 2.27293 13.9001 4.79995C13.9001 7.42087 11.821 9.49995 9.2001 9.49995C6.67308 9.49995 4.6001 7.41471 4.6001 4.79995Z" fill="black"/>
<path d="M8.9001 2.79995C9.12101 2.79995 9.3001 2.97904 9.3001 3.19995V5.00739L11.3002 3.85348C11.4916 3.74308 11.7362 3.80871 11.8466 4.00006C11.957 4.19141 11.8913 4.43603 11.7 4.54643L9.09999 6.04643C8.97622 6.11783 8.82377 6.11779 8.70004 6.04633C8.57631 5.97487 8.5001 5.84283 8.5001 5.69995V3.19995C8.5001 2.97904 8.67918 2.79995 8.9001 2.79995Z" fill="black"/>
<path d="M0.100098 2.49995C0.100098 2.27904 0.279184 2.09995 0.500098 2.09995H5.0001C5.22101 2.09995 5.4001 2.27904 5.4001 2.49995C5.4001 2.72087 5.22101 2.89995 5.0001 2.89995H0.500098C0.279184 2.89995 0.100098 2.72087 0.100098 2.49995Z" fill="black"/>
<path d="M0.100098 5.29995C0.100098 5.07904 0.279184 4.89995 0.500098 4.89995H5.0001C5.22101 4.89995 5.4001 5.07904 5.4001 5.29995C5.4001 5.52086 5.22101 5.69995 5.0001 5.69995H0.500098C0.279184 5.69995 0.100098 5.52086 0.100098 5.29995Z" fill="black"/>
<path d="M0.100098 7.89995C0.100098 7.67904 0.279184 7.49995 0.500098 7.49995H6.3001C6.52101 7.49995 6.7001 7.67904 6.7001 7.89995C6.7001 8.12086 6.52101 8.29995 6.3001 8.29995H0.500098C0.279184 8.29995 0.100098 8.12086 0.100098 7.89995Z" fill="black"/>
<path d="M0.100098 10.6C0.100098 10.379 0.279184 10.2 0.500098 10.2H12.7001C12.921 10.2 13.1001 10.379 13.1001 10.6C13.1001 10.8209 12.921 11 12.7001 11H0.500098C0.279184 11 0.100098 10.8209 0.100098 10.6Z" fill="black"/>
<path d="M0.100098 13.3C0.100098 13.079 0.279184 12.9 0.500098 12.9H12.7001C12.921 12.9 13.1001 13.079 13.1001 13.3C13.1001 13.5209 12.921 13.7 12.7001 13.7H0.500098C0.279184 13.7 0.100098 13.5209 0.100098 13.3Z" fill="black"/>
</svg>
