<!--
 ~ Copyright (c) 2025, WSO2 LLC. (https://www.wso2.com) All Rights Reserved.
 ~
 ~ WSO2 LLC. licenses this file to you under the Apache License,
 ~ Version 2.0 (the "License"); you may not use this file except
 ~ in compliance with the License.
 ~ You may obtain a copy of the License at
 ~
 ~     http://www.apache.org/licenses/LICENSE-2.0
 ~
 ~ Unless required by applicable law or agreed to in writing,
 ~ software distributed under the License is distributed on an
 ~ "AS IS" BASIS, WITHOUT WARRANTIES OR CONDITIONS OF ANY
 ~ KIND, either express or implied. See the License for the
 ~ specific language governing permissions and limitations
 ~ under the License.
-->
<svg width="12" height="14" viewBox="0 0 12 14" fill="none" xmlns="http://www.w3.org/2000/svg">
<path fill-rule="evenodd" clip-rule="evenodd" d="M0.100098 0.500098C0.100098 0.279184 0.279184 0.100098 0.500098 0.100098H11.4001C11.621 0.100098 11.8001 0.279184 11.8001 0.500098V13.3001C11.8001 13.521 11.621 13.7001 11.4001 13.7001H0.500098C0.279184 13.7001 0.100098 13.521 0.100098 13.3001V0.500098ZM0.900098 0.900098V12.9001H11.0001V0.900098H0.900098Z" fill="black"/>
<path fill-rule="evenodd" clip-rule="evenodd" d="M2.6001 2.6001C2.6001 2.37918 2.77918 2.2001 3.0001 2.2001H9.2001C9.42101 2.2001 9.6001 2.37918 9.6001 2.6001V6.4001C9.6001 6.62101 9.42101 6.8001 9.2001 6.8001H3.0001C2.77918 6.8001 2.6001 6.62101 2.6001 6.4001V2.6001ZM3.4001 3.0001V6.0001H8.8001V3.0001H3.4001Z" fill="black"/>
<path fill-rule="evenodd" clip-rule="evenodd" d="M2.6001 8.8001C2.6001 8.57918 2.77918 8.4001 3.0001 8.4001H9.2001C9.42101 8.4001 9.6001 8.57918 9.6001 8.8001C9.6001 9.02101 9.42101 9.2001 9.2001 9.2001H3.0001C2.77918 9.2001 2.6001 9.02101 2.6001 8.8001Z" fill="black"/>
<path fill-rule="evenodd" clip-rule="evenodd" d="M2.6001 10.9001C2.6001 10.6792 2.77918 10.5001 3.0001 10.5001H9.2001C9.42101 10.5001 9.6001 10.6792 9.6001 10.9001C9.6001 11.121 9.42101 11.3001 9.2001 11.3001H3.0001C2.77918 11.3001 2.6001 11.121 2.6001 10.9001Z" fill="black"/>
</svg>
