<svg width="62" height="42" viewBox="0 0 62 42" fill="none" xmlns="http://www.w3.org/2000/svg">
<path d="M20.8998 9.90002C20.8998 9.0716 21.5714 8.40002 22.3998 8.40002H38.0998C38.9282 8.40002 39.5998 9.0716 39.5998 9.90002V20.8C39.5998 21.6285 38.9282 22.3 38.0998 22.3H22.3998C21.5714 22.3 20.8998 21.6285 20.8998 20.8V9.90002ZM23.8998 11.4V19.3H36.5998V11.4H23.8998Z" fill="black"/>
<path d="M20.8998 26.4C20.8998 25.5716 21.5714 24.9 22.3998 24.9H37.9998C38.8282 24.9 39.4998 25.5716 39.4998 26.4C39.4998 27.2285 38.8282 27.9 37.9998 27.9H22.3998C21.5714 27.9 20.8998 27.2285 20.8998 26.4Z" fill="black"/>
<path d="M20.8998 32.1C20.8998 31.2716 21.5714 30.6 22.3998 30.6H37.9998C38.8282 30.6 39.4998 31.2716 39.4998 32.1C39.4998 32.9285 38.8282 33.6 37.9998 33.6H22.3998C21.5714 33.6 20.8998 32.9285 20.8998 32.1Z" fill="black"/>
<path d="M0.799805 21C0.799805 20.1716 1.47138 19.5 2.2998 19.5H11.6998C12.5282 19.5 13.1998 20.1716 13.1998 21C13.1998 21.8285 12.5282 22.5 11.6998 22.5H2.2998C1.47138 22.5 0.799805 21.8285 0.799805 21Z" fill="black"/>
<path d="M47.2998 21C47.2998 20.1716 47.9714 19.5 48.7998 19.5H59.6998C60.5282 19.5 61.1998 20.1716 61.1998 21C61.1998 21.8285 60.5282 22.5 59.6998 22.5H48.7998C47.9714 22.5 47.2998 21.8285 47.2998 21Z" fill="black"/>
<path d="M30.1998 3.90002C20.7557 3.90002 13.0998 11.556 13.0998 21C13.0998 30.4441 20.7557 38.1 30.1998 38.1C39.6439 38.1 47.2998 30.4441 47.2998 21C47.2998 11.556 39.6439 3.90002 30.1998 3.90002ZM10.0998 21C10.0998 9.8991 19.0989 0.900024 30.1998 0.900024C41.3007 0.900024 50.2998 9.8991 50.2998 21C50.2998 32.1009 41.3007 41.1 30.1998 41.1C19.0989 41.1 10.0998 32.1009 10.0998 21Z" fill="black"/>
</svg>
