<!--
 ~ Copyright (c) 2025, WSO2 LLC. (https://www.wso2.com) All Rights Reserved.
 ~
 ~ WSO2 LLC. licenses this file to you under the Apache License,
 ~ Version 2.0 (the "License"); you may not use this file except
 ~ in compliance with the License.
 ~ You may obtain a copy of the License at
 ~
 ~     http://www.apache.org/licenses/LICENSE-2.0
 ~
 ~ Unless required by applicable law or agreed to in writing,
 ~ software distributed under the License is distributed on an
 ~ "AS IS" BASIS, WITHOUT WARRANTIES OR CONDITIONS OF ANY
 ~ KIND, either express or implied. See the License for the
 ~ specific language governing permissions and limitations
 ~ under the License.
-->
<svg width="15" height="12" viewBox="0 0 15 12" fill="none" xmlns="http://www.w3.org/2000/svg">
<path d="M0.600108 5.89997C0.600108 5.67905 0.779194 5.49997 1.00011 5.49997H14.6001C14.821 5.49997 15.0001 5.67905 15.0001 5.89997C15.0001 6.12088 14.821 6.29997 14.6001 6.29997H1.00011C0.779194 6.29997 0.600108 6.12088 0.600108 5.89997Z" fill="black"/>
<path d="M14.9141 0.35211C15.0509 0.525501 15.0214 0.777033 14.848 0.913921C12.8734 2.47281 10.3848 3.29997 7.80011 3.29997C5.11961 3.29997 2.62536 2.47503 0.744034 0.907256C0.574323 0.76583 0.551394 0.513605 0.692819 0.343894C0.834245 0.174183 1.08647 0.151253 1.25618 0.292679C2.97485 1.72491 5.28061 2.49997 7.80011 2.49997C10.2154 2.49997 12.5268 1.72713 14.3523 0.286014C14.5256 0.149126 14.7772 0.178718 14.9141 0.35211Z" fill="black"/>
<path d="M7.80011 9.19997C5.29199 9.19997 2.98301 10.0682 1.25618 11.5073C1.08647 11.6487 0.834245 11.6258 0.692819 11.456C0.551394 11.2863 0.574323 11.0341 0.744034 10.8927C2.61721 9.3317 5.10822 8.39997 7.80011 8.39997C10.3958 8.39997 12.882 9.33392 14.848 10.886C15.0214 11.0229 15.0509 11.2744 14.9141 11.4478C14.7772 11.6212 14.5256 11.6508 14.3523 11.5139C12.5182 10.066 10.2045 9.19997 7.80011 9.19997Z" fill="black"/>
</svg>
