<?xml version="1.0" encoding="UTF-8"?><svg id="Layer_3" xmlns="http://www.w3.org/2000/svg" viewBox="0 0 16.5 16.5"><path d="M8.25,9.35c-.21,0-.38-.17-.38-.38v-3.46c0-.21.17-.38.38-.38s.38.17.38.38v3.46c0,.21-.17.38-.38.38Z"/><path d="M8.25,11.31c-.1,0-.19-.04-.26-.12-.07-.06-.11-.16-.11-.26,0-.05.01-.1.03-.14.02-.05.04-.09.08-.12.14-.15.39-.15.53,0,.03.03.06.07.08.12.02.04.03.09.03.14,0,.1-.04.2-.11.26-.07.08-.16.12-.27.12Z"/><path d="M8.25,15.67c-4.01,0-7.27-3.26-7.27-7.27S4.24,1.13,8.25,1.13s7.27,3.26,7.27,7.27-3.26,7.27-7.27,7.27ZM8.25,1.88c-3.6,0-6.52,2.93-6.52,6.52s2.93,6.52,6.52,6.52,6.52-2.93,6.52-6.52S11.85,1.88,8.25,1.88Z"/><path d="M8.25,14.14c-3.16,0-5.74-2.57-5.74-5.74s2.57-5.74,5.74-5.74,5.74,2.57,5.74,5.74-2.57,5.74-5.74,5.74ZM8.25,3.41c-2.75,0-4.99,2.24-4.99,4.99s2.24,4.99,4.99,4.99,4.99-2.24,4.99-4.99-2.24-4.99-4.99-4.99Z"/></svg>