<!--
 ~ Copyright (c) 2025, WSO2 LLC. (https://www.wso2.com) All Rights Reserved.
 ~
 ~ WSO2 LLC. licenses this file to you under the Apache License,
 ~ Version 2.0 (the "License"); you may not use this file except
 ~ in compliance with the License.
 ~ You may obtain a copy of the License at
 ~
 ~     http://www.apache.org/licenses/LICENSE-2.0
 ~
 ~ Unless required by applicable law or agreed to in writing,
 ~ software distributed under the License is distributed on an
 ~ "AS IS" BASIS, WITHOUT WARRANTIES OR CONDITIONS OF ANY
 ~ KIND, either express or implied. See the License for the
 ~ specific language governing permissions and limitations
 ~ under the License.
-->
<svg width="14" height="15" viewBox="0 0 14 15" fill="none" xmlns="http://www.w3.org/2000/svg">
<path d="M9.06586 5.80547C9.28377 5.84179 9.43097 6.04788 9.39466 6.26579L9.06651 8.23465L10.7502 6.88768C10.9227 6.74968 11.1744 6.77765 11.3124 6.95015C11.4504 7.12266 11.4225 7.37438 11.25 7.51238L8.74998 9.51238C8.62054 9.61593 8.44064 9.62892 8.29768 9.54503C8.15471 9.46115 8.07829 9.29778 8.10554 9.13427L8.60554 6.13427C8.64186 5.91636 8.84795 5.76916 9.06586 5.80547Z" fill="black"/>
<path d="M11.1484 1.60911C11.5763 0.770855 12.5506 0.663871 13.2059 1.05704C13.8796 1.46123 14.1633 2.39759 13.7466 3.09999L11.3494 7.39498C11.2422 7.58703 11 7.65651 10.8073 7.55052L8.80733 6.45052C8.71293 6.3986 8.64346 6.31079 8.61466 6.20698C8.58585 6.10317 8.60014 5.99212 8.65429 5.89898L11.1484 1.60911ZM12.7943 1.74303C12.4527 1.53807 12.0332 1.62818 11.8579 1.97892C11.8541 1.98643 11.8501 1.99382 11.8459 2.00108L9.55179 5.94695L10.8446 6.65797L13.0569 2.69413C13.2351 2.39718 13.1188 1.93771 12.7943 1.74303Z" fill="black"/>
<path d="M2.6001 1.70003C1.92101 1.70003 1.4001 2.22095 1.4001 2.90003C1.4001 3.49533 1.93688 4.10003 2.6001 4.10003H5.1001C5.32101 4.10003 5.5001 4.27912 5.5001 4.50003C5.5001 4.72095 5.32101 4.90003 5.1001 4.90003H2.6001C1.46331 4.90003 0.600098 3.90473 0.600098 2.90003C0.600098 1.77912 1.47918 0.900032 2.6001 0.900032H6.4001C7.52101 0.900032 8.4001 1.77912 8.4001 2.90003C8.4001 3.12095 8.22101 3.30003 8.0001 3.30003C7.77918 3.30003 7.6001 3.12095 7.6001 2.90003C7.6001 2.22095 7.07918 1.70003 6.4001 1.70003H2.6001Z" fill="black"/>
<path d="M8.7001 10.8C8.7001 10.5791 8.87918 10.4 9.1001 10.4H11.6001C12.7041 10.4 13.6001 11.2625 13.6001 12.3C13.6001 13.4209 12.721 14.3 11.6001 14.3H7.9001C6.77918 14.3 5.9001 13.4209 5.9001 12.3C5.9001 12.0791 6.07918 11.9 6.3001 11.9C6.52101 11.9 6.7001 12.0791 6.7001 12.3C6.7001 12.9791 7.22101 13.5 7.9001 13.5H11.6001C12.2792 13.5 12.8001 12.9791 12.8001 12.3C12.8001 11.7375 12.2961 11.2 11.6001 11.2H9.1001C8.87918 11.2 8.7001 11.0209 8.7001 10.8Z" fill="black"/>
<path d="M2.7001 11.2C2.00407 11.2 1.5001 11.7375 1.5001 12.3C1.5001 12.9791 2.02101 13.5 2.7001 13.5H5.4001C5.62101 13.5 5.8001 13.6791 5.8001 13.9C5.8001 14.1209 5.62101 14.3 5.4001 14.3H2.7001C1.57918 14.3 0.700098 13.4209 0.700098 12.3C0.700098 11.2625 1.59613 10.4 2.7001 10.4H6.4001C7.50407 10.4 8.4001 11.2625 8.4001 12.3C8.4001 12.5209 8.22101 12.7 8.0001 12.7C7.77918 12.7 7.6001 12.5209 7.6001 12.3C7.6001 11.7375 7.09613 11.2 6.4001 11.2H2.7001Z" fill="black"/>
<path d="M8.4001 1.30003C8.4001 1.07912 8.57918 0.900032 8.8001 0.900032H10.3001C10.521 0.900032 10.7001 1.07912 10.7001 1.30003C10.7001 1.52095 10.521 1.70003 10.3001 1.70003H8.8001C8.57918 1.70003 8.4001 1.52095 8.4001 1.30003Z" fill="black"/>
<path d="M6.3001 2.50003C6.52101 2.50003 6.7001 2.67912 6.7001 2.90003C6.7001 3.49533 7.23689 4.10003 7.9001 4.10003H8.8001C9.02101 4.10003 9.2001 4.27912 9.2001 4.50003C9.2001 4.72095 9.02101 4.90003 8.8001 4.90003H7.9001C6.76331 4.90003 5.9001 3.90473 5.9001 2.90003C5.9001 2.67912 6.07918 2.50003 6.3001 2.50003Z" fill="black"/>
</svg>
