<svg width="44" height="61" viewBox="0 0 44 61" fill="none" xmlns="http://www.w3.org/2000/svg">
<path fill-rule="evenodd" clip-rule="evenodd" d="M0.899902 10.7C0.899902 9.87157 1.57148 9.2 2.3999 9.2H24.1999C25.0283 9.2 25.6999 9.87157 25.6999 10.7C25.6999 11.5284 25.0283 12.2 24.1999 12.2H2.3999C1.57148 12.2 0.899902 11.5284 0.899902 10.7Z" fill="black"/>
<path fill-rule="evenodd" clip-rule="evenodd" d="M15.4277 0.951059C16.007 0.358871 16.9567 0.348435 17.5488 0.927749L26.7488 9.92775C27.0437 10.2162 27.2068 10.6134 27.1997 11.0258C27.1926 11.4383 27.0159 11.8296 26.7113 12.1077L17.5113 20.5077C16.8995 21.0663 15.9508 21.0232 15.3922 20.4114C14.8336 19.7996 14.8767 18.8509 15.4885 18.2923L23.5165 10.9624L15.451 3.07225C14.8588 2.49294 14.8483 1.54325 15.4277 0.951059Z" fill="black"/>
<path fill-rule="evenodd" clip-rule="evenodd" d="M33.5999 4.2C32.0311 4.2 30.6585 4.69013 29.5266 5.57948C28.8752 6.0913 27.9322 5.97814 27.4204 5.32673C26.9086 4.67533 27.0218 3.73234 27.6732 3.22052C29.3413 1.90987 31.3687 1.2 33.5999 1.2C38.8283 1.2 43.0999 5.47157 43.0999 10.7C43.0999 15.9284 38.8283 20.2 33.5999 20.2C31.8477 20.2 30.0484 19.7351 28.5679 18.7481C27.8786 18.2885 27.6923 17.3572 28.1518 16.6679C28.6114 15.9787 29.5427 15.7924 30.232 16.2519C31.1514 16.8649 32.3521 17.2 33.5999 17.2C37.1715 17.2 40.0999 14.2716 40.0999 10.7C40.0999 7.12843 37.1715 4.2 33.5999 4.2Z" fill="black"/>
<path fill-rule="evenodd" clip-rule="evenodd" d="M16.3999 37.5C12.7283 37.5 9.7999 40.4284 9.7999 44.1V55.6C9.7999 56.6716 10.6283 57.5 11.6999 57.5H33.0999C34.1715 57.5 34.9999 56.6716 34.9999 55.6V44.1C34.9999 40.4284 32.0715 37.5 28.3999 37.5H16.3999ZM6.7999 44.1C6.7999 38.7716 11.0715 34.5 16.3999 34.5H28.3999C33.7283 34.5 37.9999 38.7716 37.9999 44.1V55.6C37.9999 58.3284 35.8283 60.5 33.0999 60.5H11.6999C8.97148 60.5 6.7999 58.3284 6.7999 55.6V44.1Z" fill="black"/>
<path fill-rule="evenodd" clip-rule="evenodd" d="M22.2999 22.6C19.3176 22.6 16.8999 25.0177 16.8999 28C16.8999 30.9823 19.3176 33.4 22.2999 33.4C25.2822 33.4 27.6999 30.9823 27.6999 28C27.6999 25.0177 25.2822 22.6 22.2999 22.6ZM13.8999 28C13.8999 23.3608 17.6607 19.6 22.2999 19.6C26.9391 19.6 30.6999 23.3608 30.6999 28C30.6999 32.6392 26.9391 36.4 22.2999 36.4C17.6607 36.4 13.8999 32.6392 13.8999 28Z" fill="black"/>
</svg>
