<?xml version="1.0" encoding="UTF-8"?><svg id="Layer_3" xmlns="http://www.w3.org/2000/svg" viewBox="0 0 16.5 16.5"><path d="M2.95,14.33c-.11,0-.23-.05-.3-.15-1.3-1.72-1.99-3.77-1.99-5.93S1.4,3.89,2.79,2.13c.13-.16.36-.19.53-.06.16.13.19.36.06.53-1.29,1.63-1.97,3.58-1.97,5.65s.63,3.89,1.83,5.48c.12.17.09.4-.07.53-.07.05-.15.08-.23.08Z"/><path d="M13.26,14.51c-.08,0-.16-.03-.23-.08-.16-.13-.19-.36-.06-.53,1.29-1.63,1.97-3.58,1.97-5.65s-.68-4.03-1.97-5.65c-.13-.16-.1-.4.06-.53.16-.13.4-.1.53.06,1.4,1.76,2.13,3.88,2.13,6.12s-.74,4.36-2.13,6.12c-.07.09-.18.14-.29.14Z"/><path d="M7.58,8.22l-.36-.85-.22-.55c-.08-.19-.17-.4-.29-.63-.15-.32-.24-.5-.26-.56-.21-.5-.43-.75-.64-.75-.38,0-.71.37-.97,1.11-.12-.03-.19-.11-.19-.25,0-.37.18-.77.54-1.2s.7-.64,1.02-.64c.25,0,.48.15.69.44.2.29.5.9.89,1.83l.46,1.11.2-.35.38-.66c.9-1.57,1.8-2.36,2.7-2.36.3,0,.58.06.85.19l-.84.84c-.16-.09-.31-.14-.43-.14-.36,0-.71.2-1.06.59-.35.39-.81,1.1-1.38,2.12l-.18.32.47,1.13.26.6.25.59c.35.83.68,1.25.98,1.25.44,0,.75-.33.95-1,.14.06.22.15.22.25,0,.17-.12.44-.35.8-.35.54-.75.81-1.2.81-.32,0-.61-.18-.86-.53-.25-.35-.61-1.07-1.06-2.16l-.32-.78-.13.25c-1.12,2.14-2.26,3.21-3.41,3.21-.25,0-.51-.07-.8-.2l.86-.84c.15.08.32.12.49.12.51,0,1.04-.39,1.59-1.17.46-.65.81-1.22,1.05-1.72l.12-.23Z"/></svg>