<?xml version="1.0" standalone="no"?>
<!--
 ~ Copyright (c) 2025, WSO2 LLC. (https://www.wso2.com) All Rights Reserved.
 ~
 ~ WSO2 LLC. licenses this file to you under the Apache License,
 ~ Version 2.0 (the "License"); you may not use this file except
 ~ in compliance with the License.
 ~ You may obtain a copy of the License at
 ~
 ~     http://www.apache.org/licenses/LICENSE-2.0
 ~
 ~ Unless required by applicable law or agreed to in writing,
 ~ software distributed under the License is distributed on an
 ~ "AS IS" BASIS, WITHOUT WARRANTIES OR CONDITIONS OF ANY
 ~ KIND, either express or implied. See the License for the
 ~ specific language governing permissions and limitations
 ~ under the License.
-->
<?xml version="1.0" encoding="UTF-8"?>
<svg width="20px" height="16px" viewBox="0 0 20 16" version="1.1" xmlns="http://www.w3.org/2000/svg" xmlns:xlink="http://www.w3.org/1999/xlink">
    <title>D213B446-D687-4EC4-AF59-6E643D9A5A0B</title>
    <g id="Adding" stroke="none" stroke-width="1" fill="none" fill-rule="evenodd">
        <g id="develop-new-adding-API" transform="translate(-174.000000, -580.000000)" fill-rule="nonzero">
            <g id="Dropdown/Select/Default-Copy" transform="translate(164.000000, 568.000000)">
                <g id="Icon/Connectro-logo" transform="translate(10.000000, 10.000000)">
                    <g id="Logo/Circle" transform="translate(0.000000, 2.000000)">
                        <path d="M19,12 C19.5522847,12 20,12.4477153 20,13 C20,13.5128358 19.6139598,13.9355072 19.1166211,13.9932723 L19,14 L11,14 C10.4477153,14 10,13.5522847 10,13 C10,12.4871642 10.3860402,12.0644928 10.8833789,12.0067277 L11,12 L19,12 Z" id="Path-23" fill="#5567D5"></path>
                        <path d="M8,-2.38742359e-12 C12.418278,-2.38661197e-12 16,3.581722 16,8 L15.994,8.09 L18.2928932,5.79289322 C18.6834175,5.40236893 19.3165825,5.40236893 19.7071068,5.79289322 C20.0675907,6.15337718 20.0953203,6.72060824 19.7902954,7.11289944 L19.7071068,7.20710678 L15.0006268,11.9135867 L10.2935206,7.2148224 C9.90265013,6.82464462 9.90208859,6.19147989 10.2922664,5.8006094 C10.6524305,5.43980587 11.2196367,5.41157328 11.6121983,5.71625013 L11.7064794,5.79935516 L14.0044334,8.0947841 C14.0015,8.0635841 14,8.03196722 14,8 C14,4.6862915 11.3137085,2 8,2 C4.6862915,2 2,4.6862915 2,8 C2,11.3137085 4.6862915,14 8,14 C8.55228475,14 9,14.4477153 9,15 C9,15.5522847 8.55228475,16 8,16 C3.581722,16 -3.55271368e-15,12.418278 0,8 C0,3.581722 3.581722,-2.38823522e-12 8,-2.38742359e-12 Z" id="Combined-Shape" fill="#CCD1F2"></path>
                    </g>
                </g>
            </g>
        </g>
    </g>
</svg>
