<svg width="55" height="61" viewBox="0 0 55 61" fill="none" xmlns="http://www.w3.org/2000/svg">
<path d="M5.40021 10.9C5.40021 10.0716 6.07178 9.4 6.90021 9.4H29.1002C29.9286 9.4 30.6002 10.0716 30.6002 10.9C30.6002 11.7284 29.9286 12.4 29.1002 12.4H6.90021C6.07178 12.4 5.40021 11.7284 5.40021 10.9Z" fill="black"/>
<path d="M20.2338 0.945089C20.8164 0.356144 21.7662 0.351011 22.3551 0.933622L31.6551 10.1336C31.9472 10.4226 32.108 10.8188 32.0999 11.2296C32.0918 11.6405 31.9155 12.03 31.6122 12.3072L22.3122 20.8072C21.7007 21.3661 20.7519 21.3235 20.193 20.712C19.6341 20.1005 19.6767 19.1517 20.2882 18.5928L28.4239 11.157L20.2453 3.06638C19.6564 2.48377 19.6512 1.53403 20.2338 0.945089Z" fill="black"/>
<path d="M38.7002 4.2C37.1666 4.2 35.6875 4.7676 34.5269 5.67948C33.8755 6.1913 32.9325 6.07814 32.4207 5.42673C31.9089 4.77532 32.0221 3.83234 32.6735 3.32052C34.3129 2.0324 36.4338 1.2 38.7002 1.2C44.0286 1.2 48.4002 5.57157 48.4002 10.9C48.4002 16.2284 44.0286 20.6 38.7002 20.6C36.8271 20.6 35.1543 20.1253 33.6141 19.1775C32.9085 18.7433 32.6885 17.8194 33.1227 17.1139C33.5569 16.4083 34.4808 16.1883 35.1864 16.6225C36.2461 17.2747 37.3733 17.6 38.7002 17.6C42.3718 17.6 45.4002 14.5716 45.4002 10.9C45.4002 7.22843 42.3718 4.2 38.7002 4.2Z" fill="black"/>
<path d="M32.8002 49.8H29.0002L26.0002 38L23.1002 49.8H19.2002L14.6002 32.4H18.4002L21.2002 44.2L24.2002 32.4H27.8002L30.8002 44.4L33.6002 32.4H37.3002L32.8002 49.8Z" fill="black"/>
<path d="M43.6002 44.1C43.6002 44.7 43.7002 45.2 43.9002 45.6C44.1002 46 44.4002 46.3 44.7002 46.6C45.0002 46.9 45.5002 47 45.9002 47.2C46.4002 47.3 46.9002 47.4 47.4002 47.4C47.7002 47.4 48.1002 47.4 48.5002 47.3C48.9002 47.2 49.3002 47.1 49.6002 47C49.9002 46.8 50.2002 46.6 50.5002 46.3C50.7002 46 50.8002 45.7 50.8002 45.2C50.8002 44.7 50.6002 44.3 50.3002 44.1C50.0002 43.8 49.6002 43.6 49.1002 43.4C48.6002 43.2 48.1002 43 47.4002 42.9C46.8002 42.8 46.2002 42.6 45.5002 42.4C44.8002 42.2 44.2002 42 43.6002 41.8C43.0002 41.6 42.4002 41.3 41.9002 40.9C41.4002 40.5 41.0002 40.1 40.7002 39.5C40.4002 38.9 40.2002 38.3 40.2002 37.5C40.2002 36.6 40.4002 35.8 40.8002 35.2C41.2002 34.5 41.7002 34 42.3002 33.6C42.9002 33.2 43.6002 32.8 44.4002 32.6C45.2002 32.4 46.0002 32.3 46.7002 32.3C47.6002 32.3 48.5002 32.4 49.3002 32.6C50.1002 32.8 50.9002 33.1 51.5002 33.6C52.1002 34.1 52.7002 34.6 53.0002 35.3C53.4002 36 53.6002 36.9 53.6002 37.9H49.9002C49.9002 37.4 49.8002 36.9 49.6002 36.6C49.4002 36.3 49.2002 36 48.9002 35.8C48.6002 35.6 48.2002 35.5 47.8002 35.4C47.4002 35.3 47.0002 35.3 46.5002 35.3C46.2002 35.3 45.9002 35.3 45.6002 35.4C45.3002 35.5 45.0002 35.6 44.8002 35.7C44.5002 35.9 44.3002 36.1 44.2002 36.3C44.0002 36.6 44.0002 36.9 44.0002 37.2C44.0002 37.5 44.1002 37.8 44.2002 38C44.3002 38.2 44.6002 38.4 45.0002 38.6C45.4002 38.8 45.9002 38.9 46.6002 39.1C47.3002 39.3 48.2002 39.5 49.2002 39.8C49.4002 39.8 49.7002 39.9 50.0002 40C50.3002 40.1 50.7002 40.2 51.1002 40.4C51.5002 40.6 51.9002 40.8 52.2002 41C52.6002 41.2 52.9002 41.5 53.2002 41.9C53.5002 42.3 53.8002 42.7 54.0002 43.2C54.2002 43.7 54.3002 44.3 54.3002 44.9C54.3002 45.7 54.1002 46.4 53.8002 47.1C53.5002 47.8 53.0002 48.4 52.4002 48.9C51.8002 49.4 51.0002 49.8 50.1002 50.1C49.2002 50.4 48.2002 50.5 47.0002 50.5C46.0002 50.5 45.1002 50.4 44.2002 50.1C43.3002 49.9 42.5002 49.5 41.8002 49C41.1002 48.5 40.6002 47.9 40.2002 47.1C39.8002 46.3 39.6002 45.4 39.6002 44.3H43.6002V44.1Z" fill="black"/>
<path d="M20.7926 20.7489C20.876 21.5731 20.2755 22.3089 19.4513 22.3924C12.1634 23.1304 5.80919 28.3899 4.06081 35.8415C1.84767 45.3423 7.65669 54.8353 17.1508 57.1415C23.3108 58.6118 29.4914 56.595 33.7513 52.4277C34.3435 51.8484 35.2931 51.8589 35.8725 52.4511C36.4518 53.0432 36.4413 53.9929 35.8491 54.5722C30.9095 59.4045 23.6911 61.7878 16.4518 60.059L16.4464 60.0577C5.34276 57.3626 -1.44654 46.2574 1.13934 35.1596L1.13985 35.1574C3.19182 26.4096 10.6373 20.2696 19.1491 19.4076C19.9733 19.3242 20.7091 19.9247 20.7926 20.7489Z" fill="black"/>
<path d="M25.4653 22.6621C23.4325 22.2004 21.4941 22.1074 19.5424 22.2932C18.7177 22.3718 17.9855 21.7669 17.907 20.9422C17.8284 20.1175 18.4333 19.3853 19.258 19.3068C21.5055 19.0927 23.7664 19.1995 26.1326 19.7373L26.1375 19.7384C30.3606 20.713 33.9185 22.984 36.6008 25.8809C37.1637 26.4888 37.1272 27.4378 36.5193 28.0006C35.9115 28.5635 34.9624 28.527 34.3996 27.9191C32.0824 25.4166 29.0412 23.4879 25.4653 22.6621Z" fill="black"/>
<path d="M23.2745 20.5236C23.4272 21.3378 22.8909 22.1216 22.0766 22.2743C21.4229 22.3969 20.9546 22.6012 20.659 22.8364C20.3992 23.0431 20.2374 23.2958 20.1886 23.6861L20.1876 23.694C20.0287 24.9127 21.2328 26.9314 24.2438 27.6399C25.6919 27.9806 27.0625 27.8789 28.0654 27.5064C29.0862 27.1272 29.5296 26.5635 29.6344 26.0814C29.6413 26.05 29.6491 26.0188 29.6579 25.9879C29.7387 25.705 29.8856 24.8756 28.9036 23.8235C28.3384 23.2179 28.3711 22.2687 28.9767 21.7034C29.5824 21.1382 30.5315 21.1709 31.0968 21.7765C32.8896 23.6974 32.8628 25.6405 32.5556 26.7653C32.1458 28.5568 30.7005 29.7279 29.11 30.3186C27.4879 30.9211 25.5085 31.0194 23.5566 30.5601C19.7691 29.6689 16.7741 26.6896 17.2123 23.31C17.5346 20.748 19.6672 19.6738 21.5238 19.3257C22.338 19.173 23.1218 19.7093 23.2745 20.5236Z" fill="black"/>
<path d="M13.3503 21.1414C14.1558 21.3348 14.6521 22.1445 14.4588 22.9501C13.9977 24.8714 14.6661 27.2114 16.2815 29.2755C16.792 29.9279 16.6771 30.8707 16.0247 31.3813C15.3723 31.8918 14.4295 31.7769 13.919 31.1245C11.9343 28.5886 10.8027 25.3286 11.5416 22.2499C11.735 21.4444 12.5447 20.9481 13.3503 21.1414Z" fill="black"/>
<path d="M6.43361 26.3015C7.26122 26.2647 7.96195 26.9058 7.99873 27.7334C8.17863 31.7812 10.1631 35.6216 13.3108 38.4916C13.923 39.0497 13.9668 39.9985 13.4086 40.6106C12.8505 41.2228 11.9017 41.2666 11.2896 40.7084C7.63731 37.3784 5.22178 32.8188 5.00169 27.8666C4.9649 27.039 5.606 26.3383 6.43361 26.3015Z" fill="black"/>
<path d="M2.5202 33.9108C3.34264 33.8114 4.08995 34.3976 4.18937 35.22C5.20851 43.6511 11.5116 49.7726 18.6417 51.4394L18.664 51.4448C21.2161 52.0828 24.0911 52.0933 27.0152 51.5273C27.8285 51.3699 28.6155 51.9016 28.7729 52.715C28.9303 53.5283 28.3986 54.3152 27.5852 54.4727C24.3133 55.1059 20.9924 55.1172 17.9475 54.358C9.68224 52.421 2.39137 45.3445 1.21105 35.58C1.11163 34.7576 1.69776 34.0103 2.5202 33.9108Z" fill="black"/>
<path d="M25.1468 51.6031C25.9183 51.905 26.2989 52.7751 25.9971 53.5466C25.0672 55.9229 24.0321 57.9942 22.9931 59.7605C22.5731 60.4746 21.6537 60.7129 20.9397 60.2929C20.2256 59.8729 19.9873 58.9535 20.4073 58.2395C21.3683 56.6058 22.3332 54.6771 23.2033 52.4534C23.5052 51.6819 24.3753 51.3013 25.1468 51.6031Z" fill="black"/>
<path d="M13.2746 44.2253C14.089 44.3768 14.6264 45.1599 14.4749 45.9744C13.6943 50.1703 13.5097 53.826 13.7932 56.7555C13.873 57.5801 13.2693 58.3132 12.4447 58.393C11.6201 58.4728 10.887 57.8691 10.8072 57.0445C10.4907 53.774 10.7062 49.8297 11.5255 45.4256C11.677 44.6112 12.4601 44.0738 13.2746 44.2253Z" fill="black"/>
<path d="M19.9549 23.856C20.3106 24.6041 19.9924 25.499 19.2442 25.8547C13.6397 28.5192 9.77746 33.7889 8.05879 40.9501L8.05771 40.9545C7.21749 44.4088 7.29955 48.2088 7.69051 51.6297C7.78457 52.4528 7.1936 53.1962 6.37053 53.2903C5.54746 53.3844 4.80397 52.7934 4.70991 51.9703C4.30095 48.3919 4.18297 44.1928 5.14216 40.2477C7.02377 32.4099 11.3613 26.2805 17.9562 23.1453C18.7043 22.7896 19.5992 23.1078 19.9549 23.856Z" fill="black"/>
</svg>
