<svg width="60" height="62" viewBox="0 0 60 62" fill="none" xmlns="http://www.w3.org/2000/svg">
<path d="M29.9002 3.90002C25.6476 3.90002 22.2002 7.34743 22.2002 11.6C22.2002 15.8526 25.6476 19.3 29.9002 19.3C34.1528 19.3 37.6002 15.8526 37.6002 11.6C37.6002 7.34743 34.1528 3.90002 29.9002 3.90002ZM19.2002 11.6C19.2002 5.69058 23.9907 0.900024 29.9002 0.900024C35.8096 0.900024 40.6002 5.69058 40.6002 11.6C40.6002 17.5095 35.8096 22.3 29.9002 22.3C23.9907 22.3 19.2002 17.5095 19.2002 11.6Z" fill="black"/>
<path d="M9.2002 11.6C9.2002 10.7716 9.87177 10.1 10.7002 10.1H29.9002C30.7286 10.1 31.4002 10.7716 31.4002 11.6C31.4002 12.4285 30.7286 13.1 29.9002 13.1H10.7002C9.87177 13.1 9.2002 12.4285 9.2002 11.6Z" fill="black"/>
<path d="M11.3002 20.8C11.3002 19.9716 11.9718 19.3 12.8002 19.3H29.9002C30.7286 19.3 31.4002 19.9716 31.4002 20.8C31.4002 21.6285 30.7286 22.3 29.9002 22.3H14.3002V27C14.3002 27.8285 13.6286 28.5 12.8002 28.5C11.9718 28.5 11.3002 27.8285 11.3002 27V20.8Z" fill="black"/>
<path d="M12.8002 50.2C13.6286 50.2 14.3002 50.8716 14.3002 51.7V58.1H44.9002V51.7C44.9002 50.8716 45.5718 50.2 46.4002 50.2C47.2286 50.2 47.9002 50.8716 47.9002 51.7V59.6C47.9002 60.4284 47.2286 61.1 46.4002 61.1H12.8002C11.9718 61.1 11.3002 60.4284 11.3002 59.6V51.7C11.3002 50.8716 11.9718 50.2 12.8002 50.2Z" fill="black"/>
<path d="M28.4002 20.8C28.4002 19.9716 29.0718 19.3 29.9002 19.3H46.4002C47.2286 19.3 47.9002 19.9716 47.9002 20.8V27C47.9002 27.8285 47.2286 28.5 46.4002 28.5C45.5718 28.5 44.9002 27.8285 44.9002 27V22.3H29.9002C29.0718 22.3 28.4002 21.6285 28.4002 20.8Z" fill="black"/>
<path d="M14.7002 46H11.8002L9.5002 36.9L7.2002 46H4.2002L0.700195 32.6H3.7002L5.8002 41.7L8.1002 32.6H10.9002L13.2002 41.9L15.4002 32.6H18.3002L14.7002 46Z" fill="black"/>
<path d="M23.0002 41.6C23.0002 42.1 23.1002 42.4 23.2002 42.7C23.4002 43 23.6002 43.3 23.8002 43.5C24.1002 43.7 24.4002 43.8 24.7002 43.9C25.1002 44 25.4002 44 25.8002 44C26.1002 44 26.3002 44 26.6002 43.9C26.9002 43.9 27.2002 43.8 27.4002 43.6C27.7002 43.5 27.9002 43.3 28.1002 43.1C28.3002 42.9 28.4002 42.6 28.4002 42.3C28.4002 41.9 28.3002 41.6 28.1002 41.4C27.9002 41.2 27.6002 41 27.2002 40.8C26.8002 40.6 26.4002 40.5 25.9002 40.4C25.4002 40.3 24.9002 40.2 24.5002 40C24.0002 39.9 23.5002 39.7 23.0002 39.5C22.5002 39.3 22.1002 39.1 21.7002 38.8C21.3002 38.5 21.0002 38.2 20.8002 37.7C20.6002 37.3 20.5002 36.7 20.5002 36.1C20.5002 35.4 20.6002 34.8 20.9002 34.3C21.2002 33.8 21.6002 33.4 22.1002 33C22.6002 32.7 23.1002 32.4 23.7002 32.2C24.3002 32 24.9002 32 25.5002 32C26.2002 32 26.9002 32.1 27.5002 32.2C28.1002 32.4 28.7002 32.6 29.2002 33C29.7002 33.4 30.1002 33.8 30.4002 34.3C30.7002 34.8 30.8002 35.5 30.8002 36.3H27.9002C27.9002 35.9 27.8002 35.6 27.6002 35.3C27.5002 35 27.3002 34.8 27.0002 34.7C26.8002 34.5 26.5002 34.4 26.2002 34.4C25.9002 34.3 25.6002 34.3 25.2002 34.3C25.0002 34.3 24.7002 34.3 24.5002 34.4C24.3002 34.5 24.0002 34.5 23.9002 34.7C23.7002 34.8 23.5002 35 23.4002 35.2C23.3002 35.4 23.2002 35.6 23.2002 35.9C23.2002 36.2 23.3002 36.4 23.4002 36.5C23.5002 36.7 23.7002 36.8 24.0002 36.9C24.3002 37 24.7002 37.2 25.2002 37.3C25.7002 37.4 26.4002 37.6 27.2002 37.8C27.4002 37.8 27.6002 37.9 27.8002 38C28.1002 38.1 28.3002 38.2 28.6002 38.3C28.9002 38.4 29.2002 38.6 29.5002 38.8C29.8002 39 30.1002 39.2 30.3002 39.5C30.5002 39.8 30.7002 40.1 30.9002 40.5C31.1002 40.9 31.1002 41.3 31.1002 41.8C31.1002 42.4 31.0002 43 30.7002 43.5C30.5002 44 30.1002 44.5 29.6002 44.9C29.1002 45.3 28.5002 45.6 27.9002 45.8C27.2002 46 26.4002 46.1 25.5002 46.1C24.8002 46.1 24.0002 46 23.3002 45.8C22.6002 45.6 22.0002 45.3 21.5002 44.9C21.0002 44.5 20.5002 44 20.2002 43.4C19.9002 42.8 19.7002 42.1 19.7002 41.3H23.0002V41.6Z" fill="black"/>
<path d="M34.6002 32.6H40.4002C41.3002 32.6 42.1002 32.7 42.8002 33C43.5002 33.3 44.2002 33.7 44.7002 34.2C45.2002 34.8 45.7002 35.4 46.0002 36.3C46.3002 37.1 46.5002 38.1 46.5002 39.2C46.5002 40.2 46.4002 41.1 46.1002 41.9C45.8002 42.7 45.5002 43.4 45.0002 44C44.5002 44.6 43.9002 45.1 43.1002 45.4C42.3002 45.7 41.4002 45.9 40.4002 45.9H34.6002V32.6ZM37.5002 43.5H40.1002C40.5002 43.5 40.9002 43.4 41.3002 43.3C41.7002 43.2 42.1002 42.9 42.4002 42.6C42.7002 42.3 43.0002 41.9 43.2002 41.3C43.4002 40.8 43.5002 40.2 43.5002 39.4C43.5002 38.7 43.4002 38.1 43.3002 37.6C43.2002 37.1 43.0002 36.6 42.7002 36.2C42.4002 35.8 42.0002 35.5 41.5002 35.3C41.0002 35.1 40.4002 35 39.7002 35H37.6002V43.5H37.5002Z" fill="black"/>
<path d="M49.8002 32.6H52.8002V43.5H59.3002V46H49.8002V32.6Z" fill="black"/>
</svg>
