<svg width="60" height="50" viewBox="0 0 60 50" fill="none" xmlns="http://www.w3.org/2000/svg">
<path d="M14.4001 49.0999H11.4001L9.1001 39.7999L6.8001 49.0999H3.8001L0.100098 35.4H3.1001L5.3001 44.7L7.7001 35.4H10.5001L12.8001 44.7999L15.0001 35.4H18.0001L14.4001 49.0999Z" fill="black"/>
<path d="M22.9001 44.5999C22.9001 45.0999 23.0001 45.3999 23.1001 45.7999C23.3001 46.0999 23.5001 46.3999 23.8001 46.5999C24.1001 46.7999 24.4001 46.9 24.8001 47C25.2001 47.1 25.6001 47.0999 26.0001 47.0999C26.3001 47.0999 26.6001 47.1 26.9001 47C27.2001 47 27.5001 46.9 27.8001 46.7C28.1001 46.6 28.3001 46.4 28.5001 46.2C28.7001 46 28.8001 45.6999 28.8001 45.2999C28.8001 44.8999 28.7001 44.6 28.4001 44.4C28.2001 44.2 27.9001 43.9999 27.5001 43.7999C27.1001 43.5999 26.7001 43.5 26.2001 43.4C25.7001 43.3 25.2001 43.2 24.7001 43C24.2001 42.9 23.7001 42.7 23.2001 42.5C22.7001 42.3 22.3001 42.0999 21.9001 41.7999C21.5001 41.4999 21.2001 41.1 21.0001 40.7C20.8001 40.3 20.6001 39.6999 20.6001 39.0999C20.6001 38.3999 20.8001 37.7999 21.1001 37.2999C21.4001 36.7999 21.8001 36.4 22.3001 36C22.8001 35.7 23.3001 35.4 23.9001 35.2C24.5001 35 25.1001 35 25.7001 35C26.4001 35 27.1001 35.1 27.8001 35.2C28.5001 35.4 29.0001 35.6 29.6001 36C30.1001 36.4 30.5001 36.8 30.8001 37.4C31.1001 38 31.3001 38.6 31.3001 39.4H28.4001C28.4001 39 28.3001 38.7 28.1001 38.4C28.0001 38.1 27.8001 37.8999 27.5001 37.7999C27.3001 37.5999 27.0001 37.5 26.7001 37.5C26.4001 37.4 26.0001 37.4 25.7001 37.4C25.5001 37.4 25.2001 37.4 25.0001 37.5C24.8001 37.6 24.5001 37.5999 24.3001 37.7999C24.1001 37.9999 23.9001 38.0999 23.8001 38.2999C23.7001 38.4999 23.6001 38.7 23.6001 39C23.6001 39.3 23.7001 39.5 23.8001 39.7C23.9001 39.9 24.1001 39.9999 24.4001 40.0999C24.7001 40.1999 25.1001 40.4 25.6001 40.5C26.1001 40.6 26.8001 40.8 27.7001 41C27.9001 41 28.1001 41.1 28.4001 41.2C28.7001 41.3 29.0001 41.4 29.3001 41.5C29.6001 41.6 29.9001 41.8 30.2001 42C30.5001 42.2 30.8001 42.4 31.0001 42.7C31.2001 43 31.4001 43.3 31.6001 43.7C31.8001 44.1 31.8001 44.4999 31.8001 45.0999C31.8001 45.6999 31.7001 46.2999 31.4001 46.7999C31.2001 47.2999 30.8001 47.8 30.3001 48.2C29.8001 48.6 29.2001 48.8999 28.5001 49.0999C27.8001 49.2999 27.0001 49.4 26.0001 49.4C25.2001 49.4 24.5001 49.2999 23.8001 49.0999C23.1001 48.8999 22.5001 48.6 21.9001 48.2C21.4001 47.8 20.9001 47.3 20.6001 46.7C20.3001 46.1 20.1001 45.4 20.1001 44.5H22.9001V44.5999Z" fill="black"/>
<path d="M34.6001 35.4H40.5001C41.4001 35.4 42.2001 35.4999 43.0001 35.7999C43.8001 36.0999 44.4001 36.4999 45.0001 37.0999C45.6001 37.6999 46.0001 38.4 46.3001 39.2C46.6001 40 46.8001 41 46.8001 42.2C46.8001 43.2 46.7001 44.1 46.4001 45C46.1001 45.8 45.8001 46.6 45.2001 47.2C44.7001 47.8 44.0001 48.2999 43.3001 48.5999C42.6001 48.8999 41.6001 49.0999 40.6001 49.0999H34.7001V35.4H34.6001ZM37.7001 46.5999H40.4001C40.8001 46.5999 41.3001 46.5 41.7001 46.4C42.1001 46.3 42.5001 46 42.8001 45.7C43.1001 45.4 43.4001 44.9 43.6001 44.4C43.8001 43.9 43.9001 43.2 43.9001 42.5C43.9001 41.8 43.8001 41.1999 43.7001 40.5999C43.6001 39.9999 43.3001 39.6 43.0001 39.2C42.7001 38.8 42.3001 38.4999 41.8001 38.2999C41.3001 38.0999 40.7001 38 39.9001 38H37.8001V46.5999H37.7001Z" fill="black"/>
<path d="M50.2001 35.4H53.2001V46.5999H59.9001V49.0999H50.2001V35.4Z" fill="black"/>
<path d="M37.4001 3.69995C30.7727 3.69995 25.4001 9.07254 25.4001 15.7C25.4001 22.3274 30.7727 27.7 37.4001 27.7C44.0275 27.7 49.4001 22.3274 49.4001 15.7C49.4001 9.07254 44.0275 3.69995 37.4001 3.69995ZM22.4001 15.7C22.4001 7.41568 29.1158 0.699951 37.4001 0.699951C45.6844 0.699951 52.4001 7.41568 52.4001 15.7C52.4001 23.9842 45.6844 30.7 37.4001 30.7C29.1158 30.7 22.4001 23.9842 22.4001 15.7Z" fill="black"/>
<path d="M7.6001 15.7C7.6001 14.8715 8.27167 14.2 9.1001 14.2H37.4001C38.2285 14.2 38.9001 14.8715 38.9001 15.7C38.9001 16.5284 38.2285 17.2 37.4001 17.2H9.1001C8.27167 17.2 7.6001 16.5284 7.6001 15.7Z" fill="black"/>
</svg>
