<svg width="50" height="62" viewBox="0 0 50 62" fill="none" xmlns="http://www.w3.org/2000/svg">
<path d="M3.2 10.4C3.2 9.5716 3.87157 8.90002 4.7 8.90002H24.9C25.7284 8.90002 26.4 9.5716 26.4 10.4C26.4 11.2285 25.7284 11.9 24.9 11.9H4.7C3.87157 11.9 3.2 11.2285 3.2 10.4Z" fill="black"/>
<path d="M16.733 1.34573C17.3153 0.756451 18.265 0.750764 18.8543 1.33303L27.2543 9.63303C27.5452 9.92051 27.7062 10.3143 27.6998 10.7233C27.6935 11.1323 27.5204 11.5209 27.2207 11.7992L18.8207 19.5992C18.2136 20.1629 17.2645 20.1278 16.7008 19.5207C16.1371 18.9136 16.1723 17.9645 16.7793 17.4008L24.0318 10.6664L16.7457 3.46702C16.1564 2.88475 16.1507 1.93502 16.733 1.34573Z" fill="black"/>
<path d="M33.5 4.50002C32.158 4.50002 30.8748 4.97342 29.8146 5.78896C29.1579 6.29406 28.2162 6.17122 27.7111 5.51459C27.206 4.85796 27.3288 3.91619 27.9854 3.41109C29.5252 2.22663 31.442 1.50002 33.5 1.50002C38.4284 1.50002 42.4 5.4716 42.4 10.4C42.4 15.3285 38.4284 19.3 33.5 19.3C31.8307 19.3 30.1485 18.827 28.7947 17.9655C28.0958 17.5208 27.8897 16.5936 28.3345 15.8947C28.7793 15.1958 29.7064 14.9898 30.4053 15.4345C31.2515 15.973 32.3693 16.3 33.5 16.3C36.7716 16.3 39.4 13.6716 39.4 10.4C39.4 7.12845 36.7716 4.50002 33.5 4.50002Z" fill="black"/>
<path d="M24.9 18.5C31.5 18.5 36.9 23.8 36.9 30.4C36.9 37 31.5 42.3 24.9 42.3C18.3 42.3 12.9 37 12.9 30.4C12.9 23.8 18.3 18.5 24.9 18.5ZM24.9 20.7C19.6 20.7 15.3 25 15.3 30.4C15.3 30.6 15.3 30.7 15.3 30.9H21L25 22.2L29.3 32.8L31 29.7H34.5C34.1 24.6 30 20.7 24.9 20.7ZM24.9 40.1C30 40.1 34.2 36.1 34.6 31H31.9L29.1 36L24.9 25.8L22 32.3H15.5C16.3 36.7 20.2 40.1 24.9 40.1Z" fill="black"/>
<path d="M0.5 39.8C0.5 38.9716 1.17157 38.3 2 38.3H18.5C19.3284 38.3 20 38.9716 20 39.8C20 40.6285 19.3284 41.3 18.5 41.3H3.5V58.1H46.3V41.3H31.6C30.7716 41.3 30.1 40.6285 30.1 39.8C30.1 38.9716 30.7716 38.3 31.6 38.3H47.8C48.6284 38.3 49.3 38.9716 49.3 39.8V59.6C49.3 60.4285 48.6284 61.1 47.8 61.1H2C1.17157 61.1 0.5 60.4285 0.5 59.6V39.8Z" fill="black"/>
<path d="M9.3 43.3H12.2L18.3 51.6H16.9L22.9 43.3H25.8V59.7H22.8V46.7L24 47L17.8 55.3H17.4L11.3 47L12.3 46.7V59.7H9.3V43.3Z" fill="black"/>
<path d="M28.9 43.3H35.8C36.9 43.3 37.8 43.5 38.6 43.9C39.4 44.3 40 44.8 40.4 45.5C40.8 46.2 41 47 41 48C41 48.7 40.8 49.4 40.4 50.1C40 50.8 39.4 51.3 38.5 51.7V50.3C39.3 50.6 39.9 51 40.4 51.4C40.9 51.9 41.2 52.4 41.4 52.9C41.6 53.5 41.7 54 41.7 54.7C41.7 56.3 41.2 57.5 40.2 58.4C39.2 59.3 37.7 59.7 35.9 59.7H28.9V43.3ZM31.9 49.6H36C36.6 49.6 37.1 49.4 37.5 49.1C37.9 48.7 38 48.3 38 47.7C38 47.1 37.8 46.7 37.5 46.3C37.1 46 36.6 45.8 36 45.8H31.9V49.6ZM31.9 57H36.1C36.9 57 37.5 56.8 38 56.4C38.5 56 38.7 55.4 38.7 54.7C38.7 54 38.5 53.4 38 53C37.5 52.6 36.9 52.3 36.1 52.3H31.9V57Z" fill="black"/>
</svg>
