<svg width="60" height="55" viewBox="0 0 60 55" fill="none" xmlns="http://www.w3.org/2000/svg">
<path d="M7.8999 11.5C7.8999 10.6716 8.57148 10 9.3999 10H32.2999C33.1283 10 33.7999 10.6716 33.7999 11.5C33.7999 12.3285 33.1283 13 32.2999 13H9.3999C8.57148 13 7.8999 12.3285 7.8999 11.5Z" fill="black"/>
<path d="M23.1283 1.35047C23.7079 0.758614 24.6576 0.748721 25.2495 1.32837L34.9495 10.8284C35.2447 11.1175 35.4075 11.5156 35.3996 11.9287C35.3917 12.3418 35.2138 12.7333 34.9078 13.011L25.2078 21.811C24.5942 22.3676 23.6456 22.3215 23.089 21.7079C22.5323 21.0943 22.5785 20.1457 23.192 19.5891L31.7135 11.8583L23.1503 3.47168C22.5585 2.89202 22.5486 1.94233 23.1283 1.35047Z" fill="black"/>
<path d="M42.1999 4.60002C40.4855 4.60002 38.9538 5.11513 37.8761 6.03891C37.2471 6.57804 36.3002 6.5052 35.761 5.87621C35.2219 5.24722 35.2947 4.30027 35.9237 3.76114C37.646 2.28492 39.9143 1.60002 42.1999 1.60002C47.7399 1.60002 52.0999 6.08326 52.0999 11.5C52.0999 16.9054 47.6512 21.5 42.1999 21.5C40.2871 21.5 38.5423 20.9034 37.0888 20.1207C36.3593 19.728 36.0864 18.8183 36.4792 18.0889C36.872 17.3595 37.7816 17.0866 38.5111 17.4793C39.6575 18.0966 40.9128 18.5 42.1999 18.5C45.9486 18.5 49.0999 15.2947 49.0999 11.5C49.0999 7.71679 46.0599 4.60002 42.1999 4.60002Z" fill="black"/>
<path d="M19.0999 53.6H15.1999L12.1999 41.4H12.0999L9.0999 53.6H5.0999L0.399902 35.7H4.2999L7.0999 47.9H7.1999L10.2999 35.7H13.9999L17.0999 48H17.1999L20.0999 35.7H23.9999L19.0999 53.6Z" fill="black"/>
<path d="M30.1999 47.7C30.1999 48.3 30.2999 48.8 30.4999 49.2C30.6999 49.6 30.9999 50 31.3999 50.2C31.7999 50.5 32.1999 50.7 32.6999 50.8C33.1999 50.9 33.6999 51 34.1999 51C34.5999 51 34.8999 51 35.2999 50.9C35.6999 50.8 36.0999 50.7 36.3999 50.6C36.7999 50.4 36.9999 50.2 37.2999 49.9C37.4999 49.6 37.6999 49.2 37.6999 48.8C37.6999 48.3 37.4999 47.9 37.1999 47.6C36.8999 47.3 36.4999 47 35.9999 46.8C35.4999 46.6 34.8999 46.4 34.2999 46.3C33.6999 46.2 32.9999 46 32.3999 45.8C31.6999 45.6 31.0999 45.4 30.3999 45.2C29.7999 45 29.1999 44.6 28.6999 44.3C28.1999 43.9 27.7999 43.4 27.4999 42.9C27.1999 42.3 26.9999 41.6 26.9999 40.8C26.9999 39.9 27.1999 39.1 27.5999 38.4C27.9999 37.7 28.4999 37.2 29.0999 36.7C29.6999 36.2 30.4999 35.9 31.2999 35.7C32.0999 35.5 32.8999 35.4 33.6999 35.4C34.5999 35.4 35.4999 35.5 36.3999 35.7C37.2999 35.9 37.9999 36.2 38.6999 36.7C39.3999 37.2 39.8999 37.8 40.2999 38.5C40.6999 39.2 40.8999 40.1 40.8999 41.1H37.0999C37.0999 40.6 36.9999 40.1 36.7999 39.8C36.5999 39.4 36.3999 39.2 35.9999 39C35.6999 38.8 35.2999 38.7 34.8999 38.6C34.4999 38.5 33.9999 38.5 33.5999 38.5C33.2999 38.5 32.9999 38.5 32.5999 38.6C32.2999 38.7 31.9999 38.8 31.6999 39C31.3999 39.2 31.1999 39.4 31.0999 39.6C30.8999 39.9 30.8999 40.2 30.8999 40.5C30.8999 40.9 30.9999 41.1 31.0999 41.4C31.1999 41.6 31.4999 41.8 31.8999 42C32.2999 42.2 32.7999 42.4 33.4999 42.6C34.1999 42.8 35.0999 43 36.1999 43.3C36.3999 43.4 36.6999 43.4 37.0999 43.5C37.4999 43.6 37.7999 43.7 38.1999 43.9C38.5999 44.1 38.9999 44.3 39.3999 44.5C39.7999 44.7 40.1999 45.1 40.4999 45.4C40.7999 45.8 41.0999 46.2 41.2999 46.7C41.4999 47.2 41.5999 47.8 41.5999 48.5C41.5999 49.3 41.3999 50.1 41.0999 50.8C40.7999 51.5 40.2999 52.1 39.6999 52.6C39.0999 53.1 38.2999 53.5 37.3999 53.8C36.4999 54.1 35.3999 54.2 34.1999 54.2C33.1999 54.2 32.2999 54.1 31.2999 53.8C30.3999 53.6 29.5999 53.2 28.8999 52.6C28.1999 52.1 27.5999 51.4 27.1999 50.6C26.7999 49.8 26.5999 48.8 26.5999 47.7H30.1999Z" fill="black"/>
<path d="M48.2999 47.7C48.2999 48.3 48.3999 48.8 48.5999 49.2C48.7999 49.6 49.0999 50 49.4999 50.2C49.8999 50.5 50.2999 50.7 50.7999 50.8C51.2999 50.9 51.7999 51 52.2999 51C52.6999 51 52.9999 51 53.3999 50.9C53.7999 50.8 54.1999 50.7 54.4999 50.6C54.8999 50.4 55.0999 50.2 55.3999 49.9C55.5999 49.6 55.7999 49.2 55.7999 48.8C55.7999 48.3 55.5999 47.9 55.2999 47.6C54.9999 47.3 54.5999 47 54.0999 46.8C53.5999 46.6 52.9999 46.4 52.3999 46.3C51.7999 46.2 51.0999 46 50.4999 45.8C49.7999 45.6 49.1999 45.4 48.4999 45.2C47.8999 45 47.2999 44.6 46.7999 44.3C46.2999 43.9 45.8999 43.4 45.5999 42.9C45.2999 42.3 45.0999 41.6 45.0999 40.8C45.0999 39.9 45.2999 39.1 45.6999 38.4C46.0999 37.7 46.5999 37.2 47.1999 36.7C47.7999 36.2 48.5999 35.9 49.3999 35.7C50.1999 35.5 50.9999 35.4 51.7999 35.4C52.6999 35.4 53.5999 35.5 54.4999 35.7C55.3999 35.9 56.0999 36.2 56.7999 36.7C57.4999 37.2 57.9999 37.8 58.3999 38.5C58.7999 39.2 58.9999 40.1 58.9999 41.1H55.1999C55.1999 40.6 55.0999 40.1 54.8999 39.8C54.6999 39.4 54.4999 39.2 54.0999 39C53.6999 38.8 53.3999 38.7 52.9999 38.6C52.5999 38.5 52.0999 38.5 51.6999 38.5C51.3999 38.5 51.0999 38.5 50.6999 38.6C50.3999 38.7 50.0999 38.8 49.7999 39C49.4999 39.2 49.2999 39.4 49.1999 39.6C49.0999 39.8 48.9999 40.2 48.9999 40.5C48.9999 40.9 49.0999 41.1 49.1999 41.4C49.2999 41.7 49.5999 41.8 49.9999 42C50.3999 42.2 50.8999 42.4 51.5999 42.6C52.2999 42.8 53.1999 43 54.2999 43.3C54.4999 43.4 54.7999 43.4 55.1999 43.5C55.5999 43.6 55.8999 43.7 56.2999 43.9C56.6999 44.1 57.0999 44.3 57.4999 44.5C57.8999 44.7 58.2999 45.1 58.5999 45.4C58.8999 45.8 59.1999 46.2 59.3999 46.7C59.5999 47.2 59.6999 47.8 59.6999 48.5C59.6999 49.3 59.4999 50.1 59.1999 50.8C58.8999 51.5 58.3999 52.1 57.7999 52.6C57.1999 53.1 56.3999 53.5 55.4999 53.8C54.5999 54.1 53.4999 54.2 52.2999 54.2C51.2999 54.2 50.3999 54.1 49.3999 53.8C48.4999 53.6 47.6999 53.2 46.9999 52.6C46.2999 52.1 45.6999 51.4 45.2999 50.6C44.8999 49.8 44.6999 48.8 44.6999 47.7H48.2999Z" fill="black"/>
</svg>
