<!--
 ~ Copyright (c) 2025, WSO2 LLC. (https://www.wso2.com) All Rights Reserved.
 ~
 ~ WSO2 LLC. licenses this file to you under the Apache License,
 ~ Version 2.0 (the "License"); you may not use this file except
 ~ in compliance with the License.
 ~ You may obtain a copy of the License at
 ~
 ~     http://www.apache.org/licenses/LICENSE-2.0
 ~
 ~ Unless required by applicable law or agreed to in writing,
 ~ software distributed under the License is distributed on an
 ~ "AS IS" BASIS, WITHOUT WARRANTIES OR CONDITIONS OF ANY
 ~ KIND, either express or implied. See the License for the
 ~ specific language governing permissions and limitations
 ~ under the License.
-->
<svg width="16" height="17" viewBox="0 0 16 17" fill="none" xmlns="http://www.w3.org/2000/svg">
<path d="M2.79995 1.09995C2.79995 0.879037 2.97904 0.699951 3.19995 0.699951H11.2C11.3088 0.699951 11.4129 0.744276 11.4883 0.822708L13.9883 3.42271C14.0599 3.49722 14.1 3.59658 14.1 3.69995V10.3C14.1 10.5209 13.9209 10.7 13.7 10.7C13.479 10.7 13.3 10.5209 13.3 10.3V3.86106L11.0297 1.49995H3.59995V10.3C3.59995 10.5209 3.42087 10.7 3.19995 10.7C2.97904 10.7 2.79995 10.5209 2.79995 10.3V1.09995Z" fill="black"/>
<path d="M0.949951 10.4C0.949951 10.2067 1.10665 10.05 1.29995 10.05H15.6C15.7933 10.05 15.95 10.2067 15.95 10.4V15.8C15.95 15.9933 15.7933 16.15 15.6 16.15H1.29995C1.10665 16.15 0.949951 15.9933 0.949951 15.8V10.4ZM1.64995 10.75V15.45H15.25V10.75H1.64995Z" fill="black"/>
<path d="M11.2 1.29995C11.4209 1.29995 11.6 1.47904 11.6 1.69995V3.29995H13.4C13.6209 3.29995 13.8 3.47904 13.8 3.69995C13.8 3.92087 13.6209 4.09995 13.4 4.09995H11.2C10.979 4.09995 10.8 3.92087 10.8 3.69995V1.69995C10.8 1.47904 10.979 1.29995 11.2 1.29995Z" fill="black"/>
<path d="M9.88734 4.72193C10.0409 4.60451 10.2606 4.63379 10.378 4.78734L11.678 6.48734C11.7763 6.61589 11.7736 6.79506 11.6716 6.92066L10.3716 8.52066C10.2497 8.67068 10.0293 8.69348 9.87924 8.57159C9.72922 8.4497 9.70642 8.22927 9.82831 8.07924L10.9543 6.69338L9.82193 5.21256C9.70451 5.05901 9.73379 4.83935 9.88734 4.72193Z" fill="black"/>
<path d="M7.01256 4.72193C7.16611 4.83935 7.1954 5.05901 7.07798 5.21256L5.94558 6.69338L7.07159 8.07924C7.19348 8.22927 7.17068 8.4497 7.02066 8.57159C6.87064 8.69348 6.65021 8.67068 6.52831 8.52066L5.22831 6.92066C5.12627 6.79506 5.12363 6.61589 5.22193 6.48734L6.52193 4.78734C6.63935 4.63379 6.85901 4.60451 7.01256 4.72193Z" fill="black"/>
<path d="M8.98484 4.4604C9.17237 4.50728 9.28638 4.69731 9.2395 4.88484L8.3395 8.48484C8.29262 8.67237 8.10259 8.78638 7.91506 8.7395C7.72754 8.69262 7.61352 8.50259 7.6604 8.31506L8.5604 4.71506C8.60728 4.52754 8.79731 4.41352 8.98484 4.4604Z" fill="black"/>
<path d="M3.09995 12.7L2.29995 11.4H2.69995L3.39995 12.4L4.09995 11.4H4.49995L3.59995 12.7L4.49995 14.1H4.09995L3.39995 12.9L2.59995 14.1H2.19995L3.09995 12.7Z" fill="black"/>
<path d="M6.69995 14.8V12.1H6.29995V12.4C6.29995 12.3333 6.26662 12.2666 6.19995 12.2C6.13328 12.2 6.06662 12.1666 5.99995 12.1C5.99995 12.1 5.96662 12.1 5.89995 12.1C5.83328 12.1 5.76662 12.1 5.69995 12.1C5.56662 12.1 5.43328 12.1 5.29995 12.1C5.16662 12.1666 5.06662 12.2666 4.99995 12.4C4.93328 12.4666 4.89995 12.5666 4.89995 12.7C4.83328 12.8333 4.79995 12.9666 4.79995 13.1C4.79995 13.2333 4.83328 13.3666 4.89995 13.5C4.89995 13.6333 4.93328 13.7333 4.99995 13.8C5.06662 13.8666 5.16662 13.9333 5.29995 14C5.43328 14.0666 5.56662 14.1 5.69995 14.1C5.83328 14.1 5.96662 14.0666 6.09995 14C6.23328 14 6.29995 13.9333 6.29995 13.8V14.8H6.69995ZM5.19995 13.4C5.13328 13.2666 5.09995 13.1666 5.09995 13.1C5.09995 12.9666 5.13328 12.8666 5.19995 12.8C5.19995 12.7333 5.23328 12.6666 5.29995 12.6C5.29995 12.5333 5.36662 12.4666 5.49995 12.4C5.56662 12.3333 5.63328 12.3 5.69995 12.3C5.83328 12.3 5.93328 12.3333 5.99995 12.4C6.06662 12.4666 6.13328 12.5333 6.19995 12.6C6.26662 12.6666 6.29995 12.7333 6.29995 12.8C6.36662 12.8666 6.39995 12.9666 6.39995 13.1C6.39995 13.1666 6.36662 13.2333 6.29995 13.3C6.29995 13.4333 6.26662 13.5333 6.19995 13.6C6.13328 13.6666 6.06662 13.7 5.99995 13.7C5.93328 13.7666 5.86662 13.8 5.79995 13.8C5.66662 13.8 5.56662 13.8 5.49995 13.8C5.43328 13.7333 5.36662 13.6666 5.29995 13.6C5.23328 13.5333 5.19995 13.4666 5.19995 13.4Z" fill="black"/>
<path d="M8.89995 14.1H8.59995V13.7H8.49995C8.43328 13.8333 8.36662 13.9333 8.29995 14C8.16662 14.0666 8.03328 14.1 7.89995 14.1C7.76662 14.1 7.66662 14.0666 7.59995 14C7.53328 14 7.46662 13.9666 7.39995 13.9C7.33328 13.8333 7.29995 13.7666 7.29995 13.7C7.23328 13.5666 7.19995 13.4666 7.19995 13.4V12.1H7.59995V13.4C7.59995 13.5333 7.63328 13.6333 7.69995 13.7C7.76662 13.7666 7.86662 13.8 7.99995 13.8C8.06662 13.8 8.13328 13.8 8.19995 13.8C8.26662 13.7333 8.33328 13.6666 8.39995 13.6C8.46662 13.6 8.49995 13.5333 8.49995 13.4C8.49995 13.3333 8.49995 13.2666 8.49995 13.2V12.1H8.89995V14.1Z" fill="black"/>
<path d="M11.2 13.4H10.8C10.8 13.5333 10.7666 13.6333 10.7 13.7C10.5666 13.7666 10.4333 13.8 10.3 13.8C10.2333 13.8 10.1666 13.8 10.1 13.8C9.96662 13.7333 9.89995 13.6666 9.89995 13.6C9.83328 13.5333 9.79995 13.4666 9.79995 13.4C9.73328 13.3333 9.69995 13.2666 9.69995 13.2H11.2C11.2 13.0666 11.2 12.9333 11.2 12.8C11.1333 12.6666 11.0666 12.5333 11 12.4C10.9333 12.3333 10.8333 12.2666 10.7 12.2C10.6333 12.1333 10.5 12.1 10.3 12.1C10.1666 12.1 10.0333 12.1 9.89995 12.1C9.83328 12.1666 9.73329 12.2333 9.59995 12.3C9.53329 12.4333 9.49995 12.5666 9.49995 12.7C9.43328 12.8333 9.39995 12.9666 9.39995 13.1C9.39995 13.2333 9.43328 13.3666 9.49995 13.5C9.49995 13.6333 9.53329 13.7333 9.59995 13.8C9.66662 13.8666 9.76662 13.9333 9.89995 14C10.0333 14.0666 10.1666 14.1 10.3 14.1C10.5666 14.1 10.7666 14.0333 10.9 13.9C11.0333 13.8333 11.1333 13.6666 11.2 13.4ZM10.9 12.9H9.79995C9.79995 12.8333 9.83328 12.7666 9.89995 12.7C9.89995 12.6333 9.93328 12.5666 9.99995 12.5C9.99995 12.4333 10.0333 12.4 10.1 12.4C10.1666 12.3333 10.2666 12.3 10.4 12.3C10.4666 12.3 10.5333 12.3333 10.6 12.4C10.6666 12.4 10.7333 12.4333 10.8 12.5C10.8 12.5666 10.8333 12.6333 10.9 12.7C10.9 12.7666 10.9 12.8333 10.9 12.9Z" fill="black"/>
<path d="M11.7 12.1H12V12.5C12.0666 12.3666 12.1666 12.2666 12.3 12.2C12.3666 12.0666 12.5 12.0333 12.7 12.1V12.4C12.5666 12.4 12.4666 12.4 12.4 12.4C12.2666 12.4666 12.1666 12.5333 12.1 12.6C12.1 12.6666 12.0666 12.7666 12 12.9C12 12.9666 12 13.0666 12 13.2V14.1H11.7V12.1Z" fill="black"/>
<path d="M13.9 14.3C13.8333 14.4333 13.7666 14.5333 13.7 14.6C13.7 14.6666 13.6666 14.7 13.6 14.7C13.6 14.7666 13.5666 14.8 13.5 14.8C13.4333 14.8 13.3666 14.8 13.3 14.8C13.2333 14.8 13.2 14.8 13.2 14.8C13.1333 14.8 13.1 14.8 13.1 14.8V14.5C13.1 14.5 13.1333 14.5 13.2 14.5C13.2 14.5666 13.2333 14.6 13.3 14.6C13.3666 14.6 13.4 14.5666 13.4 14.5C13.4666 14.5 13.5 14.4666 13.5 14.4L13.7 14L12.9 12.1H13.2L13.8 13.7L14.4 12.1H14.7L13.9 14.3Z" fill="black"/>
</svg>
