<!--
 ~ Copyright (c) 2025, WSO2 LLC. (https://www.wso2.com) All Rights Reserved.
 ~
 ~ WSO2 LLC. licenses this file to you under the Apache License,
 ~ Version 2.0 (the "License"); you may not use this file except
 ~ in compliance with the License.
 ~ You may obtain a copy of the License at
 ~
 ~     http://www.apache.org/licenses/LICENSE-2.0
 ~
 ~ Unless required by applicable law or agreed to in writing,
 ~ software distributed under the License is distributed on an
 ~ "AS IS" BASIS, WITHOUT WARRANTIES OR CONDITIONS OF ANY
 ~ KIND, either express or implied. See the License for the
 ~ specific language governing permissions and limitations
 ~ under the License.
-->
<svg width="16" height="15" viewBox="0 0 16 15" fill="none" xmlns="http://www.w3.org/2000/svg">
<path d="M3.19996 10L4.39996 8.4V8.8L3.19996 7.2H3.89996L4.69996 8.3L4.39996 8.4L5.19996 7.2H5.89996L4.79996 8.8V8.3L5.99996 10H5.19996L4.39996 8.8H4.69996L3.89996 10H3.19996Z" fill="black"/>
<path d="M7.39996 10.1C7.19996 10.1 6.99996 10.0667 6.79996 10C6.59996 9.93333 6.4333 9.86667 6.29996 9.8L6.49996 9.3C6.6333 9.36667 6.76663 9.43333 6.89996 9.5C7.09996 9.56667 7.26663 9.6 7.39996 9.6C7.5333 9.6 7.6333 9.56667 7.69996 9.5C7.76663 9.5 7.8333 9.46667 7.89996 9.4C7.89996 9.33333 7.89996 9.3 7.89996 9.3C7.89996 9.16667 7.89996 9.1 7.89996 9.1C7.8333 9.03333 7.7333 9 7.59996 9C7.5333 8.93333 7.4333 8.9 7.29996 8.9C7.16663 8.9 7.06663 8.86667 6.99996 8.8C6.86663 8.73333 6.7333 8.7 6.59996 8.7C6.5333 8.63333 6.46663 8.53333 6.39996 8.4C6.3333 8.33333 6.29996 8.23333 6.29996 8.1C6.29996 7.9 6.36663 7.73333 6.49996 7.6C6.56663 7.46667 6.66663 7.36667 6.79996 7.3C6.99996 7.23333 7.2333 7.2 7.49996 7.2C7.69996 7.2 7.86663 7.2 7.99996 7.2C8.19996 7.26667 8.36663 7.33333 8.49996 7.4L8.29996 7.9C8.16663 7.83333 8.0333 7.8 7.89996 7.8C7.76663 7.73333 7.6333 7.7 7.49996 7.7C7.36663 7.7 7.26663 7.7 7.19996 7.7C7.1333 7.76667 7.06663 7.83333 6.99996 7.9C6.99996 7.9 6.99996 7.93333 6.99996 8C6.99996 8.06667 7.0333 8.13333 7.09996 8.2C7.09996 8.26667 7.16663 8.3 7.29996 8.3C7.36663 8.3 7.46663 8.33333 7.59996 8.4C7.7333 8.4 7.86663 8.43333 7.99996 8.5C8.06663 8.5 8.16663 8.53333 8.29996 8.6C8.36663 8.66667 8.4333 8.73333 8.49996 8.8C8.56663 8.93333 8.59997 9.06667 8.59997 9.2C8.59997 9.33333 8.56663 9.46667 8.49996 9.6C8.36663 9.73333 8.2333 9.86667 8.09997 10C7.89997 10.0667 7.66663 10.1 7.39996 10.1Z" fill="black"/>
<path d="M9.19996 10V7.2H9.89996V9.5H11.3V10H9.19996Z" fill="black"/>
<path d="M12.2 10V7.8H11.3V7.2H13.7V7.8H12.8V10H12.2Z" fill="black"/>
<path fill-rule="evenodd" clip-rule="evenodd" d="M2.79996 0.4C2.79996 0.179086 2.97905 0 3.19996 0H11.3C11.4061 0 11.5078 0.0421427 11.5828 0.117157L14.0828 2.61716C14.1578 2.69217 14.2 2.79391 14.2 2.9V6.1C14.2 6.32091 14.0209 6.5 13.8 6.5C13.5791 6.5 13.4 6.32091 13.4 6.1V3.06569L11.1343 0.8H3.59996V6.1C3.59996 6.32091 3.42088 6.5 3.19996 6.5C2.97905 6.5 2.79996 6.32091 2.79996 6.1V0.4Z" fill="black"/>
<path fill-rule="evenodd" clip-rule="evenodd" d="M3.19996 10.8C3.42088 10.8 3.59996 10.9791 3.59996 11.2V14H13.4V11.2C13.4 10.9791 13.5791 10.8 13.8 10.8C14.0209 10.8 14.2 10.9791 14.2 11.2V14.4C14.2 14.6209 14.0209 14.8 13.8 14.8H3.19996C2.97905 14.8 2.79996 14.6209 2.79996 14.4V11.2C2.79996 10.9791 2.97905 10.8 3.19996 10.8Z" fill="black"/>
<path fill-rule="evenodd" clip-rule="evenodd" d="M0.899965 6.1C0.899965 5.87909 1.07905 5.7 1.29996 5.7H15.6C15.8209 5.7 16 5.87909 16 6.1V11.2C16 11.4209 15.8209 11.6 15.6 11.6H1.29996C1.07905 11.6 0.899965 11.4209 0.899965 11.2V6.1ZM1.69996 6.5V10.8H15.2V6.5H1.69996Z" fill="black"/>
<path fill-rule="evenodd" clip-rule="evenodd" d="M15.7961 10.8514C15.9886 10.9597 16.0569 11.2036 15.9486 11.3961L14.1486 14.5961C14.0403 14.7886 13.7964 14.8569 13.6039 14.7486C13.4113 14.6403 13.343 14.3964 13.4513 14.2039L15.2513 11.0039C15.3596 10.8114 15.6035 10.7431 15.7961 10.8514Z" fill="black"/>
<path fill-rule="evenodd" clip-rule="evenodd" d="M1.09575 10.8561C1.2857 10.7433 1.53112 10.8058 1.64391 10.9958L3.54391 14.1958C3.65669 14.3857 3.59413 14.6312 3.40418 14.7439C3.21423 14.8567 2.96881 14.7942 2.85602 14.6042L0.956023 11.4042C0.843238 11.2143 0.905795 10.9688 1.09575 10.8561Z" fill="black"/>
<path fill-rule="evenodd" clip-rule="evenodd" d="M11.3 0.5C11.5209 0.5 11.7 0.679086 11.7 0.9V2.5H13.4C13.6209 2.5 13.8 2.67909 13.8 2.9C13.8 3.12091 13.6209 3.3 13.4 3.3H11.3C11.0791 3.3 10.9 3.12091 10.9 2.9V0.9C10.9 0.679086 11.0791 0.5 11.3 0.5Z" fill="black"/>
</svg>
