<svg id="Layer_1" data-name="Layer 1" xmlns="http://www.w3.org/2000/svg" viewBox="0 0 1041.77 1035.45"><defs><style>.cls-1{fill:#c6c5c5;}.cls-2{fill:#f37421;}</style></defs><path class="cls-1" d="M1395.94,793.88C1391.13,608,1286.17,486.63,1260.1,458.07,1139.39,325.83,990,299.48,947.92,293.54c-46.56-6.58-178-18.68-317.25,55.69-26,13.9-142.74,79.13-216.85,221.07-52.3,100.16-58,189.94-59.06,216-4.46,109.54,28.4,193.43,47.81,234.55a416.25,416.25,0,0,1,101.82-21.93A359.38,359.38,0,0,1,465.57,888.1l281.82.57L872.82,607.42q91.54,222.32,183.09,444.65l121.5-216.84,113.07.84c-3.62,44.89-16.86,128.47-73.41,211.78a428.8,428.8,0,0,1-83.53,91.13,404.41,404.41,0,0,1-271.69,89.44A225.07,225.07,0,0,1,796,1317.85a528.29,528.29,0,0,0,124.88,4.22c98.52-8.4,170.12-42.59,198.27-57.37,120.6-63.28,182.72-157.9,204.2-194.07C1348,1029.17,1399.45,929.31,1395.94,793.88Zm-255.65-20.25-75.1,135Q971.13,679.57,877,450.48L709.13,826.8l-250.59.83a431.63,431.63,0,0,1,16.88-139.21C488,645.49,518.55,566.18,592.7,496.88A416.21,416.21,0,0,1,704.92,421.8c104.55-47.24,199.56-36.9,227.81-32.92,134.82,19,218,99.44,243,125.73,98.71,103.65,112.12,224.33,114.75,259Z" transform="translate(-354.34 -288.53)"/><rect class="cls-1" x="322.79" y="760.45" width="84.94" height="271.69" rx="14.91"/><path class="cls-2" d="M566.82,1119.67l62,.28a98.36,98.36,0,0,0-6.89-25.41,104.1,104.1,0,0,0-11.25-19.87c-14.83-20.18-36.43-29.58-43.87-32.63-42.9-17.55-82.18-4.59-91.69-1.12-6.56,2.39-14,5.17-22.5,11.25-26.44,18.9-32.91,48.11-34.17,54.56a87,87,0,0,0-.7,29.67c.93,6.12,3.89,25.55,17.43,39.33a92,92,0,0,0,16.69,12.94c1.66,1,4.25,2.52,7.88,4.31,12.31,6.07,25.71,10,36.18,12.56,11.75,2.91,33,7.44,35.07,7.88a90.31,90.31,0,0,1,14.06,4.31c5,2,7.45,2.93,10.12,5.06a25.07,25.07,0,0,1,9,14.44,25.33,25.33,0,0,1-1.68,14.62c-6.58,14.52-26.89,17.46-34.5,18.57a64.3,64.3,0,0,1-27.94-2.07c-6.09-1.89-18.08-5.78-27.19-17.43a48.53,48.53,0,0,1-9-19.13l-64.69,2.63a136.08,136.08,0,0,0,6.19,21.75,115.21,115.21,0,0,0,6.75,15,94,94,0,0,0,20.44,26.06c10.79,9.45,21.2,13.54,30.37,17.06,29.13,11.16,54.73,9.73,68.63,8.81,19.94-1.32,32.61-5.49,36.75-6.93a110.23,110.23,0,0,0,20.62-9.38c13.84-8.37,33.86-26.34,40.5-55.12,1.73-7.5,6.25-31.76-6.56-57-2.25-4.45-11.1-21.37-29.06-32.07a129.48,129.48,0,0,0-19.69-9,168.73,168.73,0,0,0-21.75-6.56c-47.08-11.12-59.43-11.27-66.37-22.12-1.24-1.94-5.2-8.74-3.75-16.88,1.62-9.14,9.07-14.31,10.87-15.56s7.14-4.59,18.75-5.25c9.19-.52,30.47-1.73,44.81,13.69A43.7,43.7,0,0,1,566.82,1119.67Z" transform="translate(-354.34 -288.53)"/></svg>