<svg id="Layer_1" data-name="Layer 1" xmlns="http://www.w3.org/2000/svg" viewBox="0 0 1041.77 1035.45"><defs><style>.cls-1{fill:#f27421;}</style></defs><path d="M1433.63,787.48c-4.82-185.87-109.77-307.25-135.85-335.81-120.71-132.24-270.12-158.6-312.18-164.54-46.56-6.57-178-18.68-317.25,55.69-26,13.91-142.74,79.13-216.85,221.07-52.3,100.17-58,190-59.06,216-4.46,109.55,28.4,193.43,47.81,234.56a417,417,0,0,1,101.82-21.94A359.43,359.43,0,0,1,503.25,881.7l281.82.56L910.5,601l183.1,444.66,121.5-216.85,113.06.85c-3.62,44.89-16.86,128.46-73.41,211.78a428.21,428.21,0,0,1-83.53,91.12A404.26,404.26,0,0,1,899.53,1222a225,225,0,0,1-65.81,89.44,528.29,528.29,0,0,0,124.88,4.22c98.53-8.41,170.12-42.6,198.28-57.38,120.59-63.28,182.71-157.9,204.19-194.06C1385.69,1022.76,1437.14,922.9,1433.63,787.48ZM1178,767.23l-75.09,135L914.72,444.07,746.81,820.39l-250.59.84A431.71,431.71,0,0,1,513.1,682c12.57-42.92,43.13-122.24,117.28-191.53A416.57,416.57,0,0,1,742.6,415.39c104.55-47.23,199.56-36.89,227.81-32.91,134.82,19,218,99.44,243,125.72,98.72,103.66,112.12,224.34,114.75,259Z" transform="translate(-392.03 -282.13)"/><rect x="322.79" y="760.45" width="84.94" height="271.69" rx="14.91"/><path class="cls-1" d="M604.51,1113.26l62,.29a98.36,98.36,0,0,0-6.89-25.41,104.36,104.36,0,0,0-11.25-19.88c-14.84-20.17-36.43-29.57-43.87-32.62-42.91-17.55-82.18-4.59-91.69-1.13-6.56,2.4-14,5.18-22.5,11.25-26.45,18.91-32.91,48.12-34.17,54.57a86.79,86.79,0,0,0-.71,29.67c.94,6.12,3.9,25.55,17.44,39.33a91.54,91.54,0,0,0,16.69,12.93c1.66,1,4.25,2.53,7.87,4.32,12.32,6.07,25.72,10,36.19,12.56,11.75,2.91,33,7.44,35.06,7.87a92.16,92.16,0,0,1,14.07,4.32c5,2,7.45,2.93,10.12,5.06a25.07,25.07,0,0,1,9,14.44,25.37,25.37,0,0,1-1.69,14.62c-6.57,14.52-26.89,17.46-34.5,18.56a64.16,64.16,0,0,1-27.93-2.06c-6.09-1.89-18.08-5.78-27.19-17.44a48.29,48.29,0,0,1-9-19.12L436.88,1228a133.44,133.44,0,0,0,6.19,21.75,114,114,0,0,0,6.75,15,93.81,93.81,0,0,0,20.44,26.07c10.79,9.45,21.2,13.54,30.37,17.06,29.12,11.16,54.73,9.73,68.63,8.81,19.94-1.32,32.6-5.49,36.75-6.94a109.36,109.36,0,0,0,20.62-9.37c13.83-8.37,33.86-26.34,40.5-55.13,1.73-7.49,6.25-31.75-6.56-57-2.26-4.44-11.1-21.36-29.06-32.06-7.16-4.26-15.66-7.47-19.69-9a169.21,169.21,0,0,0-21.75-6.56c-47.08-11.12-59.43-11.27-66.38-22.13-1.24-1.93-5.2-8.73-3.75-16.87,1.63-9.14,9.08-14.31,10.88-15.56s7.13-4.59,18.75-5.25c9.19-.52,30.47-1.73,44.81,13.68A43.83,43.83,0,0,1,604.51,1113.26Z" transform="translate(-392.03 -282.13)"/></svg>