<svg xmlns="http://www.w3.org/2000/svg" viewBox="0 0 1041.77 1035.45"><defs><style>.cls-1{fill:#f37421;}</style></defs><g id="Layer_2" data-name="Layer 2"><path class="cls-1" d="M1442.44,932c-4.82-185.87-109.77-307.25-135.85-335.81-120.71-132.24-270.12-158.6-312.18-164.54-46.56-6.57-178-18.68-317.25,55.69-26,13.91-142.74,79.13-216.85,221.07-52.3,100.17-58,190-59.06,216-4.46,109.55,28.4,193.43,47.81,234.56A417,417,0,0,1,550.88,1137a359.43,359.43,0,0,1-38.82-110.81l281.82.56L919.31,745.5l183.1,444.66,121.5-216.85,113.06.85c-3.62,44.89-16.86,128.46-73.41,211.78a428.21,428.21,0,0,1-83.53,91.12,404.26,404.26,0,0,1-271.69,89.44,225,225,0,0,1-65.81,89.44,528.29,528.29,0,0,0,124.88,4.22c98.53-8.41,170.12-42.6,198.28-57.38,120.59-63.28,182.71-157.9,204.19-194.06C1394.5,1167.25,1446,1067.39,1442.44,932Zm-255.66-20.25-75.09,135L923.53,588.56,755.62,964.88,505,965.72A431.71,431.71,0,0,1,521.91,826.5C534.48,783.58,565,704.26,639.19,635a416.57,416.57,0,0,1,112.22-75.09C856,512.65,951,523,979.22,527c134.82,19,218,99.44,243,125.72,98.72,103.66,112.12,224.34,114.75,259Z" transform="translate(-400.84 -426.61)"/><rect class="cls-1" x="322.79" y="760.45" width="84.94" height="271.69" rx="14.91"/><path class="cls-1" d="M613.31,1257.75l62,.28a98.88,98.88,0,0,0-6.89-25.41,105.65,105.65,0,0,0-11.25-19.87c-14.84-20.17-36.43-29.58-43.88-32.63-42.9-17.54-82.18-4.59-91.69-1.12-6.55,2.39-14,5.17-22.5,11.25-26.44,18.91-32.9,48.11-34.17,54.56a87,87,0,0,0-.7,29.67c.93,6.12,3.9,25.56,17.44,39.33a91.18,91.18,0,0,0,16.69,12.94c1.66,1,4.24,2.52,7.87,4.31,12.31,6.07,25.71,10,36.19,12.56,11.75,2.91,33,7.45,35.06,7.88a92.86,92.86,0,0,1,14.06,4.31c5,2,7.46,2.94,10.13,5.07a25.08,25.08,0,0,1,9,14.43,25.41,25.41,0,0,1-1.69,14.63c-6.57,14.51-26.89,17.46-34.5,18.56a64.19,64.19,0,0,1-27.94-2.06c-6.09-1.89-18.07-5.79-27.18-17.44a48.36,48.36,0,0,1-9-19.12l-64.69,2.62a133.72,133.72,0,0,0,6.19,21.75,115.62,115.62,0,0,0,6.74,15,94.36,94.36,0,0,0,20.44,26.06c10.79,9.45,21.2,13.55,30.38,17.07,29.12,11.16,54.73,9.73,68.62,8.81,20-1.32,32.61-5.5,36.75-6.94a109.38,109.38,0,0,0,20.63-9.37c13.83-8.38,33.86-26.34,40.5-55.13,1.73-7.49,6.25-31.76-6.56-57-2.26-4.44-11.1-21.36-29.07-32.06a128.06,128.06,0,0,0-19.69-9,169.22,169.22,0,0,0-21.74-6.57C551.8,1274,539.45,1273.86,532.5,1263c-1.24-1.93-5.2-8.74-3.75-16.88,1.63-9.14,9.08-14.31,10.87-15.56s7.14-4.59,18.76-5.25c9.19-.52,30.46-1.73,44.81,13.69A43.67,43.67,0,0,1,613.31,1257.75Z" transform="translate(-400.84 -426.61)"/></g></svg>